<?xml version="1.0" encoding="utf-8" standalone="no"?>
<!DOCTYPE svg PUBLIC "-//W3C//DTD SVG 1.1//EN"
  "http://www.w3.org/Graphics/SVG/1.1/DTD/svg11.dtd">
<svg xmlns:xlink="http://www.w3.org/1999/xlink" width="528.412188pt" height="325.986375pt" viewBox="0 0 528.412188 325.986375" xmlns="http://www.w3.org/2000/svg" version="1.1">
 <metadata>
  <rdf:RDF xmlns:dc="http://purl.org/dc/elements/1.1/" xmlns:cc="http://creativecommons.org/ns#" xmlns:rdf="http://www.w3.org/1999/02/22-rdf-syntax-ns#">
   <cc:Work>
    <dc:type rdf:resource="http://purl.org/dc/dcmitype/StillImage"/>
    <dc:date>2026-08-31T14:38:44.586487</dc:date>
    <dc:format>image/svg+xml</dc:format>
    <dc:creator>
     <cc:Agent>
      <dc:title>Matplotlib v3.10.1, https://matplotlib.org/</dc:title>
     </cc:Agent>
    </dc:creator>
   </cc:Work>
  </rdf:RDF>
 </metadata>
 <defs>
  <style type="text/css">*{stroke-linejoin: round; stroke-linecap: butt}</style>
 </defs>
 <g id="figure_1">
  <g id="patch_1">
   <path d="M 0 325.986375 
L 528.412188 325.986375 
L 528.412188 0 
L 0 0 
z
" style="fill: #ffffff"/>
  </g>
  <g id="axes_1">
   <g id="patch_2">
    <path d="M 53.751563 288.430125 
L 410.871562 288.430125 
L 410.871562 22.318125 
L 53.751563 22.318125 
z
" style="fill: #ffffff"/>
   </g>
   <g id="FillBetweenPolyCollection_1">
    <path d="M 69.98429 111.561187 
L 69.98429 154.221202 
L 83.511563 153.303525 
L 97.038835 187.54743 
L 110.566108 109.012581 
L 124.093381 184.062176 
L 137.620653 248.945343 
L 151.147926 237.717001 
L 164.675199 177.434177 
L 178.202472 128.987831 
L 191.729744 131.483966 
L 205.257017 132.458531 
L 218.78429 139.924322 
L 232.311562 130.814223 
L 245.838835 124.992642 
L 259.366108 129.866229 
L 272.893381 131.359159 
L 286.420653 136.446304 
L 299.947926 130.168178 
L 313.475199 120.66275 
L 327.002472 118.584006 
L 340.529744 119.171628 
L 354.057017 121.779407 
L 367.58429 120.955981 
L 381.111562 113.547972 
L 394.638835 112.268102 
L 394.638835 71.144649 
L 394.638835 71.144649 
L 381.111562 68.560085 
L 367.58429 94.613115 
L 354.057017 115.437479 
L 340.529744 107.014961 
L 327.002472 114.195437 
L 313.475199 117.548485 
L 299.947926 128.861324 
L 286.420653 124.843362 
L 272.893381 111.58731 
L 259.366108 119.998154 
L 245.838835 118.698441 
L 232.311562 112.297206 
L 218.78429 120.058356 
L 205.257017 127.571123 
L 191.729744 119.343717 
L 178.202472 127.149206 
L 164.675199 126.768909 
L 151.147926 135.359196 
L 137.620653 245.951445 
L 124.093381 169.963604 
L 110.566108 108.658401 
L 97.038835 155.136492 
L 83.511563 142.451349 
L 69.98429 111.561187 
z
" clip-path="url(#pa3f602d9a2)" style="fill: #66c2a5; fill-opacity: 0.2"/>
   </g>
   <g id="FillBetweenPolyCollection_2">
    <path d="M 69.98429 146.314487 
L 69.98429 176.332836 
L 83.511563 126.640005 
L 97.038835 97.587007 
L 110.566108 102.566055 
L 124.093381 173.722505 
L 137.620653 242.529208 
L 151.147926 221.152622 
L 164.675199 179.314235 
L 178.202472 151.668666 
L 191.729744 154.919549 
L 205.257017 140.960403 
L 218.78429 95.455213 
L 232.311562 108.114137 
L 245.838835 131.843898 
L 259.366108 117.755631 
L 272.893381 116.944445 
L 286.420653 112.300424 
L 299.947926 106.490127 
L 313.475199 107.796351 
L 327.002472 120.584488 
L 340.529744 135.063984 
L 354.057017 120.822499 
L 367.58429 110.091329 
L 381.111562 123.358784 
L 394.638835 129.025179 
L 394.638835 62.1207 
L 394.638835 62.1207 
L 381.111562 66.767098 
L 367.58429 85.817322 
L 354.057017 112.339645 
L 340.529744 126.96638 
L 327.002472 109.590158 
L 313.475199 97.938203 
L 299.947926 100.554926 
L 286.420653 98.081485 
L 272.893381 98.790151 
L 259.366108 117.699886 
L 245.838835 124.916935 
L 232.311562 97.320736 
L 218.78429 93.678346 
L 205.257017 131.44312 
L 191.729744 139.083437 
L 178.202472 116.067388 
L 164.675199 132.245082 
L 151.147926 177.939693 
L 137.620653 222.632984 
L 124.093381 156.65113 
L 110.566108 98.241441 
L 97.038835 81.746028 
L 83.511563 116.30805 
L 69.98429 146.314487 
z
" clip-path="url(#pa3f602d9a2)" style="fill: #fc8d62; fill-opacity: 0.2"/>
   </g>
   <g id="FillBetweenPolyCollection_3">
    <path d="M 69.98429 177.973229 
L 69.98429 182.229833 
L 83.511563 159.777898 
L 97.038835 114.671377 
L 110.566108 130.471297 
L 124.093381 154.714439 
L 137.620653 145.231994 
L 151.147926 143.467453 
L 164.675199 141.545277 
L 178.202472 140.084156 
L 191.729744 152.629353 
L 205.257017 144.755161 
L 218.78429 129.676046 
L 232.311562 137.347807 
L 245.838835 133.512003 
L 259.366108 119.968419 
L 272.893381 117.440985 
L 286.420653 130.447564 
L 299.947926 133.377688 
L 313.475199 125.573757 
L 327.002472 116.018038 
L 340.529744 129.941214 
L 354.057017 141.903608 
L 367.58429 96.523689 
L 381.111562 46.261524 
L 394.638835 53.406893 
L 394.638835 36.91998 
L 394.638835 36.91998 
L 381.111562 38.44484 
L 367.58429 70.664963 
L 354.057017 116.768706 
L 340.529744 118.824608 
L 327.002472 114.742876 
L 313.475199 116.528205 
L 299.947926 124.497366 
L 286.420653 107.44347 
L 272.893381 106.140536 
L 259.366108 114.998157 
L 245.838835 117.622246 
L 232.311562 117.575386 
L 218.78429 116.29032 
L 205.257017 138.913409 
L 191.729744 143.113406 
L 178.202472 131.053686 
L 164.675199 130.95166 
L 151.147926 121.190523 
L 137.620653 135.535068 
L 124.093381 128.902295 
L 110.566108 124.920249 
L 97.038835 112.893747 
L 83.511563 147.03066 
L 69.98429 177.973229 
z
" clip-path="url(#pa3f602d9a2)" style="fill: #8da0cb; fill-opacity: 0.2"/>
   </g>
   <g id="FillBetweenPolyCollection_4">
    <path d="M 69.98429 95.102437 
L 69.98429 105.150919 
L 83.511563 113.637149 
L 97.038835 94.394749 
L 110.566108 128.609132 
L 124.093381 137.260628 
L 137.620653 149.647697 
L 151.147926 133.928446 
L 164.675199 122.242265 
L 178.202472 124.66908 
L 191.729744 133.587055 
L 205.257017 144.167175 
L 218.78429 143.149389 
L 232.311562 136.055924 
L 245.838835 120.588079 
L 259.366108 118.1447 
L 272.893381 112.603925 
L 286.420653 108.697622 
L 299.947926 131.41398 
L 313.475199 139.553412 
L 327.002472 133.567201 
L 340.529744 127.630745 
L 354.057017 138.990364 
L 367.58429 150.003953 
L 381.111562 148.780614 
L 394.638835 149.647003 
L 394.638835 114.556591 
L 394.638835 114.556591 
L 381.111562 127.70573 
L 367.58429 139.442123 
L 354.057017 123.951194 
L 340.529744 113.62104 
L 327.002472 121.150805 
L 313.475199 123.96672 
L 299.947926 113.688845 
L 286.420653 107.442218 
L 272.893381 110.610284 
L 259.366108 111.206092 
L 245.838835 113.682211 
L 232.311562 111.896843 
L 218.78429 121.574328 
L 205.257017 132.106152 
L 191.729744 118.118344 
L 178.202472 118.301283 
L 164.675199 113.607831 
L 151.147926 125.373334 
L 137.620653 142.559227 
L 124.093381 123.993265 
L 110.566108 127.577852 
L 97.038835 94.113901 
L 83.511563 111.544428 
L 69.98429 95.102437 
z
" clip-path="url(#pa3f602d9a2)" style="fill: #e78ac3; fill-opacity: 0.2"/>
   </g>
   <g id="FillBetweenPolyCollection_5">
    <path d="M 69.98429 81.646017 
L 69.98429 87.725449 
L 83.511563 120.537395 
L 97.038835 92.848599 
L 110.566108 133.162232 
L 124.093381 133.407792 
L 137.620653 133.644717 
L 151.147926 116.311331 
L 164.675199 126.55875 
L 178.202472 129.062055 
L 191.729744 145.401273 
L 205.257017 135.051437 
L 218.78429 148.317549 
L 232.311562 141.567226 
L 245.838835 118.402806 
L 259.366108 108.11751 
L 272.893381 117.746599 
L 286.420653 111.471653 
L 299.947926 122.475538 
L 313.475199 154.491904 
L 327.002472 148.434728 
L 340.529744 126.049061 
L 354.057017 126.614873 
L 367.58429 128.678218 
L 381.111562 149.125835 
L 394.638835 147.994406 
L 394.638835 146.488341 
L 394.638835 146.488341 
L 381.111562 135.589866 
L 367.58429 125.942999 
L 354.057017 105.910921 
L 340.529744 111.034994 
L 327.002472 128.85684 
L 313.475199 135.101583 
L 299.947926 109.751114 
L 286.420653 110.944081 
L 272.893381 115.676214 
L 259.366108 94.212422 
L 245.838835 103.684359 
L 232.311562 127.904685 
L 218.78429 120.684726 
L 205.257017 133.265216 
L 191.729744 131.293633 
L 178.202472 121.148581 
L 164.675199 103.088079 
L 151.147926 116.026689 
L 137.620653 130.427935 
L 124.093381 128.121484 
L 110.566108 131.744939 
L 97.038835 79.258269 
L 83.511563 106.218994 
L 69.98429 81.646017 
z
" clip-path="url(#pa3f602d9a2)" style="fill: #a6d854; fill-opacity: 0.2"/>
   </g>
   <g id="matplotlib.axis_1">
    <g id="xtick_1">
     <g id="line2d_1">
      <defs>
       <path id="mb45e868ee4" d="M 0 0 
L 0 3.5 
" style="stroke: #000000; stroke-width: 0.8"/>
      </defs>
      <g>
       <use xlink:href="#mb45e868ee4" x="69.98429" y="288.430125" style="stroke: #000000; stroke-width: 0.8"/>
      </g>
     </g>
     <g id="text_1">
      <!-- 0 -->
      <g transform="translate(66.80304 303.028562) scale(0.1 -0.1)">
       <defs>
        <path id="DejaVuSans-30" d="M 2034 4250 
Q 1547 4250 1301 3770 
Q 1056 3291 1056 2328 
Q 1056 1369 1301 889 
Q 1547 409 2034 409 
Q 2525 409 2770 889 
Q 3016 1369 3016 2328 
Q 3016 3291 2770 3770 
Q 2525 4250 2034 4250 
z
M 2034 4750 
Q 2819 4750 3233 4129 
Q 3647 3509 3647 2328 
Q 3647 1150 3233 529 
Q 2819 -91 2034 -91 
Q 1250 -91 836 529 
Q 422 1150 422 2328 
Q 422 3509 836 4129 
Q 1250 4750 2034 4750 
z
" transform="scale(0.015625)"/>
       </defs>
       <use xlink:href="#DejaVuSans-30"/>
      </g>
     </g>
    </g>
    <g id="xtick_2">
     <g id="line2d_2">
      <g>
       <use xlink:href="#mb45e868ee4" x="134.915199" y="288.430125" style="stroke: #000000; stroke-width: 0.8"/>
      </g>
     </g>
     <g id="text_2">
      <!-- 20 -->
      <g transform="translate(128.552699 303.028562) scale(0.1 -0.1)">
       <defs>
        <path id="DejaVuSans-32" d="M 1228 531 
L 3431 531 
L 3431 0 
L 469 0 
L 469 531 
Q 828 903 1448 1529 
Q 2069 2156 2228 2338 
Q 2531 2678 2651 2914 
Q 2772 3150 2772 3378 
Q 2772 3750 2511 3984 
Q 2250 4219 1831 4219 
Q 1534 4219 1204 4116 
Q 875 4013 500 3803 
L 500 4441 
Q 881 4594 1212 4672 
Q 1544 4750 1819 4750 
Q 2544 4750 2975 4387 
Q 3406 4025 3406 3419 
Q 3406 3131 3298 2873 
Q 3191 2616 2906 2266 
Q 2828 2175 2409 1742 
Q 1991 1309 1228 531 
z
" transform="scale(0.015625)"/>
       </defs>
       <use xlink:href="#DejaVuSans-32"/>
       <use xlink:href="#DejaVuSans-30" transform="translate(63.623047 0)"/>
      </g>
     </g>
    </g>
    <g id="xtick_3">
     <g id="line2d_3">
      <g>
       <use xlink:href="#mb45e868ee4" x="199.846108" y="288.430125" style="stroke: #000000; stroke-width: 0.8"/>
      </g>
     </g>
     <g id="text_3">
      <!-- 40 -->
      <g transform="translate(193.483608 303.028562) scale(0.1 -0.1)">
       <defs>
        <path id="DejaVuSans-34" d="M 2419 4116 
L 825 1625 
L 2419 1625 
L 2419 4116 
z
M 2253 4666 
L 3047 4666 
L 3047 1625 
L 3713 1625 
L 3713 1100 
L 3047 1100 
L 3047 0 
L 2419 0 
L 2419 1100 
L 313 1100 
L 313 1709 
L 2253 4666 
z
" transform="scale(0.015625)"/>
       </defs>
       <use xlink:href="#DejaVuSans-34"/>
       <use xlink:href="#DejaVuSans-30" transform="translate(63.623047 0)"/>
      </g>
     </g>
    </g>
    <g id="xtick_4">
     <g id="line2d_4">
      <g>
       <use xlink:href="#mb45e868ee4" x="264.777017" y="288.430125" style="stroke: #000000; stroke-width: 0.8"/>
      </g>
     </g>
     <g id="text_4">
      <!-- 60 -->
      <g transform="translate(258.414517 303.028562) scale(0.1 -0.1)">
       <defs>
        <path id="DejaVuSans-36" d="M 2113 2584 
Q 1688 2584 1439 2293 
Q 1191 2003 1191 1497 
Q 1191 994 1439 701 
Q 1688 409 2113 409 
Q 2538 409 2786 701 
Q 3034 994 3034 1497 
Q 3034 2003 2786 2293 
Q 2538 2584 2113 2584 
z
M 3366 4563 
L 3366 3988 
Q 3128 4100 2886 4159 
Q 2644 4219 2406 4219 
Q 1781 4219 1451 3797 
Q 1122 3375 1075 2522 
Q 1259 2794 1537 2939 
Q 1816 3084 2150 3084 
Q 2853 3084 3261 2657 
Q 3669 2231 3669 1497 
Q 3669 778 3244 343 
Q 2819 -91 2113 -91 
Q 1303 -91 875 529 
Q 447 1150 447 2328 
Q 447 3434 972 4092 
Q 1497 4750 2381 4750 
Q 2619 4750 2861 4703 
Q 3103 4656 3366 4563 
z
" transform="scale(0.015625)"/>
       </defs>
       <use xlink:href="#DejaVuSans-36"/>
       <use xlink:href="#DejaVuSans-30" transform="translate(63.623047 0)"/>
      </g>
     </g>
    </g>
    <g id="xtick_5">
     <g id="line2d_5">
      <g>
       <use xlink:href="#mb45e868ee4" x="329.707926" y="288.430125" style="stroke: #000000; stroke-width: 0.8"/>
      </g>
     </g>
     <g id="text_5">
      <!-- 80 -->
      <g transform="translate(323.345426 303.028562) scale(0.1 -0.1)">
       <defs>
        <path id="DejaVuSans-38" d="M 2034 2216 
Q 1584 2216 1326 1975 
Q 1069 1734 1069 1313 
Q 1069 891 1326 650 
Q 1584 409 2034 409 
Q 2484 409 2743 651 
Q 3003 894 3003 1313 
Q 3003 1734 2745 1975 
Q 2488 2216 2034 2216 
z
M 1403 2484 
Q 997 2584 770 2862 
Q 544 3141 544 3541 
Q 544 4100 942 4425 
Q 1341 4750 2034 4750 
Q 2731 4750 3128 4425 
Q 3525 4100 3525 3541 
Q 3525 3141 3298 2862 
Q 3072 2584 2669 2484 
Q 3125 2378 3379 2068 
Q 3634 1759 3634 1313 
Q 3634 634 3220 271 
Q 2806 -91 2034 -91 
Q 1263 -91 848 271 
Q 434 634 434 1313 
Q 434 1759 690 2068 
Q 947 2378 1403 2484 
z
M 1172 3481 
Q 1172 3119 1398 2916 
Q 1625 2713 2034 2713 
Q 2441 2713 2670 2916 
Q 2900 3119 2900 3481 
Q 2900 3844 2670 4047 
Q 2441 4250 2034 4250 
Q 1625 4250 1398 4047 
Q 1172 3844 1172 3481 
z
" transform="scale(0.015625)"/>
       </defs>
       <use xlink:href="#DejaVuSans-38"/>
       <use xlink:href="#DejaVuSans-30" transform="translate(63.623047 0)"/>
      </g>
     </g>
    </g>
    <g id="xtick_6">
     <g id="line2d_6">
      <g>
       <use xlink:href="#mb45e868ee4" x="394.638835" y="288.430125" style="stroke: #000000; stroke-width: 0.8"/>
      </g>
     </g>
     <g id="text_6">
      <!-- 100 -->
      <g transform="translate(385.095085 303.028562) scale(0.1 -0.1)">
       <defs>
        <path id="DejaVuSans-31" d="M 794 531 
L 1825 531 
L 1825 4091 
L 703 3866 
L 703 4441 
L 1819 4666 
L 2450 4666 
L 2450 531 
L 3481 531 
L 3481 0 
L 794 0 
L 794 531 
z
" transform="scale(0.015625)"/>
       </defs>
       <use xlink:href="#DejaVuSans-31"/>
       <use xlink:href="#DejaVuSans-30" transform="translate(63.623047 0)"/>
       <use xlink:href="#DejaVuSans-30" transform="translate(127.246094 0)"/>
      </g>
     </g>
    </g>
    <g id="text_7">
     <!-- Percentage -->
     <g transform="translate(204.188906 316.706687) scale(0.1 -0.1)">
      <defs>
       <path id="DejaVuSans-50" d="M 1259 4147 
L 1259 2394 
L 2053 2394 
Q 2494 2394 2734 2622 
Q 2975 2850 2975 3272 
Q 2975 3691 2734 3919 
Q 2494 4147 2053 4147 
L 1259 4147 
z
M 628 4666 
L 2053 4666 
Q 2838 4666 3239 4311 
Q 3641 3956 3641 3272 
Q 3641 2581 3239 2228 
Q 2838 1875 2053 1875 
L 1259 1875 
L 1259 0 
L 628 0 
L 628 4666 
z
" transform="scale(0.015625)"/>
       <path id="DejaVuSans-65" d="M 3597 1894 
L 3597 1613 
L 953 1613 
Q 991 1019 1311 708 
Q 1631 397 2203 397 
Q 2534 397 2845 478 
Q 3156 559 3463 722 
L 3463 178 
Q 3153 47 2828 -22 
Q 2503 -91 2169 -91 
Q 1331 -91 842 396 
Q 353 884 353 1716 
Q 353 2575 817 3079 
Q 1281 3584 2069 3584 
Q 2775 3584 3186 3129 
Q 3597 2675 3597 1894 
z
M 3022 2063 
Q 3016 2534 2758 2815 
Q 2500 3097 2075 3097 
Q 1594 3097 1305 2825 
Q 1016 2553 972 2059 
L 3022 2063 
z
" transform="scale(0.015625)"/>
       <path id="DejaVuSans-72" d="M 2631 2963 
Q 2534 3019 2420 3045 
Q 2306 3072 2169 3072 
Q 1681 3072 1420 2755 
Q 1159 2438 1159 1844 
L 1159 0 
L 581 0 
L 581 3500 
L 1159 3500 
L 1159 2956 
Q 1341 3275 1631 3429 
Q 1922 3584 2338 3584 
Q 2397 3584 2469 3576 
Q 2541 3569 2628 3553 
L 2631 2963 
z
" transform="scale(0.015625)"/>
       <path id="DejaVuSans-63" d="M 3122 3366 
L 3122 2828 
Q 2878 2963 2633 3030 
Q 2388 3097 2138 3097 
Q 1578 3097 1268 2742 
Q 959 2388 959 1747 
Q 959 1106 1268 751 
Q 1578 397 2138 397 
Q 2388 397 2633 464 
Q 2878 531 3122 666 
L 3122 134 
Q 2881 22 2623 -34 
Q 2366 -91 2075 -91 
Q 1284 -91 818 406 
Q 353 903 353 1747 
Q 353 2603 823 3093 
Q 1294 3584 2113 3584 
Q 2378 3584 2631 3529 
Q 2884 3475 3122 3366 
z
" transform="scale(0.015625)"/>
       <path id="DejaVuSans-6e" d="M 3513 2113 
L 3513 0 
L 2938 0 
L 2938 2094 
Q 2938 2591 2744 2837 
Q 2550 3084 2163 3084 
Q 1697 3084 1428 2787 
Q 1159 2491 1159 1978 
L 1159 0 
L 581 0 
L 581 3500 
L 1159 3500 
L 1159 2956 
Q 1366 3272 1645 3428 
Q 1925 3584 2291 3584 
Q 2894 3584 3203 3211 
Q 3513 2838 3513 2113 
z
" transform="scale(0.015625)"/>
       <path id="DejaVuSans-74" d="M 1172 4494 
L 1172 3500 
L 2356 3500 
L 2356 3053 
L 1172 3053 
L 1172 1153 
Q 1172 725 1289 603 
Q 1406 481 1766 481 
L 2356 481 
L 2356 0 
L 1766 0 
Q 1100 0 847 248 
Q 594 497 594 1153 
L 594 3053 
L 172 3053 
L 172 3500 
L 594 3500 
L 594 4494 
L 1172 4494 
z
" transform="scale(0.015625)"/>
       <path id="DejaVuSans-61" d="M 2194 1759 
Q 1497 1759 1228 1600 
Q 959 1441 959 1056 
Q 959 750 1161 570 
Q 1363 391 1709 391 
Q 2188 391 2477 730 
Q 2766 1069 2766 1631 
L 2766 1759 
L 2194 1759 
z
M 3341 1997 
L 3341 0 
L 2766 0 
L 2766 531 
Q 2569 213 2275 61 
Q 1981 -91 1556 -91 
Q 1019 -91 701 211 
Q 384 513 384 1019 
Q 384 1609 779 1909 
Q 1175 2209 1959 2209 
L 2766 2209 
L 2766 2266 
Q 2766 2663 2505 2880 
Q 2244 3097 1772 3097 
Q 1472 3097 1187 3025 
Q 903 2953 641 2809 
L 641 3341 
Q 956 3463 1253 3523 
Q 1550 3584 1831 3584 
Q 2591 3584 2966 3190 
Q 3341 2797 3341 1997 
z
" transform="scale(0.015625)"/>
       <path id="DejaVuSans-67" d="M 2906 1791 
Q 2906 2416 2648 2759 
Q 2391 3103 1925 3103 
Q 1463 3103 1205 2759 
Q 947 2416 947 1791 
Q 947 1169 1205 825 
Q 1463 481 1925 481 
Q 2391 481 2648 825 
Q 2906 1169 2906 1791 
z
M 3481 434 
Q 3481 -459 3084 -895 
Q 2688 -1331 1869 -1331 
Q 1566 -1331 1297 -1286 
Q 1028 -1241 775 -1147 
L 775 -588 
Q 1028 -725 1275 -790 
Q 1522 -856 1778 -856 
Q 2344 -856 2625 -561 
Q 2906 -266 2906 331 
L 2906 616 
Q 2728 306 2450 153 
Q 2172 0 1784 0 
Q 1141 0 747 490 
Q 353 981 353 1791 
Q 353 2603 747 3093 
Q 1141 3584 1784 3584 
Q 2172 3584 2450 3431 
Q 2728 3278 2906 2969 
L 2906 3500 
L 3481 3500 
L 3481 434 
z
" transform="scale(0.015625)"/>
      </defs>
      <use xlink:href="#DejaVuSans-50"/>
      <use xlink:href="#DejaVuSans-65" transform="translate(56.677734 0)"/>
      <use xlink:href="#DejaVuSans-72" transform="translate(118.201172 0)"/>
      <use xlink:href="#DejaVuSans-63" transform="translate(157.064453 0)"/>
      <use xlink:href="#DejaVuSans-65" transform="translate(212.044922 0)"/>
      <use xlink:href="#DejaVuSans-6e" transform="translate(273.568359 0)"/>
      <use xlink:href="#DejaVuSans-74" transform="translate(336.947266 0)"/>
      <use xlink:href="#DejaVuSans-61" transform="translate(376.15625 0)"/>
      <use xlink:href="#DejaVuSans-67" transform="translate(437.435547 0)"/>
      <use xlink:href="#DejaVuSans-65" transform="translate(500.912109 0)"/>
     </g>
    </g>
   </g>
   <g id="matplotlib.axis_2">
    <g id="ytick_1">
     <g id="line2d_7">
      <defs>
       <path id="mb253a4606e" d="M 0 0 
L -3.5 0 
" style="stroke: #000000; stroke-width: 0.8"/>
      </defs>
      <g>
       <use xlink:href="#mb253a4606e" x="53.751563" y="288.430125" style="stroke: #000000; stroke-width: 0.8"/>
      </g>
     </g>
     <g id="text_8">
      <!-- -0.25 -->
      <g transform="translate(20.878125 292.229344) scale(0.1 -0.1)">
       <defs>
        <path id="DejaVuSans-2d" d="M 313 2009 
L 1997 2009 
L 1997 1497 
L 313 1497 
L 313 2009 
z
" transform="scale(0.015625)"/>
        <path id="DejaVuSans-2e" d="M 684 794 
L 1344 794 
L 1344 0 
L 684 0 
L 684 794 
z
" transform="scale(0.015625)"/>
        <path id="DejaVuSans-35" d="M 691 4666 
L 3169 4666 
L 3169 4134 
L 1269 4134 
L 1269 2991 
Q 1406 3038 1543 3061 
Q 1681 3084 1819 3084 
Q 2600 3084 3056 2656 
Q 3513 2228 3513 1497 
Q 3513 744 3044 326 
Q 2575 -91 1722 -91 
Q 1428 -91 1123 -41 
Q 819 9 494 109 
L 494 744 
Q 775 591 1075 516 
Q 1375 441 1709 441 
Q 2250 441 2565 725 
Q 2881 1009 2881 1497 
Q 2881 1984 2565 2268 
Q 2250 2553 1709 2553 
Q 1456 2553 1204 2497 
Q 953 2441 691 2322 
L 691 4666 
z
" transform="scale(0.015625)"/>
       </defs>
       <use xlink:href="#DejaVuSans-2d"/>
       <use xlink:href="#DejaVuSans-30" transform="translate(36.083984 0)"/>
       <use xlink:href="#DejaVuSans-2e" transform="translate(99.707031 0)"/>
       <use xlink:href="#DejaVuSans-32" transform="translate(131.494141 0)"/>
       <use xlink:href="#DejaVuSans-35" transform="translate(195.117188 0)"/>
      </g>
     </g>
    </g>
    <g id="ytick_2">
     <g id="line2d_8">
      <g>
       <use xlink:href="#mb253a4606e" x="53.751563" y="255.166125" style="stroke: #000000; stroke-width: 0.8"/>
      </g>
     </g>
     <g id="text_9">
      <!-- -0.2 -->
      <g transform="translate(27.240625 258.965344) scale(0.1 -0.1)">
       <use xlink:href="#DejaVuSans-2d"/>
       <use xlink:href="#DejaVuSans-30" transform="translate(36.083984 0)"/>
       <use xlink:href="#DejaVuSans-2e" transform="translate(99.707031 0)"/>
       <use xlink:href="#DejaVuSans-32" transform="translate(131.494141 0)"/>
      </g>
     </g>
    </g>
    <g id="ytick_3">
     <g id="line2d_9">
      <g>
       <use xlink:href="#mb253a4606e" x="53.751563" y="221.902125" style="stroke: #000000; stroke-width: 0.8"/>
      </g>
     </g>
     <g id="text_10">
      <!-- -0.15 -->
      <g transform="translate(20.878125 225.701344) scale(0.1 -0.1)">
       <use xlink:href="#DejaVuSans-2d"/>
       <use xlink:href="#DejaVuSans-30" transform="translate(36.083984 0)"/>
       <use xlink:href="#DejaVuSans-2e" transform="translate(99.707031 0)"/>
       <use xlink:href="#DejaVuSans-31" transform="translate(131.494141 0)"/>
       <use xlink:href="#DejaVuSans-35" transform="translate(195.117188 0)"/>
      </g>
     </g>
    </g>
    <g id="ytick_4">
     <g id="line2d_10">
      <g>
       <use xlink:href="#mb253a4606e" x="53.751563" y="188.638125" style="stroke: #000000; stroke-width: 0.8"/>
      </g>
     </g>
     <g id="text_11">
      <!-- -0.1 -->
      <g transform="translate(27.240625 192.437344) scale(0.1 -0.1)">
       <use xlink:href="#DejaVuSans-2d"/>
       <use xlink:href="#DejaVuSans-30" transform="translate(36.083984 0)"/>
       <use xlink:href="#DejaVuSans-2e" transform="translate(99.707031 0)"/>
       <use xlink:href="#DejaVuSans-31" transform="translate(131.494141 0)"/>
      </g>
     </g>
    </g>
    <g id="ytick_5">
     <g id="line2d_11">
      <g>
       <use xlink:href="#mb253a4606e" x="53.751563" y="155.374125" style="stroke: #000000; stroke-width: 0.8"/>
      </g>
     </g>
     <g id="text_12">
      <!-- -0.05 -->
      <g transform="translate(20.878125 159.173344) scale(0.1 -0.1)">
       <use xlink:href="#DejaVuSans-2d"/>
       <use xlink:href="#DejaVuSans-30" transform="translate(36.083984 0)"/>
       <use xlink:href="#DejaVuSans-2e" transform="translate(99.707031 0)"/>
       <use xlink:href="#DejaVuSans-30" transform="translate(131.494141 0)"/>
       <use xlink:href="#DejaVuSans-35" transform="translate(195.117188 0)"/>
      </g>
     </g>
    </g>
    <g id="ytick_6">
     <g id="line2d_12">
      <g>
       <use xlink:href="#mb253a4606e" x="53.751563" y="122.110125" style="stroke: #000000; stroke-width: 0.8"/>
      </g>
     </g>
     <g id="text_13">
      <!-- 0.0 -->
      <g transform="translate(30.848438 125.909344) scale(0.1 -0.1)">
       <use xlink:href="#DejaVuSans-30"/>
       <use xlink:href="#DejaVuSans-2e" transform="translate(63.623047 0)"/>
       <use xlink:href="#DejaVuSans-30" transform="translate(95.410156 0)"/>
      </g>
     </g>
    </g>
    <g id="ytick_7">
     <g id="line2d_13">
      <g>
       <use xlink:href="#mb253a4606e" x="53.751563" y="88.846125" style="stroke: #000000; stroke-width: 0.8"/>
      </g>
     </g>
     <g id="text_14">
      <!-- 0.05 -->
      <g transform="translate(24.485938 92.645344) scale(0.1 -0.1)">
       <use xlink:href="#DejaVuSans-30"/>
       <use xlink:href="#DejaVuSans-2e" transform="translate(63.623047 0)"/>
       <use xlink:href="#DejaVuSans-30" transform="translate(95.410156 0)"/>
       <use xlink:href="#DejaVuSans-35" transform="translate(159.033203 0)"/>
      </g>
     </g>
    </g>
    <g id="ytick_8">
     <g id="line2d_14">
      <g>
       <use xlink:href="#mb253a4606e" x="53.751563" y="55.582125" style="stroke: #000000; stroke-width: 0.8"/>
      </g>
     </g>
     <g id="text_15">
      <!-- 0.1 -->
      <g transform="translate(30.848438 59.381344) scale(0.1 -0.1)">
       <use xlink:href="#DejaVuSans-30"/>
       <use xlink:href="#DejaVuSans-2e" transform="translate(63.623047 0)"/>
       <use xlink:href="#DejaVuSans-31" transform="translate(95.410156 0)"/>
      </g>
     </g>
    </g>
    <g id="ytick_9">
     <g id="line2d_15">
      <g>
       <use xlink:href="#mb253a4606e" x="53.751563" y="22.318125" style="stroke: #000000; stroke-width: 0.8"/>
      </g>
     </g>
     <g id="text_16">
      <!-- 0.15 -->
      <g transform="translate(24.485938 26.117344) scale(0.1 -0.1)">
       <use xlink:href="#DejaVuSans-30"/>
       <use xlink:href="#DejaVuSans-2e" transform="translate(63.623047 0)"/>
       <use xlink:href="#DejaVuSans-31" transform="translate(95.410156 0)"/>
       <use xlink:href="#DejaVuSans-35" transform="translate(159.033203 0)"/>
      </g>
     </g>
    </g>
    <g id="text_17">
     <!-- Acceleration (x in cm / 10ms) -->
     <g transform="translate(14.798437 228.949906) rotate(-90) scale(0.1 -0.1)">
      <defs>
       <path id="DejaVuSans-41" d="M 2188 4044 
L 1331 1722 
L 3047 1722 
L 2188 4044 
z
M 1831 4666 
L 2547 4666 
L 4325 0 
L 3669 0 
L 3244 1197 
L 1141 1197 
L 716 0 
L 50 0 
L 1831 4666 
z
" transform="scale(0.015625)"/>
       <path id="DejaVuSans-6c" d="M 603 4863 
L 1178 4863 
L 1178 0 
L 603 0 
L 603 4863 
z
" transform="scale(0.015625)"/>
       <path id="DejaVuSans-69" d="M 603 3500 
L 1178 3500 
L 1178 0 
L 603 0 
L 603 3500 
z
M 603 4863 
L 1178 4863 
L 1178 4134 
L 603 4134 
L 603 4863 
z
" transform="scale(0.015625)"/>
       <path id="DejaVuSans-6f" d="M 1959 3097 
Q 1497 3097 1228 2736 
Q 959 2375 959 1747 
Q 959 1119 1226 758 
Q 1494 397 1959 397 
Q 2419 397 2687 759 
Q 2956 1122 2956 1747 
Q 2956 2369 2687 2733 
Q 2419 3097 1959 3097 
z
M 1959 3584 
Q 2709 3584 3137 3096 
Q 3566 2609 3566 1747 
Q 3566 888 3137 398 
Q 2709 -91 1959 -91 
Q 1206 -91 779 398 
Q 353 888 353 1747 
Q 353 2609 779 3096 
Q 1206 3584 1959 3584 
z
" transform="scale(0.015625)"/>
       <path id="DejaVuSans-20" transform="scale(0.015625)"/>
       <path id="DejaVuSans-28" d="M 1984 4856 
Q 1566 4138 1362 3434 
Q 1159 2731 1159 2009 
Q 1159 1288 1364 580 
Q 1569 -128 1984 -844 
L 1484 -844 
Q 1016 -109 783 600 
Q 550 1309 550 2009 
Q 550 2706 781 3412 
Q 1013 4119 1484 4856 
L 1984 4856 
z
" transform="scale(0.015625)"/>
       <path id="DejaVuSans-78" d="M 3513 3500 
L 2247 1797 
L 3578 0 
L 2900 0 
L 1881 1375 
L 863 0 
L 184 0 
L 1544 1831 
L 300 3500 
L 978 3500 
L 1906 2253 
L 2834 3500 
L 3513 3500 
z
" transform="scale(0.015625)"/>
       <path id="DejaVuSans-6d" d="M 3328 2828 
Q 3544 3216 3844 3400 
Q 4144 3584 4550 3584 
Q 5097 3584 5394 3201 
Q 5691 2819 5691 2113 
L 5691 0 
L 5113 0 
L 5113 2094 
Q 5113 2597 4934 2840 
Q 4756 3084 4391 3084 
Q 3944 3084 3684 2787 
Q 3425 2491 3425 1978 
L 3425 0 
L 2847 0 
L 2847 2094 
Q 2847 2600 2669 2842 
Q 2491 3084 2119 3084 
Q 1678 3084 1418 2786 
Q 1159 2488 1159 1978 
L 1159 0 
L 581 0 
L 581 3500 
L 1159 3500 
L 1159 2956 
Q 1356 3278 1631 3431 
Q 1906 3584 2284 3584 
Q 2666 3584 2933 3390 
Q 3200 3197 3328 2828 
z
" transform="scale(0.015625)"/>
       <path id="DejaVuSans-2f" d="M 1625 4666 
L 2156 4666 
L 531 -594 
L 0 -594 
L 1625 4666 
z
" transform="scale(0.015625)"/>
       <path id="DejaVuSans-73" d="M 2834 3397 
L 2834 2853 
Q 2591 2978 2328 3040 
Q 2066 3103 1784 3103 
Q 1356 3103 1142 2972 
Q 928 2841 928 2578 
Q 928 2378 1081 2264 
Q 1234 2150 1697 2047 
L 1894 2003 
Q 2506 1872 2764 1633 
Q 3022 1394 3022 966 
Q 3022 478 2636 193 
Q 2250 -91 1575 -91 
Q 1294 -91 989 -36 
Q 684 19 347 128 
L 347 722 
Q 666 556 975 473 
Q 1284 391 1588 391 
Q 1994 391 2212 530 
Q 2431 669 2431 922 
Q 2431 1156 2273 1281 
Q 2116 1406 1581 1522 
L 1381 1569 
Q 847 1681 609 1914 
Q 372 2147 372 2553 
Q 372 3047 722 3315 
Q 1072 3584 1716 3584 
Q 2034 3584 2315 3537 
Q 2597 3491 2834 3397 
z
" transform="scale(0.015625)"/>
       <path id="DejaVuSans-29" d="M 513 4856 
L 1013 4856 
Q 1481 4119 1714 3412 
Q 1947 2706 1947 2009 
Q 1947 1309 1714 600 
Q 1481 -109 1013 -844 
L 513 -844 
Q 928 -128 1133 580 
Q 1338 1288 1338 2009 
Q 1338 2731 1133 3434 
Q 928 4138 513 4856 
z
" transform="scale(0.015625)"/>
      </defs>
      <use xlink:href="#DejaVuSans-41"/>
      <use xlink:href="#DejaVuSans-63" transform="translate(66.658203 0)"/>
      <use xlink:href="#DejaVuSans-63" transform="translate(121.638672 0)"/>
      <use xlink:href="#DejaVuSans-65" transform="translate(176.619141 0)"/>
      <use xlink:href="#DejaVuSans-6c" transform="translate(238.142578 0)"/>
      <use xlink:href="#DejaVuSans-65" transform="translate(265.925781 0)"/>
      <use xlink:href="#DejaVuSans-72" transform="translate(327.449219 0)"/>
      <use xlink:href="#DejaVuSans-61" transform="translate(368.5625 0)"/>
      <use xlink:href="#DejaVuSans-74" transform="translate(429.841797 0)"/>
      <use xlink:href="#DejaVuSans-69" transform="translate(469.050781 0)"/>
      <use xlink:href="#DejaVuSans-6f" transform="translate(496.833984 0)"/>
      <use xlink:href="#DejaVuSans-6e" transform="translate(558.015625 0)"/>
      <use xlink:href="#DejaVuSans-20" transform="translate(621.394531 0)"/>
      <use xlink:href="#DejaVuSans-28" transform="translate(653.181641 0)"/>
      <use xlink:href="#DejaVuSans-78" transform="translate(692.195312 0)"/>
      <use xlink:href="#DejaVuSans-20" transform="translate(751.375 0)"/>
      <use xlink:href="#DejaVuSans-69" transform="translate(783.162109 0)"/>
      <use xlink:href="#DejaVuSans-6e" transform="translate(810.945312 0)"/>
      <use xlink:href="#DejaVuSans-20" transform="translate(874.324219 0)"/>
      <use xlink:href="#DejaVuSans-63" transform="translate(906.111328 0)"/>
      <use xlink:href="#DejaVuSans-6d" transform="translate(961.091797 0)"/>
      <use xlink:href="#DejaVuSans-20" transform="translate(1058.503906 0)"/>
      <use xlink:href="#DejaVuSans-2f" transform="translate(1090.291016 0)"/>
      <use xlink:href="#DejaVuSans-20" transform="translate(1123.982422 0)"/>
      <use xlink:href="#DejaVuSans-31" transform="translate(1155.769531 0)"/>
      <use xlink:href="#DejaVuSans-30" transform="translate(1219.392578 0)"/>
      <use xlink:href="#DejaVuSans-6d" transform="translate(1283.015625 0)"/>
      <use xlink:href="#DejaVuSans-73" transform="translate(1380.427734 0)"/>
      <use xlink:href="#DejaVuSans-29" transform="translate(1432.527344 0)"/>
     </g>
    </g>
   </g>
   <g id="line2d_16">
    <path d="M 69.98429 132.891194 
L 83.511563 147.877437 
L 97.038835 171.341961 
L 110.566108 108.835491 
L 124.093381 177.01289 
L 137.620653 247.448394 
L 151.147926 186.538099 
L 164.675199 152.101543 
L 178.202472 128.068519 
L 191.729744 125.413842 
L 205.257017 130.014827 
L 218.78429 129.991339 
L 232.311562 121.555715 
L 245.838835 121.845541 
L 259.366108 124.932192 
L 272.893381 121.473235 
L 286.420653 130.644833 
L 299.947926 129.514751 
L 313.475199 119.105617 
L 327.002472 116.389722 
L 340.529744 113.093295 
L 354.057017 118.608443 
L 367.58429 107.784548 
L 381.111562 91.054028 
L 394.638835 91.706375 
" clip-path="url(#pa3f602d9a2)" style="fill: none; stroke: #66c2a5; stroke-width: 1.5; stroke-linecap: square"/>
   </g>
   <g id="line2d_17">
    <path d="M 69.98429 161.323662 
L 83.511563 121.474028 
L 97.038835 89.666517 
L 110.566108 100.403748 
L 124.093381 165.186817 
L 137.620653 232.581096 
L 151.147926 199.546158 
L 164.675199 155.779659 
L 178.202472 133.868027 
L 191.729744 147.001493 
L 205.257017 136.201762 
L 218.78429 94.566779 
L 232.311562 102.717436 
L 245.838835 128.380417 
L 259.366108 117.727758 
L 272.893381 107.867298 
L 286.420653 105.190955 
L 299.947926 103.522526 
L 313.475199 102.867277 
L 327.002472 115.087323 
L 340.529744 131.015182 
L 354.057017 116.581072 
L 367.58429 97.954326 
L 381.111562 95.062941 
L 394.638835 95.572939 
" clip-path="url(#pa3f602d9a2)" style="fill: none; stroke: #fc8d62; stroke-width: 1.5; stroke-linecap: square"/>
   </g>
   <g id="line2d_18">
    <path d="M 69.98429 180.101531 
L 83.511563 153.404279 
L 97.038835 113.782562 
L 110.566108 127.695773 
L 124.093381 141.808367 
L 137.620653 140.383531 
L 151.147926 132.328988 
L 164.675199 136.248469 
L 178.202472 135.568921 
L 191.729744 147.871379 
L 205.257017 141.834285 
L 218.78429 122.983183 
L 232.311562 127.461596 
L 245.838835 125.567124 
L 259.366108 117.483288 
L 272.893381 111.790761 
L 286.420653 118.945517 
L 299.947926 128.937527 
L 313.475199 121.050981 
L 327.002472 115.380457 
L 340.529744 124.382911 
L 354.057017 129.336157 
L 367.58429 83.594326 
L 381.111562 42.353182 
L 394.638835 45.163437 
" clip-path="url(#pa3f602d9a2)" style="fill: none; stroke: #8da0cb; stroke-width: 1.5; stroke-linecap: square"/>
   </g>
   <g id="line2d_19">
    <path d="M 69.98429 100.126678 
L 83.511563 112.590788 
L 97.038835 94.254325 
L 110.566108 128.093492 
L 124.093381 130.626947 
L 137.620653 146.103462 
L 151.147926 129.65089 
L 164.675199 117.925048 
L 178.202472 121.485181 
L 191.729744 125.852699 
L 205.257017 138.136663 
L 218.78429 132.361858 
L 232.311562 123.976384 
L 245.838835 117.135145 
L 259.366108 114.675396 
L 272.893381 111.607105 
L 286.420653 108.06992 
L 299.947926 122.551412 
L 313.475199 131.760066 
L 327.002472 127.359003 
L 340.529744 120.625893 
L 354.057017 131.470779 
L 367.58429 144.723038 
L 381.111562 138.243172 
L 394.638835 132.101797 
" clip-path="url(#pa3f602d9a2)" style="fill: none; stroke: #e78ac3; stroke-width: 1.5; stroke-linecap: square"/>
   </g>
   <g id="line2d_20">
    <path d="M 69.98429 84.685733 
L 83.511563 113.378194 
L 97.038835 86.053434 
L 110.566108 132.453585 
L 124.093381 130.764638 
L 137.620653 132.036326 
L 151.147926 116.16901 
L 164.675199 114.823414 
L 178.202472 125.105318 
L 191.729744 138.347453 
L 205.257017 134.158326 
L 218.78429 134.501138 
L 232.311562 134.735955 
L 245.838835 111.043582 
L 259.366108 101.164966 
L 272.893381 116.711407 
L 286.420653 111.207867 
L 299.947926 116.113326 
L 313.475199 144.796743 
L 327.002472 138.645784 
L 340.529744 118.542027 
L 354.057017 116.262897 
L 367.58429 127.310608 
L 381.111562 142.35785 
L 394.638835 147.241373 
" clip-path="url(#pa3f602d9a2)" style="fill: none; stroke: #a6d854; stroke-width: 1.5; stroke-linecap: square"/>
   </g>
   <g id="patch_3">
    <path d="M 53.751563 288.430125 
L 53.751563 22.318125 
" style="fill: none; stroke: #000000; stroke-width: 0.8; stroke-linejoin: miter; stroke-linecap: square"/>
   </g>
   <g id="patch_4">
    <path d="M 410.871562 288.430125 
L 410.871562 22.318125 
" style="fill: none; stroke: #000000; stroke-width: 0.8; stroke-linejoin: miter; stroke-linecap: square"/>
   </g>
   <g id="patch_5">
    <path d="M 53.751563 288.430125 
L 410.871562 288.430125 
" style="fill: none; stroke: #000000; stroke-width: 0.8; stroke-linejoin: miter; stroke-linecap: square"/>
   </g>
   <g id="patch_6">
    <path d="M 53.751563 22.318125 
L 410.871562 22.318125 
" style="fill: none; stroke: #000000; stroke-width: 0.8; stroke-linejoin: miter; stroke-linecap: square"/>
   </g>
   <g id="text_18">
    <!-- ID 15 - Run 3 - Joint accelerations over average step cycle -->
    <g transform="translate(57.8775 16.318125) scale(0.12 -0.12)">
     <defs>
      <path id="DejaVuSans-49" d="M 628 4666 
L 1259 4666 
L 1259 0 
L 628 0 
L 628 4666 
z
" transform="scale(0.015625)"/>
      <path id="DejaVuSans-44" d="M 1259 4147 
L 1259 519 
L 2022 519 
Q 2988 519 3436 956 
Q 3884 1394 3884 2338 
Q 3884 3275 3436 3711 
Q 2988 4147 2022 4147 
L 1259 4147 
z
M 628 4666 
L 1925 4666 
Q 3281 4666 3915 4102 
Q 4550 3538 4550 2338 
Q 4550 1131 3912 565 
Q 3275 0 1925 0 
L 628 0 
L 628 4666 
z
" transform="scale(0.015625)"/>
      <path id="DejaVuSans-52" d="M 2841 2188 
Q 3044 2119 3236 1894 
Q 3428 1669 3622 1275 
L 4263 0 
L 3584 0 
L 2988 1197 
Q 2756 1666 2539 1819 
Q 2322 1972 1947 1972 
L 1259 1972 
L 1259 0 
L 628 0 
L 628 4666 
L 2053 4666 
Q 2853 4666 3247 4331 
Q 3641 3997 3641 3322 
Q 3641 2881 3436 2590 
Q 3231 2300 2841 2188 
z
M 1259 4147 
L 1259 2491 
L 2053 2491 
Q 2509 2491 2742 2702 
Q 2975 2913 2975 3322 
Q 2975 3731 2742 3939 
Q 2509 4147 2053 4147 
L 1259 4147 
z
" transform="scale(0.015625)"/>
      <path id="DejaVuSans-75" d="M 544 1381 
L 544 3500 
L 1119 3500 
L 1119 1403 
Q 1119 906 1312 657 
Q 1506 409 1894 409 
Q 2359 409 2629 706 
Q 2900 1003 2900 1516 
L 2900 3500 
L 3475 3500 
L 3475 0 
L 2900 0 
L 2900 538 
Q 2691 219 2414 64 
Q 2138 -91 1772 -91 
Q 1169 -91 856 284 
Q 544 659 544 1381 
z
M 1991 3584 
L 1991 3584 
z
" transform="scale(0.015625)"/>
      <path id="DejaVuSans-33" d="M 2597 2516 
Q 3050 2419 3304 2112 
Q 3559 1806 3559 1356 
Q 3559 666 3084 287 
Q 2609 -91 1734 -91 
Q 1441 -91 1130 -33 
Q 819 25 488 141 
L 488 750 
Q 750 597 1062 519 
Q 1375 441 1716 441 
Q 2309 441 2620 675 
Q 2931 909 2931 1356 
Q 2931 1769 2642 2001 
Q 2353 2234 1838 2234 
L 1294 2234 
L 1294 2753 
L 1863 2753 
Q 2328 2753 2575 2939 
Q 2822 3125 2822 3475 
Q 2822 3834 2567 4026 
Q 2313 4219 1838 4219 
Q 1578 4219 1281 4162 
Q 984 4106 628 3988 
L 628 4550 
Q 988 4650 1302 4700 
Q 1616 4750 1894 4750 
Q 2613 4750 3031 4423 
Q 3450 4097 3450 3541 
Q 3450 3153 3228 2886 
Q 3006 2619 2597 2516 
z
" transform="scale(0.015625)"/>
      <path id="DejaVuSans-4a" d="M 628 4666 
L 1259 4666 
L 1259 325 
Q 1259 -519 939 -900 
Q 619 -1281 -91 -1281 
L -331 -1281 
L -331 -750 
L -134 -750 
Q 284 -750 456 -515 
Q 628 -281 628 325 
L 628 4666 
z
" transform="scale(0.015625)"/>
      <path id="DejaVuSans-76" d="M 191 3500 
L 800 3500 
L 1894 563 
L 2988 3500 
L 3597 3500 
L 2284 0 
L 1503 0 
L 191 3500 
z
" transform="scale(0.015625)"/>
      <path id="DejaVuSans-70" d="M 1159 525 
L 1159 -1331 
L 581 -1331 
L 581 3500 
L 1159 3500 
L 1159 2969 
Q 1341 3281 1617 3432 
Q 1894 3584 2278 3584 
Q 2916 3584 3314 3078 
Q 3713 2572 3713 1747 
Q 3713 922 3314 415 
Q 2916 -91 2278 -91 
Q 1894 -91 1617 61 
Q 1341 213 1159 525 
z
M 3116 1747 
Q 3116 2381 2855 2742 
Q 2594 3103 2138 3103 
Q 1681 3103 1420 2742 
Q 1159 2381 1159 1747 
Q 1159 1113 1420 752 
Q 1681 391 2138 391 
Q 2594 391 2855 752 
Q 3116 1113 3116 1747 
z
" transform="scale(0.015625)"/>
      <path id="DejaVuSans-79" d="M 2059 -325 
Q 1816 -950 1584 -1140 
Q 1353 -1331 966 -1331 
L 506 -1331 
L 506 -850 
L 844 -850 
Q 1081 -850 1212 -737 
Q 1344 -625 1503 -206 
L 1606 56 
L 191 3500 
L 800 3500 
L 1894 763 
L 2988 3500 
L 3597 3500 
L 2059 -325 
z
" transform="scale(0.015625)"/>
     </defs>
     <use xlink:href="#DejaVuSans-49"/>
     <use xlink:href="#DejaVuSans-44" transform="translate(29.492188 0)"/>
     <use xlink:href="#DejaVuSans-20" transform="translate(106.494141 0)"/>
     <use xlink:href="#DejaVuSans-31" transform="translate(138.28125 0)"/>
     <use xlink:href="#DejaVuSans-35" transform="translate(201.904297 0)"/>
     <use xlink:href="#DejaVuSans-20" transform="translate(265.527344 0)"/>
     <use xlink:href="#DejaVuSans-2d" transform="translate(297.314453 0)"/>
     <use xlink:href="#DejaVuSans-20" transform="translate(333.398438 0)"/>
     <use xlink:href="#DejaVuSans-52" transform="translate(365.185547 0)"/>
     <use xlink:href="#DejaVuSans-75" transform="translate(430.167969 0)"/>
     <use xlink:href="#DejaVuSans-6e" transform="translate(493.546875 0)"/>
     <use xlink:href="#DejaVuSans-20" transform="translate(556.925781 0)"/>
     <use xlink:href="#DejaVuSans-33" transform="translate(588.712891 0)"/>
     <use xlink:href="#DejaVuSans-20" transform="translate(652.335938 0)"/>
     <use xlink:href="#DejaVuSans-2d" transform="translate(684.123047 0)"/>
     <use xlink:href="#DejaVuSans-20" transform="translate(720.207031 0)"/>
     <use xlink:href="#DejaVuSans-4a" transform="translate(751.994141 0)"/>
     <use xlink:href="#DejaVuSans-6f" transform="translate(781.486328 0)"/>
     <use xlink:href="#DejaVuSans-69" transform="translate(842.667969 0)"/>
     <use xlink:href="#DejaVuSans-6e" transform="translate(870.451172 0)"/>
     <use xlink:href="#DejaVuSans-74" transform="translate(933.830078 0)"/>
     <use xlink:href="#DejaVuSans-20" transform="translate(973.039062 0)"/>
     <use xlink:href="#DejaVuSans-61" transform="translate(1004.826172 0)"/>
     <use xlink:href="#DejaVuSans-63" transform="translate(1066.105469 0)"/>
     <use xlink:href="#DejaVuSans-63" transform="translate(1121.085938 0)"/>
     <use xlink:href="#DejaVuSans-65" transform="translate(1176.066406 0)"/>
     <use xlink:href="#DejaVuSans-6c" transform="translate(1237.589844 0)"/>
     <use xlink:href="#DejaVuSans-65" transform="translate(1265.373047 0)"/>
     <use xlink:href="#DejaVuSans-72" transform="translate(1326.896484 0)"/>
     <use xlink:href="#DejaVuSans-61" transform="translate(1368.009766 0)"/>
     <use xlink:href="#DejaVuSans-74" transform="translate(1429.289062 0)"/>
     <use xlink:href="#DejaVuSans-69" transform="translate(1468.498047 0)"/>
     <use xlink:href="#DejaVuSans-6f" transform="translate(1496.28125 0)"/>
     <use xlink:href="#DejaVuSans-6e" transform="translate(1557.462891 0)"/>
     <use xlink:href="#DejaVuSans-73" transform="translate(1620.841797 0)"/>
     <use xlink:href="#DejaVuSans-20" transform="translate(1672.941406 0)"/>
     <use xlink:href="#DejaVuSans-6f" transform="translate(1704.728516 0)"/>
     <use xlink:href="#DejaVuSans-76" transform="translate(1765.910156 0)"/>
     <use xlink:href="#DejaVuSans-65" transform="translate(1825.089844 0)"/>
     <use xlink:href="#DejaVuSans-72" transform="translate(1886.613281 0)"/>
     <use xlink:href="#DejaVuSans-20" transform="translate(1927.726562 0)"/>
     <use xlink:href="#DejaVuSans-61" transform="translate(1959.513672 0)"/>
     <use xlink:href="#DejaVuSans-76" transform="translate(2020.792969 0)"/>
     <use xlink:href="#DejaVuSans-65" transform="translate(2079.972656 0)"/>
     <use xlink:href="#DejaVuSans-72" transform="translate(2141.496094 0)"/>
     <use xlink:href="#DejaVuSans-61" transform="translate(2182.609375 0)"/>
     <use xlink:href="#DejaVuSans-67" transform="translate(2243.888672 0)"/>
     <use xlink:href="#DejaVuSans-65" transform="translate(2307.365234 0)"/>
     <use xlink:href="#DejaVuSans-20" transform="translate(2368.888672 0)"/>
     <use xlink:href="#DejaVuSans-73" transform="translate(2400.675781 0)"/>
     <use xlink:href="#DejaVuSans-74" transform="translate(2452.775391 0)"/>
     <use xlink:href="#DejaVuSans-65" transform="translate(2491.984375 0)"/>
     <use xlink:href="#DejaVuSans-70" transform="translate(2553.507812 0)"/>
     <use xlink:href="#DejaVuSans-20" transform="translate(2616.984375 0)"/>
     <use xlink:href="#DejaVuSans-63" transform="translate(2648.771484 0)"/>
     <use xlink:href="#DejaVuSans-79" transform="translate(2703.751953 0)"/>
     <use xlink:href="#DejaVuSans-63" transform="translate(2762.931641 0)"/>
     <use xlink:href="#DejaVuSans-6c" transform="translate(2817.912109 0)"/>
     <use xlink:href="#DejaVuSans-65" transform="translate(2845.695312 0)"/>
    </g>
   </g>
   <g id="legend_1">
    <g id="patch_7">
     <path d="M 417.871562 193.569437 
L 519.212188 193.569437 
Q 521.212188 193.569437 521.212188 191.569437 
L 521.212188 119.178812 
Q 521.212188 117.178812 519.212188 117.178812 
L 417.871562 117.178812 
Q 415.871562 117.178812 415.871562 119.178812 
L 415.871562 191.569437 
Q 415.871562 193.569437 417.871562 193.569437 
z
" style="fill: #ffffff; opacity: 0.8; stroke: #cccccc; stroke-linejoin: miter"/>
    </g>
    <g id="line2d_21">
     <path d="M 419.871562 125.27725 
L 429.871562 125.27725 
L 439.871562 125.27725 
" style="fill: none; stroke: #66c2a5; stroke-width: 1.5; stroke-linecap: square"/>
    </g>
    <g id="text_19">
     <!-- Hind paw tao  -->
     <g transform="translate(447.871562 128.77725) scale(0.1 -0.1)">
      <defs>
       <path id="DejaVuSans-48" d="M 628 4666 
L 1259 4666 
L 1259 2753 
L 3553 2753 
L 3553 4666 
L 4184 4666 
L 4184 0 
L 3553 0 
L 3553 2222 
L 1259 2222 
L 1259 0 
L 628 0 
L 628 4666 
z
" transform="scale(0.015625)"/>
       <path id="DejaVuSans-64" d="M 2906 2969 
L 2906 4863 
L 3481 4863 
L 3481 0 
L 2906 0 
L 2906 525 
Q 2725 213 2448 61 
Q 2172 -91 1784 -91 
Q 1150 -91 751 415 
Q 353 922 353 1747 
Q 353 2572 751 3078 
Q 1150 3584 1784 3584 
Q 2172 3584 2448 3432 
Q 2725 3281 2906 2969 
z
M 947 1747 
Q 947 1113 1208 752 
Q 1469 391 1925 391 
Q 2381 391 2643 752 
Q 2906 1113 2906 1747 
Q 2906 2381 2643 2742 
Q 2381 3103 1925 3103 
Q 1469 3103 1208 2742 
Q 947 2381 947 1747 
z
" transform="scale(0.015625)"/>
       <path id="DejaVuSans-77" d="M 269 3500 
L 844 3500 
L 1563 769 
L 2278 3500 
L 2956 3500 
L 3675 769 
L 4391 3500 
L 4966 3500 
L 4050 0 
L 3372 0 
L 2619 2869 
L 1863 0 
L 1184 0 
L 269 3500 
z
" transform="scale(0.015625)"/>
      </defs>
      <use xlink:href="#DejaVuSans-48"/>
      <use xlink:href="#DejaVuSans-69" transform="translate(75.195312 0)"/>
      <use xlink:href="#DejaVuSans-6e" transform="translate(102.978516 0)"/>
      <use xlink:href="#DejaVuSans-64" transform="translate(166.357422 0)"/>
      <use xlink:href="#DejaVuSans-20" transform="translate(229.833984 0)"/>
      <use xlink:href="#DejaVuSans-70" transform="translate(261.621094 0)"/>
      <use xlink:href="#DejaVuSans-61" transform="translate(325.097656 0)"/>
      <use xlink:href="#DejaVuSans-77" transform="translate(386.376953 0)"/>
      <use xlink:href="#DejaVuSans-20" transform="translate(468.164062 0)"/>
      <use xlink:href="#DejaVuSans-74" transform="translate(499.951172 0)"/>
      <use xlink:href="#DejaVuSans-61" transform="translate(539.160156 0)"/>
      <use xlink:href="#DejaVuSans-6f" transform="translate(600.439453 0)"/>
      <use xlink:href="#DejaVuSans-20" transform="translate(661.621094 0)"/>
     </g>
    </g>
    <g id="line2d_22">
     <path d="M 419.871562 139.955375 
L 429.871562 139.955375 
L 439.871562 139.955375 
" style="fill: none; stroke: #fc8d62; stroke-width: 1.5; stroke-linecap: square"/>
    </g>
    <g id="text_20">
     <!-- Ankle  -->
     <g transform="translate(447.871562 143.455375) scale(0.1 -0.1)">
      <defs>
       <path id="DejaVuSans-6b" d="M 581 4863 
L 1159 4863 
L 1159 1991 
L 2875 3500 
L 3609 3500 
L 1753 1863 
L 3688 0 
L 2938 0 
L 1159 1709 
L 1159 0 
L 581 0 
L 581 4863 
z
" transform="scale(0.015625)"/>
      </defs>
      <use xlink:href="#DejaVuSans-41"/>
      <use xlink:href="#DejaVuSans-6e" transform="translate(68.408203 0)"/>
      <use xlink:href="#DejaVuSans-6b" transform="translate(131.787109 0)"/>
      <use xlink:href="#DejaVuSans-6c" transform="translate(189.697266 0)"/>
      <use xlink:href="#DejaVuSans-65" transform="translate(217.480469 0)"/>
      <use xlink:href="#DejaVuSans-20" transform="translate(279.003906 0)"/>
     </g>
    </g>
    <g id="line2d_23">
     <path d="M 419.871562 154.6335 
L 429.871562 154.6335 
L 439.871562 154.6335 
" style="fill: none; stroke: #8da0cb; stroke-width: 1.5; stroke-linecap: square"/>
    </g>
    <g id="text_21">
     <!-- Knee  -->
     <g transform="translate(447.871562 158.1335) scale(0.1 -0.1)">
      <defs>
       <path id="DejaVuSans-4b" d="M 628 4666 
L 1259 4666 
L 1259 2694 
L 3353 4666 
L 4166 4666 
L 1850 2491 
L 4331 0 
L 3500 0 
L 1259 2247 
L 1259 0 
L 628 0 
L 628 4666 
z
" transform="scale(0.015625)"/>
      </defs>
      <use xlink:href="#DejaVuSans-4b"/>
      <use xlink:href="#DejaVuSans-6e" transform="translate(65.576172 0)"/>
      <use xlink:href="#DejaVuSans-65" transform="translate(128.955078 0)"/>
      <use xlink:href="#DejaVuSans-65" transform="translate(190.478516 0)"/>
      <use xlink:href="#DejaVuSans-20" transform="translate(252.001953 0)"/>
     </g>
    </g>
    <g id="line2d_24">
     <path d="M 419.871562 169.311625 
L 429.871562 169.311625 
L 439.871562 169.311625 
" style="fill: none; stroke: #e78ac3; stroke-width: 1.5; stroke-linecap: square"/>
    </g>
    <g id="text_22">
     <!-- Hip  -->
     <g transform="translate(447.871562 172.811625) scale(0.1 -0.1)">
      <use xlink:href="#DejaVuSans-48"/>
      <use xlink:href="#DejaVuSans-69" transform="translate(75.195312 0)"/>
      <use xlink:href="#DejaVuSans-70" transform="translate(102.978516 0)"/>
      <use xlink:href="#DejaVuSans-20" transform="translate(166.455078 0)"/>
     </g>
    </g>
    <g id="line2d_25">
     <path d="M 419.871562 183.98975 
L 429.871562 183.98975 
L 439.871562 183.98975 
" style="fill: none; stroke: #a6d854; stroke-width: 1.5; stroke-linecap: square"/>
    </g>
    <g id="text_23">
     <!-- Iliac Crest  -->
     <g transform="translate(447.871562 187.48975) scale(0.1 -0.1)">
      <defs>
       <path id="DejaVuSans-43" d="M 4122 4306 
L 4122 3641 
Q 3803 3938 3442 4084 
Q 3081 4231 2675 4231 
Q 1875 4231 1450 3742 
Q 1025 3253 1025 2328 
Q 1025 1406 1450 917 
Q 1875 428 2675 428 
Q 3081 428 3442 575 
Q 3803 722 4122 1019 
L 4122 359 
Q 3791 134 3420 21 
Q 3050 -91 2638 -91 
Q 1578 -91 968 557 
Q 359 1206 359 2328 
Q 359 3453 968 4101 
Q 1578 4750 2638 4750 
Q 3056 4750 3426 4639 
Q 3797 4528 4122 4306 
z
" transform="scale(0.015625)"/>
      </defs>
      <use xlink:href="#DejaVuSans-49"/>
      <use xlink:href="#DejaVuSans-6c" transform="translate(29.492188 0)"/>
      <use xlink:href="#DejaVuSans-69" transform="translate(57.275391 0)"/>
      <use xlink:href="#DejaVuSans-61" transform="translate(85.058594 0)"/>
      <use xlink:href="#DejaVuSans-63" transform="translate(146.337891 0)"/>
      <use xlink:href="#DejaVuSans-20" transform="translate(201.318359 0)"/>
      <use xlink:href="#DejaVuSans-43" transform="translate(233.105469 0)"/>
      <use xlink:href="#DejaVuSans-72" transform="translate(302.929688 0)"/>
      <use xlink:href="#DejaVuSans-65" transform="translate(341.792969 0)"/>
      <use xlink:href="#DejaVuSans-73" transform="translate(403.316406 0)"/>
      <use xlink:href="#DejaVuSans-74" transform="translate(455.416016 0)"/>
      <use xlink:href="#DejaVuSans-20" transform="translate(494.625 0)"/>
     </g>
    </g>
   </g>
  </g>
 </g>
 <defs>
  <clipPath id="pa3f602d9a2">
   <rect x="53.751563" y="22.318125" width="357.12" height="266.112"/>
  </clipPath>
 </defs>
</svg>
