<?xml version="1.0" encoding="utf-8" standalone="no"?>
<!DOCTYPE svg PUBLIC "-//W3C//DTD SVG 1.1//EN"
  "http://www.w3.org/Graphics/SVG/1.1/DTD/svg11.dtd">
<svg xmlns:xlink="http://www.w3.org/1999/xlink" width="418.071562pt" height="325.986375pt" viewBox="0 0 418.071562 325.986375" xmlns="http://www.w3.org/2000/svg" version="1.1">
 <metadata>
  <rdf:RDF xmlns:dc="http://purl.org/dc/elements/1.1/" xmlns:cc="http://creativecommons.org/ns#" xmlns:rdf="http://www.w3.org/1999/02/22-rdf-syntax-ns#">
   <cc:Work>
    <dc:type rdf:resource="http://purl.org/dc/dcmitype/StillImage"/>
    <dc:date>2024-04-05T15:48:49.033202</dc:date>
    <dc:format>image/svg+xml</dc:format>
    <dc:creator>
     <cc:Agent>
      <dc:title>Matplotlib v3.7.1, https://matplotlib.org/</dc:title>
     </cc:Agent>
    </dc:creator>
   </cc:Work>
  </rdf:RDF>
 </metadata>
 <defs>
  <style type="text/css">*{stroke-linejoin: round; stroke-linecap: butt}</style>
 </defs>
 <g id="figure_1">
  <g id="patch_1">
   <path d="M 0 325.986375 
L 418.071562 325.986375 
L 418.071562 0 
L 0 0 
z
" style="fill: #ffffff"/>
  </g>
  <g id="axes_1">
   <g id="patch_2">
    <path d="M 53.751563 288.430125 
L 410.871562 288.430125 
L 410.871562 22.318125 
L 53.751563 22.318125 
z
" style="fill: #ffffff"/>
   </g>
   <g id="PolyCollection_1">
    <path d="M 69.98429 38.981413 
L 69.98429 128.193233 
L 83.511563 166.337873 
L 97.038835 159.924757 
L 110.566108 152.00064 
L 124.093381 221.945389 
L 137.620653 242.769605 
L 151.147926 150.203181 
L 164.675199 217.782729 
L 178.202472 223.592999 
L 191.729744 201.592081 
L 205.257017 161.393785 
L 218.78429 135.844867 
L 232.311562 129.047506 
L 245.838835 134.393653 
L 259.366108 136.54775 
L 272.893381 129.095388 
L 286.420653 115.842836 
L 299.947926 145.523834 
L 313.475199 121.355296 
L 327.002472 126.994642 
L 340.529744 141.015123 
L 354.057017 136.470826 
L 367.58429 120.497726 
L 381.111562 111.219885 
L 394.638835 120.465933 
L 394.638835 88.759368 
L 394.638835 88.759368 
L 381.111562 86.786874 
L 367.58429 93.848347 
L 354.057017 109.720436 
L 340.529744 95.518773 
L 327.002472 88.64924 
L 313.475199 94.395769 
L 299.947926 88.261769 
L 286.420653 111.970132 
L 272.893381 93.074121 
L 259.366108 115.578957 
L 245.838835 126.148969 
L 232.311562 115.579339 
L 218.78429 114.351663 
L 205.257017 119.609985 
L 191.729744 99.643148 
L 178.202472 97.596753 
L 164.675199 93.857043 
L 151.147926 117.735225 
L 137.620653 104.626671 
L 124.093381 159.995875 
L 110.566108 79.037513 
L 97.038835 93.351066 
L 83.511563 108.421152 
L 69.98429 38.981413 
z
" clip-path="url(#p5891fb170f)" style="fill: #440154; fill-opacity: 0.2"/>
   </g>
   <g id="PolyCollection_2">
    <path d="M 69.98429 93.953348 
L 69.98429 126.665057 
L 83.511563 126.117316 
L 97.038835 125.392777 
L 110.566108 143.614362 
L 124.093381 213.581156 
L 137.620653 252.812424 
L 151.147926 154.292866 
L 164.675199 176.112493 
L 178.202472 216.41774 
L 191.729744 195.286286 
L 205.257017 148.019871 
L 218.78429 124.914264 
L 232.311562 125.758936 
L 245.838835 140.822062 
L 259.366108 137.501743 
L 272.893381 120.847701 
L 286.420653 98.281672 
L 299.947926 124.391512 
L 313.475199 132.053735 
L 327.002472 127.283923 
L 340.529744 132.574323 
L 354.057017 119.802017 
L 367.58429 104.448291 
L 381.111562 126.54062 
L 394.638835 145.700383 
L 394.638835 91.229241 
L 394.638835 91.229241 
L 381.111562 93.296775 
L 367.58429 99.052085 
L 354.057017 93.544982 
L 340.529744 97.171859 
L 327.002472 112.16208 
L 313.475199 99.264829 
L 299.947926 79.424879 
L 286.420653 81.367716 
L 272.893381 80.641233 
L 259.366108 114.580956 
L 245.838835 116.079095 
L 232.311562 107.314789 
L 218.78429 110.519519 
L 205.257017 110.991677 
L 191.729744 98.961845 
L 178.202472 91.68559 
L 164.675199 103.34866 
L 151.147926 104.352449 
L 137.620653 74.313313 
L 124.093381 102.219361 
L 110.566108 69.400829 
L 97.038835 72.40542 
L 83.511563 97.008795 
L 69.98429 93.953348 
z
" clip-path="url(#p5891fb170f)" style="fill: #3b528b; fill-opacity: 0.2"/>
   </g>
   <g id="PolyCollection_3">
    <path d="M 69.98429 74.66819 
L 69.98429 151.898401 
L 83.511563 135.242512 
L 97.038835 122.87166 
L 110.566108 122.384535 
L 124.093381 140.022753 
L 137.620653 175.091533 
L 151.147926 134.956524 
L 164.675199 134.545048 
L 178.202472 148.147951 
L 191.729744 145.515625 
L 205.257017 136.639705 
L 218.78429 128.039781 
L 232.311562 140.366247 
L 245.838835 140.899525 
L 259.366108 115.426421 
L 272.893381 115.355648 
L 286.420653 147.839139 
L 299.947926 134.585076 
L 313.475199 144.115557 
L 327.002472 157.456926 
L 340.529744 118.574308 
L 354.057017 122.326901 
L 367.58429 113.218364 
L 381.111562 109.976399 
L 394.638835 118.904905 
L 394.638835 63.582073 
L 394.638835 63.582073 
L 381.111562 82.225923 
L 367.58429 98.40702 
L 354.057017 85.885626 
L 340.529744 110.985383 
L 327.002472 101.26007 
L 313.475199 101.51819 
L 299.947926 110.519976 
L 286.420653 93.007672 
L 272.893381 82.89396 
L 259.366108 85.465647 
L 245.838835 119.848757 
L 232.311562 124.720732 
L 218.78429 108.848064 
L 205.257017 99.420101 
L 191.729744 121.863241 
L 178.202472 130.899183 
L 164.675199 118.788079 
L 151.147926 118.856161 
L 137.620653 108.038084 
L 124.093381 104.596802 
L 110.566108 111.416896 
L 97.038835 94.494849 
L 83.511563 79.562801 
L 69.98429 74.66819 
z
" clip-path="url(#p5891fb170f)" style="fill: #21918c; fill-opacity: 0.2"/>
   </g>
   <g id="PolyCollection_4">
    <path d="M 69.98429 88.83567 
L 69.98429 159.505333 
L 83.511563 143.68832 
L 97.038835 132.975742 
L 110.566108 114.89496 
L 124.093381 138.039386 
L 137.620653 182.012904 
L 151.147926 138.451628 
L 164.675199 137.936456 
L 178.202472 152.914076 
L 191.729744 141.917259 
L 205.257017 117.050724 
L 218.78429 142.615935 
L 232.311562 145.141411 
L 245.838835 125.99915 
L 259.366108 113.752143 
L 272.893381 100.867001 
L 286.420653 129.891366 
L 299.947926 144.864154 
L 313.475199 130.63032 
L 327.002472 138.306195 
L 340.529744 151.527502 
L 354.057017 130.779774 
L 367.58429 136.207766 
L 381.111562 128.718511 
L 394.638835 143.88991 
L 394.638835 119.501575 
L 394.638835 119.501575 
L 381.111562 112.647612 
L 367.58429 86.663025 
L 354.057017 103.699348 
L 340.529744 103.191989 
L 327.002472 122.978409 
L 313.475199 114.31443 
L 299.947926 112.785059 
L 286.420653 106.632474 
L 272.893381 88.089719 
L 259.366108 88.432065 
L 245.838835 108.462828 
L 232.311562 122.558735 
L 218.78429 104.155116 
L 205.257017 93.602788 
L 191.729744 103.130692 
L 178.202472 116.817087 
L 164.675199 108.768584 
L 151.147926 120.963208 
L 137.620653 126.354335 
L 124.093381 100.282171 
L 110.566108 97.765169 
L 97.038835 91.318333 
L 83.511563 85.198439 
L 69.98429 88.83567 
z
" clip-path="url(#p5891fb170f)" style="fill: #5ec962; fill-opacity: 0.2"/>
   </g>
   <g id="PolyCollection_5">
    <path d="M 69.98429 58.686913 
L 69.98429 136.749032 
L 83.511563 112.895427 
L 97.038835 130.246701 
L 110.566108 123.56718 
L 124.093381 147.373834 
L 137.620653 176.969212 
L 151.147926 134.857492 
L 164.675199 140.724676 
L 178.202472 158.275721 
L 191.729744 131.814775 
L 205.257017 108.592937 
L 218.78429 140.732349 
L 232.311562 149.057106 
L 245.838835 124.355587 
L 259.366108 112.165233 
L 272.893381 121.39813 
L 286.420653 154.453029 
L 299.947926 134.956042 
L 313.475199 123.573401 
L 327.002472 136.278801 
L 340.529744 136.153025 
L 354.057017 129.710926 
L 367.58429 132.339739 
L 381.111562 140.947616 
L 394.638835 136.970318 
L 394.638835 118.125394 
L 394.638835 118.125394 
L 381.111562 105.97584 
L 367.58429 99.678622 
L 354.057017 103.902833 
L 340.529744 105.089378 
L 327.002472 102.247639 
L 313.475199 109.297161 
L 299.947926 113.725073 
L 286.420653 103.012325 
L 272.893381 93.765451 
L 259.366108 84.467784 
L 245.838835 116.168188 
L 232.311562 126.99092 
L 218.78429 109.303946 
L 205.257017 88.142538 
L 191.729744 100.162346 
L 178.202472 126.83159 
L 164.675199 109.391669 
L 151.147926 114.416303 
L 137.620653 108.945383 
L 124.093381 94.595465 
L 110.566108 102.190642 
L 97.038835 91.354122 
L 83.511563 72.814746 
L 69.98429 58.686913 
z
" clip-path="url(#p5891fb170f)" style="fill: #fde725; fill-opacity: 0.2"/>
   </g>
   <g id="matplotlib.axis_1">
    <g id="xtick_1">
     <g id="line2d_1">
      <defs>
       <path id="mb945272210" d="M 0 0 
L 0 3.5 
" style="stroke: #000000; stroke-width: 0.8"/>
      </defs>
      <g>
       <use xlink:href="#mb945272210" x="69.98429" y="288.430125" style="stroke: #000000; stroke-width: 0.8"/>
      </g>
     </g>
     <g id="text_1">
      <!-- 0 -->
      <g transform="translate(66.80304 303.028562) scale(0.1 -0.1)">
       <defs>
        <path id="DejaVuSans-30" d="M 2034 4250 
Q 1547 4250 1301 3770 
Q 1056 3291 1056 2328 
Q 1056 1369 1301 889 
Q 1547 409 2034 409 
Q 2525 409 2770 889 
Q 3016 1369 3016 2328 
Q 3016 3291 2770 3770 
Q 2525 4250 2034 4250 
z
M 2034 4750 
Q 2819 4750 3233 4129 
Q 3647 3509 3647 2328 
Q 3647 1150 3233 529 
Q 2819 -91 2034 -91 
Q 1250 -91 836 529 
Q 422 1150 422 2328 
Q 422 3509 836 4129 
Q 1250 4750 2034 4750 
z
" transform="scale(0.015625)"/>
       </defs>
       <use xlink:href="#DejaVuSans-30"/>
      </g>
     </g>
    </g>
    <g id="xtick_2">
     <g id="line2d_2">
      <g>
       <use xlink:href="#mb945272210" x="134.915199" y="288.430125" style="stroke: #000000; stroke-width: 0.8"/>
      </g>
     </g>
     <g id="text_2">
      <!-- 20 -->
      <g transform="translate(128.552699 303.028562) scale(0.1 -0.1)">
       <defs>
        <path id="DejaVuSans-32" d="M 1228 531 
L 3431 531 
L 3431 0 
L 469 0 
L 469 531 
Q 828 903 1448 1529 
Q 2069 2156 2228 2338 
Q 2531 2678 2651 2914 
Q 2772 3150 2772 3378 
Q 2772 3750 2511 3984 
Q 2250 4219 1831 4219 
Q 1534 4219 1204 4116 
Q 875 4013 500 3803 
L 500 4441 
Q 881 4594 1212 4672 
Q 1544 4750 1819 4750 
Q 2544 4750 2975 4387 
Q 3406 4025 3406 3419 
Q 3406 3131 3298 2873 
Q 3191 2616 2906 2266 
Q 2828 2175 2409 1742 
Q 1991 1309 1228 531 
z
" transform="scale(0.015625)"/>
       </defs>
       <use xlink:href="#DejaVuSans-32"/>
       <use xlink:href="#DejaVuSans-30" x="63.623047"/>
      </g>
     </g>
    </g>
    <g id="xtick_3">
     <g id="line2d_3">
      <g>
       <use xlink:href="#mb945272210" x="199.846108" y="288.430125" style="stroke: #000000; stroke-width: 0.8"/>
      </g>
     </g>
     <g id="text_3">
      <!-- 40 -->
      <g transform="translate(193.483608 303.028562) scale(0.1 -0.1)">
       <defs>
        <path id="DejaVuSans-34" d="M 2419 4116 
L 825 1625 
L 2419 1625 
L 2419 4116 
z
M 2253 4666 
L 3047 4666 
L 3047 1625 
L 3713 1625 
L 3713 1100 
L 3047 1100 
L 3047 0 
L 2419 0 
L 2419 1100 
L 313 1100 
L 313 1709 
L 2253 4666 
z
" transform="scale(0.015625)"/>
       </defs>
       <use xlink:href="#DejaVuSans-34"/>
       <use xlink:href="#DejaVuSans-30" x="63.623047"/>
      </g>
     </g>
    </g>
    <g id="xtick_4">
     <g id="line2d_4">
      <g>
       <use xlink:href="#mb945272210" x="264.777017" y="288.430125" style="stroke: #000000; stroke-width: 0.8"/>
      </g>
     </g>
     <g id="text_4">
      <!-- 60 -->
      <g transform="translate(258.414517 303.028562) scale(0.1 -0.1)">
       <defs>
        <path id="DejaVuSans-36" d="M 2113 2584 
Q 1688 2584 1439 2293 
Q 1191 2003 1191 1497 
Q 1191 994 1439 701 
Q 1688 409 2113 409 
Q 2538 409 2786 701 
Q 3034 994 3034 1497 
Q 3034 2003 2786 2293 
Q 2538 2584 2113 2584 
z
M 3366 4563 
L 3366 3988 
Q 3128 4100 2886 4159 
Q 2644 4219 2406 4219 
Q 1781 4219 1451 3797 
Q 1122 3375 1075 2522 
Q 1259 2794 1537 2939 
Q 1816 3084 2150 3084 
Q 2853 3084 3261 2657 
Q 3669 2231 3669 1497 
Q 3669 778 3244 343 
Q 2819 -91 2113 -91 
Q 1303 -91 875 529 
Q 447 1150 447 2328 
Q 447 3434 972 4092 
Q 1497 4750 2381 4750 
Q 2619 4750 2861 4703 
Q 3103 4656 3366 4563 
z
" transform="scale(0.015625)"/>
       </defs>
       <use xlink:href="#DejaVuSans-36"/>
       <use xlink:href="#DejaVuSans-30" x="63.623047"/>
      </g>
     </g>
    </g>
    <g id="xtick_5">
     <g id="line2d_5">
      <g>
       <use xlink:href="#mb945272210" x="329.707926" y="288.430125" style="stroke: #000000; stroke-width: 0.8"/>
      </g>
     </g>
     <g id="text_5">
      <!-- 80 -->
      <g transform="translate(323.345426 303.028562) scale(0.1 -0.1)">
       <defs>
        <path id="DejaVuSans-38" d="M 2034 2216 
Q 1584 2216 1326 1975 
Q 1069 1734 1069 1313 
Q 1069 891 1326 650 
Q 1584 409 2034 409 
Q 2484 409 2743 651 
Q 3003 894 3003 1313 
Q 3003 1734 2745 1975 
Q 2488 2216 2034 2216 
z
M 1403 2484 
Q 997 2584 770 2862 
Q 544 3141 544 3541 
Q 544 4100 942 4425 
Q 1341 4750 2034 4750 
Q 2731 4750 3128 4425 
Q 3525 4100 3525 3541 
Q 3525 3141 3298 2862 
Q 3072 2584 2669 2484 
Q 3125 2378 3379 2068 
Q 3634 1759 3634 1313 
Q 3634 634 3220 271 
Q 2806 -91 2034 -91 
Q 1263 -91 848 271 
Q 434 634 434 1313 
Q 434 1759 690 2068 
Q 947 2378 1403 2484 
z
M 1172 3481 
Q 1172 3119 1398 2916 
Q 1625 2713 2034 2713 
Q 2441 2713 2670 2916 
Q 2900 3119 2900 3481 
Q 2900 3844 2670 4047 
Q 2441 4250 2034 4250 
Q 1625 4250 1398 4047 
Q 1172 3844 1172 3481 
z
" transform="scale(0.015625)"/>
       </defs>
       <use xlink:href="#DejaVuSans-38"/>
       <use xlink:href="#DejaVuSans-30" x="63.623047"/>
      </g>
     </g>
    </g>
    <g id="xtick_6">
     <g id="line2d_6">
      <g>
       <use xlink:href="#mb945272210" x="394.638835" y="288.430125" style="stroke: #000000; stroke-width: 0.8"/>
      </g>
     </g>
     <g id="text_6">
      <!-- 100 -->
      <g transform="translate(385.095085 303.028562) scale(0.1 -0.1)">
       <defs>
        <path id="DejaVuSans-31" d="M 794 531 
L 1825 531 
L 1825 4091 
L 703 3866 
L 703 4441 
L 1819 4666 
L 2450 4666 
L 2450 531 
L 3481 531 
L 3481 0 
L 794 0 
L 794 531 
z
" transform="scale(0.015625)"/>
       </defs>
       <use xlink:href="#DejaVuSans-31"/>
       <use xlink:href="#DejaVuSans-30" x="63.623047"/>
       <use xlink:href="#DejaVuSans-30" x="127.246094"/>
      </g>
     </g>
    </g>
    <g id="text_7">
     <!-- Percentage -->
     <g transform="translate(204.188906 316.706687) scale(0.1 -0.1)">
      <defs>
       <path id="DejaVuSans-50" d="M 1259 4147 
L 1259 2394 
L 2053 2394 
Q 2494 2394 2734 2622 
Q 2975 2850 2975 3272 
Q 2975 3691 2734 3919 
Q 2494 4147 2053 4147 
L 1259 4147 
z
M 628 4666 
L 2053 4666 
Q 2838 4666 3239 4311 
Q 3641 3956 3641 3272 
Q 3641 2581 3239 2228 
Q 2838 1875 2053 1875 
L 1259 1875 
L 1259 0 
L 628 0 
L 628 4666 
z
" transform="scale(0.015625)"/>
       <path id="DejaVuSans-65" d="M 3597 1894 
L 3597 1613 
L 953 1613 
Q 991 1019 1311 708 
Q 1631 397 2203 397 
Q 2534 397 2845 478 
Q 3156 559 3463 722 
L 3463 178 
Q 3153 47 2828 -22 
Q 2503 -91 2169 -91 
Q 1331 -91 842 396 
Q 353 884 353 1716 
Q 353 2575 817 3079 
Q 1281 3584 2069 3584 
Q 2775 3584 3186 3129 
Q 3597 2675 3597 1894 
z
M 3022 2063 
Q 3016 2534 2758 2815 
Q 2500 3097 2075 3097 
Q 1594 3097 1305 2825 
Q 1016 2553 972 2059 
L 3022 2063 
z
" transform="scale(0.015625)"/>
       <path id="DejaVuSans-72" d="M 2631 2963 
Q 2534 3019 2420 3045 
Q 2306 3072 2169 3072 
Q 1681 3072 1420 2755 
Q 1159 2438 1159 1844 
L 1159 0 
L 581 0 
L 581 3500 
L 1159 3500 
L 1159 2956 
Q 1341 3275 1631 3429 
Q 1922 3584 2338 3584 
Q 2397 3584 2469 3576 
Q 2541 3569 2628 3553 
L 2631 2963 
z
" transform="scale(0.015625)"/>
       <path id="DejaVuSans-63" d="M 3122 3366 
L 3122 2828 
Q 2878 2963 2633 3030 
Q 2388 3097 2138 3097 
Q 1578 3097 1268 2742 
Q 959 2388 959 1747 
Q 959 1106 1268 751 
Q 1578 397 2138 397 
Q 2388 397 2633 464 
Q 2878 531 3122 666 
L 3122 134 
Q 2881 22 2623 -34 
Q 2366 -91 2075 -91 
Q 1284 -91 818 406 
Q 353 903 353 1747 
Q 353 2603 823 3093 
Q 1294 3584 2113 3584 
Q 2378 3584 2631 3529 
Q 2884 3475 3122 3366 
z
" transform="scale(0.015625)"/>
       <path id="DejaVuSans-6e" d="M 3513 2113 
L 3513 0 
L 2938 0 
L 2938 2094 
Q 2938 2591 2744 2837 
Q 2550 3084 2163 3084 
Q 1697 3084 1428 2787 
Q 1159 2491 1159 1978 
L 1159 0 
L 581 0 
L 581 3500 
L 1159 3500 
L 1159 2956 
Q 1366 3272 1645 3428 
Q 1925 3584 2291 3584 
Q 2894 3584 3203 3211 
Q 3513 2838 3513 2113 
z
" transform="scale(0.015625)"/>
       <path id="DejaVuSans-74" d="M 1172 4494 
L 1172 3500 
L 2356 3500 
L 2356 3053 
L 1172 3053 
L 1172 1153 
Q 1172 725 1289 603 
Q 1406 481 1766 481 
L 2356 481 
L 2356 0 
L 1766 0 
Q 1100 0 847 248 
Q 594 497 594 1153 
L 594 3053 
L 172 3053 
L 172 3500 
L 594 3500 
L 594 4494 
L 1172 4494 
z
" transform="scale(0.015625)"/>
       <path id="DejaVuSans-61" d="M 2194 1759 
Q 1497 1759 1228 1600 
Q 959 1441 959 1056 
Q 959 750 1161 570 
Q 1363 391 1709 391 
Q 2188 391 2477 730 
Q 2766 1069 2766 1631 
L 2766 1759 
L 2194 1759 
z
M 3341 1997 
L 3341 0 
L 2766 0 
L 2766 531 
Q 2569 213 2275 61 
Q 1981 -91 1556 -91 
Q 1019 -91 701 211 
Q 384 513 384 1019 
Q 384 1609 779 1909 
Q 1175 2209 1959 2209 
L 2766 2209 
L 2766 2266 
Q 2766 2663 2505 2880 
Q 2244 3097 1772 3097 
Q 1472 3097 1187 3025 
Q 903 2953 641 2809 
L 641 3341 
Q 956 3463 1253 3523 
Q 1550 3584 1831 3584 
Q 2591 3584 2966 3190 
Q 3341 2797 3341 1997 
z
" transform="scale(0.015625)"/>
       <path id="DejaVuSans-67" d="M 2906 1791 
Q 2906 2416 2648 2759 
Q 2391 3103 1925 3103 
Q 1463 3103 1205 2759 
Q 947 2416 947 1791 
Q 947 1169 1205 825 
Q 1463 481 1925 481 
Q 2391 481 2648 825 
Q 2906 1169 2906 1791 
z
M 3481 434 
Q 3481 -459 3084 -895 
Q 2688 -1331 1869 -1331 
Q 1566 -1331 1297 -1286 
Q 1028 -1241 775 -1147 
L 775 -588 
Q 1028 -725 1275 -790 
Q 1522 -856 1778 -856 
Q 2344 -856 2625 -561 
Q 2906 -266 2906 331 
L 2906 616 
Q 2728 306 2450 153 
Q 2172 0 1784 0 
Q 1141 0 747 490 
Q 353 981 353 1791 
Q 353 2603 747 3093 
Q 1141 3584 1784 3584 
Q 2172 3584 2450 3431 
Q 2728 3278 2906 2969 
L 2906 3500 
L 3481 3500 
L 3481 434 
z
" transform="scale(0.015625)"/>
      </defs>
      <use xlink:href="#DejaVuSans-50"/>
      <use xlink:href="#DejaVuSans-65" x="56.677734"/>
      <use xlink:href="#DejaVuSans-72" x="118.201172"/>
      <use xlink:href="#DejaVuSans-63" x="157.064453"/>
      <use xlink:href="#DejaVuSans-65" x="212.044922"/>
      <use xlink:href="#DejaVuSans-6e" x="273.568359"/>
      <use xlink:href="#DejaVuSans-74" x="336.947266"/>
      <use xlink:href="#DejaVuSans-61" x="376.15625"/>
      <use xlink:href="#DejaVuSans-67" x="437.435547"/>
      <use xlink:href="#DejaVuSans-65" x="500.912109"/>
     </g>
    </g>
   </g>
   <g id="matplotlib.axis_2">
    <g id="ytick_1">
     <g id="line2d_7">
      <defs>
       <path id="m3487f046dc" d="M 0 0 
L -3.5 0 
" style="stroke: #000000; stroke-width: 0.8"/>
      </defs>
      <g>
       <use xlink:href="#m3487f046dc" x="53.751563" y="288.430125" style="stroke: #000000; stroke-width: 0.8"/>
      </g>
     </g>
     <g id="text_8">
      <!-- -0.25 -->
      <g transform="translate(20.878125 292.229344) scale(0.1 -0.1)">
       <defs>
        <path id="DejaVuSans-2d" d="M 313 2009 
L 1997 2009 
L 1997 1497 
L 313 1497 
L 313 2009 
z
" transform="scale(0.015625)"/>
        <path id="DejaVuSans-2e" d="M 684 794 
L 1344 794 
L 1344 0 
L 684 0 
L 684 794 
z
" transform="scale(0.015625)"/>
        <path id="DejaVuSans-35" d="M 691 4666 
L 3169 4666 
L 3169 4134 
L 1269 4134 
L 1269 2991 
Q 1406 3038 1543 3061 
Q 1681 3084 1819 3084 
Q 2600 3084 3056 2656 
Q 3513 2228 3513 1497 
Q 3513 744 3044 326 
Q 2575 -91 1722 -91 
Q 1428 -91 1123 -41 
Q 819 9 494 109 
L 494 744 
Q 775 591 1075 516 
Q 1375 441 1709 441 
Q 2250 441 2565 725 
Q 2881 1009 2881 1497 
Q 2881 1984 2565 2268 
Q 2250 2553 1709 2553 
Q 1456 2553 1204 2497 
Q 953 2441 691 2322 
L 691 4666 
z
" transform="scale(0.015625)"/>
       </defs>
       <use xlink:href="#DejaVuSans-2d"/>
       <use xlink:href="#DejaVuSans-30" x="36.083984"/>
       <use xlink:href="#DejaVuSans-2e" x="99.707031"/>
       <use xlink:href="#DejaVuSans-32" x="131.494141"/>
       <use xlink:href="#DejaVuSans-35" x="195.117188"/>
      </g>
     </g>
    </g>
    <g id="ytick_2">
     <g id="line2d_8">
      <g>
       <use xlink:href="#m3487f046dc" x="53.751563" y="255.166125" style="stroke: #000000; stroke-width: 0.8"/>
      </g>
     </g>
     <g id="text_9">
      <!-- -0.2 -->
      <g transform="translate(27.240625 258.965344) scale(0.1 -0.1)">
       <use xlink:href="#DejaVuSans-2d"/>
       <use xlink:href="#DejaVuSans-30" x="36.083984"/>
       <use xlink:href="#DejaVuSans-2e" x="99.707031"/>
       <use xlink:href="#DejaVuSans-32" x="131.494141"/>
      </g>
     </g>
    </g>
    <g id="ytick_3">
     <g id="line2d_9">
      <g>
       <use xlink:href="#m3487f046dc" x="53.751563" y="221.902125" style="stroke: #000000; stroke-width: 0.8"/>
      </g>
     </g>
     <g id="text_10">
      <!-- -0.15 -->
      <g transform="translate(20.878125 225.701344) scale(0.1 -0.1)">
       <use xlink:href="#DejaVuSans-2d"/>
       <use xlink:href="#DejaVuSans-30" x="36.083984"/>
       <use xlink:href="#DejaVuSans-2e" x="99.707031"/>
       <use xlink:href="#DejaVuSans-31" x="131.494141"/>
       <use xlink:href="#DejaVuSans-35" x="195.117188"/>
      </g>
     </g>
    </g>
    <g id="ytick_4">
     <g id="line2d_10">
      <g>
       <use xlink:href="#m3487f046dc" x="53.751563" y="188.638125" style="stroke: #000000; stroke-width: 0.8"/>
      </g>
     </g>
     <g id="text_11">
      <!-- -0.1 -->
      <g transform="translate(27.240625 192.437344) scale(0.1 -0.1)">
       <use xlink:href="#DejaVuSans-2d"/>
       <use xlink:href="#DejaVuSans-30" x="36.083984"/>
       <use xlink:href="#DejaVuSans-2e" x="99.707031"/>
       <use xlink:href="#DejaVuSans-31" x="131.494141"/>
      </g>
     </g>
    </g>
    <g id="ytick_5">
     <g id="line2d_11">
      <g>
       <use xlink:href="#m3487f046dc" x="53.751563" y="155.374125" style="stroke: #000000; stroke-width: 0.8"/>
      </g>
     </g>
     <g id="text_12">
      <!-- -0.05 -->
      <g transform="translate(20.878125 159.173344) scale(0.1 -0.1)">
       <use xlink:href="#DejaVuSans-2d"/>
       <use xlink:href="#DejaVuSans-30" x="36.083984"/>
       <use xlink:href="#DejaVuSans-2e" x="99.707031"/>
       <use xlink:href="#DejaVuSans-30" x="131.494141"/>
       <use xlink:href="#DejaVuSans-35" x="195.117188"/>
      </g>
     </g>
    </g>
    <g id="ytick_6">
     <g id="line2d_12">
      <g>
       <use xlink:href="#m3487f046dc" x="53.751563" y="122.110125" style="stroke: #000000; stroke-width: 0.8"/>
      </g>
     </g>
     <g id="text_13">
      <!-- 0.0 -->
      <g transform="translate(30.848438 125.909344) scale(0.1 -0.1)">
       <use xlink:href="#DejaVuSans-30"/>
       <use xlink:href="#DejaVuSans-2e" x="63.623047"/>
       <use xlink:href="#DejaVuSans-30" x="95.410156"/>
      </g>
     </g>
    </g>
    <g id="ytick_7">
     <g id="line2d_13">
      <g>
       <use xlink:href="#m3487f046dc" x="53.751563" y="88.846125" style="stroke: #000000; stroke-width: 0.8"/>
      </g>
     </g>
     <g id="text_14">
      <!-- 0.05 -->
      <g transform="translate(24.485938 92.645344) scale(0.1 -0.1)">
       <use xlink:href="#DejaVuSans-30"/>
       <use xlink:href="#DejaVuSans-2e" x="63.623047"/>
       <use xlink:href="#DejaVuSans-30" x="95.410156"/>
       <use xlink:href="#DejaVuSans-35" x="159.033203"/>
      </g>
     </g>
    </g>
    <g id="ytick_8">
     <g id="line2d_14">
      <g>
       <use xlink:href="#m3487f046dc" x="53.751563" y="55.582125" style="stroke: #000000; stroke-width: 0.8"/>
      </g>
     </g>
     <g id="text_15">
      <!-- 0.1 -->
      <g transform="translate(30.848438 59.381344) scale(0.1 -0.1)">
       <use xlink:href="#DejaVuSans-30"/>
       <use xlink:href="#DejaVuSans-2e" x="63.623047"/>
       <use xlink:href="#DejaVuSans-31" x="95.410156"/>
      </g>
     </g>
    </g>
    <g id="ytick_9">
     <g id="line2d_15">
      <g>
       <use xlink:href="#m3487f046dc" x="53.751563" y="22.318125" style="stroke: #000000; stroke-width: 0.8"/>
      </g>
     </g>
     <g id="text_16">
      <!-- 0.15 -->
      <g transform="translate(24.485938 26.117344) scale(0.1 -0.1)">
       <use xlink:href="#DejaVuSans-30"/>
       <use xlink:href="#DejaVuSans-2e" x="63.623047"/>
       <use xlink:href="#DejaVuSans-31" x="95.410156"/>
       <use xlink:href="#DejaVuSans-35" x="159.033203"/>
      </g>
     </g>
    </g>
    <g id="text_17">
     <!-- Acceleration (x in cm / 10ms) -->
     <g transform="translate(14.798437 228.949906) rotate(-90) scale(0.1 -0.1)">
      <defs>
       <path id="DejaVuSans-41" d="M 2188 4044 
L 1331 1722 
L 3047 1722 
L 2188 4044 
z
M 1831 4666 
L 2547 4666 
L 4325 0 
L 3669 0 
L 3244 1197 
L 1141 1197 
L 716 0 
L 50 0 
L 1831 4666 
z
" transform="scale(0.015625)"/>
       <path id="DejaVuSans-6c" d="M 603 4863 
L 1178 4863 
L 1178 0 
L 603 0 
L 603 4863 
z
" transform="scale(0.015625)"/>
       <path id="DejaVuSans-69" d="M 603 3500 
L 1178 3500 
L 1178 0 
L 603 0 
L 603 3500 
z
M 603 4863 
L 1178 4863 
L 1178 4134 
L 603 4134 
L 603 4863 
z
" transform="scale(0.015625)"/>
       <path id="DejaVuSans-6f" d="M 1959 3097 
Q 1497 3097 1228 2736 
Q 959 2375 959 1747 
Q 959 1119 1226 758 
Q 1494 397 1959 397 
Q 2419 397 2687 759 
Q 2956 1122 2956 1747 
Q 2956 2369 2687 2733 
Q 2419 3097 1959 3097 
z
M 1959 3584 
Q 2709 3584 3137 3096 
Q 3566 2609 3566 1747 
Q 3566 888 3137 398 
Q 2709 -91 1959 -91 
Q 1206 -91 779 398 
Q 353 888 353 1747 
Q 353 2609 779 3096 
Q 1206 3584 1959 3584 
z
" transform="scale(0.015625)"/>
       <path id="DejaVuSans-20" transform="scale(0.015625)"/>
       <path id="DejaVuSans-28" d="M 1984 4856 
Q 1566 4138 1362 3434 
Q 1159 2731 1159 2009 
Q 1159 1288 1364 580 
Q 1569 -128 1984 -844 
L 1484 -844 
Q 1016 -109 783 600 
Q 550 1309 550 2009 
Q 550 2706 781 3412 
Q 1013 4119 1484 4856 
L 1984 4856 
z
" transform="scale(0.015625)"/>
       <path id="DejaVuSans-78" d="M 3513 3500 
L 2247 1797 
L 3578 0 
L 2900 0 
L 1881 1375 
L 863 0 
L 184 0 
L 1544 1831 
L 300 3500 
L 978 3500 
L 1906 2253 
L 2834 3500 
L 3513 3500 
z
" transform="scale(0.015625)"/>
       <path id="DejaVuSans-6d" d="M 3328 2828 
Q 3544 3216 3844 3400 
Q 4144 3584 4550 3584 
Q 5097 3584 5394 3201 
Q 5691 2819 5691 2113 
L 5691 0 
L 5113 0 
L 5113 2094 
Q 5113 2597 4934 2840 
Q 4756 3084 4391 3084 
Q 3944 3084 3684 2787 
Q 3425 2491 3425 1978 
L 3425 0 
L 2847 0 
L 2847 2094 
Q 2847 2600 2669 2842 
Q 2491 3084 2119 3084 
Q 1678 3084 1418 2786 
Q 1159 2488 1159 1978 
L 1159 0 
L 581 0 
L 581 3500 
L 1159 3500 
L 1159 2956 
Q 1356 3278 1631 3431 
Q 1906 3584 2284 3584 
Q 2666 3584 2933 3390 
Q 3200 3197 3328 2828 
z
" transform="scale(0.015625)"/>
       <path id="DejaVuSans-2f" d="M 1625 4666 
L 2156 4666 
L 531 -594 
L 0 -594 
L 1625 4666 
z
" transform="scale(0.015625)"/>
       <path id="DejaVuSans-73" d="M 2834 3397 
L 2834 2853 
Q 2591 2978 2328 3040 
Q 2066 3103 1784 3103 
Q 1356 3103 1142 2972 
Q 928 2841 928 2578 
Q 928 2378 1081 2264 
Q 1234 2150 1697 2047 
L 1894 2003 
Q 2506 1872 2764 1633 
Q 3022 1394 3022 966 
Q 3022 478 2636 193 
Q 2250 -91 1575 -91 
Q 1294 -91 989 -36 
Q 684 19 347 128 
L 347 722 
Q 666 556 975 473 
Q 1284 391 1588 391 
Q 1994 391 2212 530 
Q 2431 669 2431 922 
Q 2431 1156 2273 1281 
Q 2116 1406 1581 1522 
L 1381 1569 
Q 847 1681 609 1914 
Q 372 2147 372 2553 
Q 372 3047 722 3315 
Q 1072 3584 1716 3584 
Q 2034 3584 2315 3537 
Q 2597 3491 2834 3397 
z
" transform="scale(0.015625)"/>
       <path id="DejaVuSans-29" d="M 513 4856 
L 1013 4856 
Q 1481 4119 1714 3412 
Q 1947 2706 1947 2009 
Q 1947 1309 1714 600 
Q 1481 -109 1013 -844 
L 513 -844 
Q 928 -128 1133 580 
Q 1338 1288 1338 2009 
Q 1338 2731 1133 3434 
Q 928 4138 513 4856 
z
" transform="scale(0.015625)"/>
      </defs>
      <use xlink:href="#DejaVuSans-41"/>
      <use xlink:href="#DejaVuSans-63" x="66.658203"/>
      <use xlink:href="#DejaVuSans-63" x="121.638672"/>
      <use xlink:href="#DejaVuSans-65" x="176.619141"/>
      <use xlink:href="#DejaVuSans-6c" x="238.142578"/>
      <use xlink:href="#DejaVuSans-65" x="265.925781"/>
      <use xlink:href="#DejaVuSans-72" x="327.449219"/>
      <use xlink:href="#DejaVuSans-61" x="368.5625"/>
      <use xlink:href="#DejaVuSans-74" x="429.841797"/>
      <use xlink:href="#DejaVuSans-69" x="469.050781"/>
      <use xlink:href="#DejaVuSans-6f" x="496.833984"/>
      <use xlink:href="#DejaVuSans-6e" x="558.015625"/>
      <use xlink:href="#DejaVuSans-20" x="621.394531"/>
      <use xlink:href="#DejaVuSans-28" x="653.181641"/>
      <use xlink:href="#DejaVuSans-78" x="692.195312"/>
      <use xlink:href="#DejaVuSans-20" x="751.375"/>
      <use xlink:href="#DejaVuSans-69" x="783.162109"/>
      <use xlink:href="#DejaVuSans-6e" x="810.945312"/>
      <use xlink:href="#DejaVuSans-20" x="874.324219"/>
      <use xlink:href="#DejaVuSans-63" x="906.111328"/>
      <use xlink:href="#DejaVuSans-6d" x="961.091797"/>
      <use xlink:href="#DejaVuSans-20" x="1058.503906"/>
      <use xlink:href="#DejaVuSans-2f" x="1090.291016"/>
      <use xlink:href="#DejaVuSans-20" x="1123.982422"/>
      <use xlink:href="#DejaVuSans-31" x="1155.769531"/>
      <use xlink:href="#DejaVuSans-30" x="1219.392578"/>
      <use xlink:href="#DejaVuSans-6d" x="1283.015625"/>
      <use xlink:href="#DejaVuSans-73" x="1380.427734"/>
      <use xlink:href="#DejaVuSans-29" x="1432.527344"/>
     </g>
    </g>
   </g>
   <g id="line2d_16">
    <path d="M 69.98429 83.587323 
L 83.511563 137.379513 
L 97.038835 126.637911 
L 110.566108 115.519076 
L 124.093381 190.970632 
L 137.620653 173.698138 
L 151.147926 133.969203 
L 164.675199 155.819886 
L 178.202472 160.594876 
L 191.729744 150.617614 
L 205.257017 140.501885 
L 218.78429 125.098265 
L 232.311562 122.313422 
L 245.838835 130.271311 
L 259.366108 126.063354 
L 272.893381 111.084755 
L 286.420653 113.906484 
L 299.947926 116.892801 
L 313.475199 107.875532 
L 327.002472 107.821941 
L 340.529744 118.266948 
L 354.057017 123.095631 
L 367.58429 107.173036 
L 381.111562 99.003379 
L 394.638835 104.612651 
" clip-path="url(#p5891fb170f)" style="fill: none; stroke: #440154; stroke-width: 1.5; stroke-linecap: square"/>
   </g>
   <g id="line2d_17">
    <path d="M 69.98429 110.309203 
L 83.511563 111.563055 
L 97.038835 98.899098 
L 110.566108 106.507595 
L 124.093381 157.900258 
L 137.620653 163.562868 
L 151.147926 129.322658 
L 164.675199 139.730577 
L 178.202472 154.051665 
L 191.729744 147.124066 
L 205.257017 129.505774 
L 218.78429 117.716891 
L 232.311562 116.536862 
L 245.838835 128.450579 
L 259.366108 126.04135 
L 272.893381 100.744467 
L 286.420653 89.824694 
L 299.947926 101.908196 
L 313.475199 115.659282 
L 327.002472 119.723001 
L 340.529744 114.873091 
L 354.057017 106.6735 
L 367.58429 101.750188 
L 381.111562 109.918697 
L 394.638835 118.464812 
" clip-path="url(#p5891fb170f)" style="fill: none; stroke: #3b528b; stroke-width: 1.5; stroke-linecap: square"/>
   </g>
   <g id="line2d_18">
    <path d="M 69.98429 113.283295 
L 83.511563 107.402657 
L 97.038835 108.683254 
L 110.566108 116.900715 
L 124.093381 122.309778 
L 137.620653 141.564808 
L 151.147926 126.906342 
L 164.675199 126.666563 
L 178.202472 139.523567 
L 191.729744 133.689433 
L 205.257017 118.029903 
L 218.78429 118.443922 
L 232.311562 132.54349 
L 245.838835 130.374141 
L 259.366108 100.446034 
L 272.893381 99.124804 
L 286.420653 120.423405 
L 299.947926 122.552526 
L 313.475199 122.816873 
L 327.002472 129.358498 
L 340.529744 114.779846 
L 354.057017 104.106264 
L 367.58429 105.812692 
L 381.111562 96.101161 
L 394.638835 91.243489 
" clip-path="url(#p5891fb170f)" style="fill: none; stroke: #21918c; stroke-width: 1.5; stroke-linecap: square"/>
   </g>
   <g id="line2d_19">
    <path d="M 69.98429 124.170502 
L 83.511563 114.443379 
L 97.038835 112.147037 
L 110.566108 106.330064 
L 124.093381 119.160778 
L 137.620653 154.183619 
L 151.147926 129.707418 
L 164.675199 123.35252 
L 178.202472 134.865581 
L 191.729744 122.523975 
L 205.257017 105.326756 
L 218.78429 123.385525 
L 232.311562 133.850073 
L 245.838835 117.230989 
L 259.366108 101.092104 
L 272.893381 94.47836 
L 286.420653 118.26192 
L 299.947926 128.824606 
L 313.475199 122.472375 
L 327.002472 130.642302 
L 340.529744 127.359745 
L 354.057017 117.239561 
L 367.58429 111.435395 
L 381.111562 120.683061 
L 394.638835 131.695742 
" clip-path="url(#p5891fb170f)" style="fill: none; stroke: #5ec962; stroke-width: 1.5; stroke-linecap: square"/>
   </g>
   <g id="line2d_20">
    <path d="M 69.98429 97.717972 
L 83.511563 92.855086 
L 97.038835 110.800412 
L 110.566108 112.878911 
L 124.093381 120.98465 
L 137.620653 142.957297 
L 151.147926 124.636897 
L 164.675199 125.058172 
L 178.202472 142.553656 
L 191.729744 115.98856 
L 205.257017 98.367738 
L 218.78429 125.018147 
L 232.311562 138.024013 
L 245.838835 120.261888 
L 259.366108 98.316508 
L 272.893381 107.581791 
L 286.420653 128.732677 
L 299.947926 124.340557 
L 313.475199 116.435281 
L 327.002472 119.26322 
L 340.529744 120.621202 
L 354.057017 116.806879 
L 367.58429 116.00918 
L 381.111562 123.461728 
L 394.638835 127.547856 
" clip-path="url(#p5891fb170f)" style="fill: none; stroke: #fde725; stroke-width: 1.5; stroke-linecap: square"/>
   </g>
   <g id="patch_3">
    <path d="M 53.751563 288.430125 
L 53.751563 22.318125 
" style="fill: none; stroke: #000000; stroke-width: 0.8; stroke-linejoin: miter; stroke-linecap: square"/>
   </g>
   <g id="patch_4">
    <path d="M 410.871562 288.430125 
L 410.871562 22.318125 
" style="fill: none; stroke: #000000; stroke-width: 0.8; stroke-linejoin: miter; stroke-linecap: square"/>
   </g>
   <g id="patch_5">
    <path d="M 53.751563 288.430125 
L 410.871562 288.430125 
" style="fill: none; stroke: #000000; stroke-width: 0.8; stroke-linejoin: miter; stroke-linecap: square"/>
   </g>
   <g id="patch_6">
    <path d="M 53.751563 22.318125 
L 410.871562 22.318125 
" style="fill: none; stroke: #000000; stroke-width: 0.8; stroke-linejoin: miter; stroke-linecap: square"/>
   </g>
   <g id="text_18">
    <!-- ID 14 - Run 3 - Joint accelerations over average step cycle -->
    <g transform="translate(57.8775 16.318125) scale(0.12 -0.12)">
     <defs>
      <path id="DejaVuSans-49" d="M 628 4666 
L 1259 4666 
L 1259 0 
L 628 0 
L 628 4666 
z
" transform="scale(0.015625)"/>
      <path id="DejaVuSans-44" d="M 1259 4147 
L 1259 519 
L 2022 519 
Q 2988 519 3436 956 
Q 3884 1394 3884 2338 
Q 3884 3275 3436 3711 
Q 2988 4147 2022 4147 
L 1259 4147 
z
M 628 4666 
L 1925 4666 
Q 3281 4666 3915 4102 
Q 4550 3538 4550 2338 
Q 4550 1131 3912 565 
Q 3275 0 1925 0 
L 628 0 
L 628 4666 
z
" transform="scale(0.015625)"/>
      <path id="DejaVuSans-52" d="M 2841 2188 
Q 3044 2119 3236 1894 
Q 3428 1669 3622 1275 
L 4263 0 
L 3584 0 
L 2988 1197 
Q 2756 1666 2539 1819 
Q 2322 1972 1947 1972 
L 1259 1972 
L 1259 0 
L 628 0 
L 628 4666 
L 2053 4666 
Q 2853 4666 3247 4331 
Q 3641 3997 3641 3322 
Q 3641 2881 3436 2590 
Q 3231 2300 2841 2188 
z
M 1259 4147 
L 1259 2491 
L 2053 2491 
Q 2509 2491 2742 2702 
Q 2975 2913 2975 3322 
Q 2975 3731 2742 3939 
Q 2509 4147 2053 4147 
L 1259 4147 
z
" transform="scale(0.015625)"/>
      <path id="DejaVuSans-75" d="M 544 1381 
L 544 3500 
L 1119 3500 
L 1119 1403 
Q 1119 906 1312 657 
Q 1506 409 1894 409 
Q 2359 409 2629 706 
Q 2900 1003 2900 1516 
L 2900 3500 
L 3475 3500 
L 3475 0 
L 2900 0 
L 2900 538 
Q 2691 219 2414 64 
Q 2138 -91 1772 -91 
Q 1169 -91 856 284 
Q 544 659 544 1381 
z
M 1991 3584 
L 1991 3584 
z
" transform="scale(0.015625)"/>
      <path id="DejaVuSans-33" d="M 2597 2516 
Q 3050 2419 3304 2112 
Q 3559 1806 3559 1356 
Q 3559 666 3084 287 
Q 2609 -91 1734 -91 
Q 1441 -91 1130 -33 
Q 819 25 488 141 
L 488 750 
Q 750 597 1062 519 
Q 1375 441 1716 441 
Q 2309 441 2620 675 
Q 2931 909 2931 1356 
Q 2931 1769 2642 2001 
Q 2353 2234 1838 2234 
L 1294 2234 
L 1294 2753 
L 1863 2753 
Q 2328 2753 2575 2939 
Q 2822 3125 2822 3475 
Q 2822 3834 2567 4026 
Q 2313 4219 1838 4219 
Q 1578 4219 1281 4162 
Q 984 4106 628 3988 
L 628 4550 
Q 988 4650 1302 4700 
Q 1616 4750 1894 4750 
Q 2613 4750 3031 4423 
Q 3450 4097 3450 3541 
Q 3450 3153 3228 2886 
Q 3006 2619 2597 2516 
z
" transform="scale(0.015625)"/>
      <path id="DejaVuSans-4a" d="M 628 4666 
L 1259 4666 
L 1259 325 
Q 1259 -519 939 -900 
Q 619 -1281 -91 -1281 
L -331 -1281 
L -331 -750 
L -134 -750 
Q 284 -750 456 -515 
Q 628 -281 628 325 
L 628 4666 
z
" transform="scale(0.015625)"/>
      <path id="DejaVuSans-76" d="M 191 3500 
L 800 3500 
L 1894 563 
L 2988 3500 
L 3597 3500 
L 2284 0 
L 1503 0 
L 191 3500 
z
" transform="scale(0.015625)"/>
      <path id="DejaVuSans-70" d="M 1159 525 
L 1159 -1331 
L 581 -1331 
L 581 3500 
L 1159 3500 
L 1159 2969 
Q 1341 3281 1617 3432 
Q 1894 3584 2278 3584 
Q 2916 3584 3314 3078 
Q 3713 2572 3713 1747 
Q 3713 922 3314 415 
Q 2916 -91 2278 -91 
Q 1894 -91 1617 61 
Q 1341 213 1159 525 
z
M 3116 1747 
Q 3116 2381 2855 2742 
Q 2594 3103 2138 3103 
Q 1681 3103 1420 2742 
Q 1159 2381 1159 1747 
Q 1159 1113 1420 752 
Q 1681 391 2138 391 
Q 2594 391 2855 752 
Q 3116 1113 3116 1747 
z
" transform="scale(0.015625)"/>
      <path id="DejaVuSans-79" d="M 2059 -325 
Q 1816 -950 1584 -1140 
Q 1353 -1331 966 -1331 
L 506 -1331 
L 506 -850 
L 844 -850 
Q 1081 -850 1212 -737 
Q 1344 -625 1503 -206 
L 1606 56 
L 191 3500 
L 800 3500 
L 1894 763 
L 2988 3500 
L 3597 3500 
L 2059 -325 
z
" transform="scale(0.015625)"/>
     </defs>
     <use xlink:href="#DejaVuSans-49"/>
     <use xlink:href="#DejaVuSans-44" x="29.492188"/>
     <use xlink:href="#DejaVuSans-20" x="106.494141"/>
     <use xlink:href="#DejaVuSans-31" x="138.28125"/>
     <use xlink:href="#DejaVuSans-34" x="201.904297"/>
     <use xlink:href="#DejaVuSans-20" x="265.527344"/>
     <use xlink:href="#DejaVuSans-2d" x="297.314453"/>
     <use xlink:href="#DejaVuSans-20" x="333.398438"/>
     <use xlink:href="#DejaVuSans-52" x="365.185547"/>
     <use xlink:href="#DejaVuSans-75" x="430.167969"/>
     <use xlink:href="#DejaVuSans-6e" x="493.546875"/>
     <use xlink:href="#DejaVuSans-20" x="556.925781"/>
     <use xlink:href="#DejaVuSans-33" x="588.712891"/>
     <use xlink:href="#DejaVuSans-20" x="652.335938"/>
     <use xlink:href="#DejaVuSans-2d" x="684.123047"/>
     <use xlink:href="#DejaVuSans-20" x="720.207031"/>
     <use xlink:href="#DejaVuSans-4a" x="751.994141"/>
     <use xlink:href="#DejaVuSans-6f" x="781.486328"/>
     <use xlink:href="#DejaVuSans-69" x="842.667969"/>
     <use xlink:href="#DejaVuSans-6e" x="870.451172"/>
     <use xlink:href="#DejaVuSans-74" x="933.830078"/>
     <use xlink:href="#DejaVuSans-20" x="973.039062"/>
     <use xlink:href="#DejaVuSans-61" x="1004.826172"/>
     <use xlink:href="#DejaVuSans-63" x="1066.105469"/>
     <use xlink:href="#DejaVuSans-63" x="1121.085938"/>
     <use xlink:href="#DejaVuSans-65" x="1176.066406"/>
     <use xlink:href="#DejaVuSans-6c" x="1237.589844"/>
     <use xlink:href="#DejaVuSans-65" x="1265.373047"/>
     <use xlink:href="#DejaVuSans-72" x="1326.896484"/>
     <use xlink:href="#DejaVuSans-61" x="1368.009766"/>
     <use xlink:href="#DejaVuSans-74" x="1429.289062"/>
     <use xlink:href="#DejaVuSans-69" x="1468.498047"/>
     <use xlink:href="#DejaVuSans-6f" x="1496.28125"/>
     <use xlink:href="#DejaVuSans-6e" x="1557.462891"/>
     <use xlink:href="#DejaVuSans-73" x="1620.841797"/>
     <use xlink:href="#DejaVuSans-20" x="1672.941406"/>
     <use xlink:href="#DejaVuSans-6f" x="1704.728516"/>
     <use xlink:href="#DejaVuSans-76" x="1765.910156"/>
     <use xlink:href="#DejaVuSans-65" x="1825.089844"/>
     <use xlink:href="#DejaVuSans-72" x="1886.613281"/>
     <use xlink:href="#DejaVuSans-20" x="1927.726562"/>
     <use xlink:href="#DejaVuSans-61" x="1959.513672"/>
     <use xlink:href="#DejaVuSans-76" x="2020.792969"/>
     <use xlink:href="#DejaVuSans-65" x="2079.972656"/>
     <use xlink:href="#DejaVuSans-72" x="2141.496094"/>
     <use xlink:href="#DejaVuSans-61" x="2182.609375"/>
     <use xlink:href="#DejaVuSans-67" x="2243.888672"/>
     <use xlink:href="#DejaVuSans-65" x="2307.365234"/>
     <use xlink:href="#DejaVuSans-20" x="2368.888672"/>
     <use xlink:href="#DejaVuSans-73" x="2400.675781"/>
     <use xlink:href="#DejaVuSans-74" x="2452.775391"/>
     <use xlink:href="#DejaVuSans-65" x="2491.984375"/>
     <use xlink:href="#DejaVuSans-70" x="2553.507812"/>
     <use xlink:href="#DejaVuSans-20" x="2616.984375"/>
     <use xlink:href="#DejaVuSans-63" x="2648.771484"/>
     <use xlink:href="#DejaVuSans-79" x="2703.751953"/>
     <use xlink:href="#DejaVuSans-63" x="2762.931641"/>
     <use xlink:href="#DejaVuSans-6c" x="2817.912109"/>
     <use xlink:href="#DejaVuSans-65" x="2845.695312"/>
    </g>
   </g>
   <g id="legend_1">
    <g id="patch_7">
     <path d="M 60.751563 283.430125 
L 162.092188 283.430125 
Q 164.092188 283.430125 164.092188 281.430125 
L 164.092188 209.0395 
Q 164.092188 207.0395 162.092188 207.0395 
L 60.751563 207.0395 
Q 58.751563 207.0395 58.751563 209.0395 
L 58.751563 281.430125 
Q 58.751563 283.430125 60.751563 283.430125 
z
" style="fill: #ffffff; opacity: 0.8; stroke: #cccccc; stroke-linejoin: miter"/>
    </g>
    <g id="line2d_21">
     <path d="M 62.751563 215.137937 
L 72.751563 215.137937 
L 82.751563 215.137937 
" style="fill: none; stroke: #440154; stroke-width: 1.5; stroke-linecap: square"/>
    </g>
    <g id="text_19">
     <!-- Hind paw tao  -->
     <g transform="translate(90.751563 218.637937) scale(0.1 -0.1)">
      <defs>
       <path id="DejaVuSans-48" d="M 628 4666 
L 1259 4666 
L 1259 2753 
L 3553 2753 
L 3553 4666 
L 4184 4666 
L 4184 0 
L 3553 0 
L 3553 2222 
L 1259 2222 
L 1259 0 
L 628 0 
L 628 4666 
z
" transform="scale(0.015625)"/>
       <path id="DejaVuSans-64" d="M 2906 2969 
L 2906 4863 
L 3481 4863 
L 3481 0 
L 2906 0 
L 2906 525 
Q 2725 213 2448 61 
Q 2172 -91 1784 -91 
Q 1150 -91 751 415 
Q 353 922 353 1747 
Q 353 2572 751 3078 
Q 1150 3584 1784 3584 
Q 2172 3584 2448 3432 
Q 2725 3281 2906 2969 
z
M 947 1747 
Q 947 1113 1208 752 
Q 1469 391 1925 391 
Q 2381 391 2643 752 
Q 2906 1113 2906 1747 
Q 2906 2381 2643 2742 
Q 2381 3103 1925 3103 
Q 1469 3103 1208 2742 
Q 947 2381 947 1747 
z
" transform="scale(0.015625)"/>
       <path id="DejaVuSans-77" d="M 269 3500 
L 844 3500 
L 1563 769 
L 2278 3500 
L 2956 3500 
L 3675 769 
L 4391 3500 
L 4966 3500 
L 4050 0 
L 3372 0 
L 2619 2869 
L 1863 0 
L 1184 0 
L 269 3500 
z
" transform="scale(0.015625)"/>
      </defs>
      <use xlink:href="#DejaVuSans-48"/>
      <use xlink:href="#DejaVuSans-69" x="75.195312"/>
      <use xlink:href="#DejaVuSans-6e" x="102.978516"/>
      <use xlink:href="#DejaVuSans-64" x="166.357422"/>
      <use xlink:href="#DejaVuSans-20" x="229.833984"/>
      <use xlink:href="#DejaVuSans-70" x="261.621094"/>
      <use xlink:href="#DejaVuSans-61" x="325.097656"/>
      <use xlink:href="#DejaVuSans-77" x="386.376953"/>
      <use xlink:href="#DejaVuSans-20" x="468.164062"/>
      <use xlink:href="#DejaVuSans-74" x="499.951172"/>
      <use xlink:href="#DejaVuSans-61" x="539.160156"/>
      <use xlink:href="#DejaVuSans-6f" x="600.439453"/>
      <use xlink:href="#DejaVuSans-20" x="661.621094"/>
     </g>
    </g>
    <g id="line2d_22">
     <path d="M 62.751563 229.816062 
L 72.751563 229.816062 
L 82.751563 229.816062 
" style="fill: none; stroke: #3b528b; stroke-width: 1.5; stroke-linecap: square"/>
    </g>
    <g id="text_20">
     <!-- Ankle  -->
     <g transform="translate(90.751563 233.316062) scale(0.1 -0.1)">
      <defs>
       <path id="DejaVuSans-6b" d="M 581 4863 
L 1159 4863 
L 1159 1991 
L 2875 3500 
L 3609 3500 
L 1753 1863 
L 3688 0 
L 2938 0 
L 1159 1709 
L 1159 0 
L 581 0 
L 581 4863 
z
" transform="scale(0.015625)"/>
      </defs>
      <use xlink:href="#DejaVuSans-41"/>
      <use xlink:href="#DejaVuSans-6e" x="68.408203"/>
      <use xlink:href="#DejaVuSans-6b" x="131.787109"/>
      <use xlink:href="#DejaVuSans-6c" x="189.697266"/>
      <use xlink:href="#DejaVuSans-65" x="217.480469"/>
      <use xlink:href="#DejaVuSans-20" x="279.003906"/>
     </g>
    </g>
    <g id="line2d_23">
     <path d="M 62.751563 244.494187 
L 72.751563 244.494187 
L 82.751563 244.494187 
" style="fill: none; stroke: #21918c; stroke-width: 1.5; stroke-linecap: square"/>
    </g>
    <g id="text_21">
     <!-- Knee  -->
     <g transform="translate(90.751563 247.994187) scale(0.1 -0.1)">
      <defs>
       <path id="DejaVuSans-4b" d="M 628 4666 
L 1259 4666 
L 1259 2694 
L 3353 4666 
L 4166 4666 
L 1850 2491 
L 4331 0 
L 3500 0 
L 1259 2247 
L 1259 0 
L 628 0 
L 628 4666 
z
" transform="scale(0.015625)"/>
      </defs>
      <use xlink:href="#DejaVuSans-4b"/>
      <use xlink:href="#DejaVuSans-6e" x="65.576172"/>
      <use xlink:href="#DejaVuSans-65" x="128.955078"/>
      <use xlink:href="#DejaVuSans-65" x="190.478516"/>
      <use xlink:href="#DejaVuSans-20" x="252.001953"/>
     </g>
    </g>
    <g id="line2d_24">
     <path d="M 62.751563 259.172312 
L 72.751563 259.172312 
L 82.751563 259.172312 
" style="fill: none; stroke: #5ec962; stroke-width: 1.5; stroke-linecap: square"/>
    </g>
    <g id="text_22">
     <!-- Hip  -->
     <g transform="translate(90.751563 262.672312) scale(0.1 -0.1)">
      <use xlink:href="#DejaVuSans-48"/>
      <use xlink:href="#DejaVuSans-69" x="75.195312"/>
      <use xlink:href="#DejaVuSans-70" x="102.978516"/>
      <use xlink:href="#DejaVuSans-20" x="166.455078"/>
     </g>
    </g>
    <g id="line2d_25">
     <path d="M 62.751563 273.850437 
L 72.751563 273.850437 
L 82.751563 273.850437 
" style="fill: none; stroke: #fde725; stroke-width: 1.5; stroke-linecap: square"/>
    </g>
    <g id="text_23">
     <!-- Iliac Crest  -->
     <g transform="translate(90.751563 277.350437) scale(0.1 -0.1)">
      <defs>
       <path id="DejaVuSans-43" d="M 4122 4306 
L 4122 3641 
Q 3803 3938 3442 4084 
Q 3081 4231 2675 4231 
Q 1875 4231 1450 3742 
Q 1025 3253 1025 2328 
Q 1025 1406 1450 917 
Q 1875 428 2675 428 
Q 3081 428 3442 575 
Q 3803 722 4122 1019 
L 4122 359 
Q 3791 134 3420 21 
Q 3050 -91 2638 -91 
Q 1578 -91 968 557 
Q 359 1206 359 2328 
Q 359 3453 968 4101 
Q 1578 4750 2638 4750 
Q 3056 4750 3426 4639 
Q 3797 4528 4122 4306 
z
" transform="scale(0.015625)"/>
      </defs>
      <use xlink:href="#DejaVuSans-49"/>
      <use xlink:href="#DejaVuSans-6c" x="29.492188"/>
      <use xlink:href="#DejaVuSans-69" x="57.275391"/>
      <use xlink:href="#DejaVuSans-61" x="85.058594"/>
      <use xlink:href="#DejaVuSans-63" x="146.337891"/>
      <use xlink:href="#DejaVuSans-20" x="201.318359"/>
      <use xlink:href="#DejaVuSans-43" x="233.105469"/>
      <use xlink:href="#DejaVuSans-72" x="302.929688"/>
      <use xlink:href="#DejaVuSans-65" x="341.792969"/>
      <use xlink:href="#DejaVuSans-73" x="403.316406"/>
      <use xlink:href="#DejaVuSans-74" x="455.416016"/>
      <use xlink:href="#DejaVuSans-20" x="494.625"/>
     </g>
    </g>
   </g>
  </g>
 </g>
 <defs>
  <clipPath id="p5891fb170f">
   <rect x="53.751563" y="22.318125" width="357.12" height="266.112"/>
  </clipPath>
 </defs>
</svg>
