<?xml version="1.0" encoding="utf-8" standalone="no"?>
<!DOCTYPE svg PUBLIC "-//W3C//DTD SVG 1.1//EN"
  "http://www.w3.org/Graphics/SVG/1.1/DTD/svg11.dtd">
<svg xmlns:xlink="http://www.w3.org/1999/xlink" width="487.187813pt" height="325.986375pt" viewBox="0 0 487.187813 325.986375" xmlns="http://www.w3.org/2000/svg" version="1.1">
 <metadata>
  <rdf:RDF xmlns:dc="http://purl.org/dc/elements/1.1/" xmlns:cc="http://creativecommons.org/ns#" xmlns:rdf="http://www.w3.org/1999/02/22-rdf-syntax-ns#">
   <cc:Work>
    <dc:type rdf:resource="http://purl.org/dc/dcmitype/StillImage"/>
    <dc:date>2026-08-31T14:38:51.303293</dc:date>
    <dc:format>image/svg+xml</dc:format>
    <dc:creator>
     <cc:Agent>
      <dc:title>Matplotlib v3.10.1, https://matplotlib.org/</dc:title>
     </cc:Agent>
    </dc:creator>
   </cc:Work>
  </rdf:RDF>
 </metadata>
 <defs>
  <style type="text/css">*{stroke-linejoin: round; stroke-linecap: butt}</style>
 </defs>
 <g id="figure_1">
  <g id="patch_1">
   <path d="M 0 325.986375 
L 487.187813 325.986375 
L 487.187813 0 
L 0 0 
z
" style="fill: #ffffff"/>
  </g>
  <g id="axes_1">
   <g id="patch_2">
    <path d="M 47.389063 288.430125 
L 404.509063 288.430125 
L 404.509063 22.318125 
L 47.389063 22.318125 
z
" style="fill: #ffffff"/>
   </g>
   <g id="matplotlib.axis_1">
    <g id="xtick_1">
     <g id="line2d_1">
      <defs>
       <path id="mb9d4656848" d="M 0 0 
L 0 3.5 
" style="stroke: #000000; stroke-width: 0.8"/>
      </defs>
      <g>
       <use xlink:href="#mb9d4656848" x="47.389063" y="288.430125" style="stroke: #000000; stroke-width: 0.8"/>
      </g>
     </g>
     <g id="text_1">
      <!-- 0.0 -->
      <g transform="translate(39.4375 303.028562) scale(0.1 -0.1)">
       <defs>
        <path id="DejaVuSans-30" d="M 2034 4250 
Q 1547 4250 1301 3770 
Q 1056 3291 1056 2328 
Q 1056 1369 1301 889 
Q 1547 409 2034 409 
Q 2525 409 2770 889 
Q 3016 1369 3016 2328 
Q 3016 3291 2770 3770 
Q 2525 4250 2034 4250 
z
M 2034 4750 
Q 2819 4750 3233 4129 
Q 3647 3509 3647 2328 
Q 3647 1150 3233 529 
Q 2819 -91 2034 -91 
Q 1250 -91 836 529 
Q 422 1150 422 2328 
Q 422 3509 836 4129 
Q 1250 4750 2034 4750 
z
" transform="scale(0.015625)"/>
        <path id="DejaVuSans-2e" d="M 684 794 
L 1344 794 
L 1344 0 
L 684 0 
L 684 794 
z
" transform="scale(0.015625)"/>
       </defs>
       <use xlink:href="#DejaVuSans-30"/>
       <use xlink:href="#DejaVuSans-2e" transform="translate(63.623047 0)"/>
       <use xlink:href="#DejaVuSans-30" transform="translate(95.410156 0)"/>
      </g>
     </g>
    </g>
    <g id="xtick_2">
     <g id="line2d_2">
      <g>
       <use xlink:href="#mb9d4656848" x="98.406205" y="288.430125" style="stroke: #000000; stroke-width: 0.8"/>
      </g>
     </g>
     <g id="text_2">
      <!-- 5.0 -->
      <g transform="translate(90.454643 303.028562) scale(0.1 -0.1)">
       <defs>
        <path id="DejaVuSans-35" d="M 691 4666 
L 3169 4666 
L 3169 4134 
L 1269 4134 
L 1269 2991 
Q 1406 3038 1543 3061 
Q 1681 3084 1819 3084 
Q 2600 3084 3056 2656 
Q 3513 2228 3513 1497 
Q 3513 744 3044 326 
Q 2575 -91 1722 -91 
Q 1428 -91 1123 -41 
Q 819 9 494 109 
L 494 744 
Q 775 591 1075 516 
Q 1375 441 1709 441 
Q 2250 441 2565 725 
Q 2881 1009 2881 1497 
Q 2881 1984 2565 2268 
Q 2250 2553 1709 2553 
Q 1456 2553 1204 2497 
Q 953 2441 691 2322 
L 691 4666 
z
" transform="scale(0.015625)"/>
       </defs>
       <use xlink:href="#DejaVuSans-35"/>
       <use xlink:href="#DejaVuSans-2e" transform="translate(63.623047 0)"/>
       <use xlink:href="#DejaVuSans-30" transform="translate(95.410156 0)"/>
      </g>
     </g>
    </g>
    <g id="xtick_3">
     <g id="line2d_3">
      <g>
       <use xlink:href="#mb9d4656848" x="149.423348" y="288.430125" style="stroke: #000000; stroke-width: 0.8"/>
      </g>
     </g>
     <g id="text_3">
      <!-- 10.0 -->
      <g transform="translate(138.290536 303.028562) scale(0.1 -0.1)">
       <defs>
        <path id="DejaVuSans-31" d="M 794 531 
L 1825 531 
L 1825 4091 
L 703 3866 
L 703 4441 
L 1819 4666 
L 2450 4666 
L 2450 531 
L 3481 531 
L 3481 0 
L 794 0 
L 794 531 
z
" transform="scale(0.015625)"/>
       </defs>
       <use xlink:href="#DejaVuSans-31"/>
       <use xlink:href="#DejaVuSans-30" transform="translate(63.623047 0)"/>
       <use xlink:href="#DejaVuSans-2e" transform="translate(127.246094 0)"/>
       <use xlink:href="#DejaVuSans-30" transform="translate(159.033203 0)"/>
      </g>
     </g>
    </g>
    <g id="xtick_4">
     <g id="line2d_4">
      <g>
       <use xlink:href="#mb9d4656848" x="200.440491" y="288.430125" style="stroke: #000000; stroke-width: 0.8"/>
      </g>
     </g>
     <g id="text_4">
      <!-- 15.0 -->
      <g transform="translate(189.307679 303.028562) scale(0.1 -0.1)">
       <use xlink:href="#DejaVuSans-31"/>
       <use xlink:href="#DejaVuSans-35" transform="translate(63.623047 0)"/>
       <use xlink:href="#DejaVuSans-2e" transform="translate(127.246094 0)"/>
       <use xlink:href="#DejaVuSans-30" transform="translate(159.033203 0)"/>
      </g>
     </g>
    </g>
    <g id="xtick_5">
     <g id="line2d_5">
      <g>
       <use xlink:href="#mb9d4656848" x="251.457634" y="288.430125" style="stroke: #000000; stroke-width: 0.8"/>
      </g>
     </g>
     <g id="text_5">
      <!-- 20.0 -->
      <g transform="translate(240.324821 303.028562) scale(0.1 -0.1)">
       <defs>
        <path id="DejaVuSans-32" d="M 1228 531 
L 3431 531 
L 3431 0 
L 469 0 
L 469 531 
Q 828 903 1448 1529 
Q 2069 2156 2228 2338 
Q 2531 2678 2651 2914 
Q 2772 3150 2772 3378 
Q 2772 3750 2511 3984 
Q 2250 4219 1831 4219 
Q 1534 4219 1204 4116 
Q 875 4013 500 3803 
L 500 4441 
Q 881 4594 1212 4672 
Q 1544 4750 1819 4750 
Q 2544 4750 2975 4387 
Q 3406 4025 3406 3419 
Q 3406 3131 3298 2873 
Q 3191 2616 2906 2266 
Q 2828 2175 2409 1742 
Q 1991 1309 1228 531 
z
" transform="scale(0.015625)"/>
       </defs>
       <use xlink:href="#DejaVuSans-32"/>
       <use xlink:href="#DejaVuSans-30" transform="translate(63.623047 0)"/>
       <use xlink:href="#DejaVuSans-2e" transform="translate(127.246094 0)"/>
       <use xlink:href="#DejaVuSans-30" transform="translate(159.033203 0)"/>
      </g>
     </g>
    </g>
    <g id="xtick_6">
     <g id="line2d_6">
      <g>
       <use xlink:href="#mb9d4656848" x="302.474777" y="288.430125" style="stroke: #000000; stroke-width: 0.8"/>
      </g>
     </g>
     <g id="text_6">
      <!-- 25.0 -->
      <g transform="translate(291.341964 303.028562) scale(0.1 -0.1)">
       <use xlink:href="#DejaVuSans-32"/>
       <use xlink:href="#DejaVuSans-35" transform="translate(63.623047 0)"/>
       <use xlink:href="#DejaVuSans-2e" transform="translate(127.246094 0)"/>
       <use xlink:href="#DejaVuSans-30" transform="translate(159.033203 0)"/>
      </g>
     </g>
    </g>
    <g id="xtick_7">
     <g id="line2d_7">
      <g>
       <use xlink:href="#mb9d4656848" x="353.49192" y="288.430125" style="stroke: #000000; stroke-width: 0.8"/>
      </g>
     </g>
     <g id="text_7">
      <!-- 30.0 -->
      <g transform="translate(342.359107 303.028562) scale(0.1 -0.1)">
       <defs>
        <path id="DejaVuSans-33" d="M 2597 2516 
Q 3050 2419 3304 2112 
Q 3559 1806 3559 1356 
Q 3559 666 3084 287 
Q 2609 -91 1734 -91 
Q 1441 -91 1130 -33 
Q 819 25 488 141 
L 488 750 
Q 750 597 1062 519 
Q 1375 441 1716 441 
Q 2309 441 2620 675 
Q 2931 909 2931 1356 
Q 2931 1769 2642 2001 
Q 2353 2234 1838 2234 
L 1294 2234 
L 1294 2753 
L 1863 2753 
Q 2328 2753 2575 2939 
Q 2822 3125 2822 3475 
Q 2822 3834 2567 4026 
Q 2313 4219 1838 4219 
Q 1578 4219 1281 4162 
Q 984 4106 628 3988 
L 628 4550 
Q 988 4650 1302 4700 
Q 1616 4750 1894 4750 
Q 2613 4750 3031 4423 
Q 3450 4097 3450 3541 
Q 3450 3153 3228 2886 
Q 3006 2619 2597 2516 
z
" transform="scale(0.015625)"/>
       </defs>
       <use xlink:href="#DejaVuSans-33"/>
       <use xlink:href="#DejaVuSans-30" transform="translate(63.623047 0)"/>
       <use xlink:href="#DejaVuSans-2e" transform="translate(127.246094 0)"/>
       <use xlink:href="#DejaVuSans-30" transform="translate(159.033203 0)"/>
      </g>
     </g>
    </g>
    <g id="xtick_8">
     <g id="line2d_8">
      <g>
       <use xlink:href="#mb9d4656848" x="404.509063" y="288.430125" style="stroke: #000000; stroke-width: 0.8"/>
      </g>
     </g>
     <g id="text_8">
      <!-- 35.0 -->
      <g transform="translate(393.37625 303.028562) scale(0.1 -0.1)">
       <use xlink:href="#DejaVuSans-33"/>
       <use xlink:href="#DejaVuSans-35" transform="translate(63.623047 0)"/>
       <use xlink:href="#DejaVuSans-2e" transform="translate(127.246094 0)"/>
       <use xlink:href="#DejaVuSans-30" transform="translate(159.033203 0)"/>
      </g>
     </g>
    </g>
    <g id="text_9">
     <!-- x (cm) -->
     <g transform="translate(209.879531 316.706687) scale(0.1 -0.1)">
      <defs>
       <path id="DejaVuSans-78" d="M 3513 3500 
L 2247 1797 
L 3578 0 
L 2900 0 
L 1881 1375 
L 863 0 
L 184 0 
L 1544 1831 
L 300 3500 
L 978 3500 
L 1906 2253 
L 2834 3500 
L 3513 3500 
z
" transform="scale(0.015625)"/>
       <path id="DejaVuSans-20" transform="scale(0.015625)"/>
       <path id="DejaVuSans-28" d="M 1984 4856 
Q 1566 4138 1362 3434 
Q 1159 2731 1159 2009 
Q 1159 1288 1364 580 
Q 1569 -128 1984 -844 
L 1484 -844 
Q 1016 -109 783 600 
Q 550 1309 550 2009 
Q 550 2706 781 3412 
Q 1013 4119 1484 4856 
L 1984 4856 
z
" transform="scale(0.015625)"/>
       <path id="DejaVuSans-63" d="M 3122 3366 
L 3122 2828 
Q 2878 2963 2633 3030 
Q 2388 3097 2138 3097 
Q 1578 3097 1268 2742 
Q 959 2388 959 1747 
Q 959 1106 1268 751 
Q 1578 397 2138 397 
Q 2388 397 2633 464 
Q 2878 531 3122 666 
L 3122 134 
Q 2881 22 2623 -34 
Q 2366 -91 2075 -91 
Q 1284 -91 818 406 
Q 353 903 353 1747 
Q 353 2603 823 3093 
Q 1294 3584 2113 3584 
Q 2378 3584 2631 3529 
Q 2884 3475 3122 3366 
z
" transform="scale(0.015625)"/>
       <path id="DejaVuSans-6d" d="M 3328 2828 
Q 3544 3216 3844 3400 
Q 4144 3584 4550 3584 
Q 5097 3584 5394 3201 
Q 5691 2819 5691 2113 
L 5691 0 
L 5113 0 
L 5113 2094 
Q 5113 2597 4934 2840 
Q 4756 3084 4391 3084 
Q 3944 3084 3684 2787 
Q 3425 2491 3425 1978 
L 3425 0 
L 2847 0 
L 2847 2094 
Q 2847 2600 2669 2842 
Q 2491 3084 2119 3084 
Q 1678 3084 1418 2786 
Q 1159 2488 1159 1978 
L 1159 0 
L 581 0 
L 581 3500 
L 1159 3500 
L 1159 2956 
Q 1356 3278 1631 3431 
Q 1906 3584 2284 3584 
Q 2666 3584 2933 3390 
Q 3200 3197 3328 2828 
z
" transform="scale(0.015625)"/>
       <path id="DejaVuSans-29" d="M 513 4856 
L 1013 4856 
Q 1481 4119 1714 3412 
Q 1947 2706 1947 2009 
Q 1947 1309 1714 600 
Q 1481 -109 1013 -844 
L 513 -844 
Q 928 -128 1133 580 
Q 1338 1288 1338 2009 
Q 1338 2731 1133 3434 
Q 928 4138 513 4856 
z
" transform="scale(0.015625)"/>
      </defs>
      <use xlink:href="#DejaVuSans-78"/>
      <use xlink:href="#DejaVuSans-20" transform="translate(59.179688 0)"/>
      <use xlink:href="#DejaVuSans-28" transform="translate(90.966797 0)"/>
      <use xlink:href="#DejaVuSans-63" transform="translate(129.980469 0)"/>
      <use xlink:href="#DejaVuSans-6d" transform="translate(184.960938 0)"/>
      <use xlink:href="#DejaVuSans-29" transform="translate(282.373047 0)"/>
     </g>
    </g>
   </g>
   <g id="matplotlib.axis_2">
    <g id="ytick_1">
     <g id="line2d_9">
      <defs>
       <path id="m37277a8179" d="M 0 0 
L -3.5 0 
" style="stroke: #000000; stroke-width: 0.8"/>
      </defs>
      <g>
       <use xlink:href="#m37277a8179" x="47.389063" y="288.430125" style="stroke: #000000; stroke-width: 0.8"/>
      </g>
     </g>
     <g id="text_10">
      <!-- -0.5 -->
      <g transform="translate(20.878125 292.229344) scale(0.1 -0.1)">
       <defs>
        <path id="DejaVuSans-2d" d="M 313 2009 
L 1997 2009 
L 1997 1497 
L 313 1497 
L 313 2009 
z
" transform="scale(0.015625)"/>
       </defs>
       <use xlink:href="#DejaVuSans-2d"/>
       <use xlink:href="#DejaVuSans-30" transform="translate(36.083984 0)"/>
       <use xlink:href="#DejaVuSans-2e" transform="translate(99.707031 0)"/>
       <use xlink:href="#DejaVuSans-35" transform="translate(131.494141 0)"/>
      </g>
     </g>
    </g>
    <g id="ytick_2">
     <g id="line2d_10">
      <g>
       <use xlink:href="#m37277a8179" x="47.389063" y="250.414125" style="stroke: #000000; stroke-width: 0.8"/>
      </g>
     </g>
     <g id="text_11">
      <!-- 0.0 -->
      <g transform="translate(24.485938 254.213344) scale(0.1 -0.1)">
       <use xlink:href="#DejaVuSans-30"/>
       <use xlink:href="#DejaVuSans-2e" transform="translate(63.623047 0)"/>
       <use xlink:href="#DejaVuSans-30" transform="translate(95.410156 0)"/>
      </g>
     </g>
    </g>
    <g id="ytick_3">
     <g id="line2d_11">
      <g>
       <use xlink:href="#m37277a8179" x="47.389063" y="212.398125" style="stroke: #000000; stroke-width: 0.8"/>
      </g>
     </g>
     <g id="text_12">
      <!-- 0.5 -->
      <g transform="translate(24.485938 216.197344) scale(0.1 -0.1)">
       <use xlink:href="#DejaVuSans-30"/>
       <use xlink:href="#DejaVuSans-2e" transform="translate(63.623047 0)"/>
       <use xlink:href="#DejaVuSans-35" transform="translate(95.410156 0)"/>
      </g>
     </g>
    </g>
    <g id="ytick_4">
     <g id="line2d_12">
      <g>
       <use xlink:href="#m37277a8179" x="47.389063" y="174.382125" style="stroke: #000000; stroke-width: 0.8"/>
      </g>
     </g>
     <g id="text_13">
      <!-- 1.0 -->
      <g transform="translate(24.485938 178.181344) scale(0.1 -0.1)">
       <use xlink:href="#DejaVuSans-31"/>
       <use xlink:href="#DejaVuSans-2e" transform="translate(63.623047 0)"/>
       <use xlink:href="#DejaVuSans-30" transform="translate(95.410156 0)"/>
      </g>
     </g>
    </g>
    <g id="ytick_5">
     <g id="line2d_13">
      <g>
       <use xlink:href="#m37277a8179" x="47.389063" y="136.366125" style="stroke: #000000; stroke-width: 0.8"/>
      </g>
     </g>
     <g id="text_14">
      <!-- 1.5 -->
      <g transform="translate(24.485938 140.165344) scale(0.1 -0.1)">
       <use xlink:href="#DejaVuSans-31"/>
       <use xlink:href="#DejaVuSans-2e" transform="translate(63.623047 0)"/>
       <use xlink:href="#DejaVuSans-35" transform="translate(95.410156 0)"/>
      </g>
     </g>
    </g>
    <g id="ytick_6">
     <g id="line2d_14">
      <g>
       <use xlink:href="#m37277a8179" x="47.389063" y="98.350125" style="stroke: #000000; stroke-width: 0.8"/>
      </g>
     </g>
     <g id="text_15">
      <!-- 2.0 -->
      <g transform="translate(24.485938 102.149344) scale(0.1 -0.1)">
       <use xlink:href="#DejaVuSans-32"/>
       <use xlink:href="#DejaVuSans-2e" transform="translate(63.623047 0)"/>
       <use xlink:href="#DejaVuSans-30" transform="translate(95.410156 0)"/>
      </g>
     </g>
    </g>
    <g id="ytick_7">
     <g id="line2d_15">
      <g>
       <use xlink:href="#m37277a8179" x="47.389063" y="60.334125" style="stroke: #000000; stroke-width: 0.8"/>
      </g>
     </g>
     <g id="text_16">
      <!-- 2.5 -->
      <g transform="translate(24.485938 64.133344) scale(0.1 -0.1)">
       <use xlink:href="#DejaVuSans-32"/>
       <use xlink:href="#DejaVuSans-2e" transform="translate(63.623047 0)"/>
       <use xlink:href="#DejaVuSans-35" transform="translate(95.410156 0)"/>
      </g>
     </g>
    </g>
    <g id="ytick_8">
     <g id="line2d_16">
      <g>
       <use xlink:href="#m37277a8179" x="47.389063" y="22.318125" style="stroke: #000000; stroke-width: 0.8"/>
      </g>
     </g>
     <g id="text_17">
      <!-- 3.0 -->
      <g transform="translate(24.485938 26.117344) scale(0.1 -0.1)">
       <use xlink:href="#DejaVuSans-33"/>
       <use xlink:href="#DejaVuSans-2e" transform="translate(63.623047 0)"/>
       <use xlink:href="#DejaVuSans-30" transform="translate(95.410156 0)"/>
      </g>
     </g>
    </g>
    <g id="text_18">
     <!-- y (cm) -->
     <g transform="translate(14.798438 171.443656) rotate(-90) scale(0.1 -0.1)">
      <defs>
       <path id="DejaVuSans-79" d="M 2059 -325 
Q 1816 -950 1584 -1140 
Q 1353 -1331 966 -1331 
L 506 -1331 
L 506 -850 
L 844 -850 
Q 1081 -850 1212 -737 
Q 1344 -625 1503 -206 
L 1606 56 
L 191 3500 
L 800 3500 
L 1894 763 
L 2988 3500 
L 3597 3500 
L 2059 -325 
z
" transform="scale(0.015625)"/>
      </defs>
      <use xlink:href="#DejaVuSans-79"/>
      <use xlink:href="#DejaVuSans-20" transform="translate(59.179688 0)"/>
      <use xlink:href="#DejaVuSans-28" transform="translate(90.966797 0)"/>
      <use xlink:href="#DejaVuSans-63" transform="translate(129.980469 0)"/>
      <use xlink:href="#DejaVuSans-6d" transform="translate(184.960938 0)"/>
      <use xlink:href="#DejaVuSans-29" transform="translate(282.373047 0)"/>
     </g>
    </g>
   </g>
   <g id="line2d_17">
    <path d="M 116.313001 239.308221 
L 111.782733 225.279587 
L 106.126001 153.367055 
L 113.114189 118.272081 
L 109.960069 50.837382 
" clip-path="url(#p9f242c43be)" style="fill: none; stroke: #66c2a5; stroke-width: 1.5; stroke-linecap: square"/>
   </g>
   <g id="line2d_18">
    <path d="M 116.119864 238.265561 
L 111.977596 224.064138 
L 107.307554 149.382041 
L 114.255863 114.054173 
L 111.197104 49.503326 
" clip-path="url(#p9f242c43be)" style="fill: none; stroke: #66c2a5; stroke-width: 1.5; stroke-linecap: square"/>
   </g>
   <g id="line2d_19">
    <path d="M 115.733032 238.154606 
L 111.741429 221.652 
L 108.587516 146.092258 
L 115.7867 116.479887 
L 112.671453 52.979598 
" clip-path="url(#p9f242c43be)" style="fill: none; stroke: #66c2a5; stroke-width: 1.5; stroke-linecap: square"/>
   </g>
   <g id="line2d_20">
    <path d="M 115.899357 236.106313 
L 111.86144 219.968786 
L 110.48254 142.416414 
L 117.169795 115.964975 
L 114.735526 52.831925 
" clip-path="url(#p9f242c43be)" style="fill: none; stroke: #66c2a5; stroke-width: 1.5; stroke-linecap: square"/>
   </g>
   <g id="line2d_21">
    <path d="M 115.533232 236.208752 
L 112.232306 215.564636 
L 111.199149 138.201591 
L 118.509947 113.610104 
L 116.267018 52.484557 
" clip-path="url(#p9f242c43be)" style="fill: none; stroke: #66c2a5; stroke-width: 1.5; stroke-linecap: square"/>
   </g>
   <g id="line2d_22">
    <path d="M 115.466761 234.573426 
L 111.886136 214.412008 
L 112.724616 137.278773 
L 120.433604 113.916065 
L 117.884131 50.951608 
" clip-path="url(#p9f242c43be)" style="fill: none; stroke: #66c2a5; stroke-width: 1.5; stroke-linecap: square"/>
   </g>
   <g id="line2d_23">
    <path d="M 115.52339 232.70508 
L 112.160017 211.831278 
L 114.113392 134.743091 
L 121.772025 112.110047 
L 119.409631 52.503194 
" clip-path="url(#p9f242c43be)" style="fill: none; stroke: #66c2a5; stroke-width: 1.5; stroke-linecap: square"/>
   </g>
   <g id="line2d_24">
    <path d="M 115.281546 230.846485 
L 112.562799 207.173127 
L 115.566429 134.200286 
L 123.72769 112.763561 
L 121.922789 51.405612 
" clip-path="url(#p9f242c43be)" style="fill: none; stroke: #66c2a5; stroke-width: 1.5; stroke-linecap: square"/>
   </g>
   <g id="line2d_25">
    <path d="M 115.347334 232.395541 
L 113.242097 203.214526 
L 117.332129 129.014141 
L 125.195269 113.19936 
L 123.809312 52.407296 
" clip-path="url(#p9f242c43be)" style="fill: none; stroke: #66c2a5; stroke-width: 1.5; stroke-linecap: square"/>
   </g>
   <g id="line2d_26">
    <path d="M 115.003259 231.478647 
L 114.094519 196.960666 
L 119.487353 124.946312 
L 127.634208 109.843793 
L 125.796629 47.669477 
" clip-path="url(#p9f242c43be)" style="fill: none; stroke: #66c2a5; stroke-width: 1.5; stroke-linecap: square"/>
   </g>
   <g id="line2d_27">
    <path d="M 116.212906 228.064085 
L 115.478214 194.290456 
L 121.143799 124.857696 
L 129.493137 111.219072 
L 127.524454 44.235476 
" clip-path="url(#p9f242c43be)" style="fill: none; stroke: #66c2a5; stroke-width: 1.5; stroke-linecap: square"/>
   </g>
   <g id="line2d_28">
    <path d="M 118.495885 233.182102 
L 119.290005 193.841944 
L 124.033268 122.24648 
L 131.126992 108.100103 
L 129.743437 46.876806 
" clip-path="url(#p9f242c43be)" style="fill: none; stroke: #66c2a5; stroke-width: 1.5; stroke-linecap: square"/>
   </g>
   <g id="line2d_29">
    <path d="M 123.538483 223.286216 
L 127.323868 193.212621 
L 125.048546 118.894246 
L 132.988579 105.128498 
L 130.971416 47.34525 
" clip-path="url(#p9f242c43be)" style="fill: none; stroke: #66c2a5; stroke-width: 1.5; stroke-linecap: square"/>
   </g>
   <g id="line2d_30">
    <path d="M 133.063038 229.096254 
L 134.175879 193.811583 
L 128.34399 124.847452 
L 135.418922 106.262983 
L 133.482843 48.96879 
" clip-path="url(#p9f242c43be)" style="fill: none; stroke: #66c2a5; stroke-width: 1.5; stroke-linecap: square"/>
   </g>
   <g id="line2d_31">
    <path d="M 138.943167 219.323912 
L 137.951716 189.245257 
L 131.070156 132.727381 
L 138.179871 109.796029 
L 135.691714 52.943127 
" clip-path="url(#p9f242c43be)" style="fill: none; stroke: #66c2a5; stroke-width: 1.5; stroke-linecap: square"/>
   </g>
   <g id="line2d_32">
    <path d="M 144.272354 221.194602 
L 140.158442 199.799964 
L 133.345884 141.790793 
L 140.635564 113.880643 
L 138.238297 53.153375 
" clip-path="url(#p9f242c43be)" style="fill: none; stroke: #66c2a5; stroke-width: 1.5; stroke-linecap: square"/>
   </g>
   <g id="line2d_33">
    <path d="M 148.779562 219.748233 
L 144.715803 201.474785 
L 136.146989 149.084967 
L 143.35238 117.580924 
L 140.779645 56.032414 
" clip-path="url(#p9f242c43be)" style="fill: none; stroke: #66c2a5; stroke-width: 1.5; stroke-linecap: square"/>
   </g>
   <g id="line2d_34">
    <path d="M 154.354527 219.03375 
L 149.466313 197.095936 
L 139.049874 152.722304 
L 146.406808 118.801557 
L 143.633727 58.097986 
" clip-path="url(#p9f242c43be)" style="fill: none; stroke: #66c2a5; stroke-width: 1.5; stroke-linecap: square"/>
   </g>
   <g id="line2d_35">
    <path d="M 158.273111 219.932501 
L 153.145678 206.323127 
L 142.137552 161.259943 
L 149.043013 123.426014 
L 145.966871 61.612395 
" clip-path="url(#p9f242c43be)" style="fill: none; stroke: #66c2a5; stroke-width: 1.5; stroke-linecap: square"/>
   </g>
   <g id="line2d_36">
    <path d="M 163.307659 221.367145 
L 157.966556 216.040793 
L 147.10618 168.728387 
L 152.76926 126.943509 
L 149.774243 66.297822 
" clip-path="url(#p9f242c43be)" style="fill: none; stroke: #66c2a5; stroke-width: 1.5; stroke-linecap: square"/>
   </g>
   <g id="line2d_37">
    <path d="M 166.750332 219.227274 
L 161.043807 216.080165 
L 149.876809 170.322245 
L 154.570591 125.707202 
L 151.18815 63.276355 
" clip-path="url(#p9f242c43be)" style="fill: none; stroke: #66c2a5; stroke-width: 1.5; stroke-linecap: square"/>
   </g>
   <g id="line2d_38">
    <path d="M 169.754375 220.889876 
L 163.919222 214.202563 
L 152.233456 174.943122 
L 157.642609 127.412755 
L 154.336564 66.035552 
" clip-path="url(#p9f242c43be)" style="fill: none; stroke: #66c2a5; stroke-width: 1.5; stroke-linecap: square"/>
   </g>
   <g id="line2d_39">
    <path d="M 170.23331 233.67665 
L 165.45389 224.100794 
L 154.680403 180.561981 
L 159.092705 134.211641 
L 155.905227 68.308842 
" clip-path="url(#p9f242c43be)" style="fill: none; stroke: #66c2a5; stroke-width: 1.5; stroke-linecap: square"/>
   </g>
   <g id="line2d_40">
    <path d="M 170.382849 235.264706 
L 165.477848 224.659273 
L 155.321217 171.299368 
L 160.753392 128.596361 
L 157.403149 62.532127 
" clip-path="url(#p9f242c43be)" style="fill: none; stroke: #66c2a5; stroke-width: 1.5; stroke-linecap: square"/>
   </g>
   <g id="line2d_41">
    <path d="M 170.28945 233.760946 
L 165.787675 220.864205 
L 156.129655 167.211051 
L 162.148475 125.246842 
L 159.082511 64.377393 
" clip-path="url(#p9f242c43be)" style="fill: none; stroke: #66c2a5; stroke-width: 1.5; stroke-linecap: square"/>
   </g>
   <g id="line2d_42">
    <path d="M 170.126371 233.638389 
L 166.183323 216.988542 
L 157.131442 158.221445 
L 163.11986 121.359701 
L 160.428368 57.456938 
" clip-path="url(#p9f242c43be)" style="fill: none; stroke: #66c2a5; stroke-width: 1.5; stroke-linecap: square"/>
   </g>
   <g id="line2d_43">
    <path d="M 170.608967 230.339102 
L 166.459701 215.256824 
L 158.035549 152.89571 
L 164.518413 118.712447 
L 162.068848 52.701161 
" clip-path="url(#p9f242c43be)" style="fill: none; stroke: #66c2a5; stroke-width: 1.5; stroke-linecap: square"/>
   </g>
   <g id="line2d_44">
    <path d="M 170.935738 234.291779 
L 166.902993 218.544016 
L 158.608412 149.46893 
L 165.535595 119.954925 
L 163.020789 55.537619 
" clip-path="url(#p9f242c43be)" style="fill: none; stroke: #66c2a5; stroke-width: 1.5; stroke-linecap: square"/>
   </g>
   <g id="line2d_45">
    <path d="M 171.123437 234.080236 
L 166.994404 219.399199 
L 159.81134 146.825008 
L 166.237244 118.611736 
L 163.515732 54.561977 
" clip-path="url(#p9f242c43be)" style="fill: none; stroke: #66c2a5; stroke-width: 1.5; stroke-linecap: square"/>
   </g>
   <g id="line2d_46">
    <path d="M 170.380373 235.914023 
L 166.345367 219.141866 
L 159.719051 152.156666 
L 166.71251 122.210935 
L 163.88849 57.038294 
" clip-path="url(#p9f242c43be)" style="fill: none; stroke: #66c2a5; stroke-width: 1.5; stroke-linecap: square"/>
   </g>
   <g id="line2d_47">
    <path d="M 170.604992 236.891887 
L 166.935779 220.154411 
L 160.90096 151.232367 
L 167.783389 120.329507 
L 164.91503 57.086675 
" clip-path="url(#p9f242c43be)" style="fill: none; stroke: #66c2a5; stroke-width: 1.5; stroke-linecap: square"/>
   </g>
   <g id="line2d_48">
    <path d="M 171.439211 235.469955 
L 167.163429 222.049415 
L 162.155638 147.494813 
L 168.845275 119.664145 
L 166.182329 55.622656 
" clip-path="url(#p9f242c43be)" style="fill: none; stroke: #66c2a5; stroke-width: 1.5; stroke-linecap: square"/>
   </g>
   <g id="line2d_49">
    <path d="M 171.263734 235.217189 
L 167.437687 218.812086 
L 163.001634 145.410851 
L 169.968708 115.733931 
L 167.166551 56.232849 
" clip-path="url(#p9f242c43be)" style="fill: none; stroke: #66c2a5; stroke-width: 1.5; stroke-linecap: square"/>
   </g>
   <g id="line2d_50">
    <path d="M 171.329564 236.690464 
L 167.156323 217.867916 
L 164.644242 143.014511 
L 172.094773 116.466928 
L 169.48921 56.001188 
" clip-path="url(#p9f242c43be)" style="fill: none; stroke: #66c2a5; stroke-width: 1.5; stroke-linecap: square"/>
   </g>
   <g id="line2d_51">
    <path d="M 171.397778 236.391909 
L 167.328098 215.903056 
L 166.473755 141.679715 
L 173.586211 117.342599 
L 170.917262 59.026357 
" clip-path="url(#p9f242c43be)" style="fill: none; stroke: #66c2a5; stroke-width: 1.5; stroke-linecap: square"/>
   </g>
   <g id="line2d_52">
    <path d="M 171.592716 235.747282 
L 167.19754 214.046436 
L 167.904813 137.199043 
L 175.762843 113.889776 
L 173.076883 54.833874 
" clip-path="url(#p9f242c43be)" style="fill: none; stroke: #fc8d62; stroke-width: 1.5; stroke-linecap: square"/>
   </g>
   <g id="line2d_53">
    <path d="M 171.431351 236.065707 
L 167.29426 214.802018 
L 168.932595 139.16378 
L 176.69509 116.873352 
L 174.363354 55.229191 
" clip-path="url(#p9f242c43be)" style="fill: none; stroke: #fc8d62; stroke-width: 1.5; stroke-linecap: square"/>
   </g>
   <g id="line2d_54">
    <path d="M 170.563104 235.566717 
L 167.372197 211.59073 
L 171.373323 139.428271 
L 180.078036 114.771125 
L 177.556157 54.257498 
" clip-path="url(#p9f242c43be)" style="fill: none; stroke: #fc8d62; stroke-width: 1.5; stroke-linecap: square"/>
   </g>
   <g id="line2d_55">
    <path d="M 170.219679 235.885636 
L 168.001184 211.864725 
L 173.50526 140.42366 
L 182.030413 117.254846 
L 179.769592 57.59159 
" clip-path="url(#p9f242c43be)" style="fill: none; stroke: #fc8d62; stroke-width: 1.5; stroke-linecap: square"/>
   </g>
   <g id="line2d_56">
    <path d="M 170.006074 235.460945 
L 169.058225 202.475111 
L 176.443829 137.649776 
L 184.867435 116.653416 
L 183.180554 53.096354 
" clip-path="url(#p9f242c43be)" style="fill: none; stroke: #fc8d62; stroke-width: 1.5; stroke-linecap: square"/>
   </g>
   <g id="line2d_57">
    <path d="M 170.005801 219.807352 
L 169.990464 187.538963 
L 177.717332 130.7329 
L 187.412867 110.355743 
L 185.982008 50.521301 
" clip-path="url(#p9f242c43be)" style="fill: none; stroke: #fc8d62; stroke-width: 1.5; stroke-linecap: square"/>
   </g>
   <g id="line2d_58">
    <path d="M 171.070643 222.432514 
L 172.154425 189.484323 
L 180.129075 129.098437 
L 189.452299 108.476536 
L 188.149008 45.945966 
" clip-path="url(#p9f242c43be)" style="fill: none; stroke: #fc8d62; stroke-width: 1.5; stroke-linecap: square"/>
   </g>
   <g id="line2d_59">
    <path d="M 174.920789 214.230456 
L 178.290941 186.026564 
L 183.72276 121.699232 
L 191.906219 107.4809 
L 190.85611 45.32738 
" clip-path="url(#p9f242c43be)" style="fill: none; stroke: #fc8d62; stroke-width: 1.5; stroke-linecap: square"/>
   </g>
   <g id="line2d_60">
    <path d="M 182.959886 220.916535 
L 187.021517 194.878309 
L 186.315661 114.480962 
L 194.387254 103.24596 
L 192.37361 46.419285 
" clip-path="url(#p9f242c43be)" style="fill: none; stroke: #fc8d62; stroke-width: 1.5; stroke-linecap: square"/>
   </g>
   <g id="line2d_61">
    <path d="M 194.774778 224.116221 
L 196.127095 193.339374 
L 191.036266 124.560005 
L 198.761204 107.807472 
L 196.341652 49.808546 
" clip-path="url(#p9f242c43be)" style="fill: none; stroke: #fc8d62; stroke-width: 1.5; stroke-linecap: square"/>
   </g>
   <g id="line2d_62">
    <path d="M 201.611874 219.243936 
L 201.447222 186.719572 
L 194.200009 131.19758 
L 202.016425 108.498382 
L 199.410092 51.528786 
" clip-path="url(#p9f242c43be)" style="fill: none; stroke: #fc8d62; stroke-width: 1.5; stroke-linecap: square"/>
   </g>
   <g id="line2d_63">
    <path d="M 208.884759 217.12196 
L 205.892973 190.95081 
L 197.117263 141.164062 
L 204.96533 114.172533 
L 202.275702 55.016413 
" clip-path="url(#p9f242c43be)" style="fill: none; stroke: #fc8d62; stroke-width: 1.5; stroke-linecap: square"/>
   </g>
   <g id="line2d_64">
    <path d="M 216.697614 212.258684 
L 212.272169 195.474679 
L 202.003075 154.140286 
L 208.857 123.419226 
L 205.616288 57.706371 
" clip-path="url(#p9f242c43be)" style="fill: none; stroke: #fc8d62; stroke-width: 1.5; stroke-linecap: square"/>
   </g>
   <g id="line2d_65">
    <path d="M 221.642341 212.831727 
L 217.231008 198.75644 
L 205.975423 161.103446 
L 212.331134 126.938572 
L 208.598667 58.916883 
" clip-path="url(#p9f242c43be)" style="fill: none; stroke: #fc8d62; stroke-width: 1.5; stroke-linecap: square"/>
   </g>
   <g id="line2d_66">
    <path d="M 225.830687 211.113709 
L 220.706202 201.864795 
L 209.925428 163.226531 
L 215.936694 124.996791 
L 212.172808 60.063957 
" clip-path="url(#p9f242c43be)" style="fill: none; stroke: #fc8d62; stroke-width: 1.5; stroke-linecap: square"/>
   </g>
   <g id="line2d_67">
    <path d="M 229.667169 212.676834 
L 224.251904 206.386812 
L 213.063681 168.64767 
L 218.900009 126.497589 
L 215.074144 64.540185 
" clip-path="url(#p9f242c43be)" style="fill: none; stroke: #fc8d62; stroke-width: 1.5; stroke-linecap: square"/>
   </g>
   <g id="line2d_68">
    <path d="M 232.038556 205.538417 
L 227.055502 202.641482 
L 216.255167 162.326917 
L 221.271662 123.715806 
L 217.439486 62.008576 
" clip-path="url(#p9f242c43be)" style="fill: none; stroke: #fc8d62; stroke-width: 1.5; stroke-linecap: square"/>
   </g>
   <g id="line2d_69">
    <path d="M 237.682622 215.100943 
L 232.72322 206.982688 
L 220.67826 173.770994 
L 224.78601 129.30887 
L 221.024493 66.168477 
" clip-path="url(#p9f242c43be)" style="fill: none; stroke: #fc8d62; stroke-width: 1.5; stroke-linecap: square"/>
   </g>
   <g id="line2d_70">
    <path d="M 240.311133 221.81146 
L 235.577219 209.921093 
L 224.055948 171.582372 
L 228.074523 126.042536 
L 223.997232 64.603747 
" clip-path="url(#p9f242c43be)" style="fill: none; stroke: #fc8d62; stroke-width: 1.5; stroke-linecap: square"/>
   </g>
   <g id="line2d_71">
    <path d="M 240.662351 239.901258 
L 236.60043 218.481071 
L 225.569439 171.499433 
L 230.734603 129.636429 
L 226.482837 68.622701 
" clip-path="url(#p9f242c43be)" style="fill: none; stroke: #fc8d62; stroke-width: 1.5; stroke-linecap: square"/>
   </g>
   <g id="line2d_72">
    <path d="M 241.242121 239.260951 
L 236.781331 220.613784 
L 227.055072 167.629201 
L 232.318934 126.713576 
L 228.236343 62.072631 
" clip-path="url(#p9f242c43be)" style="fill: none; stroke: #fc8d62; stroke-width: 1.5; stroke-linecap: square"/>
   </g>
   <g id="line2d_73">
    <path d="M 240.683386 241.397119 
L 237.110951 219.699729 
L 228.553971 162.074027 
L 234.617295 125.061587 
L 230.894684 59.986202 
" clip-path="url(#p9f242c43be)" style="fill: none; stroke: #fc8d62; stroke-width: 1.5; stroke-linecap: square"/>
   </g>
   <g id="line2d_74">
    <path d="M 240.812809 239.784502 
L 237.353764 218.258543 
L 230.279303 154.179411 
L 236.771095 119.517398 
L 232.440506 57.383132 
" clip-path="url(#p9f242c43be)" style="fill: none; stroke: #fc8d62; stroke-width: 1.5; stroke-linecap: square"/>
   </g>
   <g id="line2d_75">
    <path d="M 240.547221 242.514078 
L 237.451237 217.536284 
L 231.552002 150.638219 
L 238.049144 116.40966 
L 234.100928 55.478131 
" clip-path="url(#p9f242c43be)" style="fill: none; stroke: #fc8d62; stroke-width: 1.5; stroke-linecap: square"/>
   </g>
   <g id="line2d_76">
    <path d="M 241.484487 238.222611 
L 238.205614 218.167088 
L 233.881949 145.746433 
L 240.987399 113.321176 
L 237.050198 52.966022 
" clip-path="url(#p9f242c43be)" style="fill: none; stroke: #8da0cb; stroke-width: 1.5; stroke-linecap: square"/>
   </g>
   <g id="line2d_77">
    <path d="M 241.174312 241.24272 
L 238.29209 218.007382 
L 236.527669 142.593893 
L 243.552043 115.433154 
L 240.00437 52.312508 
" clip-path="url(#p9f242c43be)" style="fill: none; stroke: #8da0cb; stroke-width: 1.5; stroke-linecap: square"/>
   </g>
   <g id="line2d_78">
    <path d="M 241.285483 239.751795 
L 238.707125 217.095919 
L 238.686421 140.308385 
L 246.066551 113.926679 
L 242.235784 49.964303 
" clip-path="url(#p9f242c43be)" style="fill: none; stroke: #8da0cb; stroke-width: 1.5; stroke-linecap: square"/>
   </g>
   <g id="line2d_79">
    <path d="M 241.244109 242.430646 
L 238.849169 215.282372 
L 241.106802 138.812771 
L 248.761811 110.700334 
L 245.53483 51.735146 
" clip-path="url(#p9f242c43be)" style="fill: none; stroke: #8da0cb; stroke-width: 1.5; stroke-linecap: square"/>
   </g>
   <g id="line2d_80">
    <path d="M 240.715948 240.099102 
L 238.797012 211.255396 
L 243.566287 140.302091 
L 250.998641 113.301676 
L 247.875195 52.662407 
" clip-path="url(#p9f242c43be)" style="fill: none; stroke: #8da0cb; stroke-width: 1.5; stroke-linecap: square"/>
   </g>
   <g id="line2d_81">
    <path d="M 240.895143 236.92015 
L 239.479771 204.90786 
L 245.159828 137.142393 
L 253.537165 112.174967 
L 251.042566 51.723667 
" clip-path="url(#p9f242c43be)" style="fill: none; stroke: #8da0cb; stroke-width: 1.5; stroke-linecap: square"/>
   </g>
   <g id="line2d_82">
    <path d="M 240.785629 240.221535 
L 239.575488 202.211484 
L 247.049779 136.289678 
L 255.809307 115.732326 
L 253.590581 57.161098 
" clip-path="url(#p9f242c43be)" style="fill: none; stroke: #8da0cb; stroke-width: 1.5; stroke-linecap: square"/>
   </g>
   <g id="line2d_83">
    <path d="M 241.813925 236.795372 
L 241.168581 202.461041 
L 248.779202 132.283807 
L 257.656029 110.674786 
L 255.998788 49.706477 
" clip-path="url(#p9f242c43be)" style="fill: none; stroke: #8da0cb; stroke-width: 1.5; stroke-linecap: square"/>
   </g>
   <g id="line2d_84">
    <path d="M 242.696731 225.67441 
L 244.607701 191.597659 
L 251.179624 127.324139 
L 260.273642 106.97833 
L 258.007661 47.121797 
" clip-path="url(#p9f242c43be)" style="fill: none; stroke: #8da0cb; stroke-width: 1.5; stroke-linecap: square"/>
   </g>
   <g id="line2d_85">
    <path d="M 251.89011 223.445676 
L 254.751099 193.846881 
L 256.190173 121.429681 
L 264.093942 104.746387 
L 260.722333 44.355441 
" clip-path="url(#p9f242c43be)" style="fill: none; stroke: #8da0cb; stroke-width: 1.5; stroke-linecap: square"/>
   </g>
   <g id="line2d_86">
    <path d="M 265.912722 244.037092 
L 266.052878 205.636167 
L 260.394386 138.257747 
L 267.784504 114.243871 
L 264.566715 54.299338 
" clip-path="url(#p9f242c43be)" style="fill: none; stroke: #8da0cb; stroke-width: 1.5; stroke-linecap: square"/>
   </g>
   <g id="line2d_87">
    <path d="M 274.403598 226.769524 
L 272.88643 198.635364 
L 263.539562 151.22274 
L 270.884579 120.630161 
L 267.413377 61.700888 
" clip-path="url(#p9f242c43be)" style="fill: none; stroke: #8da0cb; stroke-width: 1.5; stroke-linecap: square"/>
   </g>
   <g id="line2d_88">
    <path d="M 278.921415 226.176363 
L 277.874668 207.533886 
L 267.892842 157.934244 
L 275.190207 129.362435 
L 271.456515 70.625822 
" clip-path="url(#p9f242c43be)" style="fill: none; stroke: #8da0cb; stroke-width: 1.5; stroke-linecap: square"/>
   </g>
   <g id="line2d_89">
    <path d="M 288.540064 227.712089 
L 283.727377 210.586208 
L 272.956922 170.42888 
L 279.548224 136.843961 
L 275.291954 74.290558 
" clip-path="url(#p9f242c43be)" style="fill: none; stroke: #8da0cb; stroke-width: 1.5; stroke-linecap: square"/>
   </g>
   <g id="line2d_90">
    <path d="M 293.96482 223.872095 
L 288.465647 209.746576 
L 276.785901 174.751079 
L 283.232923 135.751316 
L 278.505452 72.787415 
" clip-path="url(#p9f242c43be)" style="fill: none; stroke: #8da0cb; stroke-width: 1.5; stroke-linecap: square"/>
   </g>
   <g id="line2d_91">
    <path d="M 298.520632 223.271035 
L 292.837858 212.782359 
L 280.608321 173.615237 
L 286.991824 133.936782 
L 282.092314 72.833698 
" clip-path="url(#p9f242c43be)" style="fill: none; stroke: #8da0cb; stroke-width: 1.5; stroke-linecap: square"/>
   </g>
   <g id="line2d_92">
    <path d="M 302.171393 221.792453 
L 296.414616 213.498694 
L 285.07716 175.422366 
L 290.891344 134.208432 
L 286.156652 72.634497 
" clip-path="url(#p9f242c43be)" style="fill: none; stroke: #8da0cb; stroke-width: 1.5; stroke-linecap: square"/>
   </g>
   <g id="line2d_93">
    <path d="M 305.987966 218.059095 
L 300.124193 212.101322 
L 288.330162 173.870965 
L 294.374853 132.604207 
L 289.630123 68.889043 
" clip-path="url(#p9f242c43be)" style="fill: none; stroke: #8da0cb; stroke-width: 1.5; stroke-linecap: square"/>
   </g>
   <g id="line2d_94">
    <path d="M 310.48228 216.705909 
L 304.845518 212.197097 
L 291.201122 174.381434 
L 297.492319 131.025531 
L 292.912574 67.855887 
" clip-path="url(#p9f242c43be)" style="fill: none; stroke: #8da0cb; stroke-width: 1.5; stroke-linecap: square"/>
   </g>
   <g id="line2d_95">
    <path d="M 313.531093 218.166348 
L 307.997419 211.506804 
L 294.564996 170.572419 
L 301.114625 122.764231 
L 296.639094 60.152449 
" clip-path="url(#p9f242c43be)" style="fill: none; stroke: #8da0cb; stroke-width: 1.5; stroke-linecap: square"/>
   </g>
   <g id="line2d_96">
    <path d="M 319.251215 220.602429 
L 313.374788 214.028539 
L 299.096609 170.653136 
L 304.828806 120.545988 
L 300.300323 60.991218 
" clip-path="url(#p9f242c43be)" style="fill: none; stroke: #8da0cb; stroke-width: 1.5; stroke-linecap: square"/>
   </g>
   <g id="line2d_97">
    <path d="M 320.592816 237.524912 
L 315.586707 221.401826 
L 302.688456 171.287026 
L 307.836858 119.502464 
L 303.818796 60.014588 
" clip-path="url(#p9f242c43be)" style="fill: none; stroke: #e78ac3; stroke-width: 1.5; stroke-linecap: square"/>
   </g>
   <g id="line2d_98">
    <path d="M 320.106014 240.745457 
L 315.52703 224.443534 
L 304.038504 173.734215 
L 309.968529 124.29539 
L 305.492468 61.573764 
" clip-path="url(#p9f242c43be)" style="fill: none; stroke: #e78ac3; stroke-width: 1.5; stroke-linecap: square"/>
   </g>
   <g id="line2d_99">
    <path d="M 320.262534 242.53111 
L 315.655393 225.726494 
L 305.806171 171.362806 
L 311.910505 127.352155 
L 307.219837 61.439853 
" clip-path="url(#p9f242c43be)" style="fill: none; stroke: #e78ac3; stroke-width: 1.5; stroke-linecap: square"/>
   </g>
   <g id="line2d_100">
    <path d="M 320.117724 242.441507 
L 315.703989 226.814202 
L 306.598808 175.15627 
L 313.579953 129.333431 
L 308.665901 65.867577 
" clip-path="url(#p9f242c43be)" style="fill: none; stroke: #e78ac3; stroke-width: 1.5; stroke-linecap: square"/>
   </g>
   <g id="line2d_101">
    <path d="M 319.89848 242.178497 
L 315.588728 227.392058 
L 307.929958 168.680747 
L 314.940685 128.363466 
L 310.557376 66.511093 
" clip-path="url(#p9f242c43be)" style="fill: none; stroke: #e78ac3; stroke-width: 1.5; stroke-linecap: square"/>
   </g>
   <g id="line2d_102">
    <path d="M 320.466159 240.775078 
L 316.268124 226.283492 
L 310.384144 162.906501 
L 317.0281 123.494636 
L 312.671309 61.818631 
" clip-path="url(#p9f242c43be)" style="fill: none; stroke: #e78ac3; stroke-width: 1.5; stroke-linecap: square"/>
   </g>
   <g id="line2d_103">
    <path d="M 319.88672 239.520628 
L 316.331428 222.088663 
L 312.96656 153.11145 
L 319.523478 118.985824 
L 315.115358 57.119752 
" clip-path="url(#p9f242c43be)" style="fill: none; stroke: #e78ac3; stroke-width: 1.5; stroke-linecap: square"/>
   </g>
   <g id="line2d_104">
    <path d="M 319.939573 242.664281 
L 316.380438 224.458838 
L 315.067209 150.732513 
L 322.338719 119.655506 
L 318.28884 58.63499 
" clip-path="url(#p9f242c43be)" style="fill: none; stroke: #e78ac3; stroke-width: 1.5; stroke-linecap: square"/>
   </g>
   <g id="line2d_105">
    <path d="M 319.744891 245.330419 
L 316.5116 225.710819 
L 318.006375 148.752718 
L 324.934138 119.460995 
L 321.398655 61.061568 
" clip-path="url(#p9f242c43be)" style="fill: none; stroke: #e78ac3; stroke-width: 1.5; stroke-linecap: square"/>
   </g>
   <g id="line2d_106">
    <path d="M 319.555527 245.855451 
L 316.876283 221.28075 
L 320.493488 149.1547 
L 328.279428 120.861081 
L 324.810031 61.781111 
" clip-path="url(#p9f242c43be)" style="fill: none; stroke: #e78ac3; stroke-width: 1.5; stroke-linecap: square"/>
   </g>
   <g id="line2d_107">
    <path d="M 319.691559 246.765557 
L 317.276428 220.809776 
L 322.357982 149.830306 
L 330.481707 123.344926 
L 327.284258 61.965626 
" clip-path="url(#p9f242c43be)" style="fill: none; stroke: #e78ac3; stroke-width: 1.5; stroke-linecap: square"/>
   </g>
   <g id="line2d_108">
    <path d="M 320.061708 243.972049 
L 317.860936 212.809141 
L 324.885558 149.722436 
L 333.423921 124.248861 
L 330.418139 64.897982 
" clip-path="url(#p9f242c43be)" style="fill: none; stroke: #e78ac3; stroke-width: 1.5; stroke-linecap: square"/>
   </g>
   <g id="line2d_109">
    <path d="M 320.520685 241.459323 
L 319.212938 208.590862 
L 327.229137 145.641031 
L 335.791234 122.501468 
L 333.558114 61.683115 
" clip-path="url(#p9f242c43be)" style="fill: none; stroke: #e78ac3; stroke-width: 1.5; stroke-linecap: square"/>
   </g>
   <g id="line2d_110">
    <path d="M 321.04752 242.171955 
L 323.217352 200.823616 
L 329.804745 140.938079 
L 338.628173 119.174905 
L 336.121732 58.654737 
" clip-path="url(#p9f242c43be)" style="fill: none; stroke: #e78ac3; stroke-width: 1.5; stroke-linecap: square"/>
   </g>
   <g id="line2d_111">
    <path d="M 328.130957 226.206724 
L 332.056084 197.053602 
L 334.420018 132.994341 
L 341.948354 117.5887 
L 339.574383 60.765975 
" clip-path="url(#p9f242c43be)" style="fill: none; stroke: #e78ac3; stroke-width: 1.5; stroke-linecap: square"/>
   </g>
   <g id="line2d_112">
    <path d="M 339.584155 229.845542 
L 342.120145 201.282989 
L 338.830739 138.931255 
L 346.10692 115.643463 
L 343.078545 60.391269 
" clip-path="url(#p9f242c43be)" style="fill: none; stroke: #e78ac3; stroke-width: 1.5; stroke-linecap: square"/>
   </g>
   <g id="line2d_113">
    <path d="M 350.289667 221.458723 
L 348.768822 197.1632 
L 342.587685 146.447587 
L 350.273634 121.42314 
L 346.799981 66.926404 
" clip-path="url(#p9f242c43be)" style="fill: none; stroke: #e78ac3; stroke-width: 1.5; stroke-linecap: square"/>
   </g>
   <g id="line2d_114">
    <path d="M 357.714319 220.074681 
L 354.706714 197.239597 
L 345.534536 155.312661 
L 353.745664 123.999427 
L 349.401792 69.078124 
" clip-path="url(#p9f242c43be)" style="fill: none; stroke: #e78ac3; stroke-width: 1.5; stroke-linecap: square"/>
   </g>
   <g id="line2d_115">
    <path d="M 363.556676 207.172139 
L 359.568643 197.421767 
L 349.866748 161.135905 
L 356.994823 126.697161 
L 352.86256 72.660662 
" clip-path="url(#p9f242c43be)" style="fill: none; stroke: #e78ac3; stroke-width: 1.5; stroke-linecap: square"/>
   </g>
   <g id="line2d_116">
    <path d="M 368.150848 207.319504 
L 361.576805 200.07223 
L 352.752151 169.824982 
L 360.097102 131.178202 
L 355.93678 74.270193 
" clip-path="url(#p9f242c43be)" style="fill: none; stroke: #e78ac3; stroke-width: 1.5; stroke-linecap: square"/>
   </g>
   <g id="line2d_117">
    <path d="M 372.900877 209.64426 
L 371.675449 201.494162 
L 357.246117 172.00805 
L 363.818537 127.900884 
L 359.954726 74.315119 
" clip-path="url(#p9f242c43be)" style="fill: none; stroke: #e78ac3; stroke-width: 1.5; stroke-linecap: square"/>
   </g>
   <g id="line2d_118">
    <path d="M 373.550179 223.96861 
L 372.467756 212.962553 
L 361.907799 172.359306 
L 368.190599 129.421306 
L 364.304362 71.579618 
" clip-path="url(#p9f242c43be)" style="fill: none; stroke: #e78ac3; stroke-width: 1.5; stroke-linecap: square"/>
   </g>
   <g id="line2d_119">
    <path d="M 373.870606 227.74171 
L 372.548185 218.005037 
L 363.345068 164.170701 
L 370.850381 119.906791 
L 365.829382 65.20567 
" clip-path="url(#p9f242c43be)" style="fill: none; stroke: #e78ac3; stroke-width: 1.5; stroke-linecap: square"/>
   </g>
   <g id="line2d_120">
    <path d="M 373.912378 228.654654 
L 372.077002 220.300171 
L 365.296153 163.838946 
L 372.633054 126.315667 
L 366.6996 60.453473 
" clip-path="url(#p9f242c43be)" style="fill: none; stroke: #e78ac3; stroke-width: 1.5; stroke-linecap: square"/>
   </g>
   <g id="line2d_121">
    <path d="M 359.399568 228.195652 
L 373.008404 219.571001 
L 366.475238 155.107412 
L 373.41423 127.977282 
L 370.385392 62.762924 
" clip-path="url(#p9f242c43be)" style="fill: none; stroke: #e78ac3; stroke-width: 1.5; stroke-linecap: square"/>
   </g>
   <g id="line2d_122">
    <path d="M 372.961465 232.232132 
L 371.963711 219.318111 
L 367.833601 160.497572 
L 373.341751 133.471856 
L 371.967753 69.274487 
" clip-path="url(#p9f242c43be)" style="fill: none; stroke: #e78ac3; stroke-width: 1.5; stroke-linecap: square"/>
   </g>
   <g id="patch_3">
    <path d="M 47.389063 288.430125 
L 47.389063 22.318125 
" style="fill: none; stroke: #000000; stroke-width: 0.8; stroke-linejoin: miter; stroke-linecap: square"/>
   </g>
   <g id="patch_4">
    <path d="M 404.509063 288.430125 
L 404.509063 22.318125 
" style="fill: none; stroke: #000000; stroke-width: 0.8; stroke-linejoin: miter; stroke-linecap: square"/>
   </g>
   <g id="patch_5">
    <path d="M 47.389063 288.430125 
L 404.509063 288.430125 
" style="fill: none; stroke: #000000; stroke-width: 0.8; stroke-linejoin: miter; stroke-linecap: square"/>
   </g>
   <g id="patch_6">
    <path d="M 47.389063 22.318125 
L 404.509063 22.318125 
" style="fill: none; stroke: #000000; stroke-width: 0.8; stroke-linejoin: miter; stroke-linecap: square"/>
   </g>
   <g id="text_19">
    <!-- ID 18 - Run 2 - Secondary Stick Diagram -->
    <g transform="translate(104.878438 16.318125) scale(0.12 -0.12)">
     <defs>
      <path id="DejaVuSans-49" d="M 628 4666 
L 1259 4666 
L 1259 0 
L 628 0 
L 628 4666 
z
" transform="scale(0.015625)"/>
      <path id="DejaVuSans-44" d="M 1259 4147 
L 1259 519 
L 2022 519 
Q 2988 519 3436 956 
Q 3884 1394 3884 2338 
Q 3884 3275 3436 3711 
Q 2988 4147 2022 4147 
L 1259 4147 
z
M 628 4666 
L 1925 4666 
Q 3281 4666 3915 4102 
Q 4550 3538 4550 2338 
Q 4550 1131 3912 565 
Q 3275 0 1925 0 
L 628 0 
L 628 4666 
z
" transform="scale(0.015625)"/>
      <path id="DejaVuSans-38" d="M 2034 2216 
Q 1584 2216 1326 1975 
Q 1069 1734 1069 1313 
Q 1069 891 1326 650 
Q 1584 409 2034 409 
Q 2484 409 2743 651 
Q 3003 894 3003 1313 
Q 3003 1734 2745 1975 
Q 2488 2216 2034 2216 
z
M 1403 2484 
Q 997 2584 770 2862 
Q 544 3141 544 3541 
Q 544 4100 942 4425 
Q 1341 4750 2034 4750 
Q 2731 4750 3128 4425 
Q 3525 4100 3525 3541 
Q 3525 3141 3298 2862 
Q 3072 2584 2669 2484 
Q 3125 2378 3379 2068 
Q 3634 1759 3634 1313 
Q 3634 634 3220 271 
Q 2806 -91 2034 -91 
Q 1263 -91 848 271 
Q 434 634 434 1313 
Q 434 1759 690 2068 
Q 947 2378 1403 2484 
z
M 1172 3481 
Q 1172 3119 1398 2916 
Q 1625 2713 2034 2713 
Q 2441 2713 2670 2916 
Q 2900 3119 2900 3481 
Q 2900 3844 2670 4047 
Q 2441 4250 2034 4250 
Q 1625 4250 1398 4047 
Q 1172 3844 1172 3481 
z
" transform="scale(0.015625)"/>
      <path id="DejaVuSans-52" d="M 2841 2188 
Q 3044 2119 3236 1894 
Q 3428 1669 3622 1275 
L 4263 0 
L 3584 0 
L 2988 1197 
Q 2756 1666 2539 1819 
Q 2322 1972 1947 1972 
L 1259 1972 
L 1259 0 
L 628 0 
L 628 4666 
L 2053 4666 
Q 2853 4666 3247 4331 
Q 3641 3997 3641 3322 
Q 3641 2881 3436 2590 
Q 3231 2300 2841 2188 
z
M 1259 4147 
L 1259 2491 
L 2053 2491 
Q 2509 2491 2742 2702 
Q 2975 2913 2975 3322 
Q 2975 3731 2742 3939 
Q 2509 4147 2053 4147 
L 1259 4147 
z
" transform="scale(0.015625)"/>
      <path id="DejaVuSans-75" d="M 544 1381 
L 544 3500 
L 1119 3500 
L 1119 1403 
Q 1119 906 1312 657 
Q 1506 409 1894 409 
Q 2359 409 2629 706 
Q 2900 1003 2900 1516 
L 2900 3500 
L 3475 3500 
L 3475 0 
L 2900 0 
L 2900 538 
Q 2691 219 2414 64 
Q 2138 -91 1772 -91 
Q 1169 -91 856 284 
Q 544 659 544 1381 
z
M 1991 3584 
L 1991 3584 
z
" transform="scale(0.015625)"/>
      <path id="DejaVuSans-6e" d="M 3513 2113 
L 3513 0 
L 2938 0 
L 2938 2094 
Q 2938 2591 2744 2837 
Q 2550 3084 2163 3084 
Q 1697 3084 1428 2787 
Q 1159 2491 1159 1978 
L 1159 0 
L 581 0 
L 581 3500 
L 1159 3500 
L 1159 2956 
Q 1366 3272 1645 3428 
Q 1925 3584 2291 3584 
Q 2894 3584 3203 3211 
Q 3513 2838 3513 2113 
z
" transform="scale(0.015625)"/>
      <path id="DejaVuSans-53" d="M 3425 4513 
L 3425 3897 
Q 3066 4069 2747 4153 
Q 2428 4238 2131 4238 
Q 1616 4238 1336 4038 
Q 1056 3838 1056 3469 
Q 1056 3159 1242 3001 
Q 1428 2844 1947 2747 
L 2328 2669 
Q 3034 2534 3370 2195 
Q 3706 1856 3706 1288 
Q 3706 609 3251 259 
Q 2797 -91 1919 -91 
Q 1588 -91 1214 -16 
Q 841 59 441 206 
L 441 856 
Q 825 641 1194 531 
Q 1563 422 1919 422 
Q 2459 422 2753 634 
Q 3047 847 3047 1241 
Q 3047 1584 2836 1778 
Q 2625 1972 2144 2069 
L 1759 2144 
Q 1053 2284 737 2584 
Q 422 2884 422 3419 
Q 422 4038 858 4394 
Q 1294 4750 2059 4750 
Q 2388 4750 2728 4690 
Q 3069 4631 3425 4513 
z
" transform="scale(0.015625)"/>
      <path id="DejaVuSans-65" d="M 3597 1894 
L 3597 1613 
L 953 1613 
Q 991 1019 1311 708 
Q 1631 397 2203 397 
Q 2534 397 2845 478 
Q 3156 559 3463 722 
L 3463 178 
Q 3153 47 2828 -22 
Q 2503 -91 2169 -91 
Q 1331 -91 842 396 
Q 353 884 353 1716 
Q 353 2575 817 3079 
Q 1281 3584 2069 3584 
Q 2775 3584 3186 3129 
Q 3597 2675 3597 1894 
z
M 3022 2063 
Q 3016 2534 2758 2815 
Q 2500 3097 2075 3097 
Q 1594 3097 1305 2825 
Q 1016 2553 972 2059 
L 3022 2063 
z
" transform="scale(0.015625)"/>
      <path id="DejaVuSans-6f" d="M 1959 3097 
Q 1497 3097 1228 2736 
Q 959 2375 959 1747 
Q 959 1119 1226 758 
Q 1494 397 1959 397 
Q 2419 397 2687 759 
Q 2956 1122 2956 1747 
Q 2956 2369 2687 2733 
Q 2419 3097 1959 3097 
z
M 1959 3584 
Q 2709 3584 3137 3096 
Q 3566 2609 3566 1747 
Q 3566 888 3137 398 
Q 2709 -91 1959 -91 
Q 1206 -91 779 398 
Q 353 888 353 1747 
Q 353 2609 779 3096 
Q 1206 3584 1959 3584 
z
" transform="scale(0.015625)"/>
      <path id="DejaVuSans-64" d="M 2906 2969 
L 2906 4863 
L 3481 4863 
L 3481 0 
L 2906 0 
L 2906 525 
Q 2725 213 2448 61 
Q 2172 -91 1784 -91 
Q 1150 -91 751 415 
Q 353 922 353 1747 
Q 353 2572 751 3078 
Q 1150 3584 1784 3584 
Q 2172 3584 2448 3432 
Q 2725 3281 2906 2969 
z
M 947 1747 
Q 947 1113 1208 752 
Q 1469 391 1925 391 
Q 2381 391 2643 752 
Q 2906 1113 2906 1747 
Q 2906 2381 2643 2742 
Q 2381 3103 1925 3103 
Q 1469 3103 1208 2742 
Q 947 2381 947 1747 
z
" transform="scale(0.015625)"/>
      <path id="DejaVuSans-61" d="M 2194 1759 
Q 1497 1759 1228 1600 
Q 959 1441 959 1056 
Q 959 750 1161 570 
Q 1363 391 1709 391 
Q 2188 391 2477 730 
Q 2766 1069 2766 1631 
L 2766 1759 
L 2194 1759 
z
M 3341 1997 
L 3341 0 
L 2766 0 
L 2766 531 
Q 2569 213 2275 61 
Q 1981 -91 1556 -91 
Q 1019 -91 701 211 
Q 384 513 384 1019 
Q 384 1609 779 1909 
Q 1175 2209 1959 2209 
L 2766 2209 
L 2766 2266 
Q 2766 2663 2505 2880 
Q 2244 3097 1772 3097 
Q 1472 3097 1187 3025 
Q 903 2953 641 2809 
L 641 3341 
Q 956 3463 1253 3523 
Q 1550 3584 1831 3584 
Q 2591 3584 2966 3190 
Q 3341 2797 3341 1997 
z
" transform="scale(0.015625)"/>
      <path id="DejaVuSans-72" d="M 2631 2963 
Q 2534 3019 2420 3045 
Q 2306 3072 2169 3072 
Q 1681 3072 1420 2755 
Q 1159 2438 1159 1844 
L 1159 0 
L 581 0 
L 581 3500 
L 1159 3500 
L 1159 2956 
Q 1341 3275 1631 3429 
Q 1922 3584 2338 3584 
Q 2397 3584 2469 3576 
Q 2541 3569 2628 3553 
L 2631 2963 
z
" transform="scale(0.015625)"/>
      <path id="DejaVuSans-74" d="M 1172 4494 
L 1172 3500 
L 2356 3500 
L 2356 3053 
L 1172 3053 
L 1172 1153 
Q 1172 725 1289 603 
Q 1406 481 1766 481 
L 2356 481 
L 2356 0 
L 1766 0 
Q 1100 0 847 248 
Q 594 497 594 1153 
L 594 3053 
L 172 3053 
L 172 3500 
L 594 3500 
L 594 4494 
L 1172 4494 
z
" transform="scale(0.015625)"/>
      <path id="DejaVuSans-69" d="M 603 3500 
L 1178 3500 
L 1178 0 
L 603 0 
L 603 3500 
z
M 603 4863 
L 1178 4863 
L 1178 4134 
L 603 4134 
L 603 4863 
z
" transform="scale(0.015625)"/>
      <path id="DejaVuSans-6b" d="M 581 4863 
L 1159 4863 
L 1159 1991 
L 2875 3500 
L 3609 3500 
L 1753 1863 
L 3688 0 
L 2938 0 
L 1159 1709 
L 1159 0 
L 581 0 
L 581 4863 
z
" transform="scale(0.015625)"/>
      <path id="DejaVuSans-67" d="M 2906 1791 
Q 2906 2416 2648 2759 
Q 2391 3103 1925 3103 
Q 1463 3103 1205 2759 
Q 947 2416 947 1791 
Q 947 1169 1205 825 
Q 1463 481 1925 481 
Q 2391 481 2648 825 
Q 2906 1169 2906 1791 
z
M 3481 434 
Q 3481 -459 3084 -895 
Q 2688 -1331 1869 -1331 
Q 1566 -1331 1297 -1286 
Q 1028 -1241 775 -1147 
L 775 -588 
Q 1028 -725 1275 -790 
Q 1522 -856 1778 -856 
Q 2344 -856 2625 -561 
Q 2906 -266 2906 331 
L 2906 616 
Q 2728 306 2450 153 
Q 2172 0 1784 0 
Q 1141 0 747 490 
Q 353 981 353 1791 
Q 353 2603 747 3093 
Q 1141 3584 1784 3584 
Q 2172 3584 2450 3431 
Q 2728 3278 2906 2969 
L 2906 3500 
L 3481 3500 
L 3481 434 
z
" transform="scale(0.015625)"/>
     </defs>
     <use xlink:href="#DejaVuSans-49"/>
     <use xlink:href="#DejaVuSans-44" transform="translate(29.492188 0)"/>
     <use xlink:href="#DejaVuSans-20" transform="translate(106.494141 0)"/>
     <use xlink:href="#DejaVuSans-31" transform="translate(138.28125 0)"/>
     <use xlink:href="#DejaVuSans-38" transform="translate(201.904297 0)"/>
     <use xlink:href="#DejaVuSans-20" transform="translate(265.527344 0)"/>
     <use xlink:href="#DejaVuSans-2d" transform="translate(297.314453 0)"/>
     <use xlink:href="#DejaVuSans-20" transform="translate(333.398438 0)"/>
     <use xlink:href="#DejaVuSans-52" transform="translate(365.185547 0)"/>
     <use xlink:href="#DejaVuSans-75" transform="translate(430.167969 0)"/>
     <use xlink:href="#DejaVuSans-6e" transform="translate(493.546875 0)"/>
     <use xlink:href="#DejaVuSans-20" transform="translate(556.925781 0)"/>
     <use xlink:href="#DejaVuSans-32" transform="translate(588.712891 0)"/>
     <use xlink:href="#DejaVuSans-20" transform="translate(652.335938 0)"/>
     <use xlink:href="#DejaVuSans-2d" transform="translate(684.123047 0)"/>
     <use xlink:href="#DejaVuSans-20" transform="translate(720.207031 0)"/>
     <use xlink:href="#DejaVuSans-53" transform="translate(751.994141 0)"/>
     <use xlink:href="#DejaVuSans-65" transform="translate(815.470703 0)"/>
     <use xlink:href="#DejaVuSans-63" transform="translate(876.994141 0)"/>
     <use xlink:href="#DejaVuSans-6f" transform="translate(931.974609 0)"/>
     <use xlink:href="#DejaVuSans-6e" transform="translate(993.15625 0)"/>
     <use xlink:href="#DejaVuSans-64" transform="translate(1056.535156 0)"/>
     <use xlink:href="#DejaVuSans-61" transform="translate(1120.011719 0)"/>
     <use xlink:href="#DejaVuSans-72" transform="translate(1181.291016 0)"/>
     <use xlink:href="#DejaVuSans-79" transform="translate(1222.404297 0)"/>
     <use xlink:href="#DejaVuSans-20" transform="translate(1281.583984 0)"/>
     <use xlink:href="#DejaVuSans-53" transform="translate(1313.371094 0)"/>
     <use xlink:href="#DejaVuSans-74" transform="translate(1376.847656 0)"/>
     <use xlink:href="#DejaVuSans-69" transform="translate(1416.056641 0)"/>
     <use xlink:href="#DejaVuSans-63" transform="translate(1443.839844 0)"/>
     <use xlink:href="#DejaVuSans-6b" transform="translate(1498.820312 0)"/>
     <use xlink:href="#DejaVuSans-20" transform="translate(1556.730469 0)"/>
     <use xlink:href="#DejaVuSans-44" transform="translate(1588.517578 0)"/>
     <use xlink:href="#DejaVuSans-69" transform="translate(1665.519531 0)"/>
     <use xlink:href="#DejaVuSans-61" transform="translate(1693.302734 0)"/>
     <use xlink:href="#DejaVuSans-67" transform="translate(1754.582031 0)"/>
     <use xlink:href="#DejaVuSans-72" transform="translate(1818.058594 0)"/>
     <use xlink:href="#DejaVuSans-61" transform="translate(1859.171875 0)"/>
     <use xlink:href="#DejaVuSans-6d" transform="translate(1920.451172 0)"/>
    </g>
   </g>
   <g id="legend_1">
    <g id="patch_7">
     <path d="M 410.109063 180.059125 
L 478.387812 180.059125 
Q 479.987813 180.059125 479.987813 178.459125 
L 479.987813 132.289125 
Q 479.987813 130.689125 478.387812 130.689125 
L 410.109063 130.689125 
Q 408.509063 130.689125 408.509063 132.289125 
L 408.509063 178.459125 
Q 408.509063 180.059125 410.109063 180.059125 
z
" style="fill: #ffffff; opacity: 0.8; stroke: #cccccc; stroke-linejoin: miter"/>
    </g>
    <g id="line2d_123">
     <path d="M 411.709063 137.167875 
L 419.709063 137.167875 
L 427.709063 137.167875 
" style="fill: none; stroke: #66c2a5; stroke-width: 1.5; stroke-linecap: square"/>
    </g>
    <g id="text_20">
     <!-- 1.68-2.02s -->
     <g transform="translate(434.109062 139.967875) scale(0.08 -0.08)">
      <defs>
       <path id="DejaVuSans-36" d="M 2113 2584 
Q 1688 2584 1439 2293 
Q 1191 2003 1191 1497 
Q 1191 994 1439 701 
Q 1688 409 2113 409 
Q 2538 409 2786 701 
Q 3034 994 3034 1497 
Q 3034 2003 2786 2293 
Q 2538 2584 2113 2584 
z
M 3366 4563 
L 3366 3988 
Q 3128 4100 2886 4159 
Q 2644 4219 2406 4219 
Q 1781 4219 1451 3797 
Q 1122 3375 1075 2522 
Q 1259 2794 1537 2939 
Q 1816 3084 2150 3084 
Q 2853 3084 3261 2657 
Q 3669 2231 3669 1497 
Q 3669 778 3244 343 
Q 2819 -91 2113 -91 
Q 1303 -91 875 529 
Q 447 1150 447 2328 
Q 447 3434 972 4092 
Q 1497 4750 2381 4750 
Q 2619 4750 2861 4703 
Q 3103 4656 3366 4563 
z
" transform="scale(0.015625)"/>
       <path id="DejaVuSans-73" d="M 2834 3397 
L 2834 2853 
Q 2591 2978 2328 3040 
Q 2066 3103 1784 3103 
Q 1356 3103 1142 2972 
Q 928 2841 928 2578 
Q 928 2378 1081 2264 
Q 1234 2150 1697 2047 
L 1894 2003 
Q 2506 1872 2764 1633 
Q 3022 1394 3022 966 
Q 3022 478 2636 193 
Q 2250 -91 1575 -91 
Q 1294 -91 989 -36 
Q 684 19 347 128 
L 347 722 
Q 666 556 975 473 
Q 1284 391 1588 391 
Q 1994 391 2212 530 
Q 2431 669 2431 922 
Q 2431 1156 2273 1281 
Q 2116 1406 1581 1522 
L 1381 1569 
Q 847 1681 609 1914 
Q 372 2147 372 2553 
Q 372 3047 722 3315 
Q 1072 3584 1716 3584 
Q 2034 3584 2315 3537 
Q 2597 3491 2834 3397 
z
" transform="scale(0.015625)"/>
      </defs>
      <use xlink:href="#DejaVuSans-31"/>
      <use xlink:href="#DejaVuSans-2e" transform="translate(63.623047 0)"/>
      <use xlink:href="#DejaVuSans-36" transform="translate(95.410156 0)"/>
      <use xlink:href="#DejaVuSans-38" transform="translate(159.033203 0)"/>
      <use xlink:href="#DejaVuSans-2d" transform="translate(222.65625 0)"/>
      <use xlink:href="#DejaVuSans-32" transform="translate(258.740234 0)"/>
      <use xlink:href="#DejaVuSans-2e" transform="translate(322.363281 0)"/>
      <use xlink:href="#DejaVuSans-30" transform="translate(354.150391 0)"/>
      <use xlink:href="#DejaVuSans-32" transform="translate(417.773438 0)"/>
      <use xlink:href="#DejaVuSans-73" transform="translate(481.396484 0)"/>
     </g>
    </g>
    <g id="line2d_124">
     <path d="M 411.709063 148.910375 
L 419.709063 148.910375 
L 427.709063 148.910375 
" style="fill: none; stroke: #fc8d62; stroke-width: 1.5; stroke-linecap: square"/>
    </g>
    <g id="text_21">
     <!-- 2.03-2.26s -->
     <g transform="translate(434.109062 151.710375) scale(0.08 -0.08)">
      <use xlink:href="#DejaVuSans-32"/>
      <use xlink:href="#DejaVuSans-2e" transform="translate(63.623047 0)"/>
      <use xlink:href="#DejaVuSans-30" transform="translate(95.410156 0)"/>
      <use xlink:href="#DejaVuSans-33" transform="translate(159.033203 0)"/>
      <use xlink:href="#DejaVuSans-2d" transform="translate(222.65625 0)"/>
      <use xlink:href="#DejaVuSans-32" transform="translate(258.740234 0)"/>
      <use xlink:href="#DejaVuSans-2e" transform="translate(322.363281 0)"/>
      <use xlink:href="#DejaVuSans-32" transform="translate(354.150391 0)"/>
      <use xlink:href="#DejaVuSans-36" transform="translate(417.773438 0)"/>
      <use xlink:href="#DejaVuSans-73" transform="translate(481.396484 0)"/>
     </g>
    </g>
    <g id="line2d_125">
     <path d="M 411.709063 160.652875 
L 419.709063 160.652875 
L 427.709063 160.652875 
" style="fill: none; stroke: #8da0cb; stroke-width: 1.5; stroke-linecap: square"/>
    </g>
    <g id="text_22">
     <!-- 2.27-2.47s -->
     <g transform="translate(434.109062 163.452875) scale(0.08 -0.08)">
      <defs>
       <path id="DejaVuSans-37" d="M 525 4666 
L 3525 4666 
L 3525 4397 
L 1831 0 
L 1172 0 
L 2766 4134 
L 525 4134 
L 525 4666 
z
" transform="scale(0.015625)"/>
       <path id="DejaVuSans-34" d="M 2419 4116 
L 825 1625 
L 2419 1625 
L 2419 4116 
z
M 2253 4666 
L 3047 4666 
L 3047 1625 
L 3713 1625 
L 3713 1100 
L 3047 1100 
L 3047 0 
L 2419 0 
L 2419 1100 
L 313 1100 
L 313 1709 
L 2253 4666 
z
" transform="scale(0.015625)"/>
      </defs>
      <use xlink:href="#DejaVuSans-32"/>
      <use xlink:href="#DejaVuSans-2e" transform="translate(63.623047 0)"/>
      <use xlink:href="#DejaVuSans-32" transform="translate(95.410156 0)"/>
      <use xlink:href="#DejaVuSans-37" transform="translate(159.033203 0)"/>
      <use xlink:href="#DejaVuSans-2d" transform="translate(222.65625 0)"/>
      <use xlink:href="#DejaVuSans-32" transform="translate(258.740234 0)"/>
      <use xlink:href="#DejaVuSans-2e" transform="translate(322.363281 0)"/>
      <use xlink:href="#DejaVuSans-34" transform="translate(354.150391 0)"/>
      <use xlink:href="#DejaVuSans-37" transform="translate(417.773438 0)"/>
      <use xlink:href="#DejaVuSans-73" transform="translate(481.396484 0)"/>
     </g>
    </g>
    <g id="line2d_126">
     <path d="M 411.709063 172.395375 
L 419.709063 172.395375 
L 427.709063 172.395375 
" style="fill: none; stroke: #e78ac3; stroke-width: 1.5; stroke-linecap: square"/>
    </g>
    <g id="text_23">
     <!-- 2.48-2.73s -->
     <g transform="translate(434.109062 175.195375) scale(0.08 -0.08)">
      <use xlink:href="#DejaVuSans-32"/>
      <use xlink:href="#DejaVuSans-2e" transform="translate(63.623047 0)"/>
      <use xlink:href="#DejaVuSans-34" transform="translate(95.410156 0)"/>
      <use xlink:href="#DejaVuSans-38" transform="translate(159.033203 0)"/>
      <use xlink:href="#DejaVuSans-2d" transform="translate(222.65625 0)"/>
      <use xlink:href="#DejaVuSans-32" transform="translate(258.740234 0)"/>
      <use xlink:href="#DejaVuSans-2e" transform="translate(322.363281 0)"/>
      <use xlink:href="#DejaVuSans-37" transform="translate(354.150391 0)"/>
      <use xlink:href="#DejaVuSans-33" transform="translate(417.773438 0)"/>
      <use xlink:href="#DejaVuSans-73" transform="translate(481.396484 0)"/>
     </g>
    </g>
   </g>
  </g>
 </g>
 <defs>
  <clipPath id="p9f242c43be">
   <rect x="47.389063" y="22.318125" width="357.12" height="266.112"/>
  </clipPath>
 </defs>
</svg>
