<?xml version="1.0" encoding="utf-8" standalone="no"?>
<!DOCTYPE svg PUBLIC "-//W3C//DTD SVG 1.1//EN"
  "http://www.w3.org/Graphics/SVG/1.1/DTD/svg11.dtd">
<svg xmlns:xlink="http://www.w3.org/1999/xlink" width="422.841875pt" height="325.986375pt" viewBox="0 0 422.841875 325.986375" xmlns="http://www.w3.org/2000/svg" version="1.1">
 <metadata>
  <rdf:RDF xmlns:dc="http://purl.org/dc/elements/1.1/" xmlns:cc="http://creativecommons.org/ns#" xmlns:rdf="http://www.w3.org/1999/02/22-rdf-syntax-ns#">
   <cc:Work>
    <dc:type rdf:resource="http://purl.org/dc/dcmitype/StillImage"/>
    <dc:date>2024-04-05T15:48:29.719833</dc:date>
    <dc:format>image/svg+xml</dc:format>
    <dc:creator>
     <cc:Agent>
      <dc:title>Matplotlib v3.7.1, https://matplotlib.org/</dc:title>
     </cc:Agent>
    </dc:creator>
   </cc:Work>
  </rdf:RDF>
 </metadata>
 <defs>
  <style type="text/css">*{stroke-linejoin: round; stroke-linecap: butt}</style>
 </defs>
 <g id="figure_1">
  <g id="patch_1">
   <path d="M 0 325.986375 
L 422.841875 325.986375 
L 422.841875 0 
L 0 0 
z
" style="fill: #ffffff"/>
  </g>
  <g id="axes_1">
   <g id="patch_2">
    <path d="M 47.389063 288.430125 
L 404.509063 288.430125 
L 404.509063 22.318125 
L 47.389063 22.318125 
z
" style="fill: #ffffff"/>
   </g>
   <g id="matplotlib.axis_1">
    <g id="xtick_1">
     <g id="line2d_1">
      <defs>
       <path id="mbd1a6771e3" d="M 0 0 
L 0 3.5 
" style="stroke: #000000; stroke-width: 0.8"/>
      </defs>
      <g>
       <use xlink:href="#mbd1a6771e3" x="47.389063" y="288.430125" style="stroke: #000000; stroke-width: 0.8"/>
      </g>
     </g>
     <g id="text_1">
      <!-- 10.0 -->
      <g transform="translate(36.25625 303.028562) scale(0.1 -0.1)">
       <defs>
        <path id="DejaVuSans-31" d="M 794 531 
L 1825 531 
L 1825 4091 
L 703 3866 
L 703 4441 
L 1819 4666 
L 2450 4666 
L 2450 531 
L 3481 531 
L 3481 0 
L 794 0 
L 794 531 
z
" transform="scale(0.015625)"/>
        <path id="DejaVuSans-30" d="M 2034 4250 
Q 1547 4250 1301 3770 
Q 1056 3291 1056 2328 
Q 1056 1369 1301 889 
Q 1547 409 2034 409 
Q 2525 409 2770 889 
Q 3016 1369 3016 2328 
Q 3016 3291 2770 3770 
Q 2525 4250 2034 4250 
z
M 2034 4750 
Q 2819 4750 3233 4129 
Q 3647 3509 3647 2328 
Q 3647 1150 3233 529 
Q 2819 -91 2034 -91 
Q 1250 -91 836 529 
Q 422 1150 422 2328 
Q 422 3509 836 4129 
Q 1250 4750 2034 4750 
z
" transform="scale(0.015625)"/>
        <path id="DejaVuSans-2e" d="M 684 794 
L 1344 794 
L 1344 0 
L 684 0 
L 684 794 
z
" transform="scale(0.015625)"/>
       </defs>
       <use xlink:href="#DejaVuSans-31"/>
       <use xlink:href="#DejaVuSans-30" x="63.623047"/>
       <use xlink:href="#DejaVuSans-2e" x="127.246094"/>
       <use xlink:href="#DejaVuSans-30" x="159.033203"/>
      </g>
     </g>
    </g>
    <g id="xtick_2">
     <g id="line2d_2">
      <g>
       <use xlink:href="#mbd1a6771e3" x="87.069063" y="288.430125" style="stroke: #000000; stroke-width: 0.8"/>
      </g>
     </g>
     <g id="text_2">
      <!-- 12.5 -->
      <g transform="translate(75.93625 303.028562) scale(0.1 -0.1)">
       <defs>
        <path id="DejaVuSans-32" d="M 1228 531 
L 3431 531 
L 3431 0 
L 469 0 
L 469 531 
Q 828 903 1448 1529 
Q 2069 2156 2228 2338 
Q 2531 2678 2651 2914 
Q 2772 3150 2772 3378 
Q 2772 3750 2511 3984 
Q 2250 4219 1831 4219 
Q 1534 4219 1204 4116 
Q 875 4013 500 3803 
L 500 4441 
Q 881 4594 1212 4672 
Q 1544 4750 1819 4750 
Q 2544 4750 2975 4387 
Q 3406 4025 3406 3419 
Q 3406 3131 3298 2873 
Q 3191 2616 2906 2266 
Q 2828 2175 2409 1742 
Q 1991 1309 1228 531 
z
" transform="scale(0.015625)"/>
        <path id="DejaVuSans-35" d="M 691 4666 
L 3169 4666 
L 3169 4134 
L 1269 4134 
L 1269 2991 
Q 1406 3038 1543 3061 
Q 1681 3084 1819 3084 
Q 2600 3084 3056 2656 
Q 3513 2228 3513 1497 
Q 3513 744 3044 326 
Q 2575 -91 1722 -91 
Q 1428 -91 1123 -41 
Q 819 9 494 109 
L 494 744 
Q 775 591 1075 516 
Q 1375 441 1709 441 
Q 2250 441 2565 725 
Q 2881 1009 2881 1497 
Q 2881 1984 2565 2268 
Q 2250 2553 1709 2553 
Q 1456 2553 1204 2497 
Q 953 2441 691 2322 
L 691 4666 
z
" transform="scale(0.015625)"/>
       </defs>
       <use xlink:href="#DejaVuSans-31"/>
       <use xlink:href="#DejaVuSans-32" x="63.623047"/>
       <use xlink:href="#DejaVuSans-2e" x="127.246094"/>
       <use xlink:href="#DejaVuSans-35" x="159.033203"/>
      </g>
     </g>
    </g>
    <g id="xtick_3">
     <g id="line2d_3">
      <g>
       <use xlink:href="#mbd1a6771e3" x="126.749062" y="288.430125" style="stroke: #000000; stroke-width: 0.8"/>
      </g>
     </g>
     <g id="text_3">
      <!-- 15.0 -->
      <g transform="translate(115.61625 303.028562) scale(0.1 -0.1)">
       <use xlink:href="#DejaVuSans-31"/>
       <use xlink:href="#DejaVuSans-35" x="63.623047"/>
       <use xlink:href="#DejaVuSans-2e" x="127.246094"/>
       <use xlink:href="#DejaVuSans-30" x="159.033203"/>
      </g>
     </g>
    </g>
    <g id="xtick_4">
     <g id="line2d_4">
      <g>
       <use xlink:href="#mbd1a6771e3" x="166.429062" y="288.430125" style="stroke: #000000; stroke-width: 0.8"/>
      </g>
     </g>
     <g id="text_4">
      <!-- 17.5 -->
      <g transform="translate(155.29625 303.028562) scale(0.1 -0.1)">
       <defs>
        <path id="DejaVuSans-37" d="M 525 4666 
L 3525 4666 
L 3525 4397 
L 1831 0 
L 1172 0 
L 2766 4134 
L 525 4134 
L 525 4666 
z
" transform="scale(0.015625)"/>
       </defs>
       <use xlink:href="#DejaVuSans-31"/>
       <use xlink:href="#DejaVuSans-37" x="63.623047"/>
       <use xlink:href="#DejaVuSans-2e" x="127.246094"/>
       <use xlink:href="#DejaVuSans-35" x="159.033203"/>
      </g>
     </g>
    </g>
    <g id="xtick_5">
     <g id="line2d_5">
      <g>
       <use xlink:href="#mbd1a6771e3" x="206.109062" y="288.430125" style="stroke: #000000; stroke-width: 0.8"/>
      </g>
     </g>
     <g id="text_5">
      <!-- 20.0 -->
      <g transform="translate(194.97625 303.028562) scale(0.1 -0.1)">
       <use xlink:href="#DejaVuSans-32"/>
       <use xlink:href="#DejaVuSans-30" x="63.623047"/>
       <use xlink:href="#DejaVuSans-2e" x="127.246094"/>
       <use xlink:href="#DejaVuSans-30" x="159.033203"/>
      </g>
     </g>
    </g>
    <g id="xtick_6">
     <g id="line2d_6">
      <g>
       <use xlink:href="#mbd1a6771e3" x="245.789062" y="288.430125" style="stroke: #000000; stroke-width: 0.8"/>
      </g>
     </g>
     <g id="text_6">
      <!-- 22.5 -->
      <g transform="translate(234.65625 303.028562) scale(0.1 -0.1)">
       <use xlink:href="#DejaVuSans-32"/>
       <use xlink:href="#DejaVuSans-32" x="63.623047"/>
       <use xlink:href="#DejaVuSans-2e" x="127.246094"/>
       <use xlink:href="#DejaVuSans-35" x="159.033203"/>
      </g>
     </g>
    </g>
    <g id="xtick_7">
     <g id="line2d_7">
      <g>
       <use xlink:href="#mbd1a6771e3" x="285.469063" y="288.430125" style="stroke: #000000; stroke-width: 0.8"/>
      </g>
     </g>
     <g id="text_7">
      <!-- 25.0 -->
      <g transform="translate(274.33625 303.028562) scale(0.1 -0.1)">
       <use xlink:href="#DejaVuSans-32"/>
       <use xlink:href="#DejaVuSans-35" x="63.623047"/>
       <use xlink:href="#DejaVuSans-2e" x="127.246094"/>
       <use xlink:href="#DejaVuSans-30" x="159.033203"/>
      </g>
     </g>
    </g>
    <g id="xtick_8">
     <g id="line2d_8">
      <g>
       <use xlink:href="#mbd1a6771e3" x="325.149062" y="288.430125" style="stroke: #000000; stroke-width: 0.8"/>
      </g>
     </g>
     <g id="text_8">
      <!-- 27.5 -->
      <g transform="translate(314.01625 303.028562) scale(0.1 -0.1)">
       <use xlink:href="#DejaVuSans-32"/>
       <use xlink:href="#DejaVuSans-37" x="63.623047"/>
       <use xlink:href="#DejaVuSans-2e" x="127.246094"/>
       <use xlink:href="#DejaVuSans-35" x="159.033203"/>
      </g>
     </g>
    </g>
    <g id="xtick_9">
     <g id="line2d_9">
      <g>
       <use xlink:href="#mbd1a6771e3" x="364.829062" y="288.430125" style="stroke: #000000; stroke-width: 0.8"/>
      </g>
     </g>
     <g id="text_9">
      <!-- 30.0 -->
      <g transform="translate(353.69625 303.028562) scale(0.1 -0.1)">
       <defs>
        <path id="DejaVuSans-33" d="M 2597 2516 
Q 3050 2419 3304 2112 
Q 3559 1806 3559 1356 
Q 3559 666 3084 287 
Q 2609 -91 1734 -91 
Q 1441 -91 1130 -33 
Q 819 25 488 141 
L 488 750 
Q 750 597 1062 519 
Q 1375 441 1716 441 
Q 2309 441 2620 675 
Q 2931 909 2931 1356 
Q 2931 1769 2642 2001 
Q 2353 2234 1838 2234 
L 1294 2234 
L 1294 2753 
L 1863 2753 
Q 2328 2753 2575 2939 
Q 2822 3125 2822 3475 
Q 2822 3834 2567 4026 
Q 2313 4219 1838 4219 
Q 1578 4219 1281 4162 
Q 984 4106 628 3988 
L 628 4550 
Q 988 4650 1302 4700 
Q 1616 4750 1894 4750 
Q 2613 4750 3031 4423 
Q 3450 4097 3450 3541 
Q 3450 3153 3228 2886 
Q 3006 2619 2597 2516 
z
" transform="scale(0.015625)"/>
       </defs>
       <use xlink:href="#DejaVuSans-33"/>
       <use xlink:href="#DejaVuSans-30" x="63.623047"/>
       <use xlink:href="#DejaVuSans-2e" x="127.246094"/>
       <use xlink:href="#DejaVuSans-30" x="159.033203"/>
      </g>
     </g>
    </g>
    <g id="xtick_10">
     <g id="line2d_10">
      <g>
       <use xlink:href="#mbd1a6771e3" x="404.509063" y="288.430125" style="stroke: #000000; stroke-width: 0.8"/>
      </g>
     </g>
     <g id="text_10">
      <!-- 32.5 -->
      <g transform="translate(393.37625 303.028562) scale(0.1 -0.1)">
       <use xlink:href="#DejaVuSans-33"/>
       <use xlink:href="#DejaVuSans-32" x="63.623047"/>
       <use xlink:href="#DejaVuSans-2e" x="127.246094"/>
       <use xlink:href="#DejaVuSans-35" x="159.033203"/>
      </g>
     </g>
    </g>
    <g id="text_11">
     <!-- x (cm) -->
     <g transform="translate(209.879531 316.706687) scale(0.1 -0.1)">
      <defs>
       <path id="DejaVuSans-78" d="M 3513 3500 
L 2247 1797 
L 3578 0 
L 2900 0 
L 1881 1375 
L 863 0 
L 184 0 
L 1544 1831 
L 300 3500 
L 978 3500 
L 1906 2253 
L 2834 3500 
L 3513 3500 
z
" transform="scale(0.015625)"/>
       <path id="DejaVuSans-20" transform="scale(0.015625)"/>
       <path id="DejaVuSans-28" d="M 1984 4856 
Q 1566 4138 1362 3434 
Q 1159 2731 1159 2009 
Q 1159 1288 1364 580 
Q 1569 -128 1984 -844 
L 1484 -844 
Q 1016 -109 783 600 
Q 550 1309 550 2009 
Q 550 2706 781 3412 
Q 1013 4119 1484 4856 
L 1984 4856 
z
" transform="scale(0.015625)"/>
       <path id="DejaVuSans-63" d="M 3122 3366 
L 3122 2828 
Q 2878 2963 2633 3030 
Q 2388 3097 2138 3097 
Q 1578 3097 1268 2742 
Q 959 2388 959 1747 
Q 959 1106 1268 751 
Q 1578 397 2138 397 
Q 2388 397 2633 464 
Q 2878 531 3122 666 
L 3122 134 
Q 2881 22 2623 -34 
Q 2366 -91 2075 -91 
Q 1284 -91 818 406 
Q 353 903 353 1747 
Q 353 2603 823 3093 
Q 1294 3584 2113 3584 
Q 2378 3584 2631 3529 
Q 2884 3475 3122 3366 
z
" transform="scale(0.015625)"/>
       <path id="DejaVuSans-6d" d="M 3328 2828 
Q 3544 3216 3844 3400 
Q 4144 3584 4550 3584 
Q 5097 3584 5394 3201 
Q 5691 2819 5691 2113 
L 5691 0 
L 5113 0 
L 5113 2094 
Q 5113 2597 4934 2840 
Q 4756 3084 4391 3084 
Q 3944 3084 3684 2787 
Q 3425 2491 3425 1978 
L 3425 0 
L 2847 0 
L 2847 2094 
Q 2847 2600 2669 2842 
Q 2491 3084 2119 3084 
Q 1678 3084 1418 2786 
Q 1159 2488 1159 1978 
L 1159 0 
L 581 0 
L 581 3500 
L 1159 3500 
L 1159 2956 
Q 1356 3278 1631 3431 
Q 1906 3584 2284 3584 
Q 2666 3584 2933 3390 
Q 3200 3197 3328 2828 
z
" transform="scale(0.015625)"/>
       <path id="DejaVuSans-29" d="M 513 4856 
L 1013 4856 
Q 1481 4119 1714 3412 
Q 1947 2706 1947 2009 
Q 1947 1309 1714 600 
Q 1481 -109 1013 -844 
L 513 -844 
Q 928 -128 1133 580 
Q 1338 1288 1338 2009 
Q 1338 2731 1133 3434 
Q 928 4138 513 4856 
z
" transform="scale(0.015625)"/>
      </defs>
      <use xlink:href="#DejaVuSans-78"/>
      <use xlink:href="#DejaVuSans-20" x="59.179688"/>
      <use xlink:href="#DejaVuSans-28" x="90.966797"/>
      <use xlink:href="#DejaVuSans-63" x="129.980469"/>
      <use xlink:href="#DejaVuSans-6d" x="184.960938"/>
      <use xlink:href="#DejaVuSans-29" x="282.373047"/>
     </g>
    </g>
   </g>
   <g id="matplotlib.axis_2">
    <g id="ytick_1">
     <g id="line2d_11">
      <defs>
       <path id="mcf385cdea9" d="M 0 0 
L -3.5 0 
" style="stroke: #000000; stroke-width: 0.8"/>
      </defs>
      <g>
       <use xlink:href="#mcf385cdea9" x="47.389063" y="288.430125" style="stroke: #000000; stroke-width: 0.8"/>
      </g>
     </g>
     <g id="text_12">
      <!-- -0.5 -->
      <g transform="translate(20.878125 292.229344) scale(0.1 -0.1)">
       <defs>
        <path id="DejaVuSans-2d" d="M 313 2009 
L 1997 2009 
L 1997 1497 
L 313 1497 
L 313 2009 
z
" transform="scale(0.015625)"/>
       </defs>
       <use xlink:href="#DejaVuSans-2d"/>
       <use xlink:href="#DejaVuSans-30" x="36.083984"/>
       <use xlink:href="#DejaVuSans-2e" x="99.707031"/>
       <use xlink:href="#DejaVuSans-35" x="131.494141"/>
      </g>
     </g>
    </g>
    <g id="ytick_2">
     <g id="line2d_12">
      <g>
       <use xlink:href="#mcf385cdea9" x="47.389063" y="255.166125" style="stroke: #000000; stroke-width: 0.8"/>
      </g>
     </g>
     <g id="text_13">
      <!-- 0.0 -->
      <g transform="translate(24.485938 258.965344) scale(0.1 -0.1)">
       <use xlink:href="#DejaVuSans-30"/>
       <use xlink:href="#DejaVuSans-2e" x="63.623047"/>
       <use xlink:href="#DejaVuSans-30" x="95.410156"/>
      </g>
     </g>
    </g>
    <g id="ytick_3">
     <g id="line2d_13">
      <g>
       <use xlink:href="#mcf385cdea9" x="47.389063" y="221.902125" style="stroke: #000000; stroke-width: 0.8"/>
      </g>
     </g>
     <g id="text_14">
      <!-- 0.5 -->
      <g transform="translate(24.485938 225.701344) scale(0.1 -0.1)">
       <use xlink:href="#DejaVuSans-30"/>
       <use xlink:href="#DejaVuSans-2e" x="63.623047"/>
       <use xlink:href="#DejaVuSans-35" x="95.410156"/>
      </g>
     </g>
    </g>
    <g id="ytick_4">
     <g id="line2d_14">
      <g>
       <use xlink:href="#mcf385cdea9" x="47.389063" y="188.638125" style="stroke: #000000; stroke-width: 0.8"/>
      </g>
     </g>
     <g id="text_15">
      <!-- 1.0 -->
      <g transform="translate(24.485938 192.437344) scale(0.1 -0.1)">
       <use xlink:href="#DejaVuSans-31"/>
       <use xlink:href="#DejaVuSans-2e" x="63.623047"/>
       <use xlink:href="#DejaVuSans-30" x="95.410156"/>
      </g>
     </g>
    </g>
    <g id="ytick_5">
     <g id="line2d_15">
      <g>
       <use xlink:href="#mcf385cdea9" x="47.389063" y="155.374125" style="stroke: #000000; stroke-width: 0.8"/>
      </g>
     </g>
     <g id="text_16">
      <!-- 1.5 -->
      <g transform="translate(24.485938 159.173344) scale(0.1 -0.1)">
       <use xlink:href="#DejaVuSans-31"/>
       <use xlink:href="#DejaVuSans-2e" x="63.623047"/>
       <use xlink:href="#DejaVuSans-35" x="95.410156"/>
      </g>
     </g>
    </g>
    <g id="ytick_6">
     <g id="line2d_16">
      <g>
       <use xlink:href="#mcf385cdea9" x="47.389063" y="122.110125" style="stroke: #000000; stroke-width: 0.8"/>
      </g>
     </g>
     <g id="text_17">
      <!-- 2.0 -->
      <g transform="translate(24.485938 125.909344) scale(0.1 -0.1)">
       <use xlink:href="#DejaVuSans-32"/>
       <use xlink:href="#DejaVuSans-2e" x="63.623047"/>
       <use xlink:href="#DejaVuSans-30" x="95.410156"/>
      </g>
     </g>
    </g>
    <g id="ytick_7">
     <g id="line2d_17">
      <g>
       <use xlink:href="#mcf385cdea9" x="47.389063" y="88.846125" style="stroke: #000000; stroke-width: 0.8"/>
      </g>
     </g>
     <g id="text_18">
      <!-- 2.5 -->
      <g transform="translate(24.485938 92.645344) scale(0.1 -0.1)">
       <use xlink:href="#DejaVuSans-32"/>
       <use xlink:href="#DejaVuSans-2e" x="63.623047"/>
       <use xlink:href="#DejaVuSans-35" x="95.410156"/>
      </g>
     </g>
    </g>
    <g id="ytick_8">
     <g id="line2d_18">
      <g>
       <use xlink:href="#mcf385cdea9" x="47.389063" y="55.582125" style="stroke: #000000; stroke-width: 0.8"/>
      </g>
     </g>
     <g id="text_19">
      <!-- 3.0 -->
      <g transform="translate(24.485938 59.381344) scale(0.1 -0.1)">
       <use xlink:href="#DejaVuSans-33"/>
       <use xlink:href="#DejaVuSans-2e" x="63.623047"/>
       <use xlink:href="#DejaVuSans-30" x="95.410156"/>
      </g>
     </g>
    </g>
    <g id="ytick_9">
     <g id="line2d_19">
      <g>
       <use xlink:href="#mcf385cdea9" x="47.389063" y="22.318125" style="stroke: #000000; stroke-width: 0.8"/>
      </g>
     </g>
     <g id="text_20">
      <!-- 3.5 -->
      <g transform="translate(24.485938 26.117344) scale(0.1 -0.1)">
       <use xlink:href="#DejaVuSans-33"/>
       <use xlink:href="#DejaVuSans-2e" x="63.623047"/>
       <use xlink:href="#DejaVuSans-35" x="95.410156"/>
      </g>
     </g>
    </g>
    <g id="text_21">
     <!-- y (cm) -->
     <g transform="translate(14.798438 171.443656) rotate(-90) scale(0.1 -0.1)">
      <defs>
       <path id="DejaVuSans-79" d="M 2059 -325 
Q 1816 -950 1584 -1140 
Q 1353 -1331 966 -1331 
L 506 -1331 
L 506 -850 
L 844 -850 
Q 1081 -850 1212 -737 
Q 1344 -625 1503 -206 
L 1606 56 
L 191 3500 
L 800 3500 
L 1894 763 
L 2988 3500 
L 3597 3500 
L 2059 -325 
z
" transform="scale(0.015625)"/>
      </defs>
      <use xlink:href="#DejaVuSans-79"/>
      <use xlink:href="#DejaVuSans-20" x="59.179688"/>
      <use xlink:href="#DejaVuSans-28" x="90.966797"/>
      <use xlink:href="#DejaVuSans-63" x="129.980469"/>
      <use xlink:href="#DejaVuSans-6d" x="184.960938"/>
      <use xlink:href="#DejaVuSans-29" x="282.373047"/>
     </g>
    </g>
   </g>
   <g id="line2d_20">
    <path d="M 82.576909 241.544502 
L 75.915774 226.052868 
L 64.654622 164.311497 
L 75.767228 131.034235 
L 71.467202 70.758495 
" clip-path="url(#p71afea4b1e)" style="fill: none; stroke: #440154; stroke-width: 1.5; stroke-linecap: square"/>
   </g>
   <g id="line2d_21">
    <path d="M 82.470386 241.518152 
L 76.343583 225.352316 
L 66.506584 164.509556 
L 78.403839 133.028979 
L 73.376361 74.060335 
" clip-path="url(#p71afea4b1e)" style="fill: none; stroke: #440154; stroke-width: 1.5; stroke-linecap: square"/>
   </g>
   <g id="line2d_22">
    <path d="M 83.21309 241.195684 
L 76.11241 227.49771 
L 68.519561 163.169468 
L 79.856049 134.798772 
L 75.653658 75.885745 
" clip-path="url(#p71afea4b1e)" style="fill: none; stroke: #440154; stroke-width: 1.5; stroke-linecap: square"/>
   </g>
   <g id="line2d_23">
    <path d="M 83.325475 243.160081 
L 76.622227 228.301504 
L 70.026818 161.806809 
L 81.926765 135.683777 
L 77.877635 78.383575 
" clip-path="url(#p71afea4b1e)" style="fill: none; stroke: #440154; stroke-width: 1.5; stroke-linecap: square"/>
   </g>
   <g id="line2d_24">
    <path d="M 83.81481 240.843518 
L 76.623387 225.574998 
L 73.891976 157.659651 
L 85.669348 134.823611 
L 81.065518 74.914723 
" clip-path="url(#p71afea4b1e)" style="fill: none; stroke: #440154; stroke-width: 1.5; stroke-linecap: square"/>
   </g>
   <g id="line2d_25">
    <path d="M 83.411155 242.717093 
L 76.881909 224.560941 
L 76.166915 158.300375 
L 87.291669 134.716266 
L 83.567418 77.262875 
" clip-path="url(#p71afea4b1e)" style="fill: none; stroke: #440154; stroke-width: 1.5; stroke-linecap: square"/>
   </g>
   <g id="line2d_26">
    <path d="M 83.718282 243.127143 
L 76.389161 225.091728 
L 80.011822 161.019646 
L 91.884678 134.035908 
L 87.506224 74.139602 
" clip-path="url(#p71afea4b1e)" style="fill: none; stroke: #440154; stroke-width: 1.5; stroke-linecap: square"/>
   </g>
   <g id="line2d_27">
    <path d="M 83.562754 243.547345 
L 76.750922 224.162986 
L 81.636063 158.055123 
L 93.339683 133.976296 
L 89.081898 74.746794 
" clip-path="url(#p71afea4b1e)" style="fill: none; stroke: #440154; stroke-width: 1.5; stroke-linecap: square"/>
   </g>
   <g id="line2d_28">
    <path d="M 83.825103 244.461184 
L 77.167214 221.444903 
L 82.877531 156.34127 
L 95.659299 132.967315 
L 91.420386 72.91836 
" clip-path="url(#p71afea4b1e)" style="fill: none; stroke: #440154; stroke-width: 1.5; stroke-linecap: square"/>
   </g>
   <g id="line2d_29">
    <path d="M 83.756929 243.416673 
L 77.832791 220.233003 
L 84.113396 154.974183 
L 97.464227 129.167895 
L 93.455998 70.822967 
" clip-path="url(#p71afea4b1e)" style="fill: none; stroke: #440154; stroke-width: 1.5; stroke-linecap: square"/>
   </g>
   <g id="line2d_30">
    <path d="M 83.582026 245.540793 
L 77.781262 219.483097 
L 85.265152 154.177624 
L 98.983064 132.385339 
L 95.671292 71.633402 
" clip-path="url(#p71afea4b1e)" style="fill: none; stroke: #440154; stroke-width: 1.5; stroke-linecap: square"/>
   </g>
   <g id="line2d_31">
    <path d="M 83.559791 245.172536 
L 78.00821 219.769172 
L 87.543338 153.945331 
L 100.874446 131.732412 
L 97.83869 71.041869 
" clip-path="url(#p71afea4b1e)" style="fill: none; stroke: #440154; stroke-width: 1.5; stroke-linecap: square"/>
   </g>
   <g id="line2d_32">
    <path d="M 83.488011 243.386219 
L 78.916825 218.240635 
L 88.297816 152.74585 
L 102.167083 128.021655 
L 98.80601 66.81701 
" clip-path="url(#p71afea4b1e)" style="fill: none; stroke: #440154; stroke-width: 1.5; stroke-linecap: square"/>
   </g>
   <g id="line2d_33">
    <path d="M 83.703429 245.680104 
L 80.087286 217.643 
L 90.004542 151.744536 
L 104.368786 129.459693 
L 101.348334 68.015196 
" clip-path="url(#p71afea4b1e)" style="fill: none; stroke: #440154; stroke-width: 1.5; stroke-linecap: square"/>
   </g>
   <g id="line2d_34">
    <path d="M 84.15784 236.012331 
L 82.246143 209.458946 
L 92.404968 145.135996 
L 106.567424 126.937618 
L 104.763539 69.220238 
" clip-path="url(#p71afea4b1e)" style="fill: none; stroke: #440154; stroke-width: 1.5; stroke-linecap: square"/>
   </g>
   <g id="line2d_35">
    <path d="M 86.162457 232.322093 
L 89.191965 204.013494 
L 96.710328 143.289419 
L 111.098262 126.450461 
L 108.411501 67.521342 
" clip-path="url(#p71afea4b1e)" style="fill: none; stroke: #440154; stroke-width: 1.5; stroke-linecap: square"/>
   </g>
   <g id="line2d_36">
    <path d="M 94.186038 219.681265 
L 98.363786 200.019471 
L 100.837512 135.686801 
L 114.681555 126.30035 
L 111.735396 73.417289 
" clip-path="url(#p71afea4b1e)" style="fill: none; stroke: #440154; stroke-width: 1.5; stroke-linecap: square"/>
   </g>
   <g id="line2d_37">
    <path d="M 102.99794 219.637636 
L 107.061048 195.505784 
L 105.377149 136.935635 
L 119.055204 127.400154 
L 115.643864 75.664305 
" clip-path="url(#p71afea4b1e)" style="fill: none; stroke: #440154; stroke-width: 1.5; stroke-linecap: square"/>
   </g>
   <g id="line2d_38">
    <path d="M 115.400929 214.402878 
L 117.958043 191.187781 
L 105.801879 141.7976 
L 119.968019 125.201843 
L 116.909036 71.688965 
" clip-path="url(#p71afea4b1e)" style="fill: none; stroke: #440154; stroke-width: 1.5; stroke-linecap: square"/>
   </g>
   <g id="line2d_39">
    <path d="M 122.819261 213.434934 
L 124.786262 188.530931 
L 108.026681 145.640649 
L 121.911754 122.682576 
L 118.980357 69.990662 
" clip-path="url(#p71afea4b1e)" style="fill: none; stroke: #440154; stroke-width: 1.5; stroke-linecap: square"/>
   </g>
   <g id="line2d_40">
    <path d="M 132.811557 212.489345 
L 128.9675 185.825808 
L 112.471079 150.964933 
L 126.830247 124.382174 
L 122.153477 71.165359 
" clip-path="url(#p71afea4b1e)" style="fill: none; stroke: #440154; stroke-width: 1.5; stroke-linecap: square"/>
   </g>
   <g id="line2d_41">
    <path d="M 138.771765 207.839695 
L 133.345477 185.734661 
L 117.515535 153.28614 
L 130.489004 121.353719 
L 125.333554 67.988737 
" clip-path="url(#p71afea4b1e)" style="fill: none; stroke: #440154; stroke-width: 1.5; stroke-linecap: square"/>
   </g>
   <g id="line2d_42">
    <path d="M 143.390925 206.356516 
L 137.232818 188.281898 
L 121.965962 152.38364 
L 134.734268 120.001103 
L 130.353019 67.311187 
" clip-path="url(#p71afea4b1e)" style="fill: none; stroke: #440154; stroke-width: 1.5; stroke-linecap: square"/>
   </g>
   <g id="line2d_43">
    <path d="M 147.798738 203.517481 
L 141.175296 186.728847 
L 126.089978 151.721641 
L 138.560573 120.990969 
L 133.364105 68.61985 
" clip-path="url(#p71afea4b1e)" style="fill: none; stroke: #440154; stroke-width: 1.5; stroke-linecap: square"/>
   </g>
   <g id="line2d_44">
    <path d="M 153.515007 205.572593 
L 146.133312 193.797007 
L 128.930296 159.400179 
L 141.132758 126.454457 
L 136.953092 73.329058 
" clip-path="url(#p71afea4b1e)" style="fill: none; stroke: #440154; stroke-width: 1.5; stroke-linecap: square"/>
   </g>
   <g id="line2d_45">
    <path d="M 159.289452 207.158582 
L 150.810545 197.958311 
L 132.817843 163.483512 
L 145.153973 129.759159 
L 139.992854 78.273476 
" clip-path="url(#p71afea4b1e)" style="fill: none; stroke: #440154; stroke-width: 1.5; stroke-linecap: square"/>
   </g>
   <g id="line2d_46">
    <path d="M 162.554758 212.147979 
L 155.450832 201.732568 
L 137.645233 165.541108 
L 149.139065 128.747802 
L 143.639296 75.912851 
" clip-path="url(#p71afea4b1e)" style="fill: none; stroke: #440154; stroke-width: 1.5; stroke-linecap: square"/>
   </g>
   <g id="line2d_47">
    <path d="M 163.629839 235.41988 
L 157.358007 213.555347 
L 141.59562 167.682291 
L 153.333392 132.887724 
L 147.791008 80.640041 
" clip-path="url(#p71afea4b1e)" style="fill: none; stroke: #440154; stroke-width: 1.5; stroke-linecap: square"/>
   </g>
   <g id="line2d_48">
    <path d="M 164.237755 238.049192 
L 158.1454 221.6894 
L 144.2805 167.725596 
L 155.70719 132.651758 
L 150.278609 79.090877 
" clip-path="url(#p71afea4b1e)" style="fill: none; stroke: #440154; stroke-width: 1.5; stroke-linecap: square"/>
   </g>
   <g id="line2d_49">
    <path d="M 164.292428 238.038393 
L 158.599939 221.803441 
L 146.947912 162.098499 
L 157.726931 131.209184 
L 152.738383 77.63178 
" clip-path="url(#p71afea4b1e)" style="fill: none; stroke: #440154; stroke-width: 1.5; stroke-linecap: square"/>
   </g>
   <g id="line2d_50">
    <path d="M 164.450081 235.607248 
L 157.884919 219.441952 
L 148.510691 159.819517 
L 160.093566 128.283323 
L 155.285913 73.374091 
" clip-path="url(#p71afea4b1e)" style="fill: none; stroke: #440154; stroke-width: 1.5; stroke-linecap: square"/>
   </g>
   <g id="line2d_51">
    <path d="M 164.303713 237.928888 
L 158.82471 219.18158 
L 152.654958 155.852492 
L 162.743793 125.575067 
L 158.460321 73.207836 
" clip-path="url(#p71afea4b1e)" style="fill: none; stroke: #440154; stroke-width: 1.5; stroke-linecap: square"/>
   </g>
   <g id="line2d_52">
    <path d="M 164.268364 238.375008 
L 159.037552 219.882241 
L 155.403863 152.654595 
L 164.7624 123.830652 
L 159.876061 73.129163 
" clip-path="url(#p71afea4b1e)" style="fill: none; stroke: #440154; stroke-width: 1.5; stroke-linecap: square"/>
   </g>
   <g id="line2d_53">
    <path d="M 164.380594 238.33613 
L 159.137647 219.562472 
L 155.942885 153.265729 
L 166.208826 126.428862 
L 161.329779 73.901153 
" clip-path="url(#p71afea4b1e)" style="fill: none; stroke: #440154; stroke-width: 1.5; stroke-linecap: square"/>
   </g>
   <g id="line2d_54">
    <path d="M 163.923581 239.253965 
L 158.75159 219.709019 
L 156.660301 152.305237 
L 167.566777 126.882434 
L 162.521831 74.313795 
" clip-path="url(#p71afea4b1e)" style="fill: none; stroke: #21918c; stroke-width: 1.5; stroke-linecap: square"/>
   </g>
   <g id="line2d_55">
    <path d="M 164.878856 239.079124 
L 158.947298 221.49836 
L 157.346542 151.563755 
L 168.6711 125.108213 
L 164.093035 72.316837 
" clip-path="url(#p71afea4b1e)" style="fill: none; stroke: #21918c; stroke-width: 1.5; stroke-linecap: square"/>
   </g>
   <g id="line2d_56">
    <path d="M 165.423289 240.925809 
L 159.676179 222.405611 
L 158.623797 153.45083 
L 169.784931 124.282712 
L 165.380674 73.043038 
" clip-path="url(#p71afea4b1e)" style="fill: none; stroke: #21918c; stroke-width: 1.5; stroke-linecap: square"/>
   </g>
   <g id="line2d_57">
    <path d="M 165.707859 239.282691 
L 159.876087 220.990683 
L 160.080401 146.567231 
L 171.425545 119.43619 
L 166.460006 68.837888 
" clip-path="url(#p71afea4b1e)" style="fill: none; stroke: #21918c; stroke-width: 1.5; stroke-linecap: square"/>
   </g>
   <g id="line2d_58">
    <path d="M 165.625438 239.559046 
L 160.023693 219.203071 
L 160.099415 144.713742 
L 173.106223 120.417849 
L 168.300476 66.641143 
" clip-path="url(#p71afea4b1e)" style="fill: none; stroke: #21918c; stroke-width: 1.5; stroke-linecap: square"/>
   </g>
   <g id="line2d_59">
    <path d="M 165.900578 241.288558 
L 160.821288 218.976069 
L 161.468032 141.271997 
L 174.458325 117.595985 
L 169.401218 61.953317 
" clip-path="url(#p71afea4b1e)" style="fill: none; stroke: #21918c; stroke-width: 1.5; stroke-linecap: square"/>
   </g>
   <g id="line2d_60">
    <path d="M 165.942807 241.265124 
L 161.169162 220.098767 
L 163.581298 144.123019 
L 175.732257 118.822572 
L 170.867329 63.525321 
" clip-path="url(#p71afea4b1e)" style="fill: none; stroke: #21918c; stroke-width: 1.5; stroke-linecap: square"/>
   </g>
   <g id="line2d_61">
    <path d="M 165.490019 242.601324 
L 161.454763 219.818632 
L 164.832918 145.096578 
L 177.17335 120.896259 
L 172.341375 67.655794 
" clip-path="url(#p71afea4b1e)" style="fill: none; stroke: #21918c; stroke-width: 1.5; stroke-linecap: square"/>
   </g>
   <g id="line2d_62">
    <path d="M 165.45485 241.752605 
L 161.534788 218.86516 
L 165.720844 146.42414 
L 177.969761 121.733423 
L 173.546695 67.699693 
" clip-path="url(#p71afea4b1e)" style="fill: none; stroke: #21918c; stroke-width: 1.5; stroke-linecap: square"/>
   </g>
   <g id="line2d_63">
    <path d="M 165.724993 242.714393 
L 161.768911 217.859095 
L 167.509992 146.416148 
L 179.393179 121.998978 
L 175.056477 66.135843 
" clip-path="url(#p71afea4b1e)" style="fill: none; stroke: #21918c; stroke-width: 1.5; stroke-linecap: square"/>
   </g>
   <g id="line2d_64">
    <path d="M 166.219441 242.602404 
L 162.083884 217.979183 
L 167.768102 146.782785 
L 180.046106 124.003117 
L 175.884423 69.22256 
" clip-path="url(#p71afea4b1e)" style="fill: none; stroke: #21918c; stroke-width: 1.5; stroke-linecap: square"/>
   </g>
   <g id="line2d_65">
    <path d="M 166.272877 241.406379 
L 162.385897 216.220837 
L 169.367879 145.566997 
L 181.311665 122.537001 
L 177.096597 65.967103 
" clip-path="url(#p71afea4b1e)" style="fill: none; stroke: #21918c; stroke-width: 1.5; stroke-linecap: square"/>
   </g>
   <g id="line2d_66">
    <path d="M 166.071449 240.698807 
L 162.632773 211.844734 
L 170.036291 145.199172 
L 183.149095 124.15474 
L 179.192266 68.312177 
" clip-path="url(#p71afea4b1e)" style="fill: none; stroke: #21918c; stroke-width: 1.5; stroke-linecap: square"/>
   </g>
   <g id="line2d_67">
    <path d="M 165.963728 238.510323 
L 162.447397 209.832711 
L 170.303753 142.293937 
L 183.526057 121.885045 
L 178.799897 65.668664 
" clip-path="url(#p71afea4b1e)" style="fill: none; stroke: #21918c; stroke-width: 1.5; stroke-linecap: square"/>
   </g>
   <g id="line2d_68">
    <path d="M 166.593235 236.989022 
L 163.03313 210.520412 
L 171.277321 143.073865 
L 183.57805 122.462593 
L 180.109178 64.365185 
" clip-path="url(#p71afea4b1e)" style="fill: none; stroke: #21918c; stroke-width: 1.5; stroke-linecap: square"/>
   </g>
   <g id="line2d_69">
    <path d="M 166.455858 238.554385 
L 163.446936 212.243877 
L 171.743506 145.377901 
L 184.116505 123.948041 
L 181.229604 65.384858 
" clip-path="url(#p71afea4b1e)" style="fill: none; stroke: #21918c; stroke-width: 1.5; stroke-linecap: square"/>
   </g>
   <g id="line2d_70">
    <path d="M 165.385106 245.629779 
L 163.851904 212.408782 
L 172.55164 147.56876 
L 185.792546 124.789956 
L 182.264389 64.565729 
" clip-path="url(#p71afea4b1e)" style="fill: none; stroke: #21918c; stroke-width: 1.5; stroke-linecap: square"/>
   </g>
   <g id="line2d_71">
    <path d="M 165.163143 253.487694 
L 164.09386 213.154044 
L 173.130262 149.006259 
L 186.29609 126.545819 
L 183.192689 65.851496 
" clip-path="url(#p71afea4b1e)" style="fill: none; stroke: #21918c; stroke-width: 1.5; stroke-linecap: square"/>
   </g>
   <g id="line2d_72">
    <path d="M 165.64234 245.762503 
L 164.563935 206.084913 
L 174.558369 148.014341 
L 187.335873 126.688154 
L 184.38724 67.612867 
" clip-path="url(#p71afea4b1e)" style="fill: none; stroke: #21918c; stroke-width: 1.5; stroke-linecap: square"/>
   </g>
   <g id="line2d_73">
    <path d="M 165.78809 233.113792 
L 167.054344 205.647108 
L 176.946544 147.419622 
L 189.405726 128.36313 
L 185.197769 70.307461 
" clip-path="url(#p71afea4b1e)" style="fill: none; stroke: #21918c; stroke-width: 1.5; stroke-linecap: square"/>
   </g>
   <g id="line2d_74">
    <path d="M 167.669578 225.579965 
L 169.753833 202.994145 
L 178.325158 144.078526 
L 190.27353 126.04689 
L 186.873578 69.993956 
" clip-path="url(#p71afea4b1e)" style="fill: none; stroke: #21918c; stroke-width: 1.5; stroke-linecap: square"/>
   </g>
   <g id="line2d_75">
    <path d="M 171.831828 221.04684 
L 174.010768 199.251315 
L 179.364555 139.663545 
L 192.0626 123.318008 
L 188.760064 68.560076 
" clip-path="url(#p71afea4b1e)" style="fill: none; stroke: #21918c; stroke-width: 1.5; stroke-linecap: square"/>
   </g>
   <g id="line2d_76">
    <path d="M 177.171779 217.756609 
L 181.097586 198.00194 
L 180.889151 136.822026 
L 193.815393 121.717872 
L 190.228802 69.409011 
" clip-path="url(#p71afea4b1e)" style="fill: none; stroke: #21918c; stroke-width: 1.5; stroke-linecap: square"/>
   </g>
   <g id="line2d_77">
    <path d="M 187.481494 222.193188 
L 190.711992 198.637373 
L 181.098694 144.947116 
L 193.848475 125.257459 
L 190.559053 71.76294 
" clip-path="url(#p71afea4b1e)" style="fill: none; stroke: #21918c; stroke-width: 1.5; stroke-linecap: square"/>
   </g>
   <g id="line2d_78">
    <path d="M 195.955223 215.284211 
L 193.70409 193.319892 
L 184.642413 148.34318 
L 196.267722 127.785366 
L 192.270082 73.07792 
" clip-path="url(#p71afea4b1e)" style="fill: none; stroke: #21918c; stroke-width: 1.5; stroke-linecap: square"/>
   </g>
   <g id="line2d_79">
    <path d="M 202.964747 220.149848 
L 199.768516 193.955973 
L 186.798319 154.044361 
L 198.77292 128.551038 
L 194.201038 75.787039 
" clip-path="url(#p71afea4b1e)" style="fill: none; stroke: #21918c; stroke-width: 1.5; stroke-linecap: square"/>
   </g>
   <g id="line2d_80">
    <path d="M 212.935632 213.260093 
L 206.632007 197.483249 
L 188.635312 165.60774 
L 201.207497 132.475513 
L 196.268984 82.225058 
" clip-path="url(#p71afea4b1e)" style="fill: none; stroke: #21918c; stroke-width: 1.5; stroke-linecap: square"/>
   </g>
   <g id="line2d_81">
    <path d="M 219.32897 218.352624 
L 210.881599 204.351081 
L 191.716967 176.051553 
L 203.914947 139.84357 
L 199.022089 86.97039 
" clip-path="url(#p71afea4b1e)" style="fill: none; stroke: #21918c; stroke-width: 1.5; stroke-linecap: square"/>
   </g>
   <g id="line2d_82">
    <path d="M 220.797064 216.727325 
L 213.038073 207.277374 
L 195.011851 181.683618 
L 206.344242 144.680372 
L 201.174466 92.122749 
" clip-path="url(#p71afea4b1e)" style="fill: none; stroke: #21918c; stroke-width: 1.5; stroke-linecap: square"/>
   </g>
   <g id="line2d_83">
    <path d="M 220.889173 219.175641 
L 214.167336 206.76905 
L 197.032828 179.149988 
L 208.695934 140.910651 
L 203.315275 89.502508 
" clip-path="url(#p71afea4b1e)" style="fill: none; stroke: #21918c; stroke-width: 1.5; stroke-linecap: square"/>
   </g>
   <g id="line2d_84">
    <path d="M 224.972789 218.249814 
L 217.710411 206.51127 
L 200.152719 179.369106 
L 211.029256 142.830124 
L 206.005618 90.828233 
" clip-path="url(#p71afea4b1e)" style="fill: none; stroke: #21918c; stroke-width: 1.5; stroke-linecap: square"/>
   </g>
   <g id="line2d_85">
    <path d="M 227.582025 218.028212 
L 219.849055 208.541543 
L 202.645111 182.417756 
L 213.717872 144.029929 
L 208.484484 89.878217 
" clip-path="url(#p71afea4b1e)" style="fill: none; stroke: #21918c; stroke-width: 1.5; stroke-linecap: square"/>
   </g>
   <g id="line2d_86">
    <path d="M 230.7907 224.886865 
L 223.463703 212.634164 
L 205.750187 182.239567 
L 216.799786 143.581001 
L 211.302748 88.910381 
" clip-path="url(#p71afea4b1e)" style="fill: none; stroke: #21918c; stroke-width: 1.5; stroke-linecap: square"/>
   </g>
   <g id="line2d_87">
    <path d="M 234.19985 238.483973 
L 225.636563 226.616917 
L 209.548434 186.186181 
L 220.287543 146.0318 
L 214.459043 89.37216 
" clip-path="url(#p71afea4b1e)" style="fill: none; stroke: #21918c; stroke-width: 1.5; stroke-linecap: square"/>
   </g>
   <g id="line2d_88">
    <path d="M 234.401123 238.767563 
L 225.939014 226.232461 
L 212.221076 183.882685 
L 223.044513 143.950014 
L 217.321107 89.66871 
" clip-path="url(#p71afea4b1e)" style="fill: none; stroke: #21918c; stroke-width: 1.5; stroke-linecap: square"/>
   </g>
   <g id="line2d_89">
    <path d="M 233.833374 238.990569 
L 226.388272 224.023566 
L 215.345269 174.093419 
L 226.024166 140.305025 
L 220.325469 85.75687 
" clip-path="url(#p71afea4b1e)" style="fill: none; stroke: #21918c; stroke-width: 1.5; stroke-linecap: square"/>
   </g>
   <g id="line2d_90">
    <path d="M 234.537212 240.562843 
L 227.248733 223.675396 
L 218.218231 167.831753 
L 229.32763 134.643154 
L 223.396741 80.768229 
" clip-path="url(#p71afea4b1e)" style="fill: none; stroke: #21918c; stroke-width: 1.5; stroke-linecap: square"/>
   </g>
   <g id="line2d_91">
    <path d="M 234.207321 240.722781 
L 226.859584 222.468787 
L 220.428115 158.364415 
L 231.463182 130.387463 
L 225.862287 75.289784 
" clip-path="url(#p71afea4b1e)" style="fill: none; stroke: #21918c; stroke-width: 1.5; stroke-linecap: square"/>
   </g>
   <g id="line2d_92">
    <path d="M 234.617984 241.669126 
L 227.193417 223.213077 
L 223.470789 157.015363 
L 234.541514 128.434621 
L 229.394051 74.178371 
" clip-path="url(#p71afea4b1e)" style="fill: none; stroke: #21918c; stroke-width: 1.5; stroke-linecap: square"/>
   </g>
   <g id="line2d_93">
    <path d="M 234.276602 241.986303 
L 227.611757 222.48963 
L 225.259034 157.570773 
L 236.545951 128.858171 
L 231.008694 75.39227 
" clip-path="url(#p71afea4b1e)" style="fill: none; stroke: #21918c; stroke-width: 1.5; stroke-linecap: square"/>
   </g>
   <g id="line2d_94">
    <path d="M 234.608837 242.268705 
L 227.782473 222.30183 
L 226.698014 157.520988 
L 238.160543 128.372417 
L 232.216231 72.328609 
" clip-path="url(#p71afea4b1e)" style="fill: none; stroke: #21918c; stroke-width: 1.5; stroke-linecap: square"/>
   </g>
   <g id="line2d_95">
    <path d="M 233.977965 243.097985 
L 228.268265 222.033682 
L 228.735224 157.192472 
L 240.315007 129.352024 
L 234.789422 74.008984 
" clip-path="url(#p71afea4b1e)" style="fill: none; stroke: #21918c; stroke-width: 1.5; stroke-linecap: square"/>
   </g>
   <g id="line2d_96">
    <path d="M 300.106875 240.295884 
L 291.053984 220.526528 
L 295.886938 154.907011 
L 308.550768 128.053189 
L 304.124431 75.656637 
" clip-path="url(#p71afea4b1e)" style="fill: none; stroke: #fde725; stroke-width: 1.5; stroke-linecap: square"/>
   </g>
   <g id="line2d_97">
    <path d="M 300.04048 238.708059 
L 291.150163 218.849177 
L 297.530902 154.027946 
L 310.323735 125.746561 
L 306.006176 71.232963 
" clip-path="url(#p71afea4b1e)" style="fill: none; stroke: #fde725; stroke-width: 1.5; stroke-linecap: square"/>
   </g>
   <g id="line2d_98">
    <path d="M 296.135335 238.290017 
L 291.491931 217.238457 
L 298.173549 152.790883 
L 311.791185 125.54051 
L 307.256894 70.636084 
" clip-path="url(#p71afea4b1e)" style="fill: none; stroke: #fde725; stroke-width: 1.5; stroke-linecap: square"/>
   </g>
   <g id="line2d_99">
    <path d="M 296.283945 239.295974 
L 291.879122 215.980876 
L 300.466833 152.406211 
L 313.739197 123.393927 
L 308.6622 67.897375 
" clip-path="url(#p71afea4b1e)" style="fill: none; stroke: #fde725; stroke-width: 1.5; stroke-linecap: square"/>
   </g>
   <g id="line2d_100">
    <path d="M 295.752859 239.791879 
L 291.604058 217.527555 
L 301.557011 153.070585 
L 315.496809 124.143833 
L 310.722159 66.510633 
" clip-path="url(#p71afea4b1e)" style="fill: none; stroke: #fde725; stroke-width: 1.5; stroke-linecap: square"/>
   </g>
   <g id="line2d_101">
    <path d="M 296.099599 238.49596 
L 291.815431 217.09893 
L 302.498348 150.621838 
L 316.95975 121.555126 
L 312.270794 64.565513 
" clip-path="url(#p71afea4b1e)" style="fill: none; stroke: #fde725; stroke-width: 1.5; stroke-linecap: square"/>
   </g>
   <g id="line2d_102">
    <path d="M 295.076357 239.147916 
L 292.717039 216.024505 
L 303.54081 147.347266 
L 318.500423 118.897196 
L 313.741593 60.56933 
" clip-path="url(#p71afea4b1e)" style="fill: none; stroke: #fde725; stroke-width: 1.5; stroke-linecap: square"/>
   </g>
   <g id="line2d_103">
    <path d="M 297.27998 237.814631 
L 292.461995 213.103719 
L 304.97438 151.985901 
L 319.597867 119.914708 
L 315.230531 61.815086 
" clip-path="url(#p71afea4b1e)" style="fill: none; stroke: #fde725; stroke-width: 1.5; stroke-linecap: square"/>
   </g>
   <g id="line2d_104">
    <path d="M 296.232674 233.354509 
L 293.741002 209.567911 
L 307.66699 146.324462 
L 322.383024 117.557431 
L 318.359053 61.664651 
" clip-path="url(#p71afea4b1e)" style="fill: none; stroke: #fde725; stroke-width: 1.5; stroke-linecap: square"/>
   </g>
   <g id="line2d_105">
    <path d="M 296.409625 230.554351 
L 295.058502 204.837806 
L 308.409707 144.421405 
L 324.197523 116.598559 
L 320.379643 57.640444 
" clip-path="url(#p71afea4b1e)" style="fill: none; stroke: #fde725; stroke-width: 1.5; stroke-linecap: square"/>
   </g>
   <g id="line2d_106">
    <path d="M 297.930305 230.240739 
L 297.828586 200.255328 
L 314.504613 141.179879 
L 328.328366 114.917428 
L 324.292698 58.200821 
" clip-path="url(#p71afea4b1e)" style="fill: none; stroke: #fde725; stroke-width: 1.5; stroke-linecap: square"/>
   </g>
   <g id="line2d_107">
    <path d="M 301.582261 234.351503 
L 306.110883 199.07075 
L 315.605329 138.536527 
L 329.819726 116.851587 
L 325.414284 61.148822 
" clip-path="url(#p71afea4b1e)" style="fill: none; stroke: #fde725; stroke-width: 1.5; stroke-linecap: square"/>
   </g>
   <g id="line2d_108">
    <path d="M 307.838196 223.299471 
L 315.26789 198.123217 
L 320.906118 130.44416 
L 334.262887 114.997667 
L 329.541571 57.57662 
" clip-path="url(#p71afea4b1e)" style="fill: none; stroke: #fde725; stroke-width: 1.5; stroke-linecap: square"/>
   </g>
   <g id="line2d_109">
    <path d="M 318.325224 213.331585 
L 325.041469 195.385048 
L 326.674689 132.247323 
L 339.763584 113.919138 
L 333.858537 60.381097 
" clip-path="url(#p71afea4b1e)" style="fill: none; stroke: #fde725; stroke-width: 1.5; stroke-linecap: square"/>
   </g>
   <g id="line2d_110">
    <path d="M 330.971095 213.15804 
L 334.986203 192.49828 
L 329.583103 137.034557 
L 342.848692 115.618628 
L 338.340861 63.967068 
" clip-path="url(#p71afea4b1e)" style="fill: none; stroke: #fde725; stroke-width: 1.5; stroke-linecap: square"/>
   </g>
   <g id="line2d_111">
    <path d="M 336.901907 227.330644 
L 342.024687 197.680121 
L 330.501818 144.047424 
L 344.563637 118.057548 
L 340.529978 67.470909 
" clip-path="url(#p71afea4b1e)" style="fill: none; stroke: #fde725; stroke-width: 1.5; stroke-linecap: square"/>
   </g>
   <g id="line2d_112">
    <path d="M 348.618062 210.989211 
L 346.687003 187.899062 
L 334.266649 146.784297 
L 347.859448 119.618591 
L 343.612098 68.100024 
" clip-path="url(#p71afea4b1e)" style="fill: none; stroke: #fde725; stroke-width: 1.5; stroke-linecap: square"/>
   </g>
   <g id="line2d_113">
    <path d="M 354.44128 209.446959 
L 351.645663 186.810058 
L 338.413723 151.365804 
L 351.289081 120.121083 
L 347.030445 70.196228 
" clip-path="url(#p71afea4b1e)" style="fill: none; stroke: #fde725; stroke-width: 1.5; stroke-linecap: square"/>
   </g>
   <g id="line2d_114">
    <path d="M 361.723394 208.125877 
L 355.848235 191.815438 
L 342.423318 155.24827 
L 355.672726 123.35829 
L 351.348803 74.419682 
" clip-path="url(#p71afea4b1e)" style="fill: none; stroke: #fde725; stroke-width: 1.5; stroke-linecap: square"/>
   </g>
   <g id="line2d_115">
    <path d="M 367.413255 208.272964 
L 360.946848 193.331448 
L 345.964048 158.014409 
L 359.03063 124.225908 
L 354.289835 75.582554 
" clip-path="url(#p71afea4b1e)" style="fill: none; stroke: #fde725; stroke-width: 1.5; stroke-linecap: square"/>
   </g>
   <g id="line2d_116">
    <path d="M 371.7211 205.425722 
L 365.048577 192.113068 
L 349.450723 157.914839 
L 362.499373 122.704714 
L 357.518092 72.79352 
" clip-path="url(#p71afea4b1e)" style="fill: none; stroke: #fde725; stroke-width: 1.5; stroke-linecap: square"/>
   </g>
   <g id="line2d_117">
    <path d="M 376.702279 205.783935 
L 369.261351 196.320485 
L 351.739292 158.909457 
L 364.924855 124.416732 
L 360.286346 70.805472 
" clip-path="url(#p71afea4b1e)" style="fill: none; stroke: #fde725; stroke-width: 1.5; stroke-linecap: square"/>
   </g>
   <g id="line2d_118">
    <path d="M 379.154659 207.617877 
L 372.296012 194.231464 
L 356.431134 160.036475 
L 368.878695 123.211203 
L 363.665223 74.257044 
" clip-path="url(#p71afea4b1e)" style="fill: none; stroke: #fde725; stroke-width: 1.5; stroke-linecap: square"/>
   </g>
   <g id="line2d_119">
    <path d="M 382.516067 210.453024 
L 375.423787 200.492805 
L 360.521423 161.110252 
L 372.844541 122.38635 
L 367.418459 70.305031 
" clip-path="url(#p71afea4b1e)" style="fill: none; stroke: #fde725; stroke-width: 1.5; stroke-linecap: square"/>
   </g>
   <g id="line2d_120">
    <path d="M 381.616057 217.350986 
L 375.869824 202.646839 
L 364.021548 160.723096 
L 375.519579 122.32339 
L 370.722206 71.595982 
" clip-path="url(#p71afea4b1e)" style="fill: none; stroke: #fde725; stroke-width: 1.5; stroke-linecap: square"/>
   </g>
   <g id="line2d_121">
    <path d="M 382.131298 236.319788 
L 376.392485 217.425718 
L 367.079036 161.106148 
L 377.949184 123.90182 
L 373.897284 69.612254 
" clip-path="url(#p71afea4b1e)" style="fill: none; stroke: #fde725; stroke-width: 1.5; stroke-linecap: square"/>
   </g>
   <g id="line2d_122">
    <path d="M 382.496177 235.18737 
L 377.058191 217.686521 
L 369.880991 160.047922 
L 380.49004 125.227113 
L 375.952786 72.227419 
" clip-path="url(#p71afea4b1e)" style="fill: none; stroke: #fde725; stroke-width: 1.5; stroke-linecap: square"/>
   </g>
   <g id="line2d_123">
    <path d="M 382.559094 235.343421 
L 377.662939 217.317724 
L 372.055216 155.272784 
L 383.391085 122.133538 
L 379.466102 70.359189 
" clip-path="url(#p71afea4b1e)" style="fill: none; stroke: #fde725; stroke-width: 1.5; stroke-linecap: square"/>
   </g>
   <g id="line2d_124">
    <path d="M 382.547088 237.310518 
L 377.910588 218.195062 
L 375.746669 156.52853 
L 384.974322 124.875703 
L 381.904106 74.349649 
" clip-path="url(#p71afea4b1e)" style="fill: none; stroke: #fde725; stroke-width: 1.5; stroke-linecap: square"/>
   </g>
   <g id="patch_3">
    <path d="M 47.389063 288.430125 
L 47.389063 22.318125 
" style="fill: none; stroke: #000000; stroke-width: 0.8; stroke-linejoin: miter; stroke-linecap: square"/>
   </g>
   <g id="patch_4">
    <path d="M 404.509063 288.430125 
L 404.509063 22.318125 
" style="fill: none; stroke: #000000; stroke-width: 0.8; stroke-linejoin: miter; stroke-linecap: square"/>
   </g>
   <g id="patch_5">
    <path d="M 47.389063 288.430125 
L 404.509063 288.430125 
" style="fill: none; stroke: #000000; stroke-width: 0.8; stroke-linejoin: miter; stroke-linecap: square"/>
   </g>
   <g id="patch_6">
    <path d="M 47.389063 22.318125 
L 404.509063 22.318125 
" style="fill: none; stroke: #000000; stroke-width: 0.8; stroke-linejoin: miter; stroke-linecap: square"/>
   </g>
   <g id="text_22">
    <!-- ID 15 - Run 3 - Forelimb Stick Diagram -->
    <g transform="translate(110.740625 16.318125) scale(0.12 -0.12)">
     <defs>
      <path id="DejaVuSans-49" d="M 628 4666 
L 1259 4666 
L 1259 0 
L 628 0 
L 628 4666 
z
" transform="scale(0.015625)"/>
      <path id="DejaVuSans-44" d="M 1259 4147 
L 1259 519 
L 2022 519 
Q 2988 519 3436 956 
Q 3884 1394 3884 2338 
Q 3884 3275 3436 3711 
Q 2988 4147 2022 4147 
L 1259 4147 
z
M 628 4666 
L 1925 4666 
Q 3281 4666 3915 4102 
Q 4550 3538 4550 2338 
Q 4550 1131 3912 565 
Q 3275 0 1925 0 
L 628 0 
L 628 4666 
z
" transform="scale(0.015625)"/>
      <path id="DejaVuSans-52" d="M 2841 2188 
Q 3044 2119 3236 1894 
Q 3428 1669 3622 1275 
L 4263 0 
L 3584 0 
L 2988 1197 
Q 2756 1666 2539 1819 
Q 2322 1972 1947 1972 
L 1259 1972 
L 1259 0 
L 628 0 
L 628 4666 
L 2053 4666 
Q 2853 4666 3247 4331 
Q 3641 3997 3641 3322 
Q 3641 2881 3436 2590 
Q 3231 2300 2841 2188 
z
M 1259 4147 
L 1259 2491 
L 2053 2491 
Q 2509 2491 2742 2702 
Q 2975 2913 2975 3322 
Q 2975 3731 2742 3939 
Q 2509 4147 2053 4147 
L 1259 4147 
z
" transform="scale(0.015625)"/>
      <path id="DejaVuSans-75" d="M 544 1381 
L 544 3500 
L 1119 3500 
L 1119 1403 
Q 1119 906 1312 657 
Q 1506 409 1894 409 
Q 2359 409 2629 706 
Q 2900 1003 2900 1516 
L 2900 3500 
L 3475 3500 
L 3475 0 
L 2900 0 
L 2900 538 
Q 2691 219 2414 64 
Q 2138 -91 1772 -91 
Q 1169 -91 856 284 
Q 544 659 544 1381 
z
M 1991 3584 
L 1991 3584 
z
" transform="scale(0.015625)"/>
      <path id="DejaVuSans-6e" d="M 3513 2113 
L 3513 0 
L 2938 0 
L 2938 2094 
Q 2938 2591 2744 2837 
Q 2550 3084 2163 3084 
Q 1697 3084 1428 2787 
Q 1159 2491 1159 1978 
L 1159 0 
L 581 0 
L 581 3500 
L 1159 3500 
L 1159 2956 
Q 1366 3272 1645 3428 
Q 1925 3584 2291 3584 
Q 2894 3584 3203 3211 
Q 3513 2838 3513 2113 
z
" transform="scale(0.015625)"/>
      <path id="DejaVuSans-46" d="M 628 4666 
L 3309 4666 
L 3309 4134 
L 1259 4134 
L 1259 2759 
L 3109 2759 
L 3109 2228 
L 1259 2228 
L 1259 0 
L 628 0 
L 628 4666 
z
" transform="scale(0.015625)"/>
      <path id="DejaVuSans-6f" d="M 1959 3097 
Q 1497 3097 1228 2736 
Q 959 2375 959 1747 
Q 959 1119 1226 758 
Q 1494 397 1959 397 
Q 2419 397 2687 759 
Q 2956 1122 2956 1747 
Q 2956 2369 2687 2733 
Q 2419 3097 1959 3097 
z
M 1959 3584 
Q 2709 3584 3137 3096 
Q 3566 2609 3566 1747 
Q 3566 888 3137 398 
Q 2709 -91 1959 -91 
Q 1206 -91 779 398 
Q 353 888 353 1747 
Q 353 2609 779 3096 
Q 1206 3584 1959 3584 
z
" transform="scale(0.015625)"/>
      <path id="DejaVuSans-72" d="M 2631 2963 
Q 2534 3019 2420 3045 
Q 2306 3072 2169 3072 
Q 1681 3072 1420 2755 
Q 1159 2438 1159 1844 
L 1159 0 
L 581 0 
L 581 3500 
L 1159 3500 
L 1159 2956 
Q 1341 3275 1631 3429 
Q 1922 3584 2338 3584 
Q 2397 3584 2469 3576 
Q 2541 3569 2628 3553 
L 2631 2963 
z
" transform="scale(0.015625)"/>
      <path id="DejaVuSans-65" d="M 3597 1894 
L 3597 1613 
L 953 1613 
Q 991 1019 1311 708 
Q 1631 397 2203 397 
Q 2534 397 2845 478 
Q 3156 559 3463 722 
L 3463 178 
Q 3153 47 2828 -22 
Q 2503 -91 2169 -91 
Q 1331 -91 842 396 
Q 353 884 353 1716 
Q 353 2575 817 3079 
Q 1281 3584 2069 3584 
Q 2775 3584 3186 3129 
Q 3597 2675 3597 1894 
z
M 3022 2063 
Q 3016 2534 2758 2815 
Q 2500 3097 2075 3097 
Q 1594 3097 1305 2825 
Q 1016 2553 972 2059 
L 3022 2063 
z
" transform="scale(0.015625)"/>
      <path id="DejaVuSans-6c" d="M 603 4863 
L 1178 4863 
L 1178 0 
L 603 0 
L 603 4863 
z
" transform="scale(0.015625)"/>
      <path id="DejaVuSans-69" d="M 603 3500 
L 1178 3500 
L 1178 0 
L 603 0 
L 603 3500 
z
M 603 4863 
L 1178 4863 
L 1178 4134 
L 603 4134 
L 603 4863 
z
" transform="scale(0.015625)"/>
      <path id="DejaVuSans-62" d="M 3116 1747 
Q 3116 2381 2855 2742 
Q 2594 3103 2138 3103 
Q 1681 3103 1420 2742 
Q 1159 2381 1159 1747 
Q 1159 1113 1420 752 
Q 1681 391 2138 391 
Q 2594 391 2855 752 
Q 3116 1113 3116 1747 
z
M 1159 2969 
Q 1341 3281 1617 3432 
Q 1894 3584 2278 3584 
Q 2916 3584 3314 3078 
Q 3713 2572 3713 1747 
Q 3713 922 3314 415 
Q 2916 -91 2278 -91 
Q 1894 -91 1617 61 
Q 1341 213 1159 525 
L 1159 0 
L 581 0 
L 581 4863 
L 1159 4863 
L 1159 2969 
z
" transform="scale(0.015625)"/>
      <path id="DejaVuSans-53" d="M 3425 4513 
L 3425 3897 
Q 3066 4069 2747 4153 
Q 2428 4238 2131 4238 
Q 1616 4238 1336 4038 
Q 1056 3838 1056 3469 
Q 1056 3159 1242 3001 
Q 1428 2844 1947 2747 
L 2328 2669 
Q 3034 2534 3370 2195 
Q 3706 1856 3706 1288 
Q 3706 609 3251 259 
Q 2797 -91 1919 -91 
Q 1588 -91 1214 -16 
Q 841 59 441 206 
L 441 856 
Q 825 641 1194 531 
Q 1563 422 1919 422 
Q 2459 422 2753 634 
Q 3047 847 3047 1241 
Q 3047 1584 2836 1778 
Q 2625 1972 2144 2069 
L 1759 2144 
Q 1053 2284 737 2584 
Q 422 2884 422 3419 
Q 422 4038 858 4394 
Q 1294 4750 2059 4750 
Q 2388 4750 2728 4690 
Q 3069 4631 3425 4513 
z
" transform="scale(0.015625)"/>
      <path id="DejaVuSans-74" d="M 1172 4494 
L 1172 3500 
L 2356 3500 
L 2356 3053 
L 1172 3053 
L 1172 1153 
Q 1172 725 1289 603 
Q 1406 481 1766 481 
L 2356 481 
L 2356 0 
L 1766 0 
Q 1100 0 847 248 
Q 594 497 594 1153 
L 594 3053 
L 172 3053 
L 172 3500 
L 594 3500 
L 594 4494 
L 1172 4494 
z
" transform="scale(0.015625)"/>
      <path id="DejaVuSans-6b" d="M 581 4863 
L 1159 4863 
L 1159 1991 
L 2875 3500 
L 3609 3500 
L 1753 1863 
L 3688 0 
L 2938 0 
L 1159 1709 
L 1159 0 
L 581 0 
L 581 4863 
z
" transform="scale(0.015625)"/>
      <path id="DejaVuSans-61" d="M 2194 1759 
Q 1497 1759 1228 1600 
Q 959 1441 959 1056 
Q 959 750 1161 570 
Q 1363 391 1709 391 
Q 2188 391 2477 730 
Q 2766 1069 2766 1631 
L 2766 1759 
L 2194 1759 
z
M 3341 1997 
L 3341 0 
L 2766 0 
L 2766 531 
Q 2569 213 2275 61 
Q 1981 -91 1556 -91 
Q 1019 -91 701 211 
Q 384 513 384 1019 
Q 384 1609 779 1909 
Q 1175 2209 1959 2209 
L 2766 2209 
L 2766 2266 
Q 2766 2663 2505 2880 
Q 2244 3097 1772 3097 
Q 1472 3097 1187 3025 
Q 903 2953 641 2809 
L 641 3341 
Q 956 3463 1253 3523 
Q 1550 3584 1831 3584 
Q 2591 3584 2966 3190 
Q 3341 2797 3341 1997 
z
" transform="scale(0.015625)"/>
      <path id="DejaVuSans-67" d="M 2906 1791 
Q 2906 2416 2648 2759 
Q 2391 3103 1925 3103 
Q 1463 3103 1205 2759 
Q 947 2416 947 1791 
Q 947 1169 1205 825 
Q 1463 481 1925 481 
Q 2391 481 2648 825 
Q 2906 1169 2906 1791 
z
M 3481 434 
Q 3481 -459 3084 -895 
Q 2688 -1331 1869 -1331 
Q 1566 -1331 1297 -1286 
Q 1028 -1241 775 -1147 
L 775 -588 
Q 1028 -725 1275 -790 
Q 1522 -856 1778 -856 
Q 2344 -856 2625 -561 
Q 2906 -266 2906 331 
L 2906 616 
Q 2728 306 2450 153 
Q 2172 0 1784 0 
Q 1141 0 747 490 
Q 353 981 353 1791 
Q 353 2603 747 3093 
Q 1141 3584 1784 3584 
Q 2172 3584 2450 3431 
Q 2728 3278 2906 2969 
L 2906 3500 
L 3481 3500 
L 3481 434 
z
" transform="scale(0.015625)"/>
     </defs>
     <use xlink:href="#DejaVuSans-49"/>
     <use xlink:href="#DejaVuSans-44" x="29.492188"/>
     <use xlink:href="#DejaVuSans-20" x="106.494141"/>
     <use xlink:href="#DejaVuSans-31" x="138.28125"/>
     <use xlink:href="#DejaVuSans-35" x="201.904297"/>
     <use xlink:href="#DejaVuSans-20" x="265.527344"/>
     <use xlink:href="#DejaVuSans-2d" x="297.314453"/>
     <use xlink:href="#DejaVuSans-20" x="333.398438"/>
     <use xlink:href="#DejaVuSans-52" x="365.185547"/>
     <use xlink:href="#DejaVuSans-75" x="430.167969"/>
     <use xlink:href="#DejaVuSans-6e" x="493.546875"/>
     <use xlink:href="#DejaVuSans-20" x="556.925781"/>
     <use xlink:href="#DejaVuSans-33" x="588.712891"/>
     <use xlink:href="#DejaVuSans-20" x="652.335938"/>
     <use xlink:href="#DejaVuSans-2d" x="684.123047"/>
     <use xlink:href="#DejaVuSans-20" x="720.207031"/>
     <use xlink:href="#DejaVuSans-46" x="751.994141"/>
     <use xlink:href="#DejaVuSans-6f" x="805.888672"/>
     <use xlink:href="#DejaVuSans-72" x="867.070312"/>
     <use xlink:href="#DejaVuSans-65" x="905.933594"/>
     <use xlink:href="#DejaVuSans-6c" x="967.457031"/>
     <use xlink:href="#DejaVuSans-69" x="995.240234"/>
     <use xlink:href="#DejaVuSans-6d" x="1023.023438"/>
     <use xlink:href="#DejaVuSans-62" x="1120.435547"/>
     <use xlink:href="#DejaVuSans-20" x="1183.912109"/>
     <use xlink:href="#DejaVuSans-53" x="1215.699219"/>
     <use xlink:href="#DejaVuSans-74" x="1279.175781"/>
     <use xlink:href="#DejaVuSans-69" x="1318.384766"/>
     <use xlink:href="#DejaVuSans-63" x="1346.167969"/>
     <use xlink:href="#DejaVuSans-6b" x="1401.148438"/>
     <use xlink:href="#DejaVuSans-20" x="1459.058594"/>
     <use xlink:href="#DejaVuSans-44" x="1490.845703"/>
     <use xlink:href="#DejaVuSans-69" x="1567.847656"/>
     <use xlink:href="#DejaVuSans-61" x="1595.630859"/>
     <use xlink:href="#DejaVuSans-67" x="1656.910156"/>
     <use xlink:href="#DejaVuSans-72" x="1720.386719"/>
     <use xlink:href="#DejaVuSans-61" x="1761.5"/>
     <use xlink:href="#DejaVuSans-6d" x="1822.779297"/>
    </g>
   </g>
   <g id="legend_1">
    <g id="patch_7">
     <path d="M 339.865156 58.742188 
L 399.609063 58.742188 
Q 401.009063 58.742188 401.009063 57.342188 
L 401.009063 27.218125 
Q 401.009063 25.818125 399.609063 25.818125 
L 339.865156 25.818125 
Q 338.465156 25.818125 338.465156 27.218125 
L 338.465156 57.342188 
Q 338.465156 58.742188 339.865156 58.742188 
z
" style="fill: #ffffff; opacity: 0.8; stroke: #cccccc; stroke-linejoin: miter"/>
    </g>
    <g id="line2d_125">
     <path d="M 341.265156 31.487031 
L 348.265156 31.487031 
L 355.265156 31.487031 
" style="fill: none; stroke: #440154; stroke-width: 1.5; stroke-linecap: square"/>
    </g>
    <g id="text_23">
     <!-- 2.84-3.17s -->
     <g transform="translate(360.865156 33.937031) scale(0.07 -0.07)">
      <defs>
       <path id="DejaVuSans-38" d="M 2034 2216 
Q 1584 2216 1326 1975 
Q 1069 1734 1069 1313 
Q 1069 891 1326 650 
Q 1584 409 2034 409 
Q 2484 409 2743 651 
Q 3003 894 3003 1313 
Q 3003 1734 2745 1975 
Q 2488 2216 2034 2216 
z
M 1403 2484 
Q 997 2584 770 2862 
Q 544 3141 544 3541 
Q 544 4100 942 4425 
Q 1341 4750 2034 4750 
Q 2731 4750 3128 4425 
Q 3525 4100 3525 3541 
Q 3525 3141 3298 2862 
Q 3072 2584 2669 2484 
Q 3125 2378 3379 2068 
Q 3634 1759 3634 1313 
Q 3634 634 3220 271 
Q 2806 -91 2034 -91 
Q 1263 -91 848 271 
Q 434 634 434 1313 
Q 434 1759 690 2068 
Q 947 2378 1403 2484 
z
M 1172 3481 
Q 1172 3119 1398 2916 
Q 1625 2713 2034 2713 
Q 2441 2713 2670 2916 
Q 2900 3119 2900 3481 
Q 2900 3844 2670 4047 
Q 2441 4250 2034 4250 
Q 1625 4250 1398 4047 
Q 1172 3844 1172 3481 
z
" transform="scale(0.015625)"/>
       <path id="DejaVuSans-34" d="M 2419 4116 
L 825 1625 
L 2419 1625 
L 2419 4116 
z
M 2253 4666 
L 3047 4666 
L 3047 1625 
L 3713 1625 
L 3713 1100 
L 3047 1100 
L 3047 0 
L 2419 0 
L 2419 1100 
L 313 1100 
L 313 1709 
L 2253 4666 
z
" transform="scale(0.015625)"/>
       <path id="DejaVuSans-73" d="M 2834 3397 
L 2834 2853 
Q 2591 2978 2328 3040 
Q 2066 3103 1784 3103 
Q 1356 3103 1142 2972 
Q 928 2841 928 2578 
Q 928 2378 1081 2264 
Q 1234 2150 1697 2047 
L 1894 2003 
Q 2506 1872 2764 1633 
Q 3022 1394 3022 966 
Q 3022 478 2636 193 
Q 2250 -91 1575 -91 
Q 1294 -91 989 -36 
Q 684 19 347 128 
L 347 722 
Q 666 556 975 473 
Q 1284 391 1588 391 
Q 1994 391 2212 530 
Q 2431 669 2431 922 
Q 2431 1156 2273 1281 
Q 2116 1406 1581 1522 
L 1381 1569 
Q 847 1681 609 1914 
Q 372 2147 372 2553 
Q 372 3047 722 3315 
Q 1072 3584 1716 3584 
Q 2034 3584 2315 3537 
Q 2597 3491 2834 3397 
z
" transform="scale(0.015625)"/>
      </defs>
      <use xlink:href="#DejaVuSans-32"/>
      <use xlink:href="#DejaVuSans-2e" x="63.623047"/>
      <use xlink:href="#DejaVuSans-38" x="95.410156"/>
      <use xlink:href="#DejaVuSans-34" x="159.033203"/>
      <use xlink:href="#DejaVuSans-2d" x="222.65625"/>
      <use xlink:href="#DejaVuSans-33" x="258.740234"/>
      <use xlink:href="#DejaVuSans-2e" x="322.363281"/>
      <use xlink:href="#DejaVuSans-31" x="354.150391"/>
      <use xlink:href="#DejaVuSans-37" x="417.773438"/>
      <use xlink:href="#DejaVuSans-73" x="481.396484"/>
     </g>
    </g>
    <g id="line2d_126">
     <path d="M 341.265156 41.761719 
L 348.265156 41.761719 
L 355.265156 41.761719 
" style="fill: none; stroke: #21918c; stroke-width: 1.5; stroke-linecap: square"/>
    </g>
    <g id="text_24">
     <!-- 3.18-3.59s -->
     <g transform="translate(360.865156 44.211719) scale(0.07 -0.07)">
      <defs>
       <path id="DejaVuSans-39" d="M 703 97 
L 703 672 
Q 941 559 1184 500 
Q 1428 441 1663 441 
Q 2288 441 2617 861 
Q 2947 1281 2994 2138 
Q 2813 1869 2534 1725 
Q 2256 1581 1919 1581 
Q 1219 1581 811 2004 
Q 403 2428 403 3163 
Q 403 3881 828 4315 
Q 1253 4750 1959 4750 
Q 2769 4750 3195 4129 
Q 3622 3509 3622 2328 
Q 3622 1225 3098 567 
Q 2575 -91 1691 -91 
Q 1453 -91 1209 -44 
Q 966 3 703 97 
z
M 1959 2075 
Q 2384 2075 2632 2365 
Q 2881 2656 2881 3163 
Q 2881 3666 2632 3958 
Q 2384 4250 1959 4250 
Q 1534 4250 1286 3958 
Q 1038 3666 1038 3163 
Q 1038 2656 1286 2365 
Q 1534 2075 1959 2075 
z
" transform="scale(0.015625)"/>
      </defs>
      <use xlink:href="#DejaVuSans-33"/>
      <use xlink:href="#DejaVuSans-2e" x="63.623047"/>
      <use xlink:href="#DejaVuSans-31" x="95.410156"/>
      <use xlink:href="#DejaVuSans-38" x="159.033203"/>
      <use xlink:href="#DejaVuSans-2d" x="222.65625"/>
      <use xlink:href="#DejaVuSans-33" x="258.740234"/>
      <use xlink:href="#DejaVuSans-2e" x="322.363281"/>
      <use xlink:href="#DejaVuSans-35" x="354.150391"/>
      <use xlink:href="#DejaVuSans-39" x="417.773438"/>
      <use xlink:href="#DejaVuSans-73" x="481.396484"/>
     </g>
    </g>
    <g id="line2d_127">
     <path d="M 341.265156 52.036406 
L 348.265156 52.036406 
L 355.265156 52.036406 
" style="fill: none; stroke: #fde725; stroke-width: 1.5; stroke-linecap: square"/>
    </g>
    <g id="text_25">
     <!-- 4.13-4.41s -->
     <g transform="translate(360.865156 54.486406) scale(0.07 -0.07)">
      <use xlink:href="#DejaVuSans-34"/>
      <use xlink:href="#DejaVuSans-2e" x="63.623047"/>
      <use xlink:href="#DejaVuSans-31" x="95.410156"/>
      <use xlink:href="#DejaVuSans-33" x="159.033203"/>
      <use xlink:href="#DejaVuSans-2d" x="222.65625"/>
      <use xlink:href="#DejaVuSans-34" x="258.740234"/>
      <use xlink:href="#DejaVuSans-2e" x="322.363281"/>
      <use xlink:href="#DejaVuSans-34" x="354.150391"/>
      <use xlink:href="#DejaVuSans-31" x="417.773438"/>
      <use xlink:href="#DejaVuSans-73" x="481.396484"/>
     </g>
    </g>
   </g>
  </g>
 </g>
 <defs>
  <clipPath id="p71afea4b1e">
   <rect x="47.389063" y="22.318125" width="357.12" height="266.112"/>
  </clipPath>
 </defs>
</svg>
