<?xml version="1.0" encoding="utf-8" standalone="no"?>
<!DOCTYPE svg PUBLIC "-//W3C//DTD SVG 1.1//EN"
  "http://www.w3.org/Graphics/SVG/1.1/DTD/svg11.dtd">
<svg xmlns:xlink="http://www.w3.org/1999/xlink" width="418.071562pt" height="325.986375pt" viewBox="0 0 418.071562 325.986375" xmlns="http://www.w3.org/2000/svg" version="1.1">
 <metadata>
  <rdf:RDF xmlns:dc="http://purl.org/dc/elements/1.1/" xmlns:cc="http://creativecommons.org/ns#" xmlns:rdf="http://www.w3.org/1999/02/22-rdf-syntax-ns#">
   <cc:Work>
    <dc:type rdf:resource="http://purl.org/dc/dcmitype/StillImage"/>
    <dc:date>2024-04-05T15:48:31.213271</dc:date>
    <dc:format>image/svg+xml</dc:format>
    <dc:creator>
     <cc:Agent>
      <dc:title>Matplotlib v3.7.1, https://matplotlib.org/</dc:title>
     </cc:Agent>
    </dc:creator>
   </cc:Work>
  </rdf:RDF>
 </metadata>
 <defs>
  <style type="text/css">*{stroke-linejoin: round; stroke-linecap: butt}</style>
 </defs>
 <g id="figure_1">
  <g id="patch_1">
   <path d="M 0 325.986375 
L 418.071562 325.986375 
L 418.071562 0 
L 0 0 
z
" style="fill: #ffffff"/>
  </g>
  <g id="axes_1">
   <g id="patch_2">
    <path d="M 53.751563 288.430125 
L 410.871562 288.430125 
L 410.871562 22.318125 
L 53.751563 22.318125 
z
" style="fill: #ffffff"/>
   </g>
   <g id="PolyCollection_1">
    <path d="M 69.98429 52.188684 
L 69.98429 109.862909 
L 83.511563 140.940022 
L 97.038835 172.575764 
L 110.566108 164.299861 
L 124.093381 259.179085 
L 137.620653 174.971516 
L 151.147926 146.295857 
L 164.675199 155.338804 
L 178.202472 152.930521 
L 191.729744 136.176502 
L 205.257017 135.090541 
L 218.78429 134.941969 
L 232.311562 127.736464 
L 245.838835 141.013522 
L 259.366108 140.406953 
L 272.893381 129.973564 
L 286.420653 139.117741 
L 299.947926 146.24418 
L 313.475199 128.781636 
L 327.002472 141.251008 
L 340.529744 134.681161 
L 354.057017 123.857802 
L 367.58429 121.02356 
L 381.111562 112.64305 
L 394.638835 116.02859 
L 394.638835 96.892297 
L 394.638835 96.892297 
L 381.111562 103.061472 
L 367.58429 108.015106 
L 354.057017 111.304946 
L 340.529744 124.695333 
L 327.002472 115.136161 
L 313.475199 98.394794 
L 299.947926 117.290848 
L 286.420653 126.232509 
L 272.893381 109.993948 
L 259.366108 121.151582 
L 245.838835 127.499131 
L 232.311562 124.879436 
L 218.78429 122.087256 
L 205.257017 125.619959 
L 191.729744 117.312559 
L 178.202472 122.400431 
L 164.675199 129.732097 
L 151.147926 133.234809 
L 137.620653 138.757774 
L 124.093381 135.787601 
L 110.566108 142.064216 
L 97.038835 149.198485 
L 83.511563 137.80143 
L 69.98429 52.188684 
z
" clip-path="url(#p69ab9ce5f5)" style="fill: #440154; fill-opacity: 0.2"/>
   </g>
   <g id="PolyCollection_2">
    <path d="M 69.98429 114.070627 
L 69.98429 146.284125 
L 83.511563 149.548279 
L 97.038835 114.991682 
L 110.566108 156.657913 
L 124.093381 234.018951 
L 137.620653 166.961046 
L 151.147926 139.616338 
L 164.675199 173.146928 
L 178.202472 150.167951 
L 191.729744 134.328383 
L 205.257017 134.716324 
L 218.78429 124.405576 
L 232.311562 124.550264 
L 245.838835 130.215519 
L 259.366108 138.126977 
L 272.893381 126.654684 
L 286.420653 127.497314 
L 299.947926 143.547628 
L 313.475199 126.445537 
L 327.002472 107.686001 
L 340.529744 122.486024 
L 354.057017 139.278295 
L 367.58429 131.296604 
L 381.111562 101.637717 
L 394.638835 100.425185 
L 394.638835 84.367055 
L 394.638835 84.367055 
L 381.111562 93.818354 
L 367.58429 112.290555 
L 354.057017 123.155561 
L 340.529744 101.777324 
L 327.002472 103.787631 
L 313.475199 116.941835 
L 299.947926 120.966106 
L 286.420653 120.230739 
L 272.893381 117.21189 
L 259.366108 128.322213 
L 245.838835 115.103132 
L 232.311562 95.697318 
L 218.78429 116.640429 
L 205.257017 128.697607 
L 191.729744 131.22907 
L 178.202472 127.14349 
L 164.675199 128.691584 
L 151.147926 107.601483 
L 137.620653 137.149284 
L 124.093381 142.23045 
L 110.566108 125.246086 
L 97.038835 107.080033 
L 83.511563 93.3562 
L 69.98429 114.070627 
z
" clip-path="url(#p69ab9ce5f5)" style="fill: #3b528b; fill-opacity: 0.2"/>
   </g>
   <g id="PolyCollection_3">
    <path d="M 69.98429 128.655717 
L 69.98429 174.156246 
L 83.511563 130.078973 
L 97.038835 139.952543 
L 110.566108 136.189975 
L 124.093381 165.185608 
L 137.620653 146.274566 
L 151.147926 144.492668 
L 164.675199 148.678227 
L 178.202472 150.38174 
L 191.729744 139.633829 
L 205.257017 131.32359 
L 218.78429 120.655608 
L 232.311562 131.153251 
L 245.838835 135.573145 
L 259.366108 149.246315 
L 272.893381 149.076746 
L 286.420653 145.653212 
L 299.947926 143.884665 
L 313.475199 119.152073 
L 327.002472 119.243164 
L 340.529744 140.279839 
L 354.057017 126.591079 
L 367.58429 143.068413 
L 381.111562 117.392268 
L 394.638835 121.117493 
L 394.638835 93.141646 
L 394.638835 93.141646 
L 381.111562 109.740604 
L 367.58429 103.265375 
L 354.057017 117.86269 
L 340.529744 100.197114 
L 327.002472 103.051034 
L 313.475199 106.291857 
L 299.947926 127.024431 
L 286.420653 125.977207 
L 272.893381 122.745972 
L 259.366108 121.521166 
L 245.838835 117.83017 
L 232.311562 113.006416 
L 218.78429 100.513156 
L 205.257017 121.497713 
L 191.729744 127.963473 
L 178.202472 128.967858 
L 164.675199 129.459038 
L 151.147926 103.080487 
L 137.620653 141.303579 
L 124.093381 128.054552 
L 110.566108 120.991521 
L 97.038835 125.807542 
L 83.511563 118.168924 
L 69.98429 128.655717 
z
" clip-path="url(#p69ab9ce5f5)" style="fill: #21918c; fill-opacity: 0.2"/>
   </g>
   <g id="PolyCollection_4">
    <path d="M 69.98429 86.965637 
L 69.98429 172.708091 
L 83.511563 152.658664 
L 97.038835 129.352192 
L 110.566108 129.672582 
L 124.093381 162.853376 
L 137.620653 152.814997 
L 151.147926 149.55326 
L 164.675199 148.357946 
L 178.202472 147.838946 
L 191.729744 124.49888 
L 205.257017 131.619447 
L 218.78429 129.539963 
L 232.311562 146.494887 
L 245.838835 138.925088 
L 259.366108 141.930838 
L 272.893381 143.89954 
L 286.420653 137.647954 
L 299.947926 143.122314 
L 313.475199 126.841682 
L 327.002472 118.476245 
L 340.529744 126.173435 
L 354.057017 131.428432 
L 367.58429 148.206964 
L 381.111562 158.602348 
L 394.638835 170.616713 
L 394.638835 100.23205 
L 394.638835 100.23205 
L 381.111562 115.957568 
L 367.58429 125.033059 
L 354.057017 124.864135 
L 340.529744 108.103481 
L 327.002472 111.740268 
L 313.475199 120.398457 
L 299.947926 117.555499 
L 286.420653 120.695549 
L 272.893381 118.57485 
L 259.366108 124.176805 
L 245.838835 117.954315 
L 232.311562 110.643915 
L 218.78429 109.895935 
L 205.257017 113.263559 
L 191.729744 112.050502 
L 178.202472 118.199006 
L 164.675199 133.633671 
L 151.147926 110.765475 
L 137.620653 134.868261 
L 124.093381 110.630639 
L 110.566108 119.151962 
L 97.038835 113.518575 
L 83.511563 125.104081 
L 69.98429 86.965637 
z
" clip-path="url(#p69ab9ce5f5)" style="fill: #5ec962; fill-opacity: 0.2"/>
   </g>
   <g id="PolyCollection_5">
    <path d="M 69.98429 101.122875 
L 69.98429 172.503691 
L 83.511563 152.803327 
L 97.038835 131.122018 
L 110.566108 128.650564 
L 124.093381 134.206625 
L 137.620653 141.31793 
L 151.147926 153.550393 
L 164.675199 148.387681 
L 178.202472 144.405991 
L 191.729744 138.314733 
L 205.257017 132.805769 
L 218.78429 162.808448 
L 232.311562 153.958631 
L 245.838835 143.385573 
L 259.366108 143.556987 
L 272.893381 127.935399 
L 286.420653 138.292666 
L 299.947926 147.142377 
L 313.475199 133.111473 
L 327.002472 124.277494 
L 340.529744 143.741612 
L 354.057017 157.887605 
L 367.58429 145.367826 
L 381.111562 143.989831 
L 394.638835 150.985549 
L 394.638835 114.16189 
L 394.638835 114.16189 
L 381.111562 119.556428 
L 367.58429 120.513175 
L 354.057017 117.574775 
L 340.529744 120.077654 
L 327.002472 104.759804 
L 313.475199 104.159592 
L 299.947926 128.14707 
L 286.420653 109.132142 
L 272.893381 120.463147 
L 259.366108 117.015641 
L 245.838835 110.262239 
L 232.311562 110.876996 
L 218.78429 106.812504 
L 205.257017 103.905171 
L 191.729744 108.781343 
L 178.202472 114.870502 
L 164.675199 129.04644 
L 151.147926 108.282985 
L 137.620653 136.406908 
L 124.093381 118.931854 
L 110.566108 118.6489 
L 97.038835 119.096179 
L 83.511563 125.421953 
L 69.98429 101.122875 
z
" clip-path="url(#p69ab9ce5f5)" style="fill: #fde725; fill-opacity: 0.2"/>
   </g>
   <g id="matplotlib.axis_1">
    <g id="xtick_1">
     <g id="line2d_1">
      <defs>
       <path id="mfd514a8fa6" d="M 0 0 
L 0 3.5 
" style="stroke: #000000; stroke-width: 0.8"/>
      </defs>
      <g>
       <use xlink:href="#mfd514a8fa6" x="69.98429" y="288.430125" style="stroke: #000000; stroke-width: 0.8"/>
      </g>
     </g>
     <g id="text_1">
      <!-- 0 -->
      <g transform="translate(66.80304 303.028562) scale(0.1 -0.1)">
       <defs>
        <path id="DejaVuSans-30" d="M 2034 4250 
Q 1547 4250 1301 3770 
Q 1056 3291 1056 2328 
Q 1056 1369 1301 889 
Q 1547 409 2034 409 
Q 2525 409 2770 889 
Q 3016 1369 3016 2328 
Q 3016 3291 2770 3770 
Q 2525 4250 2034 4250 
z
M 2034 4750 
Q 2819 4750 3233 4129 
Q 3647 3509 3647 2328 
Q 3647 1150 3233 529 
Q 2819 -91 2034 -91 
Q 1250 -91 836 529 
Q 422 1150 422 2328 
Q 422 3509 836 4129 
Q 1250 4750 2034 4750 
z
" transform="scale(0.015625)"/>
       </defs>
       <use xlink:href="#DejaVuSans-30"/>
      </g>
     </g>
    </g>
    <g id="xtick_2">
     <g id="line2d_2">
      <g>
       <use xlink:href="#mfd514a8fa6" x="134.915199" y="288.430125" style="stroke: #000000; stroke-width: 0.8"/>
      </g>
     </g>
     <g id="text_2">
      <!-- 20 -->
      <g transform="translate(128.552699 303.028562) scale(0.1 -0.1)">
       <defs>
        <path id="DejaVuSans-32" d="M 1228 531 
L 3431 531 
L 3431 0 
L 469 0 
L 469 531 
Q 828 903 1448 1529 
Q 2069 2156 2228 2338 
Q 2531 2678 2651 2914 
Q 2772 3150 2772 3378 
Q 2772 3750 2511 3984 
Q 2250 4219 1831 4219 
Q 1534 4219 1204 4116 
Q 875 4013 500 3803 
L 500 4441 
Q 881 4594 1212 4672 
Q 1544 4750 1819 4750 
Q 2544 4750 2975 4387 
Q 3406 4025 3406 3419 
Q 3406 3131 3298 2873 
Q 3191 2616 2906 2266 
Q 2828 2175 2409 1742 
Q 1991 1309 1228 531 
z
" transform="scale(0.015625)"/>
       </defs>
       <use xlink:href="#DejaVuSans-32"/>
       <use xlink:href="#DejaVuSans-30" x="63.623047"/>
      </g>
     </g>
    </g>
    <g id="xtick_3">
     <g id="line2d_3">
      <g>
       <use xlink:href="#mfd514a8fa6" x="199.846108" y="288.430125" style="stroke: #000000; stroke-width: 0.8"/>
      </g>
     </g>
     <g id="text_3">
      <!-- 40 -->
      <g transform="translate(193.483608 303.028562) scale(0.1 -0.1)">
       <defs>
        <path id="DejaVuSans-34" d="M 2419 4116 
L 825 1625 
L 2419 1625 
L 2419 4116 
z
M 2253 4666 
L 3047 4666 
L 3047 1625 
L 3713 1625 
L 3713 1100 
L 3047 1100 
L 3047 0 
L 2419 0 
L 2419 1100 
L 313 1100 
L 313 1709 
L 2253 4666 
z
" transform="scale(0.015625)"/>
       </defs>
       <use xlink:href="#DejaVuSans-34"/>
       <use xlink:href="#DejaVuSans-30" x="63.623047"/>
      </g>
     </g>
    </g>
    <g id="xtick_4">
     <g id="line2d_4">
      <g>
       <use xlink:href="#mfd514a8fa6" x="264.777017" y="288.430125" style="stroke: #000000; stroke-width: 0.8"/>
      </g>
     </g>
     <g id="text_4">
      <!-- 60 -->
      <g transform="translate(258.414517 303.028562) scale(0.1 -0.1)">
       <defs>
        <path id="DejaVuSans-36" d="M 2113 2584 
Q 1688 2584 1439 2293 
Q 1191 2003 1191 1497 
Q 1191 994 1439 701 
Q 1688 409 2113 409 
Q 2538 409 2786 701 
Q 3034 994 3034 1497 
Q 3034 2003 2786 2293 
Q 2538 2584 2113 2584 
z
M 3366 4563 
L 3366 3988 
Q 3128 4100 2886 4159 
Q 2644 4219 2406 4219 
Q 1781 4219 1451 3797 
Q 1122 3375 1075 2522 
Q 1259 2794 1537 2939 
Q 1816 3084 2150 3084 
Q 2853 3084 3261 2657 
Q 3669 2231 3669 1497 
Q 3669 778 3244 343 
Q 2819 -91 2113 -91 
Q 1303 -91 875 529 
Q 447 1150 447 2328 
Q 447 3434 972 4092 
Q 1497 4750 2381 4750 
Q 2619 4750 2861 4703 
Q 3103 4656 3366 4563 
z
" transform="scale(0.015625)"/>
       </defs>
       <use xlink:href="#DejaVuSans-36"/>
       <use xlink:href="#DejaVuSans-30" x="63.623047"/>
      </g>
     </g>
    </g>
    <g id="xtick_5">
     <g id="line2d_5">
      <g>
       <use xlink:href="#mfd514a8fa6" x="329.707926" y="288.430125" style="stroke: #000000; stroke-width: 0.8"/>
      </g>
     </g>
     <g id="text_5">
      <!-- 80 -->
      <g transform="translate(323.345426 303.028562) scale(0.1 -0.1)">
       <defs>
        <path id="DejaVuSans-38" d="M 2034 2216 
Q 1584 2216 1326 1975 
Q 1069 1734 1069 1313 
Q 1069 891 1326 650 
Q 1584 409 2034 409 
Q 2484 409 2743 651 
Q 3003 894 3003 1313 
Q 3003 1734 2745 1975 
Q 2488 2216 2034 2216 
z
M 1403 2484 
Q 997 2584 770 2862 
Q 544 3141 544 3541 
Q 544 4100 942 4425 
Q 1341 4750 2034 4750 
Q 2731 4750 3128 4425 
Q 3525 4100 3525 3541 
Q 3525 3141 3298 2862 
Q 3072 2584 2669 2484 
Q 3125 2378 3379 2068 
Q 3634 1759 3634 1313 
Q 3634 634 3220 271 
Q 2806 -91 2034 -91 
Q 1263 -91 848 271 
Q 434 634 434 1313 
Q 434 1759 690 2068 
Q 947 2378 1403 2484 
z
M 1172 3481 
Q 1172 3119 1398 2916 
Q 1625 2713 2034 2713 
Q 2441 2713 2670 2916 
Q 2900 3119 2900 3481 
Q 2900 3844 2670 4047 
Q 2441 4250 2034 4250 
Q 1625 4250 1398 4047 
Q 1172 3844 1172 3481 
z
" transform="scale(0.015625)"/>
       </defs>
       <use xlink:href="#DejaVuSans-38"/>
       <use xlink:href="#DejaVuSans-30" x="63.623047"/>
      </g>
     </g>
    </g>
    <g id="xtick_6">
     <g id="line2d_6">
      <g>
       <use xlink:href="#mfd514a8fa6" x="394.638835" y="288.430125" style="stroke: #000000; stroke-width: 0.8"/>
      </g>
     </g>
     <g id="text_6">
      <!-- 100 -->
      <g transform="translate(385.095085 303.028562) scale(0.1 -0.1)">
       <defs>
        <path id="DejaVuSans-31" d="M 794 531 
L 1825 531 
L 1825 4091 
L 703 3866 
L 703 4441 
L 1819 4666 
L 2450 4666 
L 2450 531 
L 3481 531 
L 3481 0 
L 794 0 
L 794 531 
z
" transform="scale(0.015625)"/>
       </defs>
       <use xlink:href="#DejaVuSans-31"/>
       <use xlink:href="#DejaVuSans-30" x="63.623047"/>
       <use xlink:href="#DejaVuSans-30" x="127.246094"/>
      </g>
     </g>
    </g>
    <g id="text_7">
     <!-- Percentage -->
     <g transform="translate(204.188906 316.706687) scale(0.1 -0.1)">
      <defs>
       <path id="DejaVuSans-50" d="M 1259 4147 
L 1259 2394 
L 2053 2394 
Q 2494 2394 2734 2622 
Q 2975 2850 2975 3272 
Q 2975 3691 2734 3919 
Q 2494 4147 2053 4147 
L 1259 4147 
z
M 628 4666 
L 2053 4666 
Q 2838 4666 3239 4311 
Q 3641 3956 3641 3272 
Q 3641 2581 3239 2228 
Q 2838 1875 2053 1875 
L 1259 1875 
L 1259 0 
L 628 0 
L 628 4666 
z
" transform="scale(0.015625)"/>
       <path id="DejaVuSans-65" d="M 3597 1894 
L 3597 1613 
L 953 1613 
Q 991 1019 1311 708 
Q 1631 397 2203 397 
Q 2534 397 2845 478 
Q 3156 559 3463 722 
L 3463 178 
Q 3153 47 2828 -22 
Q 2503 -91 2169 -91 
Q 1331 -91 842 396 
Q 353 884 353 1716 
Q 353 2575 817 3079 
Q 1281 3584 2069 3584 
Q 2775 3584 3186 3129 
Q 3597 2675 3597 1894 
z
M 3022 2063 
Q 3016 2534 2758 2815 
Q 2500 3097 2075 3097 
Q 1594 3097 1305 2825 
Q 1016 2553 972 2059 
L 3022 2063 
z
" transform="scale(0.015625)"/>
       <path id="DejaVuSans-72" d="M 2631 2963 
Q 2534 3019 2420 3045 
Q 2306 3072 2169 3072 
Q 1681 3072 1420 2755 
Q 1159 2438 1159 1844 
L 1159 0 
L 581 0 
L 581 3500 
L 1159 3500 
L 1159 2956 
Q 1341 3275 1631 3429 
Q 1922 3584 2338 3584 
Q 2397 3584 2469 3576 
Q 2541 3569 2628 3553 
L 2631 2963 
z
" transform="scale(0.015625)"/>
       <path id="DejaVuSans-63" d="M 3122 3366 
L 3122 2828 
Q 2878 2963 2633 3030 
Q 2388 3097 2138 3097 
Q 1578 3097 1268 2742 
Q 959 2388 959 1747 
Q 959 1106 1268 751 
Q 1578 397 2138 397 
Q 2388 397 2633 464 
Q 2878 531 3122 666 
L 3122 134 
Q 2881 22 2623 -34 
Q 2366 -91 2075 -91 
Q 1284 -91 818 406 
Q 353 903 353 1747 
Q 353 2603 823 3093 
Q 1294 3584 2113 3584 
Q 2378 3584 2631 3529 
Q 2884 3475 3122 3366 
z
" transform="scale(0.015625)"/>
       <path id="DejaVuSans-6e" d="M 3513 2113 
L 3513 0 
L 2938 0 
L 2938 2094 
Q 2938 2591 2744 2837 
Q 2550 3084 2163 3084 
Q 1697 3084 1428 2787 
Q 1159 2491 1159 1978 
L 1159 0 
L 581 0 
L 581 3500 
L 1159 3500 
L 1159 2956 
Q 1366 3272 1645 3428 
Q 1925 3584 2291 3584 
Q 2894 3584 3203 3211 
Q 3513 2838 3513 2113 
z
" transform="scale(0.015625)"/>
       <path id="DejaVuSans-74" d="M 1172 4494 
L 1172 3500 
L 2356 3500 
L 2356 3053 
L 1172 3053 
L 1172 1153 
Q 1172 725 1289 603 
Q 1406 481 1766 481 
L 2356 481 
L 2356 0 
L 1766 0 
Q 1100 0 847 248 
Q 594 497 594 1153 
L 594 3053 
L 172 3053 
L 172 3500 
L 594 3500 
L 594 4494 
L 1172 4494 
z
" transform="scale(0.015625)"/>
       <path id="DejaVuSans-61" d="M 2194 1759 
Q 1497 1759 1228 1600 
Q 959 1441 959 1056 
Q 959 750 1161 570 
Q 1363 391 1709 391 
Q 2188 391 2477 730 
Q 2766 1069 2766 1631 
L 2766 1759 
L 2194 1759 
z
M 3341 1997 
L 3341 0 
L 2766 0 
L 2766 531 
Q 2569 213 2275 61 
Q 1981 -91 1556 -91 
Q 1019 -91 701 211 
Q 384 513 384 1019 
Q 384 1609 779 1909 
Q 1175 2209 1959 2209 
L 2766 2209 
L 2766 2266 
Q 2766 2663 2505 2880 
Q 2244 3097 1772 3097 
Q 1472 3097 1187 3025 
Q 903 2953 641 2809 
L 641 3341 
Q 956 3463 1253 3523 
Q 1550 3584 1831 3584 
Q 2591 3584 2966 3190 
Q 3341 2797 3341 1997 
z
" transform="scale(0.015625)"/>
       <path id="DejaVuSans-67" d="M 2906 1791 
Q 2906 2416 2648 2759 
Q 2391 3103 1925 3103 
Q 1463 3103 1205 2759 
Q 947 2416 947 1791 
Q 947 1169 1205 825 
Q 1463 481 1925 481 
Q 2391 481 2648 825 
Q 2906 1169 2906 1791 
z
M 3481 434 
Q 3481 -459 3084 -895 
Q 2688 -1331 1869 -1331 
Q 1566 -1331 1297 -1286 
Q 1028 -1241 775 -1147 
L 775 -588 
Q 1028 -725 1275 -790 
Q 1522 -856 1778 -856 
Q 2344 -856 2625 -561 
Q 2906 -266 2906 331 
L 2906 616 
Q 2728 306 2450 153 
Q 2172 0 1784 0 
Q 1141 0 747 490 
Q 353 981 353 1791 
Q 353 2603 747 3093 
Q 1141 3584 1784 3584 
Q 2172 3584 2450 3431 
Q 2728 3278 2906 2969 
L 2906 3500 
L 3481 3500 
L 3481 434 
z
" transform="scale(0.015625)"/>
      </defs>
      <use xlink:href="#DejaVuSans-50"/>
      <use xlink:href="#DejaVuSans-65" x="56.677734"/>
      <use xlink:href="#DejaVuSans-72" x="118.201172"/>
      <use xlink:href="#DejaVuSans-63" x="157.064453"/>
      <use xlink:href="#DejaVuSans-65" x="212.044922"/>
      <use xlink:href="#DejaVuSans-6e" x="273.568359"/>
      <use xlink:href="#DejaVuSans-74" x="336.947266"/>
      <use xlink:href="#DejaVuSans-61" x="376.15625"/>
      <use xlink:href="#DejaVuSans-67" x="437.435547"/>
      <use xlink:href="#DejaVuSans-65" x="500.912109"/>
     </g>
    </g>
   </g>
   <g id="matplotlib.axis_2">
    <g id="ytick_1">
     <g id="line2d_7">
      <defs>
       <path id="m40dabc212b" d="M 0 0 
L -3.5 0 
" style="stroke: #000000; stroke-width: 0.8"/>
      </defs>
      <g>
       <use xlink:href="#m40dabc212b" x="53.751563" y="288.430125" style="stroke: #000000; stroke-width: 0.8"/>
      </g>
     </g>
     <g id="text_8">
      <!-- -0.3 -->
      <g transform="translate(27.240625 292.229344) scale(0.1 -0.1)">
       <defs>
        <path id="DejaVuSans-2d" d="M 313 2009 
L 1997 2009 
L 1997 1497 
L 313 1497 
L 313 2009 
z
" transform="scale(0.015625)"/>
        <path id="DejaVuSans-2e" d="M 684 794 
L 1344 794 
L 1344 0 
L 684 0 
L 684 794 
z
" transform="scale(0.015625)"/>
        <path id="DejaVuSans-33" d="M 2597 2516 
Q 3050 2419 3304 2112 
Q 3559 1806 3559 1356 
Q 3559 666 3084 287 
Q 2609 -91 1734 -91 
Q 1441 -91 1130 -33 
Q 819 25 488 141 
L 488 750 
Q 750 597 1062 519 
Q 1375 441 1716 441 
Q 2309 441 2620 675 
Q 2931 909 2931 1356 
Q 2931 1769 2642 2001 
Q 2353 2234 1838 2234 
L 1294 2234 
L 1294 2753 
L 1863 2753 
Q 2328 2753 2575 2939 
Q 2822 3125 2822 3475 
Q 2822 3834 2567 4026 
Q 2313 4219 1838 4219 
Q 1578 4219 1281 4162 
Q 984 4106 628 3988 
L 628 4550 
Q 988 4650 1302 4700 
Q 1616 4750 1894 4750 
Q 2613 4750 3031 4423 
Q 3450 4097 3450 3541 
Q 3450 3153 3228 2886 
Q 3006 2619 2597 2516 
z
" transform="scale(0.015625)"/>
       </defs>
       <use xlink:href="#DejaVuSans-2d"/>
       <use xlink:href="#DejaVuSans-30" x="36.083984"/>
       <use xlink:href="#DejaVuSans-2e" x="99.707031"/>
       <use xlink:href="#DejaVuSans-33" x="131.494141"/>
      </g>
     </g>
    </g>
    <g id="ytick_2">
     <g id="line2d_8">
      <g>
       <use xlink:href="#m40dabc212b" x="53.751563" y="261.818925" style="stroke: #000000; stroke-width: 0.8"/>
      </g>
     </g>
     <g id="text_9">
      <!-- -0.25 -->
      <g transform="translate(20.878125 265.618144) scale(0.1 -0.1)">
       <defs>
        <path id="DejaVuSans-35" d="M 691 4666 
L 3169 4666 
L 3169 4134 
L 1269 4134 
L 1269 2991 
Q 1406 3038 1543 3061 
Q 1681 3084 1819 3084 
Q 2600 3084 3056 2656 
Q 3513 2228 3513 1497 
Q 3513 744 3044 326 
Q 2575 -91 1722 -91 
Q 1428 -91 1123 -41 
Q 819 9 494 109 
L 494 744 
Q 775 591 1075 516 
Q 1375 441 1709 441 
Q 2250 441 2565 725 
Q 2881 1009 2881 1497 
Q 2881 1984 2565 2268 
Q 2250 2553 1709 2553 
Q 1456 2553 1204 2497 
Q 953 2441 691 2322 
L 691 4666 
z
" transform="scale(0.015625)"/>
       </defs>
       <use xlink:href="#DejaVuSans-2d"/>
       <use xlink:href="#DejaVuSans-30" x="36.083984"/>
       <use xlink:href="#DejaVuSans-2e" x="99.707031"/>
       <use xlink:href="#DejaVuSans-32" x="131.494141"/>
       <use xlink:href="#DejaVuSans-35" x="195.117188"/>
      </g>
     </g>
    </g>
    <g id="ytick_3">
     <g id="line2d_9">
      <g>
       <use xlink:href="#m40dabc212b" x="53.751563" y="235.207725" style="stroke: #000000; stroke-width: 0.8"/>
      </g>
     </g>
     <g id="text_10">
      <!-- -0.2 -->
      <g transform="translate(27.240625 239.006944) scale(0.1 -0.1)">
       <use xlink:href="#DejaVuSans-2d"/>
       <use xlink:href="#DejaVuSans-30" x="36.083984"/>
       <use xlink:href="#DejaVuSans-2e" x="99.707031"/>
       <use xlink:href="#DejaVuSans-32" x="131.494141"/>
      </g>
     </g>
    </g>
    <g id="ytick_4">
     <g id="line2d_10">
      <g>
       <use xlink:href="#m40dabc212b" x="53.751563" y="208.596525" style="stroke: #000000; stroke-width: 0.8"/>
      </g>
     </g>
     <g id="text_11">
      <!-- -0.15 -->
      <g transform="translate(20.878125 212.395744) scale(0.1 -0.1)">
       <use xlink:href="#DejaVuSans-2d"/>
       <use xlink:href="#DejaVuSans-30" x="36.083984"/>
       <use xlink:href="#DejaVuSans-2e" x="99.707031"/>
       <use xlink:href="#DejaVuSans-31" x="131.494141"/>
       <use xlink:href="#DejaVuSans-35" x="195.117188"/>
      </g>
     </g>
    </g>
    <g id="ytick_5">
     <g id="line2d_11">
      <g>
       <use xlink:href="#m40dabc212b" x="53.751563" y="181.985325" style="stroke: #000000; stroke-width: 0.8"/>
      </g>
     </g>
     <g id="text_12">
      <!-- -0.1 -->
      <g transform="translate(27.240625 185.784544) scale(0.1 -0.1)">
       <use xlink:href="#DejaVuSans-2d"/>
       <use xlink:href="#DejaVuSans-30" x="36.083984"/>
       <use xlink:href="#DejaVuSans-2e" x="99.707031"/>
       <use xlink:href="#DejaVuSans-31" x="131.494141"/>
      </g>
     </g>
    </g>
    <g id="ytick_6">
     <g id="line2d_12">
      <g>
       <use xlink:href="#m40dabc212b" x="53.751563" y="155.374125" style="stroke: #000000; stroke-width: 0.8"/>
      </g>
     </g>
     <g id="text_13">
      <!-- -0.05 -->
      <g transform="translate(20.878125 159.173344) scale(0.1 -0.1)">
       <use xlink:href="#DejaVuSans-2d"/>
       <use xlink:href="#DejaVuSans-30" x="36.083984"/>
       <use xlink:href="#DejaVuSans-2e" x="99.707031"/>
       <use xlink:href="#DejaVuSans-30" x="131.494141"/>
       <use xlink:href="#DejaVuSans-35" x="195.117188"/>
      </g>
     </g>
    </g>
    <g id="ytick_7">
     <g id="line2d_13">
      <g>
       <use xlink:href="#m40dabc212b" x="53.751563" y="128.762925" style="stroke: #000000; stroke-width: 0.8"/>
      </g>
     </g>
     <g id="text_14">
      <!-- 0.0 -->
      <g transform="translate(30.848438 132.562144) scale(0.1 -0.1)">
       <use xlink:href="#DejaVuSans-30"/>
       <use xlink:href="#DejaVuSans-2e" x="63.623047"/>
       <use xlink:href="#DejaVuSans-30" x="95.410156"/>
      </g>
     </g>
    </g>
    <g id="ytick_8">
     <g id="line2d_14">
      <g>
       <use xlink:href="#m40dabc212b" x="53.751563" y="102.151725" style="stroke: #000000; stroke-width: 0.8"/>
      </g>
     </g>
     <g id="text_15">
      <!-- 0.05 -->
      <g transform="translate(24.485938 105.950944) scale(0.1 -0.1)">
       <use xlink:href="#DejaVuSans-30"/>
       <use xlink:href="#DejaVuSans-2e" x="63.623047"/>
       <use xlink:href="#DejaVuSans-30" x="95.410156"/>
       <use xlink:href="#DejaVuSans-35" x="159.033203"/>
      </g>
     </g>
    </g>
    <g id="ytick_9">
     <g id="line2d_15">
      <g>
       <use xlink:href="#m40dabc212b" x="53.751563" y="75.540525" style="stroke: #000000; stroke-width: 0.8"/>
      </g>
     </g>
     <g id="text_16">
      <!-- 0.1 -->
      <g transform="translate(30.848438 79.339744) scale(0.1 -0.1)">
       <use xlink:href="#DejaVuSans-30"/>
       <use xlink:href="#DejaVuSans-2e" x="63.623047"/>
       <use xlink:href="#DejaVuSans-31" x="95.410156"/>
      </g>
     </g>
    </g>
    <g id="ytick_10">
     <g id="line2d_16">
      <g>
       <use xlink:href="#m40dabc212b" x="53.751563" y="48.929325" style="stroke: #000000; stroke-width: 0.8"/>
      </g>
     </g>
     <g id="text_17">
      <!-- 0.15 -->
      <g transform="translate(24.485938 52.728544) scale(0.1 -0.1)">
       <use xlink:href="#DejaVuSans-30"/>
       <use xlink:href="#DejaVuSans-2e" x="63.623047"/>
       <use xlink:href="#DejaVuSans-31" x="95.410156"/>
       <use xlink:href="#DejaVuSans-35" x="159.033203"/>
      </g>
     </g>
    </g>
    <g id="ytick_11">
     <g id="line2d_17">
      <g>
       <use xlink:href="#m40dabc212b" x="53.751563" y="22.318125" style="stroke: #000000; stroke-width: 0.8"/>
      </g>
     </g>
     <g id="text_18">
      <!-- 0.2 -->
      <g transform="translate(30.848438 26.117344) scale(0.1 -0.1)">
       <use xlink:href="#DejaVuSans-30"/>
       <use xlink:href="#DejaVuSans-2e" x="63.623047"/>
       <use xlink:href="#DejaVuSans-32" x="95.410156"/>
      </g>
     </g>
    </g>
    <g id="text_19">
     <!-- Acceleration (x in cm / 10ms) -->
     <g transform="translate(14.798437 228.949906) rotate(-90) scale(0.1 -0.1)">
      <defs>
       <path id="DejaVuSans-41" d="M 2188 4044 
L 1331 1722 
L 3047 1722 
L 2188 4044 
z
M 1831 4666 
L 2547 4666 
L 4325 0 
L 3669 0 
L 3244 1197 
L 1141 1197 
L 716 0 
L 50 0 
L 1831 4666 
z
" transform="scale(0.015625)"/>
       <path id="DejaVuSans-6c" d="M 603 4863 
L 1178 4863 
L 1178 0 
L 603 0 
L 603 4863 
z
" transform="scale(0.015625)"/>
       <path id="DejaVuSans-69" d="M 603 3500 
L 1178 3500 
L 1178 0 
L 603 0 
L 603 3500 
z
M 603 4863 
L 1178 4863 
L 1178 4134 
L 603 4134 
L 603 4863 
z
" transform="scale(0.015625)"/>
       <path id="DejaVuSans-6f" d="M 1959 3097 
Q 1497 3097 1228 2736 
Q 959 2375 959 1747 
Q 959 1119 1226 758 
Q 1494 397 1959 397 
Q 2419 397 2687 759 
Q 2956 1122 2956 1747 
Q 2956 2369 2687 2733 
Q 2419 3097 1959 3097 
z
M 1959 3584 
Q 2709 3584 3137 3096 
Q 3566 2609 3566 1747 
Q 3566 888 3137 398 
Q 2709 -91 1959 -91 
Q 1206 -91 779 398 
Q 353 888 353 1747 
Q 353 2609 779 3096 
Q 1206 3584 1959 3584 
z
" transform="scale(0.015625)"/>
       <path id="DejaVuSans-20" transform="scale(0.015625)"/>
       <path id="DejaVuSans-28" d="M 1984 4856 
Q 1566 4138 1362 3434 
Q 1159 2731 1159 2009 
Q 1159 1288 1364 580 
Q 1569 -128 1984 -844 
L 1484 -844 
Q 1016 -109 783 600 
Q 550 1309 550 2009 
Q 550 2706 781 3412 
Q 1013 4119 1484 4856 
L 1984 4856 
z
" transform="scale(0.015625)"/>
       <path id="DejaVuSans-78" d="M 3513 3500 
L 2247 1797 
L 3578 0 
L 2900 0 
L 1881 1375 
L 863 0 
L 184 0 
L 1544 1831 
L 300 3500 
L 978 3500 
L 1906 2253 
L 2834 3500 
L 3513 3500 
z
" transform="scale(0.015625)"/>
       <path id="DejaVuSans-6d" d="M 3328 2828 
Q 3544 3216 3844 3400 
Q 4144 3584 4550 3584 
Q 5097 3584 5394 3201 
Q 5691 2819 5691 2113 
L 5691 0 
L 5113 0 
L 5113 2094 
Q 5113 2597 4934 2840 
Q 4756 3084 4391 3084 
Q 3944 3084 3684 2787 
Q 3425 2491 3425 1978 
L 3425 0 
L 2847 0 
L 2847 2094 
Q 2847 2600 2669 2842 
Q 2491 3084 2119 3084 
Q 1678 3084 1418 2786 
Q 1159 2488 1159 1978 
L 1159 0 
L 581 0 
L 581 3500 
L 1159 3500 
L 1159 2956 
Q 1356 3278 1631 3431 
Q 1906 3584 2284 3584 
Q 2666 3584 2933 3390 
Q 3200 3197 3328 2828 
z
" transform="scale(0.015625)"/>
       <path id="DejaVuSans-2f" d="M 1625 4666 
L 2156 4666 
L 531 -594 
L 0 -594 
L 1625 4666 
z
" transform="scale(0.015625)"/>
       <path id="DejaVuSans-73" d="M 2834 3397 
L 2834 2853 
Q 2591 2978 2328 3040 
Q 2066 3103 1784 3103 
Q 1356 3103 1142 2972 
Q 928 2841 928 2578 
Q 928 2378 1081 2264 
Q 1234 2150 1697 2047 
L 1894 2003 
Q 2506 1872 2764 1633 
Q 3022 1394 3022 966 
Q 3022 478 2636 193 
Q 2250 -91 1575 -91 
Q 1294 -91 989 -36 
Q 684 19 347 128 
L 347 722 
Q 666 556 975 473 
Q 1284 391 1588 391 
Q 1994 391 2212 530 
Q 2431 669 2431 922 
Q 2431 1156 2273 1281 
Q 2116 1406 1581 1522 
L 1381 1569 
Q 847 1681 609 1914 
Q 372 2147 372 2553 
Q 372 3047 722 3315 
Q 1072 3584 1716 3584 
Q 2034 3584 2315 3537 
Q 2597 3491 2834 3397 
z
" transform="scale(0.015625)"/>
       <path id="DejaVuSans-29" d="M 513 4856 
L 1013 4856 
Q 1481 4119 1714 3412 
Q 1947 2706 1947 2009 
Q 1947 1309 1714 600 
Q 1481 -109 1013 -844 
L 513 -844 
Q 928 -128 1133 580 
Q 1338 1288 1338 2009 
Q 1338 2731 1133 3434 
Q 928 4138 513 4856 
z
" transform="scale(0.015625)"/>
      </defs>
      <use xlink:href="#DejaVuSans-41"/>
      <use xlink:href="#DejaVuSans-63" x="66.658203"/>
      <use xlink:href="#DejaVuSans-63" x="121.638672"/>
      <use xlink:href="#DejaVuSans-65" x="176.619141"/>
      <use xlink:href="#DejaVuSans-6c" x="238.142578"/>
      <use xlink:href="#DejaVuSans-65" x="265.925781"/>
      <use xlink:href="#DejaVuSans-72" x="327.449219"/>
      <use xlink:href="#DejaVuSans-61" x="368.5625"/>
      <use xlink:href="#DejaVuSans-74" x="429.841797"/>
      <use xlink:href="#DejaVuSans-69" x="469.050781"/>
      <use xlink:href="#DejaVuSans-6f" x="496.833984"/>
      <use xlink:href="#DejaVuSans-6e" x="558.015625"/>
      <use xlink:href="#DejaVuSans-20" x="621.394531"/>
      <use xlink:href="#DejaVuSans-28" x="653.181641"/>
      <use xlink:href="#DejaVuSans-78" x="692.195312"/>
      <use xlink:href="#DejaVuSans-20" x="751.375"/>
      <use xlink:href="#DejaVuSans-69" x="783.162109"/>
      <use xlink:href="#DejaVuSans-6e" x="810.945312"/>
      <use xlink:href="#DejaVuSans-20" x="874.324219"/>
      <use xlink:href="#DejaVuSans-63" x="906.111328"/>
      <use xlink:href="#DejaVuSans-6d" x="961.091797"/>
      <use xlink:href="#DejaVuSans-20" x="1058.503906"/>
      <use xlink:href="#DejaVuSans-2f" x="1090.291016"/>
      <use xlink:href="#DejaVuSans-20" x="1123.982422"/>
      <use xlink:href="#DejaVuSans-31" x="1155.769531"/>
      <use xlink:href="#DejaVuSans-30" x="1219.392578"/>
      <use xlink:href="#DejaVuSans-6d" x="1283.015625"/>
      <use xlink:href="#DejaVuSans-73" x="1380.427734"/>
      <use xlink:href="#DejaVuSans-29" x="1432.527344"/>
     </g>
    </g>
   </g>
   <g id="line2d_18">
    <path d="M 69.98429 81.025797 
L 83.511563 139.370726 
L 97.038835 160.887124 
L 110.566108 153.182039 
L 124.093381 197.483343 
L 137.620653 156.864645 
L 151.147926 139.765333 
L 164.675199 142.53545 
L 178.202472 137.665476 
L 191.729744 126.744531 
L 205.257017 130.35525 
L 218.78429 128.514612 
L 232.311562 126.30795 
L 245.838835 134.256327 
L 259.366108 130.779267 
L 272.893381 119.983756 
L 286.420653 132.675125 
L 299.947926 131.767514 
L 313.475199 113.588215 
L 327.002472 128.193584 
L 340.529744 129.688247 
L 354.057017 117.581374 
L 367.58429 114.519333 
L 381.111562 107.852261 
L 394.638835 106.460443 
" clip-path="url(#p69ab9ce5f5)" style="fill: none; stroke: #440154; stroke-width: 1.5; stroke-linecap: square"/>
   </g>
   <g id="line2d_19">
    <path d="M 69.98429 130.177376 
L 83.511563 121.45224 
L 97.038835 111.035857 
L 110.566108 140.951999 
L 124.093381 188.124701 
L 137.620653 152.055165 
L 151.147926 123.60891 
L 164.675199 150.919256 
L 178.202472 138.65572 
L 191.729744 132.778727 
L 205.257017 131.706965 
L 218.78429 120.523003 
L 232.311562 110.123791 
L 245.838835 122.659325 
L 259.366108 133.224595 
L 272.893381 121.933287 
L 286.420653 123.864026 
L 299.947926 132.256867 
L 313.475199 121.693686 
L 327.002472 105.736816 
L 340.529744 112.131674 
L 354.057017 131.216928 
L 367.58429 121.793579 
L 381.111562 97.728036 
L 394.638835 92.39612 
" clip-path="url(#p69ab9ce5f5)" style="fill: none; stroke: #3b528b; stroke-width: 1.5; stroke-linecap: square"/>
   </g>
   <g id="line2d_20">
    <path d="M 69.98429 151.405981 
L 83.511563 124.123948 
L 97.038835 132.880042 
L 110.566108 128.590748 
L 124.093381 146.62008 
L 137.620653 143.789072 
L 151.147926 123.786577 
L 164.675199 139.068633 
L 178.202472 139.674799 
L 191.729744 133.798651 
L 205.257017 126.410652 
L 218.78429 110.584382 
L 232.311562 122.079834 
L 245.838835 126.701657 
L 259.366108 135.38374 
L 272.893381 135.911359 
L 286.420653 135.815209 
L 299.947926 135.454548 
L 313.475199 112.721965 
L 327.002472 111.147099 
L 340.529744 120.238476 
L 354.057017 122.226884 
L 367.58429 123.166894 
L 381.111562 113.566436 
L 394.638835 107.12957 
" clip-path="url(#p69ab9ce5f5)" style="fill: none; stroke: #21918c; stroke-width: 1.5; stroke-linecap: square"/>
   </g>
   <g id="line2d_21">
    <path d="M 69.98429 129.836864 
L 83.511563 138.881372 
L 97.038835 121.435384 
L 110.566108 124.412272 
L 124.093381 136.742008 
L 137.620653 143.841629 
L 151.147926 130.159368 
L 164.675199 140.995808 
L 178.202472 133.018976 
L 191.729744 118.274691 
L 205.257017 122.441503 
L 218.78429 119.717949 
L 232.311562 128.569401 
L 245.838835 128.439701 
L 259.366108 133.053822 
L 272.893381 131.237195 
L 286.420653 129.171752 
L 299.947926 130.338907 
L 313.475199 123.62007 
L 327.002472 115.108256 
L 340.529744 117.138458 
L 354.057017 128.146283 
L 367.58429 136.620011 
L 381.111562 137.279958 
L 394.638835 135.424382 
" clip-path="url(#p69ab9ce5f5)" style="fill: none; stroke: #5ec962; stroke-width: 1.5; stroke-linecap: square"/>
   </g>
   <g id="line2d_22">
    <path d="M 69.98429 136.813283 
L 83.511563 139.11264 
L 97.038835 125.109099 
L 110.566108 123.649732 
L 124.093381 126.56924 
L 137.620653 138.862419 
L 151.147926 130.916689 
L 164.675199 138.71706 
L 178.202472 129.638246 
L 191.729744 123.548038 
L 205.257017 118.35547 
L 218.78429 134.810476 
L 232.311562 132.417813 
L 245.838835 126.823906 
L 259.366108 130.286314 
L 272.893381 124.199273 
L 286.420653 123.712404 
L 299.947926 137.644723 
L 313.475199 118.635532 
L 327.002472 114.518649 
L 340.529744 131.909633 
L 354.057017 137.73119 
L 367.58429 132.940501 
L 381.111562 131.773129 
L 394.638835 132.573719 
" clip-path="url(#p69ab9ce5f5)" style="fill: none; stroke: #fde725; stroke-width: 1.5; stroke-linecap: square"/>
   </g>
   <g id="patch_3">
    <path d="M 53.751563 288.430125 
L 53.751563 22.318125 
" style="fill: none; stroke: #000000; stroke-width: 0.8; stroke-linejoin: miter; stroke-linecap: square"/>
   </g>
   <g id="patch_4">
    <path d="M 410.871562 288.430125 
L 410.871562 22.318125 
" style="fill: none; stroke: #000000; stroke-width: 0.8; stroke-linejoin: miter; stroke-linecap: square"/>
   </g>
   <g id="patch_5">
    <path d="M 53.751563 288.430125 
L 410.871562 288.430125 
" style="fill: none; stroke: #000000; stroke-width: 0.8; stroke-linejoin: miter; stroke-linecap: square"/>
   </g>
   <g id="patch_6">
    <path d="M 53.751563 22.318125 
L 410.871562 22.318125 
" style="fill: none; stroke: #000000; stroke-width: 0.8; stroke-linejoin: miter; stroke-linecap: square"/>
   </g>
   <g id="text_20">
    <!-- ID 15 - Run 3 - Joint accelerations over average step cycle -->
    <g transform="translate(57.8775 16.318125) scale(0.12 -0.12)">
     <defs>
      <path id="DejaVuSans-49" d="M 628 4666 
L 1259 4666 
L 1259 0 
L 628 0 
L 628 4666 
z
" transform="scale(0.015625)"/>
      <path id="DejaVuSans-44" d="M 1259 4147 
L 1259 519 
L 2022 519 
Q 2988 519 3436 956 
Q 3884 1394 3884 2338 
Q 3884 3275 3436 3711 
Q 2988 4147 2022 4147 
L 1259 4147 
z
M 628 4666 
L 1925 4666 
Q 3281 4666 3915 4102 
Q 4550 3538 4550 2338 
Q 4550 1131 3912 565 
Q 3275 0 1925 0 
L 628 0 
L 628 4666 
z
" transform="scale(0.015625)"/>
      <path id="DejaVuSans-52" d="M 2841 2188 
Q 3044 2119 3236 1894 
Q 3428 1669 3622 1275 
L 4263 0 
L 3584 0 
L 2988 1197 
Q 2756 1666 2539 1819 
Q 2322 1972 1947 1972 
L 1259 1972 
L 1259 0 
L 628 0 
L 628 4666 
L 2053 4666 
Q 2853 4666 3247 4331 
Q 3641 3997 3641 3322 
Q 3641 2881 3436 2590 
Q 3231 2300 2841 2188 
z
M 1259 4147 
L 1259 2491 
L 2053 2491 
Q 2509 2491 2742 2702 
Q 2975 2913 2975 3322 
Q 2975 3731 2742 3939 
Q 2509 4147 2053 4147 
L 1259 4147 
z
" transform="scale(0.015625)"/>
      <path id="DejaVuSans-75" d="M 544 1381 
L 544 3500 
L 1119 3500 
L 1119 1403 
Q 1119 906 1312 657 
Q 1506 409 1894 409 
Q 2359 409 2629 706 
Q 2900 1003 2900 1516 
L 2900 3500 
L 3475 3500 
L 3475 0 
L 2900 0 
L 2900 538 
Q 2691 219 2414 64 
Q 2138 -91 1772 -91 
Q 1169 -91 856 284 
Q 544 659 544 1381 
z
M 1991 3584 
L 1991 3584 
z
" transform="scale(0.015625)"/>
      <path id="DejaVuSans-4a" d="M 628 4666 
L 1259 4666 
L 1259 325 
Q 1259 -519 939 -900 
Q 619 -1281 -91 -1281 
L -331 -1281 
L -331 -750 
L -134 -750 
Q 284 -750 456 -515 
Q 628 -281 628 325 
L 628 4666 
z
" transform="scale(0.015625)"/>
      <path id="DejaVuSans-76" d="M 191 3500 
L 800 3500 
L 1894 563 
L 2988 3500 
L 3597 3500 
L 2284 0 
L 1503 0 
L 191 3500 
z
" transform="scale(0.015625)"/>
      <path id="DejaVuSans-70" d="M 1159 525 
L 1159 -1331 
L 581 -1331 
L 581 3500 
L 1159 3500 
L 1159 2969 
Q 1341 3281 1617 3432 
Q 1894 3584 2278 3584 
Q 2916 3584 3314 3078 
Q 3713 2572 3713 1747 
Q 3713 922 3314 415 
Q 2916 -91 2278 -91 
Q 1894 -91 1617 61 
Q 1341 213 1159 525 
z
M 3116 1747 
Q 3116 2381 2855 2742 
Q 2594 3103 2138 3103 
Q 1681 3103 1420 2742 
Q 1159 2381 1159 1747 
Q 1159 1113 1420 752 
Q 1681 391 2138 391 
Q 2594 391 2855 752 
Q 3116 1113 3116 1747 
z
" transform="scale(0.015625)"/>
      <path id="DejaVuSans-79" d="M 2059 -325 
Q 1816 -950 1584 -1140 
Q 1353 -1331 966 -1331 
L 506 -1331 
L 506 -850 
L 844 -850 
Q 1081 -850 1212 -737 
Q 1344 -625 1503 -206 
L 1606 56 
L 191 3500 
L 800 3500 
L 1894 763 
L 2988 3500 
L 3597 3500 
L 2059 -325 
z
" transform="scale(0.015625)"/>
     </defs>
     <use xlink:href="#DejaVuSans-49"/>
     <use xlink:href="#DejaVuSans-44" x="29.492188"/>
     <use xlink:href="#DejaVuSans-20" x="106.494141"/>
     <use xlink:href="#DejaVuSans-31" x="138.28125"/>
     <use xlink:href="#DejaVuSans-35" x="201.904297"/>
     <use xlink:href="#DejaVuSans-20" x="265.527344"/>
     <use xlink:href="#DejaVuSans-2d" x="297.314453"/>
     <use xlink:href="#DejaVuSans-20" x="333.398438"/>
     <use xlink:href="#DejaVuSans-52" x="365.185547"/>
     <use xlink:href="#DejaVuSans-75" x="430.167969"/>
     <use xlink:href="#DejaVuSans-6e" x="493.546875"/>
     <use xlink:href="#DejaVuSans-20" x="556.925781"/>
     <use xlink:href="#DejaVuSans-33" x="588.712891"/>
     <use xlink:href="#DejaVuSans-20" x="652.335938"/>
     <use xlink:href="#DejaVuSans-2d" x="684.123047"/>
     <use xlink:href="#DejaVuSans-20" x="720.207031"/>
     <use xlink:href="#DejaVuSans-4a" x="751.994141"/>
     <use xlink:href="#DejaVuSans-6f" x="781.486328"/>
     <use xlink:href="#DejaVuSans-69" x="842.667969"/>
     <use xlink:href="#DejaVuSans-6e" x="870.451172"/>
     <use xlink:href="#DejaVuSans-74" x="933.830078"/>
     <use xlink:href="#DejaVuSans-20" x="973.039062"/>
     <use xlink:href="#DejaVuSans-61" x="1004.826172"/>
     <use xlink:href="#DejaVuSans-63" x="1066.105469"/>
     <use xlink:href="#DejaVuSans-63" x="1121.085938"/>
     <use xlink:href="#DejaVuSans-65" x="1176.066406"/>
     <use xlink:href="#DejaVuSans-6c" x="1237.589844"/>
     <use xlink:href="#DejaVuSans-65" x="1265.373047"/>
     <use xlink:href="#DejaVuSans-72" x="1326.896484"/>
     <use xlink:href="#DejaVuSans-61" x="1368.009766"/>
     <use xlink:href="#DejaVuSans-74" x="1429.289062"/>
     <use xlink:href="#DejaVuSans-69" x="1468.498047"/>
     <use xlink:href="#DejaVuSans-6f" x="1496.28125"/>
     <use xlink:href="#DejaVuSans-6e" x="1557.462891"/>
     <use xlink:href="#DejaVuSans-73" x="1620.841797"/>
     <use xlink:href="#DejaVuSans-20" x="1672.941406"/>
     <use xlink:href="#DejaVuSans-6f" x="1704.728516"/>
     <use xlink:href="#DejaVuSans-76" x="1765.910156"/>
     <use xlink:href="#DejaVuSans-65" x="1825.089844"/>
     <use xlink:href="#DejaVuSans-72" x="1886.613281"/>
     <use xlink:href="#DejaVuSans-20" x="1927.726562"/>
     <use xlink:href="#DejaVuSans-61" x="1959.513672"/>
     <use xlink:href="#DejaVuSans-76" x="2020.792969"/>
     <use xlink:href="#DejaVuSans-65" x="2079.972656"/>
     <use xlink:href="#DejaVuSans-72" x="2141.496094"/>
     <use xlink:href="#DejaVuSans-61" x="2182.609375"/>
     <use xlink:href="#DejaVuSans-67" x="2243.888672"/>
     <use xlink:href="#DejaVuSans-65" x="2307.365234"/>
     <use xlink:href="#DejaVuSans-20" x="2368.888672"/>
     <use xlink:href="#DejaVuSans-73" x="2400.675781"/>
     <use xlink:href="#DejaVuSans-74" x="2452.775391"/>
     <use xlink:href="#DejaVuSans-65" x="2491.984375"/>
     <use xlink:href="#DejaVuSans-70" x="2553.507812"/>
     <use xlink:href="#DejaVuSans-20" x="2616.984375"/>
     <use xlink:href="#DejaVuSans-63" x="2648.771484"/>
     <use xlink:href="#DejaVuSans-79" x="2703.751953"/>
     <use xlink:href="#DejaVuSans-63" x="2762.931641"/>
     <use xlink:href="#DejaVuSans-6c" x="2817.912109"/>
     <use xlink:href="#DejaVuSans-65" x="2845.695312"/>
    </g>
   </g>
   <g id="legend_1">
    <g id="patch_7">
     <path d="M 60.751563 283.430125 
L 162.092188 283.430125 
Q 164.092188 283.430125 164.092188 281.430125 
L 164.092188 209.0395 
Q 164.092188 207.0395 162.092188 207.0395 
L 60.751563 207.0395 
Q 58.751563 207.0395 58.751563 209.0395 
L 58.751563 281.430125 
Q 58.751563 283.430125 60.751563 283.430125 
z
" style="fill: #ffffff; opacity: 0.8; stroke: #cccccc; stroke-linejoin: miter"/>
    </g>
    <g id="line2d_23">
     <path d="M 62.751563 215.137937 
L 72.751563 215.137937 
L 82.751563 215.137937 
" style="fill: none; stroke: #440154; stroke-width: 1.5; stroke-linecap: square"/>
    </g>
    <g id="text_21">
     <!-- Hind paw tao  -->
     <g transform="translate(90.751563 218.637937) scale(0.1 -0.1)">
      <defs>
       <path id="DejaVuSans-48" d="M 628 4666 
L 1259 4666 
L 1259 2753 
L 3553 2753 
L 3553 4666 
L 4184 4666 
L 4184 0 
L 3553 0 
L 3553 2222 
L 1259 2222 
L 1259 0 
L 628 0 
L 628 4666 
z
" transform="scale(0.015625)"/>
       <path id="DejaVuSans-64" d="M 2906 2969 
L 2906 4863 
L 3481 4863 
L 3481 0 
L 2906 0 
L 2906 525 
Q 2725 213 2448 61 
Q 2172 -91 1784 -91 
Q 1150 -91 751 415 
Q 353 922 353 1747 
Q 353 2572 751 3078 
Q 1150 3584 1784 3584 
Q 2172 3584 2448 3432 
Q 2725 3281 2906 2969 
z
M 947 1747 
Q 947 1113 1208 752 
Q 1469 391 1925 391 
Q 2381 391 2643 752 
Q 2906 1113 2906 1747 
Q 2906 2381 2643 2742 
Q 2381 3103 1925 3103 
Q 1469 3103 1208 2742 
Q 947 2381 947 1747 
z
" transform="scale(0.015625)"/>
       <path id="DejaVuSans-77" d="M 269 3500 
L 844 3500 
L 1563 769 
L 2278 3500 
L 2956 3500 
L 3675 769 
L 4391 3500 
L 4966 3500 
L 4050 0 
L 3372 0 
L 2619 2869 
L 1863 0 
L 1184 0 
L 269 3500 
z
" transform="scale(0.015625)"/>
      </defs>
      <use xlink:href="#DejaVuSans-48"/>
      <use xlink:href="#DejaVuSans-69" x="75.195312"/>
      <use xlink:href="#DejaVuSans-6e" x="102.978516"/>
      <use xlink:href="#DejaVuSans-64" x="166.357422"/>
      <use xlink:href="#DejaVuSans-20" x="229.833984"/>
      <use xlink:href="#DejaVuSans-70" x="261.621094"/>
      <use xlink:href="#DejaVuSans-61" x="325.097656"/>
      <use xlink:href="#DejaVuSans-77" x="386.376953"/>
      <use xlink:href="#DejaVuSans-20" x="468.164062"/>
      <use xlink:href="#DejaVuSans-74" x="499.951172"/>
      <use xlink:href="#DejaVuSans-61" x="539.160156"/>
      <use xlink:href="#DejaVuSans-6f" x="600.439453"/>
      <use xlink:href="#DejaVuSans-20" x="661.621094"/>
     </g>
    </g>
    <g id="line2d_24">
     <path d="M 62.751563 229.816062 
L 72.751563 229.816062 
L 82.751563 229.816062 
" style="fill: none; stroke: #3b528b; stroke-width: 1.5; stroke-linecap: square"/>
    </g>
    <g id="text_22">
     <!-- Ankle  -->
     <g transform="translate(90.751563 233.316062) scale(0.1 -0.1)">
      <defs>
       <path id="DejaVuSans-6b" d="M 581 4863 
L 1159 4863 
L 1159 1991 
L 2875 3500 
L 3609 3500 
L 1753 1863 
L 3688 0 
L 2938 0 
L 1159 1709 
L 1159 0 
L 581 0 
L 581 4863 
z
" transform="scale(0.015625)"/>
      </defs>
      <use xlink:href="#DejaVuSans-41"/>
      <use xlink:href="#DejaVuSans-6e" x="68.408203"/>
      <use xlink:href="#DejaVuSans-6b" x="131.787109"/>
      <use xlink:href="#DejaVuSans-6c" x="189.697266"/>
      <use xlink:href="#DejaVuSans-65" x="217.480469"/>
      <use xlink:href="#DejaVuSans-20" x="279.003906"/>
     </g>
    </g>
    <g id="line2d_25">
     <path d="M 62.751563 244.494187 
L 72.751563 244.494187 
L 82.751563 244.494187 
" style="fill: none; stroke: #21918c; stroke-width: 1.5; stroke-linecap: square"/>
    </g>
    <g id="text_23">
     <!-- Knee  -->
     <g transform="translate(90.751563 247.994187) scale(0.1 -0.1)">
      <defs>
       <path id="DejaVuSans-4b" d="M 628 4666 
L 1259 4666 
L 1259 2694 
L 3353 4666 
L 4166 4666 
L 1850 2491 
L 4331 0 
L 3500 0 
L 1259 2247 
L 1259 0 
L 628 0 
L 628 4666 
z
" transform="scale(0.015625)"/>
      </defs>
      <use xlink:href="#DejaVuSans-4b"/>
      <use xlink:href="#DejaVuSans-6e" x="65.576172"/>
      <use xlink:href="#DejaVuSans-65" x="128.955078"/>
      <use xlink:href="#DejaVuSans-65" x="190.478516"/>
      <use xlink:href="#DejaVuSans-20" x="252.001953"/>
     </g>
    </g>
    <g id="line2d_26">
     <path d="M 62.751563 259.172312 
L 72.751563 259.172312 
L 82.751563 259.172312 
" style="fill: none; stroke: #5ec962; stroke-width: 1.5; stroke-linecap: square"/>
    </g>
    <g id="text_24">
     <!-- Hip  -->
     <g transform="translate(90.751563 262.672312) scale(0.1 -0.1)">
      <use xlink:href="#DejaVuSans-48"/>
      <use xlink:href="#DejaVuSans-69" x="75.195312"/>
      <use xlink:href="#DejaVuSans-70" x="102.978516"/>
      <use xlink:href="#DejaVuSans-20" x="166.455078"/>
     </g>
    </g>
    <g id="line2d_27">
     <path d="M 62.751563 273.850437 
L 72.751563 273.850437 
L 82.751563 273.850437 
" style="fill: none; stroke: #fde725; stroke-width: 1.5; stroke-linecap: square"/>
    </g>
    <g id="text_25">
     <!-- Iliac Crest  -->
     <g transform="translate(90.751563 277.350437) scale(0.1 -0.1)">
      <defs>
       <path id="DejaVuSans-43" d="M 4122 4306 
L 4122 3641 
Q 3803 3938 3442 4084 
Q 3081 4231 2675 4231 
Q 1875 4231 1450 3742 
Q 1025 3253 1025 2328 
Q 1025 1406 1450 917 
Q 1875 428 2675 428 
Q 3081 428 3442 575 
Q 3803 722 4122 1019 
L 4122 359 
Q 3791 134 3420 21 
Q 3050 -91 2638 -91 
Q 1578 -91 968 557 
Q 359 1206 359 2328 
Q 359 3453 968 4101 
Q 1578 4750 2638 4750 
Q 3056 4750 3426 4639 
Q 3797 4528 4122 4306 
z
" transform="scale(0.015625)"/>
      </defs>
      <use xlink:href="#DejaVuSans-49"/>
      <use xlink:href="#DejaVuSans-6c" x="29.492188"/>
      <use xlink:href="#DejaVuSans-69" x="57.275391"/>
      <use xlink:href="#DejaVuSans-61" x="85.058594"/>
      <use xlink:href="#DejaVuSans-63" x="146.337891"/>
      <use xlink:href="#DejaVuSans-20" x="201.318359"/>
      <use xlink:href="#DejaVuSans-43" x="233.105469"/>
      <use xlink:href="#DejaVuSans-72" x="302.929688"/>
      <use xlink:href="#DejaVuSans-65" x="341.792969"/>
      <use xlink:href="#DejaVuSans-73" x="403.316406"/>
      <use xlink:href="#DejaVuSans-74" x="455.416016"/>
      <use xlink:href="#DejaVuSans-20" x="494.625"/>
     </g>
    </g>
   </g>
  </g>
 </g>
 <defs>
  <clipPath id="p69ab9ce5f5">
   <rect x="53.751563" y="22.318125" width="357.12" height="266.112"/>
  </clipPath>
 </defs>
</svg>
