<?xml version="1.0" encoding="utf-8" standalone="no"?>
<!DOCTYPE svg PUBLIC "-//W3C//DTD SVG 1.1//EN"
  "http://www.w3.org/Graphics/SVG/1.1/DTD/svg11.dtd">
<svg xmlns:xlink="http://www.w3.org/1999/xlink" width="422.841875pt" height="325.986375pt" viewBox="0 0 422.841875 325.986375" xmlns="http://www.w3.org/2000/svg" version="1.1">
 <metadata>
  <rdf:RDF xmlns:dc="http://purl.org/dc/elements/1.1/" xmlns:cc="http://creativecommons.org/ns#" xmlns:rdf="http://www.w3.org/1999/02/22-rdf-syntax-ns#">
   <cc:Work>
    <dc:type rdf:resource="http://purl.org/dc/dcmitype/StillImage"/>
    <dc:date>2024-04-05T15:48:29.308410</dc:date>
    <dc:format>image/svg+xml</dc:format>
    <dc:creator>
     <cc:Agent>
      <dc:title>Matplotlib v3.7.1, https://matplotlib.org/</dc:title>
     </cc:Agent>
    </dc:creator>
   </cc:Work>
  </rdf:RDF>
 </metadata>
 <defs>
  <style type="text/css">*{stroke-linejoin: round; stroke-linecap: butt}</style>
 </defs>
 <g id="figure_1">
  <g id="patch_1">
   <path d="M 0 325.986375 
L 422.841875 325.986375 
L 422.841875 0 
L 0 0 
z
" style="fill: #ffffff"/>
  </g>
  <g id="axes_1">
   <g id="patch_2">
    <path d="M 47.389063 288.430125 
L 404.509063 288.430125 
L 404.509063 22.318125 
L 47.389063 22.318125 
z
" style="fill: #ffffff"/>
   </g>
   <g id="matplotlib.axis_1">
    <g id="xtick_1">
     <g id="line2d_1">
      <defs>
       <path id="m30eba91aeb" d="M 0 0 
L 0 3.5 
" style="stroke: #000000; stroke-width: 0.8"/>
      </defs>
      <g>
       <use xlink:href="#m30eba91aeb" x="47.389063" y="288.430125" style="stroke: #000000; stroke-width: 0.8"/>
      </g>
     </g>
     <g id="text_1">
      <!-- 0.0 -->
      <g transform="translate(39.4375 303.028562) scale(0.1 -0.1)">
       <defs>
        <path id="DejaVuSans-30" d="M 2034 4250 
Q 1547 4250 1301 3770 
Q 1056 3291 1056 2328 
Q 1056 1369 1301 889 
Q 1547 409 2034 409 
Q 2525 409 2770 889 
Q 3016 1369 3016 2328 
Q 3016 3291 2770 3770 
Q 2525 4250 2034 4250 
z
M 2034 4750 
Q 2819 4750 3233 4129 
Q 3647 3509 3647 2328 
Q 3647 1150 3233 529 
Q 2819 -91 2034 -91 
Q 1250 -91 836 529 
Q 422 1150 422 2328 
Q 422 3509 836 4129 
Q 1250 4750 2034 4750 
z
" transform="scale(0.015625)"/>
        <path id="DejaVuSans-2e" d="M 684 794 
L 1344 794 
L 1344 0 
L 684 0 
L 684 794 
z
" transform="scale(0.015625)"/>
       </defs>
       <use xlink:href="#DejaVuSans-30"/>
       <use xlink:href="#DejaVuSans-2e" x="63.623047"/>
       <use xlink:href="#DejaVuSans-30" x="95.410156"/>
      </g>
     </g>
    </g>
    <g id="xtick_2">
     <g id="line2d_2">
      <g>
       <use xlink:href="#m30eba91aeb" x="106.909063" y="288.430125" style="stroke: #000000; stroke-width: 0.8"/>
      </g>
     </g>
     <g id="text_2">
      <!-- 5.0 -->
      <g transform="translate(98.9575 303.028562) scale(0.1 -0.1)">
       <defs>
        <path id="DejaVuSans-35" d="M 691 4666 
L 3169 4666 
L 3169 4134 
L 1269 4134 
L 1269 2991 
Q 1406 3038 1543 3061 
Q 1681 3084 1819 3084 
Q 2600 3084 3056 2656 
Q 3513 2228 3513 1497 
Q 3513 744 3044 326 
Q 2575 -91 1722 -91 
Q 1428 -91 1123 -41 
Q 819 9 494 109 
L 494 744 
Q 775 591 1075 516 
Q 1375 441 1709 441 
Q 2250 441 2565 725 
Q 2881 1009 2881 1497 
Q 2881 1984 2565 2268 
Q 2250 2553 1709 2553 
Q 1456 2553 1204 2497 
Q 953 2441 691 2322 
L 691 4666 
z
" transform="scale(0.015625)"/>
       </defs>
       <use xlink:href="#DejaVuSans-35"/>
       <use xlink:href="#DejaVuSans-2e" x="63.623047"/>
       <use xlink:href="#DejaVuSans-30" x="95.410156"/>
      </g>
     </g>
    </g>
    <g id="xtick_3">
     <g id="line2d_3">
      <g>
       <use xlink:href="#m30eba91aeb" x="166.429063" y="288.430125" style="stroke: #000000; stroke-width: 0.8"/>
      </g>
     </g>
     <g id="text_3">
      <!-- 10.0 -->
      <g transform="translate(155.29625 303.028562) scale(0.1 -0.1)">
       <defs>
        <path id="DejaVuSans-31" d="M 794 531 
L 1825 531 
L 1825 4091 
L 703 3866 
L 703 4441 
L 1819 4666 
L 2450 4666 
L 2450 531 
L 3481 531 
L 3481 0 
L 794 0 
L 794 531 
z
" transform="scale(0.015625)"/>
       </defs>
       <use xlink:href="#DejaVuSans-31"/>
       <use xlink:href="#DejaVuSans-30" x="63.623047"/>
       <use xlink:href="#DejaVuSans-2e" x="127.246094"/>
       <use xlink:href="#DejaVuSans-30" x="159.033203"/>
      </g>
     </g>
    </g>
    <g id="xtick_4">
     <g id="line2d_4">
      <g>
       <use xlink:href="#m30eba91aeb" x="225.949063" y="288.430125" style="stroke: #000000; stroke-width: 0.8"/>
      </g>
     </g>
     <g id="text_4">
      <!-- 15.0 -->
      <g transform="translate(214.81625 303.028562) scale(0.1 -0.1)">
       <use xlink:href="#DejaVuSans-31"/>
       <use xlink:href="#DejaVuSans-35" x="63.623047"/>
       <use xlink:href="#DejaVuSans-2e" x="127.246094"/>
       <use xlink:href="#DejaVuSans-30" x="159.033203"/>
      </g>
     </g>
    </g>
    <g id="xtick_5">
     <g id="line2d_5">
      <g>
       <use xlink:href="#m30eba91aeb" x="285.469063" y="288.430125" style="stroke: #000000; stroke-width: 0.8"/>
      </g>
     </g>
     <g id="text_5">
      <!-- 20.0 -->
      <g transform="translate(274.33625 303.028562) scale(0.1 -0.1)">
       <defs>
        <path id="DejaVuSans-32" d="M 1228 531 
L 3431 531 
L 3431 0 
L 469 0 
L 469 531 
Q 828 903 1448 1529 
Q 2069 2156 2228 2338 
Q 2531 2678 2651 2914 
Q 2772 3150 2772 3378 
Q 2772 3750 2511 3984 
Q 2250 4219 1831 4219 
Q 1534 4219 1204 4116 
Q 875 4013 500 3803 
L 500 4441 
Q 881 4594 1212 4672 
Q 1544 4750 1819 4750 
Q 2544 4750 2975 4387 
Q 3406 4025 3406 3419 
Q 3406 3131 3298 2873 
Q 3191 2616 2906 2266 
Q 2828 2175 2409 1742 
Q 1991 1309 1228 531 
z
" transform="scale(0.015625)"/>
       </defs>
       <use xlink:href="#DejaVuSans-32"/>
       <use xlink:href="#DejaVuSans-30" x="63.623047"/>
       <use xlink:href="#DejaVuSans-2e" x="127.246094"/>
       <use xlink:href="#DejaVuSans-30" x="159.033203"/>
      </g>
     </g>
    </g>
    <g id="xtick_6">
     <g id="line2d_6">
      <g>
       <use xlink:href="#m30eba91aeb" x="344.989063" y="288.430125" style="stroke: #000000; stroke-width: 0.8"/>
      </g>
     </g>
     <g id="text_6">
      <!-- 25.0 -->
      <g transform="translate(333.85625 303.028562) scale(0.1 -0.1)">
       <use xlink:href="#DejaVuSans-32"/>
       <use xlink:href="#DejaVuSans-35" x="63.623047"/>
       <use xlink:href="#DejaVuSans-2e" x="127.246094"/>
       <use xlink:href="#DejaVuSans-30" x="159.033203"/>
      </g>
     </g>
    </g>
    <g id="xtick_7">
     <g id="line2d_7">
      <g>
       <use xlink:href="#m30eba91aeb" x="404.509063" y="288.430125" style="stroke: #000000; stroke-width: 0.8"/>
      </g>
     </g>
     <g id="text_7">
      <!-- 30.0 -->
      <g transform="translate(393.37625 303.028562) scale(0.1 -0.1)">
       <defs>
        <path id="DejaVuSans-33" d="M 2597 2516 
Q 3050 2419 3304 2112 
Q 3559 1806 3559 1356 
Q 3559 666 3084 287 
Q 2609 -91 1734 -91 
Q 1441 -91 1130 -33 
Q 819 25 488 141 
L 488 750 
Q 750 597 1062 519 
Q 1375 441 1716 441 
Q 2309 441 2620 675 
Q 2931 909 2931 1356 
Q 2931 1769 2642 2001 
Q 2353 2234 1838 2234 
L 1294 2234 
L 1294 2753 
L 1863 2753 
Q 2328 2753 2575 2939 
Q 2822 3125 2822 3475 
Q 2822 3834 2567 4026 
Q 2313 4219 1838 4219 
Q 1578 4219 1281 4162 
Q 984 4106 628 3988 
L 628 4550 
Q 988 4650 1302 4700 
Q 1616 4750 1894 4750 
Q 2613 4750 3031 4423 
Q 3450 4097 3450 3541 
Q 3450 3153 3228 2886 
Q 3006 2619 2597 2516 
z
" transform="scale(0.015625)"/>
       </defs>
       <use xlink:href="#DejaVuSans-33"/>
       <use xlink:href="#DejaVuSans-30" x="63.623047"/>
       <use xlink:href="#DejaVuSans-2e" x="127.246094"/>
       <use xlink:href="#DejaVuSans-30" x="159.033203"/>
      </g>
     </g>
    </g>
    <g id="text_8">
     <!-- x (cm) -->
     <g transform="translate(209.879531 316.706687) scale(0.1 -0.1)">
      <defs>
       <path id="DejaVuSans-78" d="M 3513 3500 
L 2247 1797 
L 3578 0 
L 2900 0 
L 1881 1375 
L 863 0 
L 184 0 
L 1544 1831 
L 300 3500 
L 978 3500 
L 1906 2253 
L 2834 3500 
L 3513 3500 
z
" transform="scale(0.015625)"/>
       <path id="DejaVuSans-20" transform="scale(0.015625)"/>
       <path id="DejaVuSans-28" d="M 1984 4856 
Q 1566 4138 1362 3434 
Q 1159 2731 1159 2009 
Q 1159 1288 1364 580 
Q 1569 -128 1984 -844 
L 1484 -844 
Q 1016 -109 783 600 
Q 550 1309 550 2009 
Q 550 2706 781 3412 
Q 1013 4119 1484 4856 
L 1984 4856 
z
" transform="scale(0.015625)"/>
       <path id="DejaVuSans-63" d="M 3122 3366 
L 3122 2828 
Q 2878 2963 2633 3030 
Q 2388 3097 2138 3097 
Q 1578 3097 1268 2742 
Q 959 2388 959 1747 
Q 959 1106 1268 751 
Q 1578 397 2138 397 
Q 2388 397 2633 464 
Q 2878 531 3122 666 
L 3122 134 
Q 2881 22 2623 -34 
Q 2366 -91 2075 -91 
Q 1284 -91 818 406 
Q 353 903 353 1747 
Q 353 2603 823 3093 
Q 1294 3584 2113 3584 
Q 2378 3584 2631 3529 
Q 2884 3475 3122 3366 
z
" transform="scale(0.015625)"/>
       <path id="DejaVuSans-6d" d="M 3328 2828 
Q 3544 3216 3844 3400 
Q 4144 3584 4550 3584 
Q 5097 3584 5394 3201 
Q 5691 2819 5691 2113 
L 5691 0 
L 5113 0 
L 5113 2094 
Q 5113 2597 4934 2840 
Q 4756 3084 4391 3084 
Q 3944 3084 3684 2787 
Q 3425 2491 3425 1978 
L 3425 0 
L 2847 0 
L 2847 2094 
Q 2847 2600 2669 2842 
Q 2491 3084 2119 3084 
Q 1678 3084 1418 2786 
Q 1159 2488 1159 1978 
L 1159 0 
L 581 0 
L 581 3500 
L 1159 3500 
L 1159 2956 
Q 1356 3278 1631 3431 
Q 1906 3584 2284 3584 
Q 2666 3584 2933 3390 
Q 3200 3197 3328 2828 
z
" transform="scale(0.015625)"/>
       <path id="DejaVuSans-29" d="M 513 4856 
L 1013 4856 
Q 1481 4119 1714 3412 
Q 1947 2706 1947 2009 
Q 1947 1309 1714 600 
Q 1481 -109 1013 -844 
L 513 -844 
Q 928 -128 1133 580 
Q 1338 1288 1338 2009 
Q 1338 2731 1133 3434 
Q 928 4138 513 4856 
z
" transform="scale(0.015625)"/>
      </defs>
      <use xlink:href="#DejaVuSans-78"/>
      <use xlink:href="#DejaVuSans-20" x="59.179688"/>
      <use xlink:href="#DejaVuSans-28" x="90.966797"/>
      <use xlink:href="#DejaVuSans-63" x="129.980469"/>
      <use xlink:href="#DejaVuSans-6d" x="184.960938"/>
      <use xlink:href="#DejaVuSans-29" x="282.373047"/>
     </g>
    </g>
   </g>
   <g id="matplotlib.axis_2">
    <g id="ytick_1">
     <g id="line2d_8">
      <defs>
       <path id="m4909e60ebc" d="M 0 0 
L -3.5 0 
" style="stroke: #000000; stroke-width: 0.8"/>
      </defs>
      <g>
       <use xlink:href="#m4909e60ebc" x="47.389063" y="288.430125" style="stroke: #000000; stroke-width: 0.8"/>
      </g>
     </g>
     <g id="text_9">
      <!-- -0.5 -->
      <g transform="translate(20.878125 292.229344) scale(0.1 -0.1)">
       <defs>
        <path id="DejaVuSans-2d" d="M 313 2009 
L 1997 2009 
L 1997 1497 
L 313 1497 
L 313 2009 
z
" transform="scale(0.015625)"/>
       </defs>
       <use xlink:href="#DejaVuSans-2d"/>
       <use xlink:href="#DejaVuSans-30" x="36.083984"/>
       <use xlink:href="#DejaVuSans-2e" x="99.707031"/>
       <use xlink:href="#DejaVuSans-35" x="131.494141"/>
      </g>
     </g>
    </g>
    <g id="ytick_2">
     <g id="line2d_9">
      <g>
       <use xlink:href="#m4909e60ebc" x="47.389063" y="235.207725" style="stroke: #000000; stroke-width: 0.8"/>
      </g>
     </g>
     <g id="text_10">
      <!-- 0.0 -->
      <g transform="translate(24.485938 239.006944) scale(0.1 -0.1)">
       <use xlink:href="#DejaVuSans-30"/>
       <use xlink:href="#DejaVuSans-2e" x="63.623047"/>
       <use xlink:href="#DejaVuSans-30" x="95.410156"/>
      </g>
     </g>
    </g>
    <g id="ytick_3">
     <g id="line2d_10">
      <g>
       <use xlink:href="#m4909e60ebc" x="47.389063" y="181.985325" style="stroke: #000000; stroke-width: 0.8"/>
      </g>
     </g>
     <g id="text_11">
      <!-- 0.5 -->
      <g transform="translate(24.485938 185.784544) scale(0.1 -0.1)">
       <use xlink:href="#DejaVuSans-30"/>
       <use xlink:href="#DejaVuSans-2e" x="63.623047"/>
       <use xlink:href="#DejaVuSans-35" x="95.410156"/>
      </g>
     </g>
    </g>
    <g id="ytick_4">
     <g id="line2d_11">
      <g>
       <use xlink:href="#m4909e60ebc" x="47.389063" y="128.762925" style="stroke: #000000; stroke-width: 0.8"/>
      </g>
     </g>
     <g id="text_12">
      <!-- 1.0 -->
      <g transform="translate(24.485938 132.562144) scale(0.1 -0.1)">
       <use xlink:href="#DejaVuSans-31"/>
       <use xlink:href="#DejaVuSans-2e" x="63.623047"/>
       <use xlink:href="#DejaVuSans-30" x="95.410156"/>
      </g>
     </g>
    </g>
    <g id="ytick_5">
     <g id="line2d_12">
      <g>
       <use xlink:href="#m4909e60ebc" x="47.389063" y="75.540525" style="stroke: #000000; stroke-width: 0.8"/>
      </g>
     </g>
     <g id="text_13">
      <!-- 1.5 -->
      <g transform="translate(24.485938 79.339744) scale(0.1 -0.1)">
       <use xlink:href="#DejaVuSans-31"/>
       <use xlink:href="#DejaVuSans-2e" x="63.623047"/>
       <use xlink:href="#DejaVuSans-35" x="95.410156"/>
      </g>
     </g>
    </g>
    <g id="ytick_6">
     <g id="line2d_13">
      <g>
       <use xlink:href="#m4909e60ebc" x="47.389063" y="22.318125" style="stroke: #000000; stroke-width: 0.8"/>
      </g>
     </g>
     <g id="text_14">
      <!-- 2.0 -->
      <g transform="translate(24.485938 26.117344) scale(0.1 -0.1)">
       <use xlink:href="#DejaVuSans-32"/>
       <use xlink:href="#DejaVuSans-2e" x="63.623047"/>
       <use xlink:href="#DejaVuSans-30" x="95.410156"/>
      </g>
     </g>
    </g>
    <g id="text_15">
     <!-- y (cm) -->
     <g transform="translate(14.798438 171.443656) rotate(-90) scale(0.1 -0.1)">
      <defs>
       <path id="DejaVuSans-79" d="M 2059 -325 
Q 1816 -950 1584 -1140 
Q 1353 -1331 966 -1331 
L 506 -1331 
L 506 -850 
L 844 -850 
Q 1081 -850 1212 -737 
Q 1344 -625 1503 -206 
L 1606 56 
L 191 3500 
L 800 3500 
L 1894 763 
L 2988 3500 
L 3597 3500 
L 2059 -325 
z
" transform="scale(0.015625)"/>
      </defs>
      <use xlink:href="#DejaVuSans-79"/>
      <use xlink:href="#DejaVuSans-20" x="59.179688"/>
      <use xlink:href="#DejaVuSans-28" x="90.966797"/>
      <use xlink:href="#DejaVuSans-63" x="129.980469"/>
      <use xlink:href="#DejaVuSans-6d" x="184.960938"/>
      <use xlink:href="#DejaVuSans-29" x="282.373047"/>
     </g>
    </g>
   </g>
   <g id="line2d_14">
    <path d="M 113.127442 184.781435 
L 120.443685 70.801538 
L 137.042228 97.134963 
" clip-path="url(#p05bf0e6f8a)" style="fill: none; stroke: #440154; stroke-width: 1.5; stroke-linecap: square"/>
   </g>
   <g id="line2d_15">
    <path d="M 119.42501 182.053266 
L 124.598671 53.336349 
L 141.61163 69.628645 
" clip-path="url(#p05bf0e6f8a)" style="fill: none; stroke: #440154; stroke-width: 1.5; stroke-linecap: square"/>
   </g>
   <g id="line2d_16">
    <path d="M 129.333361 184.254082 
L 127.909786 58.687113 
L 143.679077 65.419327 
" clip-path="url(#p05bf0e6f8a)" style="fill: none; stroke: #440154; stroke-width: 1.5; stroke-linecap: square"/>
   </g>
   <g id="line2d_17">
    <path d="M 137.930325 183.163955 
L 130.433939 64.72385 
L 145.962319 60.212496 
" clip-path="url(#p05bf0e6f8a)" style="fill: none; stroke: #440154; stroke-width: 1.5; stroke-linecap: square"/>
   </g>
   <g id="line2d_18">
    <path d="M 146.478816 181.580514 
L 136.002577 115.235498 
L 149.940132 54.957457 
" clip-path="url(#p05bf0e6f8a)" style="fill: none; stroke: #440154; stroke-width: 1.5; stroke-linecap: square"/>
   </g>
   <g id="line2d_19">
    <path d="M 153.808469 169.877154 
L 141.49765 138.758678 
L 152.524299 62.37599 
" clip-path="url(#p05bf0e6f8a)" style="fill: none; stroke: #440154; stroke-width: 1.5; stroke-linecap: square"/>
   </g>
   <g id="line2d_20">
    <path d="M 159.499511 166.758136 
L 147.171842 166.667422 
L 155.24829 69.532747 
" clip-path="url(#p05bf0e6f8a)" style="fill: none; stroke: #440154; stroke-width: 1.5; stroke-linecap: square"/>
   </g>
   <g id="line2d_21">
    <path d="M 165.205529 179.831023 
L 152.409276 187.979763 
L 157.992773 77.218412 
" clip-path="url(#p05bf0e6f8a)" style="fill: none; stroke: #440154; stroke-width: 1.5; stroke-linecap: square"/>
   </g>
   <g id="line2d_22">
    <path d="M 171.014667 189.130194 
L 158.258278 202.960935 
L 161.158132 77.285973 
" clip-path="url(#p05bf0e6f8a)" style="fill: none; stroke: #440154; stroke-width: 1.5; stroke-linecap: square"/>
   </g>
   <g id="line2d_23">
    <path d="M 175.879747 209.244934 
L 162.64773 204.400961 
L 164.379316 77.801921 
" clip-path="url(#p05bf0e6f8a)" style="fill: none; stroke: #440154; stroke-width: 1.5; stroke-linecap: square"/>
   </g>
   <g id="line2d_24">
    <path d="M 175.970297 215.437873 
L 163.231656 200.991311 
L 165.813117 78.371262 
" clip-path="url(#p05bf0e6f8a)" style="fill: none; stroke: #440154; stroke-width: 1.5; stroke-linecap: square"/>
   </g>
   <g id="line2d_25">
    <path d="M 176.03905 221.946324 
L 163.325365 201.574647 
L 167.503351 77.474831 
" clip-path="url(#p05bf0e6f8a)" style="fill: none; stroke: #440154; stroke-width: 1.5; stroke-linecap: square"/>
   </g>
   <g id="line2d_26">
    <path d="M 176.224178 218.448898 
L 163.800529 201.938541 
L 168.367854 86.474904 
" clip-path="url(#p05bf0e6f8a)" style="fill: none; stroke: #440154; stroke-width: 1.5; stroke-linecap: square"/>
   </g>
   <g id="line2d_27">
    <path d="M 176.453287 220.29014 
L 164.911059 206.249805 
L 170.015991 91.239567 
" clip-path="url(#p05bf0e6f8a)" style="fill: none; stroke: #440154; stroke-width: 1.5; stroke-linecap: square"/>
   </g>
   <g id="line2d_28">
    <path d="M 176.159213 220.487811 
L 165.349364 204.687964 
L 171.781026 93.57585 
" clip-path="url(#p05bf0e6f8a)" style="fill: none; stroke: #440154; stroke-width: 1.5; stroke-linecap: square"/>
   </g>
   <g id="line2d_29">
    <path d="M 175.840114 220.398651 
L 165.762702 202.319887 
L 172.888416 99.536042 
" clip-path="url(#p05bf0e6f8a)" style="fill: none; stroke: #440154; stroke-width: 1.5; stroke-linecap: square"/>
   </g>
   <g id="line2d_30">
    <path d="M 176.147986 223.136324 
L 166.368831 205.334195 
L 174.556766 106.270156 
" clip-path="url(#p05bf0e6f8a)" style="fill: none; stroke: #440154; stroke-width: 1.5; stroke-linecap: square"/>
   </g>
   <g id="line2d_31">
    <path d="M 175.935824 222.600159 
L 166.223973 199.5677 
L 176.918103 110.524918 
" clip-path="url(#p05bf0e6f8a)" style="fill: none; stroke: #440154; stroke-width: 1.5; stroke-linecap: square"/>
   </g>
   <g id="line2d_32">
    <path d="M 175.846221 224.28399 
L 166.55796 198.582629 
L 177.769099 117.23346 
" clip-path="url(#p05bf0e6f8a)" style="fill: none; stroke: #440154; stroke-width: 1.5; stroke-linecap: square"/>
   </g>
   <g id="line2d_33">
    <path d="M 175.0362 226.099314 
L 166.460482 188.840254 
L 179.403449 119.755319 
" clip-path="url(#p05bf0e6f8a)" style="fill: none; stroke: #440154; stroke-width: 1.5; stroke-linecap: square"/>
   </g>
   <g id="line2d_34">
    <path d="M 174.877777 225.478136 
L 166.566742 176.464571 
L 179.954304 124.711087 
" clip-path="url(#p05bf0e6f8a)" style="fill: none; stroke: #440154; stroke-width: 1.5; stroke-linecap: square"/>
   </g>
   <g id="line2d_35">
    <path d="M 174.585954 220.790537 
L 166.123877 150.284584 
L 182.003577 124.288099 
" clip-path="url(#p05bf0e6f8a)" style="fill: none; stroke: #440154; stroke-width: 1.5; stroke-linecap: square"/>
   </g>
   <g id="line2d_36">
    <path d="M 174.521558 218.894694 
L 167.568065 139.544005 
L 183.862978 130.94584 
" clip-path="url(#p05bf0e6f8a)" style="fill: none; stroke: #440154; stroke-width: 1.5; stroke-linecap: square"/>
   </g>
   <g id="line2d_37">
    <path d="M 174.287087 215.44513 
L 168.668575 124.003342 
L 186.305339 122.875374 
" clip-path="url(#p05bf0e6f8a)" style="fill: none; stroke: #440154; stroke-width: 1.5; stroke-linecap: square"/>
   </g>
   <g id="line2d_38">
    <path d="M 174.453936 219.168219 
L 169.379641 105.555327 
L 187.889989 133.659322 
" clip-path="url(#p05bf0e6f8a)" style="fill: none; stroke: #440154; stroke-width: 1.5; stroke-linecap: square"/>
   </g>
   <g id="line2d_39">
    <path d="M 174.780473 225.578354 
L 170.543165 105.712047 
L 188.612291 137.567642 
" clip-path="url(#p05bf0e6f8a)" style="fill: none; stroke: #440154; stroke-width: 1.5; stroke-linecap: square"/>
   </g>
   <g id="line2d_40">
    <path d="M 175.203957 226.00618 
L 172.396179 113.145958 
L 189.631768 139.335103 
" clip-path="url(#p05bf0e6f8a)" style="fill: none; stroke: #440154; stroke-width: 1.5; stroke-linecap: square"/>
   </g>
   <g id="line2d_41">
    <path d="M 175.155532 222.409918 
L 173.051206 116.133829 
L 190.084701 151.299029 
" clip-path="url(#p05bf0e6f8a)" style="fill: none; stroke: #440154; stroke-width: 1.5; stroke-linecap: square"/>
   </g>
   <g id="line2d_42">
    <path d="M 175.49091 220.078127 
L 173.788484 107.444086 
L 191.350127 152.189585 
" clip-path="url(#p05bf0e6f8a)" style="fill: none; stroke: #440154; stroke-width: 1.5; stroke-linecap: square"/>
   </g>
   <g id="line2d_43">
    <path d="M 175.521683 221.55081 
L 175.737004 107.062222 
L 193.259953 158.754021 
" clip-path="url(#p05bf0e6f8a)" style="fill: none; stroke: #440154; stroke-width: 1.5; stroke-linecap: square"/>
   </g>
   <g id="line2d_44">
    <path d="M 175.804955 210.947599 
L 177.138739 103.643587 
L 195.593165 149.869371 
" clip-path="url(#p05bf0e6f8a)" style="fill: none; stroke: #440154; stroke-width: 1.5; stroke-linecap: square"/>
   </g>
   <g id="line2d_45">
    <path d="M 176.129677 211.398924 
L 179.474637 104.623302 
L 199.554061 144.371218 
" clip-path="url(#p05bf0e6f8a)" style="fill: none; stroke: #440154; stroke-width: 1.5; stroke-linecap: square"/>
   </g>
   <g id="line2d_46">
    <path d="M 176.629391 205.189571 
L 181.278657 99.926891 
L 200.822299 144.674809 
" clip-path="url(#p05bf0e6f8a)" style="fill: none; stroke: #440154; stroke-width: 1.5; stroke-linecap: square"/>
   </g>
   <g id="line2d_47">
    <path d="M 177.976653 206.817418 
L 184.495126 89.959544 
L 203.919485 134.015441 
" clip-path="url(#p05bf0e6f8a)" style="fill: none; stroke: #440154; stroke-width: 1.5; stroke-linecap: square"/>
   </g>
   <g id="line2d_48">
    <path d="M 179.376455 202.708663 
L 188.352303 87.835273 
L 206.463584 121.374699 
" clip-path="url(#p05bf0e6f8a)" style="fill: none; stroke: #21918c; stroke-width: 1.5; stroke-linecap: square"/>
   </g>
   <g id="line2d_49">
    <path d="M 184.136125 201.524538 
L 191.168467 78.981553 
L 208.539069 97.569527 
" clip-path="url(#p05bf0e6f8a)" style="fill: none; stroke: #21918c; stroke-width: 1.5; stroke-linecap: square"/>
   </g>
   <g id="line2d_50">
    <path d="M 192.024826 206.9947 
L 195.045432 70.083945 
L 210.33821 98.499479 
" clip-path="url(#p05bf0e6f8a)" style="fill: none; stroke: #21918c; stroke-width: 1.5; stroke-linecap: square"/>
   </g>
   <g id="line2d_51">
    <path d="M 198.556864 193.278691 
L 197.379147 60.379238 
L 212.438169 78.554418 
" clip-path="url(#p05bf0e6f8a)" style="fill: none; stroke: #21918c; stroke-width: 1.5; stroke-linecap: square"/>
   </g>
   <g id="line2d_52">
    <path d="M 204.483508 187.485932 
L 198.458981 72.233616 
L 213.976781 77.815053 
" clip-path="url(#p05bf0e6f8a)" style="fill: none; stroke: #21918c; stroke-width: 1.5; stroke-linecap: square"/>
   </g>
   <g id="line2d_53">
    <path d="M 210.87235 187.059661 
L 201.17074 93.244267 
L 215.928606 59.844455 
" clip-path="url(#p05bf0e6f8a)" style="fill: none; stroke: #21918c; stroke-width: 1.5; stroke-linecap: square"/>
   </g>
   <g id="line2d_54">
    <path d="M 215.739333 178.667288 
L 203.907098 105.253464 
L 216.639208 64.153991 
" clip-path="url(#p05bf0e6f8a)" style="fill: none; stroke: #21918c; stroke-width: 1.5; stroke-linecap: square"/>
   </g>
   <g id="line2d_55">
    <path d="M 219.411101 176.627857 
L 207.063462 128.497935 
L 219.257093 69.611194 
" clip-path="url(#p05bf0e6f8a)" style="fill: none; stroke: #21918c; stroke-width: 1.5; stroke-linecap: square"/>
   </g>
   <g id="line2d_56">
    <path d="M 222.388636 172.679277 
L 210.024783 141.299198 
L 219.85214 65.199193 
" clip-path="url(#p05bf0e6f8a)" style="fill: none; stroke: #21918c; stroke-width: 1.5; stroke-linecap: square"/>
   </g>
   <g id="line2d_57">
    <path d="M 225.535907 163.192976 
L 212.606129 146.237687 
L 222.375283 57.980059 
" clip-path="url(#p05bf0e6f8a)" style="fill: none; stroke: #21918c; stroke-width: 1.5; stroke-linecap: square"/>
   </g>
   <g id="line2d_58">
    <path d="M 229.87478 160.880365 
L 215.664107 148.933199 
L 223.979228 57.770293 
" clip-path="url(#p05bf0e6f8a)" style="fill: none; stroke: #21918c; stroke-width: 1.5; stroke-linecap: square"/>
   </g>
   <g id="line2d_59">
    <path d="M 233.788247 156.666899 
L 219.587505 151.535405 
L 225.949294 43.701276 
" clip-path="url(#p05bf0e6f8a)" style="fill: none; stroke: #21918c; stroke-width: 1.5; stroke-linecap: square"/>
   </g>
   <g id="line2d_60">
    <path d="M 238.441822 149.851228 
L 221.901105 159.37036 
L 226.616592 43.495484 
" clip-path="url(#p05bf0e6f8a)" style="fill: none; stroke: #21918c; stroke-width: 1.5; stroke-linecap: square"/>
   </g>
   <g id="line2d_61">
    <path d="M 239.576612 156.061792 
L 224.682254 159.231437 
L 228.880182 48.415139 
" clip-path="url(#p05bf0e6f8a)" style="fill: none; stroke: #21918c; stroke-width: 1.5; stroke-linecap: square"/>
   </g>
   <g id="line2d_62">
    <path d="M 243.074527 176.099813 
L 229.824829 171.698353 
L 231.490686 48.709053 
" clip-path="url(#p05bf0e6f8a)" style="fill: none; stroke: #21918c; stroke-width: 1.5; stroke-linecap: square"/>
   </g>
   <g id="line2d_63">
    <path d="M 245.693669 195.680115 
L 232.809378 181.98415 
L 234.829647 66.859871 
" clip-path="url(#p05bf0e6f8a)" style="fill: none; stroke: #21918c; stroke-width: 1.5; stroke-linecap: square"/>
   </g>
   <g id="line2d_64">
    <path d="M 247.072051 220.39917 
L 233.974525 191.386476 
L 236.366674 67.048211 
" clip-path="url(#p05bf0e6f8a)" style="fill: none; stroke: #21918c; stroke-width: 1.5; stroke-linecap: square"/>
   </g>
   <g id="line2d_65">
    <path d="M 248.117953 236.60127 
L 235.127962 194.629557 
L 237.257312 69.369807 
" clip-path="url(#p05bf0e6f8a)" style="fill: none; stroke: #21918c; stroke-width: 1.5; stroke-linecap: square"/>
   </g>
   <g id="line2d_66">
    <path d="M 248.069432 233.414518 
L 235.159344 197.76309 
L 237.943276 68.334799 
" clip-path="url(#p05bf0e6f8a)" style="fill: none; stroke: #21918c; stroke-width: 1.5; stroke-linecap: square"/>
   </g>
   <g id="line2d_67">
    <path d="M 248.461196 238.174862 
L 235.838081 199.786279 
L 238.380083 73.198471 
" clip-path="url(#p05bf0e6f8a)" style="fill: none; stroke: #21918c; stroke-width: 1.5; stroke-linecap: square"/>
   </g>
   <g id="line2d_68">
    <path d="M 248.544074 240.08401 
L 235.763627 199.884596 
L 239.403686 75.648449 
" clip-path="url(#p05bf0e6f8a)" style="fill: none; stroke: #21918c; stroke-width: 1.5; stroke-linecap: square"/>
   </g>
   <g id="line2d_69">
    <path d="M 249.079953 242.598439 
L 236.092397 203.088281 
L 240.093225 80.356092 
" clip-path="url(#p05bf0e6f8a)" style="fill: none; stroke: #21918c; stroke-width: 1.5; stroke-linecap: square"/>
   </g>
   <g id="line2d_70">
    <path d="M 248.939838 240.502678 
L 236.297747 203.811749 
L 240.566186 87.28062 
" clip-path="url(#p05bf0e6f8a)" style="fill: none; stroke: #21918c; stroke-width: 1.5; stroke-linecap: square"/>
   </g>
   <g id="line2d_71">
    <path d="M 249.062252 242.912224 
L 236.583406 210.415581 
L 241.557016 89.885072 
" clip-path="url(#p05bf0e6f8a)" style="fill: none; stroke: #21918c; stroke-width: 1.5; stroke-linecap: square"/>
   </g>
   <g id="line2d_72">
    <path d="M 249.187005 243.651762 
L 237.07573 212.477993 
L 242.681836 93.624231 
" clip-path="url(#p05bf0e6f8a)" style="fill: none; stroke: #21918c; stroke-width: 1.5; stroke-linecap: square"/>
   </g>
   <g id="line2d_73">
    <path d="M 249.616913 250.451191 
L 237.322722 213.924757 
L 243.022624 98.136622 
" clip-path="url(#p05bf0e6f8a)" style="fill: none; stroke: #21918c; stroke-width: 1.5; stroke-linecap: square"/>
   </g>
   <g id="line2d_74">
    <path d="M 249.826554 251.424858 
L 237.805848 215.495411 
L 244.138284 97.400367 
" clip-path="url(#p05bf0e6f8a)" style="fill: none; stroke: #21918c; stroke-width: 1.5; stroke-linecap: square"/>
   </g>
   <g id="line2d_75">
    <path d="M 249.996851 251.4411 
L 237.870021 216.047473 
L 244.692597 108.986057 
" clip-path="url(#p05bf0e6f8a)" style="fill: none; stroke: #21918c; stroke-width: 1.5; stroke-linecap: square"/>
   </g>
   <g id="line2d_76">
    <path d="M 249.907867 242.116357 
L 237.982425 208.042494 
L 246.707282 101.398018 
" clip-path="url(#p05bf0e6f8a)" style="fill: none; stroke: #21918c; stroke-width: 1.5; stroke-linecap: square"/>
   </g>
   <g id="line2d_77">
    <path d="M 249.778052 240.976293 
L 238.20737 204.511546 
L 247.625707 112.97386 
" clip-path="url(#p05bf0e6f8a)" style="fill: none; stroke: #21918c; stroke-width: 1.5; stroke-linecap: square"/>
   </g>
   <g id="line2d_78">
    <path d="M 249.881567 243.267479 
L 238.435735 202.430645 
L 248.608711 115.779439 
" clip-path="url(#p05bf0e6f8a)" style="fill: none; stroke: #21918c; stroke-width: 1.5; stroke-linecap: square"/>
   </g>
   <g id="line2d_79">
    <path d="M 249.603638 247.587209 
L 238.707017 201.25948 
L 249.619831 126.904128 
" clip-path="url(#p05bf0e6f8a)" style="fill: none; stroke: #21918c; stroke-width: 1.5; stroke-linecap: square"/>
   </g>
   <g id="line2d_80">
    <path d="M 249.484992 268.017289 
L 239.167244 214.826199 
L 250.616458 145.134428 
" clip-path="url(#p05bf0e6f8a)" style="fill: none; stroke: #21918c; stroke-width: 1.5; stroke-linecap: square"/>
   </g>
   <g id="line2d_81">
    <path d="M 249.149652 266.016044 
L 239.667258 205.438733 
L 252.320537 143.586928 
" clip-path="url(#p05bf0e6f8a)" style="fill: none; stroke: #21918c; stroke-width: 1.5; stroke-linecap: square"/>
   </g>
   <g id="line2d_82">
    <path d="M 249.047586 261.995239 
L 239.787566 187.937776 
L 254.134625 137.202538 
" clip-path="url(#p05bf0e6f8a)" style="fill: none; stroke: #21918c; stroke-width: 1.5; stroke-linecap: square"/>
   </g>
   <g id="line2d_83">
    <path d="M 249.158445 257.562504 
L 240.699189 171.967386 
L 254.57947 134.601888 
" clip-path="url(#p05bf0e6f8a)" style="fill: none; stroke: #21918c; stroke-width: 1.5; stroke-linecap: square"/>
   </g>
   <g id="line2d_84">
    <path d="M 250.015808 259.689885 
L 241.24129 157.02993 
L 255.988634 136.330644 
" clip-path="url(#p05bf0e6f8a)" style="fill: none; stroke: #21918c; stroke-width: 1.5; stroke-linecap: square"/>
   </g>
   <g id="line2d_85">
    <path d="M 250.037237 258.957777 
L 242.250284 150.76753 
L 257.474339 137.347854 
" clip-path="url(#p05bf0e6f8a)" style="fill: none; stroke: #21918c; stroke-width: 1.5; stroke-linecap: square"/>
   </g>
   <g id="line2d_86">
    <path d="M 249.616295 254.575151 
L 244.611709 147.792963 
L 259.278996 134.051208 
" clip-path="url(#p05bf0e6f8a)" style="fill: none; stroke: #21918c; stroke-width: 1.5; stroke-linecap: square"/>
   </g>
   <g id="line2d_87">
    <path d="M 250.201603 253.25435 
L 246.577215 133.56999 
L 260.7653 123.941829 
" clip-path="url(#p05bf0e6f8a)" style="fill: none; stroke: #21918c; stroke-width: 1.5; stroke-linecap: square"/>
   </g>
   <g id="line2d_88">
    <path d="M 251.003353 244.3151 
L 247.385845 113.721692 
L 262.62501 103.531965 
" clip-path="url(#p05bf0e6f8a)" style="fill: none; stroke: #21918c; stroke-width: 1.5; stroke-linecap: square"/>
   </g>
   <g id="line2d_89">
    <path d="M 252.369986 228.321729 
L 250.327244 101.56476 
L 265.197949 96.796468 
" clip-path="url(#p05bf0e6f8a)" style="fill: none; stroke: #21918c; stroke-width: 1.5; stroke-linecap: square"/>
   </g>
   <g id="line2d_90">
    <path d="M 301.081132 189.749816 
L 298.253026 64.894048 
L 312.96584 74.388816 
" clip-path="url(#p05bf0e6f8a)" style="fill: none; stroke: #fde725; stroke-width: 1.5; stroke-linecap: square"/>
   </g>
   <g id="line2d_91">
    <path d="M 307.365936 184.175981 
L 301.738439 70.984695 
L 316.005885 71.032558 
" clip-path="url(#p05bf0e6f8a)" style="fill: none; stroke: #fde725; stroke-width: 1.5; stroke-linecap: square"/>
   </g>
   <g id="line2d_92">
    <path d="M 313.66618 182.726625 
L 305.288837 97.93826 
L 318.563714 60.670215 
" clip-path="url(#p05bf0e6f8a)" style="fill: none; stroke: #fde725; stroke-width: 1.5; stroke-linecap: square"/>
   </g>
   <g id="line2d_93">
    <path d="M 321.238585 184.463503 
L 309.282516 118.80325 
L 321.492282 57.789991 
" clip-path="url(#p05bf0e6f8a)" style="fill: none; stroke: #fde725; stroke-width: 1.5; stroke-linecap: square"/>
   </g>
   <g id="line2d_94">
    <path d="M 326.874429 185.019366 
L 313.93609 150.28251 
L 324.432832 65.91385 
" clip-path="url(#p05bf0e6f8a)" style="fill: none; stroke: #fde725; stroke-width: 1.5; stroke-linecap: square"/>
   </g>
   <g id="line2d_95">
    <path d="M 332.776378 185.297211 
L 318.983033 167.928783 
L 328.006843 60.439196 
" clip-path="url(#p05bf0e6f8a)" style="fill: none; stroke: #fde725; stroke-width: 1.5; stroke-linecap: square"/>
   </g>
   <g id="line2d_96">
    <path d="M 338.161597 190.131681 
L 324.049241 183.227196 
L 330.586816 67.594743 
" clip-path="url(#p05bf0e6f8a)" style="fill: none; stroke: #fde725; stroke-width: 1.5; stroke-linecap: square"/>
   </g>
   <g id="line2d_97">
    <path d="M 342.576527 190.11613 
L 329.673396 187.824426 
L 335.210981 55.634446 
" clip-path="url(#p05bf0e6f8a)" style="fill: none; stroke: #fde725; stroke-width: 1.5; stroke-linecap: square"/>
   </g>
   <g id="line2d_98">
    <path d="M 349.574503 203.83594 
L 333.910975 190.387063 
L 337.580618 57.078272 
" clip-path="url(#p05bf0e6f8a)" style="fill: none; stroke: #fde725; stroke-width: 1.5; stroke-linecap: square"/>
   </g>
   <g id="line2d_99">
    <path d="M 348.391694 209.582391 
L 334.508611 191.549071 
L 339.807764 56.291045 
" clip-path="url(#p05bf0e6f8a)" style="fill: none; stroke: #fde725; stroke-width: 1.5; stroke-linecap: square"/>
   </g>
   <g id="line2d_100">
    <path d="M 349.598 200.305338 
L 335.196874 185.613588 
L 341.355284 53.984654 
" clip-path="url(#p05bf0e6f8a)" style="fill: none; stroke: #fde725; stroke-width: 1.5; stroke-linecap: square"/>
   </g>
   <g id="line2d_101">
    <path d="M 349.579353 209.456255 
L 335.484929 186.403926 
L 342.7938 61.085946 
" clip-path="url(#p05bf0e6f8a)" style="fill: none; stroke: #fde725; stroke-width: 1.5; stroke-linecap: square"/>
   </g>
   <g id="line2d_102">
    <path d="M 349.14442 210.020239 
L 335.383597 185.01591 
L 343.22883 60.778035 
" clip-path="url(#p05bf0e6f8a)" style="fill: none; stroke: #fde725; stroke-width: 1.5; stroke-linecap: square"/>
   </g>
   <g id="line2d_103">
    <path d="M 348.853158 211.833317 
L 335.76568 184.75448 
L 344.51384 64.982516 
" clip-path="url(#p05bf0e6f8a)" style="fill: none; stroke: #fde725; stroke-width: 1.5; stroke-linecap: square"/>
   </g>
   <g id="line2d_104">
    <path d="M 349.484938 205.487287 
L 335.729333 176.65222 
L 345.029661 67.684766 
" clip-path="url(#p05bf0e6f8a)" style="fill: none; stroke: #fde725; stroke-width: 1.5; stroke-linecap: square"/>
   </g>
   <g id="line2d_105">
    <path d="M 349.458987 204.909134 
L 335.667111 176.09532 
L 345.67234 75.94029 
" clip-path="url(#p05bf0e6f8a)" style="fill: none; stroke: #fde725; stroke-width: 1.5; stroke-linecap: square"/>
   </g>
   <g id="line2d_106">
    <path d="M 349.30637 205.118727 
L 335.774743 166.938701 
L 347.620687 75.182955 
" clip-path="url(#p05bf0e6f8a)" style="fill: none; stroke: #fde725; stroke-width: 1.5; stroke-linecap: square"/>
   </g>
   <g id="line2d_107">
    <path d="M 349.307356 203.168628 
L 336.541498 158.052323 
L 349.508977 82.688573 
" clip-path="url(#p05bf0e6f8a)" style="fill: none; stroke: #fde725; stroke-width: 1.5; stroke-linecap: square"/>
   </g>
   <g id="line2d_108">
    <path d="M 349.526503 205.791914 
L 338.061502 158.377513 
L 350.531227 88.464745 
" clip-path="url(#p05bf0e6f8a)" style="fill: none; stroke: #fde725; stroke-width: 1.5; stroke-linecap: square"/>
   </g>
   <g id="line2d_109">
    <path d="M 347.971196 211.261903 
L 338.625573 146.514323 
L 352.592674 86.35136 
" clip-path="url(#p05bf0e6f8a)" style="fill: none; stroke: #fde725; stroke-width: 1.5; stroke-linecap: square"/>
   </g>
   <g id="line2d_110">
    <path d="M 348.444814 207.967503 
L 339.60135 135.687695 
L 354.462838 89.139659 
" clip-path="url(#p05bf0e6f8a)" style="fill: none; stroke: #fde725; stroke-width: 1.5; stroke-linecap: square"/>
   </g>
   <g id="line2d_111">
    <path d="M 348.49863 204.9919 
L 340.968351 126.913458 
L 355.636527 92.181787 
" clip-path="url(#p05bf0e6f8a)" style="fill: none; stroke: #fde725; stroke-width: 1.5; stroke-linecap: square"/>
   </g>
   <g id="line2d_112">
    <path d="M 346.220451 205.649017 
L 341.842351 108.3203 
L 356.801848 96.791458 
" clip-path="url(#p05bf0e6f8a)" style="fill: none; stroke: #fde725; stroke-width: 1.5; stroke-linecap: square"/>
   </g>
   <g id="line2d_113">
    <path d="M 347.277077 208.353687 
L 343.164193 110.451137 
L 358.571936 102.600977 
" clip-path="url(#p05bf0e6f8a)" style="fill: none; stroke: #fde725; stroke-width: 1.5; stroke-linecap: square"/>
   </g>
   <g id="line2d_114">
    <path d="M 347.207861 201.300603 
L 345.283803 98.013941 
L 361.107446 104.006272 
" clip-path="url(#p05bf0e6f8a)" style="fill: none; stroke: #fde725; stroke-width: 1.5; stroke-linecap: square"/>
   </g>
   <g id="line2d_115">
    <path d="M 347.548978 197.853113 
L 347.665556 87.205457 
L 362.274371 100.615629 
" clip-path="url(#p05bf0e6f8a)" style="fill: none; stroke: #fde725; stroke-width: 1.5; stroke-linecap: square"/>
   </g>
   <g id="line2d_116">
    <path d="M 348.4195 200.322962 
L 349.361384 81.787823 
L 364.186042 101.303503 
" clip-path="url(#p05bf0e6f8a)" style="fill: none; stroke: #fde725; stroke-width: 1.5; stroke-linecap: square"/>
   </g>
   <g id="line2d_117">
    <path d="M 348.525026 187.850863 
L 351.314891 74.122375 
L 366.68932 100.307373 
" clip-path="url(#p05bf0e6f8a)" style="fill: none; stroke: #fde725; stroke-width: 1.5; stroke-linecap: square"/>
   </g>
   <g id="line2d_118">
    <path d="M 350.211095 180.802444 
L 354.603571 62.120262 
L 369.5536 87.293234 
" clip-path="url(#p05bf0e6f8a)" style="fill: none; stroke: #fde725; stroke-width: 1.5; stroke-linecap: square"/>
   </g>
   <g id="patch_3">
    <path d="M 47.389063 288.430125 
L 47.389063 22.318125 
" style="fill: none; stroke: #000000; stroke-width: 0.8; stroke-linejoin: miter; stroke-linecap: square"/>
   </g>
   <g id="patch_4">
    <path d="M 404.509063 288.430125 
L 404.509063 22.318125 
" style="fill: none; stroke: #000000; stroke-width: 0.8; stroke-linejoin: miter; stroke-linecap: square"/>
   </g>
   <g id="patch_5">
    <path d="M 47.389063 288.430125 
L 404.509063 288.430125 
" style="fill: none; stroke: #000000; stroke-width: 0.8; stroke-linejoin: miter; stroke-linecap: square"/>
   </g>
   <g id="patch_6">
    <path d="M 47.389063 22.318125 
L 404.509063 22.318125 
" style="fill: none; stroke: #000000; stroke-width: 0.8; stroke-linejoin: miter; stroke-linecap: square"/>
   </g>
   <g id="text_16">
    <!-- ID 15 - Run 3 - Hindlimb Stick Diagram -->
    <g transform="translate(109.878125 16.318125) scale(0.12 -0.12)">
     <defs>
      <path id="DejaVuSans-49" d="M 628 4666 
L 1259 4666 
L 1259 0 
L 628 0 
L 628 4666 
z
" transform="scale(0.015625)"/>
      <path id="DejaVuSans-44" d="M 1259 4147 
L 1259 519 
L 2022 519 
Q 2988 519 3436 956 
Q 3884 1394 3884 2338 
Q 3884 3275 3436 3711 
Q 2988 4147 2022 4147 
L 1259 4147 
z
M 628 4666 
L 1925 4666 
Q 3281 4666 3915 4102 
Q 4550 3538 4550 2338 
Q 4550 1131 3912 565 
Q 3275 0 1925 0 
L 628 0 
L 628 4666 
z
" transform="scale(0.015625)"/>
      <path id="DejaVuSans-52" d="M 2841 2188 
Q 3044 2119 3236 1894 
Q 3428 1669 3622 1275 
L 4263 0 
L 3584 0 
L 2988 1197 
Q 2756 1666 2539 1819 
Q 2322 1972 1947 1972 
L 1259 1972 
L 1259 0 
L 628 0 
L 628 4666 
L 2053 4666 
Q 2853 4666 3247 4331 
Q 3641 3997 3641 3322 
Q 3641 2881 3436 2590 
Q 3231 2300 2841 2188 
z
M 1259 4147 
L 1259 2491 
L 2053 2491 
Q 2509 2491 2742 2702 
Q 2975 2913 2975 3322 
Q 2975 3731 2742 3939 
Q 2509 4147 2053 4147 
L 1259 4147 
z
" transform="scale(0.015625)"/>
      <path id="DejaVuSans-75" d="M 544 1381 
L 544 3500 
L 1119 3500 
L 1119 1403 
Q 1119 906 1312 657 
Q 1506 409 1894 409 
Q 2359 409 2629 706 
Q 2900 1003 2900 1516 
L 2900 3500 
L 3475 3500 
L 3475 0 
L 2900 0 
L 2900 538 
Q 2691 219 2414 64 
Q 2138 -91 1772 -91 
Q 1169 -91 856 284 
Q 544 659 544 1381 
z
M 1991 3584 
L 1991 3584 
z
" transform="scale(0.015625)"/>
      <path id="DejaVuSans-6e" d="M 3513 2113 
L 3513 0 
L 2938 0 
L 2938 2094 
Q 2938 2591 2744 2837 
Q 2550 3084 2163 3084 
Q 1697 3084 1428 2787 
Q 1159 2491 1159 1978 
L 1159 0 
L 581 0 
L 581 3500 
L 1159 3500 
L 1159 2956 
Q 1366 3272 1645 3428 
Q 1925 3584 2291 3584 
Q 2894 3584 3203 3211 
Q 3513 2838 3513 2113 
z
" transform="scale(0.015625)"/>
      <path id="DejaVuSans-48" d="M 628 4666 
L 1259 4666 
L 1259 2753 
L 3553 2753 
L 3553 4666 
L 4184 4666 
L 4184 0 
L 3553 0 
L 3553 2222 
L 1259 2222 
L 1259 0 
L 628 0 
L 628 4666 
z
" transform="scale(0.015625)"/>
      <path id="DejaVuSans-69" d="M 603 3500 
L 1178 3500 
L 1178 0 
L 603 0 
L 603 3500 
z
M 603 4863 
L 1178 4863 
L 1178 4134 
L 603 4134 
L 603 4863 
z
" transform="scale(0.015625)"/>
      <path id="DejaVuSans-64" d="M 2906 2969 
L 2906 4863 
L 3481 4863 
L 3481 0 
L 2906 0 
L 2906 525 
Q 2725 213 2448 61 
Q 2172 -91 1784 -91 
Q 1150 -91 751 415 
Q 353 922 353 1747 
Q 353 2572 751 3078 
Q 1150 3584 1784 3584 
Q 2172 3584 2448 3432 
Q 2725 3281 2906 2969 
z
M 947 1747 
Q 947 1113 1208 752 
Q 1469 391 1925 391 
Q 2381 391 2643 752 
Q 2906 1113 2906 1747 
Q 2906 2381 2643 2742 
Q 2381 3103 1925 3103 
Q 1469 3103 1208 2742 
Q 947 2381 947 1747 
z
" transform="scale(0.015625)"/>
      <path id="DejaVuSans-6c" d="M 603 4863 
L 1178 4863 
L 1178 0 
L 603 0 
L 603 4863 
z
" transform="scale(0.015625)"/>
      <path id="DejaVuSans-62" d="M 3116 1747 
Q 3116 2381 2855 2742 
Q 2594 3103 2138 3103 
Q 1681 3103 1420 2742 
Q 1159 2381 1159 1747 
Q 1159 1113 1420 752 
Q 1681 391 2138 391 
Q 2594 391 2855 752 
Q 3116 1113 3116 1747 
z
M 1159 2969 
Q 1341 3281 1617 3432 
Q 1894 3584 2278 3584 
Q 2916 3584 3314 3078 
Q 3713 2572 3713 1747 
Q 3713 922 3314 415 
Q 2916 -91 2278 -91 
Q 1894 -91 1617 61 
Q 1341 213 1159 525 
L 1159 0 
L 581 0 
L 581 4863 
L 1159 4863 
L 1159 2969 
z
" transform="scale(0.015625)"/>
      <path id="DejaVuSans-53" d="M 3425 4513 
L 3425 3897 
Q 3066 4069 2747 4153 
Q 2428 4238 2131 4238 
Q 1616 4238 1336 4038 
Q 1056 3838 1056 3469 
Q 1056 3159 1242 3001 
Q 1428 2844 1947 2747 
L 2328 2669 
Q 3034 2534 3370 2195 
Q 3706 1856 3706 1288 
Q 3706 609 3251 259 
Q 2797 -91 1919 -91 
Q 1588 -91 1214 -16 
Q 841 59 441 206 
L 441 856 
Q 825 641 1194 531 
Q 1563 422 1919 422 
Q 2459 422 2753 634 
Q 3047 847 3047 1241 
Q 3047 1584 2836 1778 
Q 2625 1972 2144 2069 
L 1759 2144 
Q 1053 2284 737 2584 
Q 422 2884 422 3419 
Q 422 4038 858 4394 
Q 1294 4750 2059 4750 
Q 2388 4750 2728 4690 
Q 3069 4631 3425 4513 
z
" transform="scale(0.015625)"/>
      <path id="DejaVuSans-74" d="M 1172 4494 
L 1172 3500 
L 2356 3500 
L 2356 3053 
L 1172 3053 
L 1172 1153 
Q 1172 725 1289 603 
Q 1406 481 1766 481 
L 2356 481 
L 2356 0 
L 1766 0 
Q 1100 0 847 248 
Q 594 497 594 1153 
L 594 3053 
L 172 3053 
L 172 3500 
L 594 3500 
L 594 4494 
L 1172 4494 
z
" transform="scale(0.015625)"/>
      <path id="DejaVuSans-6b" d="M 581 4863 
L 1159 4863 
L 1159 1991 
L 2875 3500 
L 3609 3500 
L 1753 1863 
L 3688 0 
L 2938 0 
L 1159 1709 
L 1159 0 
L 581 0 
L 581 4863 
z
" transform="scale(0.015625)"/>
      <path id="DejaVuSans-61" d="M 2194 1759 
Q 1497 1759 1228 1600 
Q 959 1441 959 1056 
Q 959 750 1161 570 
Q 1363 391 1709 391 
Q 2188 391 2477 730 
Q 2766 1069 2766 1631 
L 2766 1759 
L 2194 1759 
z
M 3341 1997 
L 3341 0 
L 2766 0 
L 2766 531 
Q 2569 213 2275 61 
Q 1981 -91 1556 -91 
Q 1019 -91 701 211 
Q 384 513 384 1019 
Q 384 1609 779 1909 
Q 1175 2209 1959 2209 
L 2766 2209 
L 2766 2266 
Q 2766 2663 2505 2880 
Q 2244 3097 1772 3097 
Q 1472 3097 1187 3025 
Q 903 2953 641 2809 
L 641 3341 
Q 956 3463 1253 3523 
Q 1550 3584 1831 3584 
Q 2591 3584 2966 3190 
Q 3341 2797 3341 1997 
z
" transform="scale(0.015625)"/>
      <path id="DejaVuSans-67" d="M 2906 1791 
Q 2906 2416 2648 2759 
Q 2391 3103 1925 3103 
Q 1463 3103 1205 2759 
Q 947 2416 947 1791 
Q 947 1169 1205 825 
Q 1463 481 1925 481 
Q 2391 481 2648 825 
Q 2906 1169 2906 1791 
z
M 3481 434 
Q 3481 -459 3084 -895 
Q 2688 -1331 1869 -1331 
Q 1566 -1331 1297 -1286 
Q 1028 -1241 775 -1147 
L 775 -588 
Q 1028 -725 1275 -790 
Q 1522 -856 1778 -856 
Q 2344 -856 2625 -561 
Q 2906 -266 2906 331 
L 2906 616 
Q 2728 306 2450 153 
Q 2172 0 1784 0 
Q 1141 0 747 490 
Q 353 981 353 1791 
Q 353 2603 747 3093 
Q 1141 3584 1784 3584 
Q 2172 3584 2450 3431 
Q 2728 3278 2906 2969 
L 2906 3500 
L 3481 3500 
L 3481 434 
z
" transform="scale(0.015625)"/>
      <path id="DejaVuSans-72" d="M 2631 2963 
Q 2534 3019 2420 3045 
Q 2306 3072 2169 3072 
Q 1681 3072 1420 2755 
Q 1159 2438 1159 1844 
L 1159 0 
L 581 0 
L 581 3500 
L 1159 3500 
L 1159 2956 
Q 1341 3275 1631 3429 
Q 1922 3584 2338 3584 
Q 2397 3584 2469 3576 
Q 2541 3569 2628 3553 
L 2631 2963 
z
" transform="scale(0.015625)"/>
     </defs>
     <use xlink:href="#DejaVuSans-49"/>
     <use xlink:href="#DejaVuSans-44" x="29.492188"/>
     <use xlink:href="#DejaVuSans-20" x="106.494141"/>
     <use xlink:href="#DejaVuSans-31" x="138.28125"/>
     <use xlink:href="#DejaVuSans-35" x="201.904297"/>
     <use xlink:href="#DejaVuSans-20" x="265.527344"/>
     <use xlink:href="#DejaVuSans-2d" x="297.314453"/>
     <use xlink:href="#DejaVuSans-20" x="333.398438"/>
     <use xlink:href="#DejaVuSans-52" x="365.185547"/>
     <use xlink:href="#DejaVuSans-75" x="430.167969"/>
     <use xlink:href="#DejaVuSans-6e" x="493.546875"/>
     <use xlink:href="#DejaVuSans-20" x="556.925781"/>
     <use xlink:href="#DejaVuSans-33" x="588.712891"/>
     <use xlink:href="#DejaVuSans-20" x="652.335938"/>
     <use xlink:href="#DejaVuSans-2d" x="684.123047"/>
     <use xlink:href="#DejaVuSans-20" x="720.207031"/>
     <use xlink:href="#DejaVuSans-48" x="751.994141"/>
     <use xlink:href="#DejaVuSans-69" x="827.189453"/>
     <use xlink:href="#DejaVuSans-6e" x="854.972656"/>
     <use xlink:href="#DejaVuSans-64" x="918.351562"/>
     <use xlink:href="#DejaVuSans-6c" x="981.828125"/>
     <use xlink:href="#DejaVuSans-69" x="1009.611328"/>
     <use xlink:href="#DejaVuSans-6d" x="1037.394531"/>
     <use xlink:href="#DejaVuSans-62" x="1134.806641"/>
     <use xlink:href="#DejaVuSans-20" x="1198.283203"/>
     <use xlink:href="#DejaVuSans-53" x="1230.070312"/>
     <use xlink:href="#DejaVuSans-74" x="1293.546875"/>
     <use xlink:href="#DejaVuSans-69" x="1332.755859"/>
     <use xlink:href="#DejaVuSans-63" x="1360.539062"/>
     <use xlink:href="#DejaVuSans-6b" x="1415.519531"/>
     <use xlink:href="#DejaVuSans-20" x="1473.429688"/>
     <use xlink:href="#DejaVuSans-44" x="1505.216797"/>
     <use xlink:href="#DejaVuSans-69" x="1582.21875"/>
     <use xlink:href="#DejaVuSans-61" x="1610.001953"/>
     <use xlink:href="#DejaVuSans-67" x="1671.28125"/>
     <use xlink:href="#DejaVuSans-72" x="1734.757812"/>
     <use xlink:href="#DejaVuSans-61" x="1775.871094"/>
     <use xlink:href="#DejaVuSans-6d" x="1837.150391"/>
    </g>
   </g>
   <g id="legend_1">
    <g id="patch_7">
     <path d="M 52.289063 58.742188 
L 112.032969 58.742188 
Q 113.432969 58.742188 113.432969 57.342188 
L 113.432969 27.218125 
Q 113.432969 25.818125 112.032969 25.818125 
L 52.289063 25.818125 
Q 50.889063 25.818125 50.889063 27.218125 
L 50.889063 57.342188 
Q 50.889063 58.742188 52.289063 58.742188 
z
" style="fill: #ffffff; opacity: 0.8; stroke: #cccccc; stroke-linejoin: miter"/>
    </g>
    <g id="line2d_119">
     <path d="M 53.689063 31.487031 
L 60.689063 31.487031 
L 67.689063 31.487031 
" style="fill: none; stroke: #440154; stroke-width: 1.5; stroke-linecap: square"/>
    </g>
    <g id="text_17">
     <!-- 2.84-3.17s -->
     <g transform="translate(73.289062 33.937031) scale(0.07 -0.07)">
      <defs>
       <path id="DejaVuSans-38" d="M 2034 2216 
Q 1584 2216 1326 1975 
Q 1069 1734 1069 1313 
Q 1069 891 1326 650 
Q 1584 409 2034 409 
Q 2484 409 2743 651 
Q 3003 894 3003 1313 
Q 3003 1734 2745 1975 
Q 2488 2216 2034 2216 
z
M 1403 2484 
Q 997 2584 770 2862 
Q 544 3141 544 3541 
Q 544 4100 942 4425 
Q 1341 4750 2034 4750 
Q 2731 4750 3128 4425 
Q 3525 4100 3525 3541 
Q 3525 3141 3298 2862 
Q 3072 2584 2669 2484 
Q 3125 2378 3379 2068 
Q 3634 1759 3634 1313 
Q 3634 634 3220 271 
Q 2806 -91 2034 -91 
Q 1263 -91 848 271 
Q 434 634 434 1313 
Q 434 1759 690 2068 
Q 947 2378 1403 2484 
z
M 1172 3481 
Q 1172 3119 1398 2916 
Q 1625 2713 2034 2713 
Q 2441 2713 2670 2916 
Q 2900 3119 2900 3481 
Q 2900 3844 2670 4047 
Q 2441 4250 2034 4250 
Q 1625 4250 1398 4047 
Q 1172 3844 1172 3481 
z
" transform="scale(0.015625)"/>
       <path id="DejaVuSans-34" d="M 2419 4116 
L 825 1625 
L 2419 1625 
L 2419 4116 
z
M 2253 4666 
L 3047 4666 
L 3047 1625 
L 3713 1625 
L 3713 1100 
L 3047 1100 
L 3047 0 
L 2419 0 
L 2419 1100 
L 313 1100 
L 313 1709 
L 2253 4666 
z
" transform="scale(0.015625)"/>
       <path id="DejaVuSans-37" d="M 525 4666 
L 3525 4666 
L 3525 4397 
L 1831 0 
L 1172 0 
L 2766 4134 
L 525 4134 
L 525 4666 
z
" transform="scale(0.015625)"/>
       <path id="DejaVuSans-73" d="M 2834 3397 
L 2834 2853 
Q 2591 2978 2328 3040 
Q 2066 3103 1784 3103 
Q 1356 3103 1142 2972 
Q 928 2841 928 2578 
Q 928 2378 1081 2264 
Q 1234 2150 1697 2047 
L 1894 2003 
Q 2506 1872 2764 1633 
Q 3022 1394 3022 966 
Q 3022 478 2636 193 
Q 2250 -91 1575 -91 
Q 1294 -91 989 -36 
Q 684 19 347 128 
L 347 722 
Q 666 556 975 473 
Q 1284 391 1588 391 
Q 1994 391 2212 530 
Q 2431 669 2431 922 
Q 2431 1156 2273 1281 
Q 2116 1406 1581 1522 
L 1381 1569 
Q 847 1681 609 1914 
Q 372 2147 372 2553 
Q 372 3047 722 3315 
Q 1072 3584 1716 3584 
Q 2034 3584 2315 3537 
Q 2597 3491 2834 3397 
z
" transform="scale(0.015625)"/>
      </defs>
      <use xlink:href="#DejaVuSans-32"/>
      <use xlink:href="#DejaVuSans-2e" x="63.623047"/>
      <use xlink:href="#DejaVuSans-38" x="95.410156"/>
      <use xlink:href="#DejaVuSans-34" x="159.033203"/>
      <use xlink:href="#DejaVuSans-2d" x="222.65625"/>
      <use xlink:href="#DejaVuSans-33" x="258.740234"/>
      <use xlink:href="#DejaVuSans-2e" x="322.363281"/>
      <use xlink:href="#DejaVuSans-31" x="354.150391"/>
      <use xlink:href="#DejaVuSans-37" x="417.773438"/>
      <use xlink:href="#DejaVuSans-73" x="481.396484"/>
     </g>
    </g>
    <g id="line2d_120">
     <path d="M 53.689063 41.761719 
L 60.689063 41.761719 
L 67.689063 41.761719 
" style="fill: none; stroke: #21918c; stroke-width: 1.5; stroke-linecap: square"/>
    </g>
    <g id="text_18">
     <!-- 3.18-3.59s -->
     <g transform="translate(73.289062 44.211719) scale(0.07 -0.07)">
      <defs>
       <path id="DejaVuSans-39" d="M 703 97 
L 703 672 
Q 941 559 1184 500 
Q 1428 441 1663 441 
Q 2288 441 2617 861 
Q 2947 1281 2994 2138 
Q 2813 1869 2534 1725 
Q 2256 1581 1919 1581 
Q 1219 1581 811 2004 
Q 403 2428 403 3163 
Q 403 3881 828 4315 
Q 1253 4750 1959 4750 
Q 2769 4750 3195 4129 
Q 3622 3509 3622 2328 
Q 3622 1225 3098 567 
Q 2575 -91 1691 -91 
Q 1453 -91 1209 -44 
Q 966 3 703 97 
z
M 1959 2075 
Q 2384 2075 2632 2365 
Q 2881 2656 2881 3163 
Q 2881 3666 2632 3958 
Q 2384 4250 1959 4250 
Q 1534 4250 1286 3958 
Q 1038 3666 1038 3163 
Q 1038 2656 1286 2365 
Q 1534 2075 1959 2075 
z
" transform="scale(0.015625)"/>
      </defs>
      <use xlink:href="#DejaVuSans-33"/>
      <use xlink:href="#DejaVuSans-2e" x="63.623047"/>
      <use xlink:href="#DejaVuSans-31" x="95.410156"/>
      <use xlink:href="#DejaVuSans-38" x="159.033203"/>
      <use xlink:href="#DejaVuSans-2d" x="222.65625"/>
      <use xlink:href="#DejaVuSans-33" x="258.740234"/>
      <use xlink:href="#DejaVuSans-2e" x="322.363281"/>
      <use xlink:href="#DejaVuSans-35" x="354.150391"/>
      <use xlink:href="#DejaVuSans-39" x="417.773438"/>
      <use xlink:href="#DejaVuSans-73" x="481.396484"/>
     </g>
    </g>
    <g id="line2d_121">
     <path d="M 53.689063 52.036406 
L 60.689063 52.036406 
L 67.689063 52.036406 
" style="fill: none; stroke: #fde725; stroke-width: 1.5; stroke-linecap: square"/>
    </g>
    <g id="text_19">
     <!-- 4.13-4.41s -->
     <g transform="translate(73.289062 54.486406) scale(0.07 -0.07)">
      <use xlink:href="#DejaVuSans-34"/>
      <use xlink:href="#DejaVuSans-2e" x="63.623047"/>
      <use xlink:href="#DejaVuSans-31" x="95.410156"/>
      <use xlink:href="#DejaVuSans-33" x="159.033203"/>
      <use xlink:href="#DejaVuSans-2d" x="222.65625"/>
      <use xlink:href="#DejaVuSans-34" x="258.740234"/>
      <use xlink:href="#DejaVuSans-2e" x="322.363281"/>
      <use xlink:href="#DejaVuSans-34" x="354.150391"/>
      <use xlink:href="#DejaVuSans-31" x="417.773438"/>
      <use xlink:href="#DejaVuSans-73" x="481.396484"/>
     </g>
    </g>
   </g>
  </g>
 </g>
 <defs>
  <clipPath id="p05bf0e6f8a">
   <rect x="47.389063" y="22.318125" width="357.12" height="266.112"/>
  </clipPath>
 </defs>
</svg>
