<?xml version="1.0" encoding="utf-8" standalone="no"?>
<!DOCTYPE svg PUBLIC "-//W3C//DTD SVG 1.1//EN"
  "http://www.w3.org/Graphics/SVG/1.1/DTD/svg11.dtd">
<svg xmlns:xlink="http://www.w3.org/1999/xlink" width="411.709063pt" height="325.986375pt" viewBox="0 0 411.709063 325.986375" xmlns="http://www.w3.org/2000/svg" version="1.1">
 <metadata>
  <rdf:RDF xmlns:dc="http://purl.org/dc/elements/1.1/" xmlns:cc="http://creativecommons.org/ns#" xmlns:rdf="http://www.w3.org/1999/02/22-rdf-syntax-ns#">
   <cc:Work>
    <dc:type rdf:resource="http://purl.org/dc/dcmitype/StillImage"/>
    <dc:date>2024-04-05T15:48:54.195387</dc:date>
    <dc:format>image/svg+xml</dc:format>
    <dc:creator>
     <cc:Agent>
      <dc:title>Matplotlib v3.7.1, https://matplotlib.org/</dc:title>
     </cc:Agent>
    </dc:creator>
   </cc:Work>
  </rdf:RDF>
 </metadata>
 <defs>
  <style type="text/css">*{stroke-linejoin: round; stroke-linecap: butt}</style>
 </defs>
 <g id="figure_1">
  <g id="patch_1">
   <path d="M 0 325.986375 
L 411.709063 325.986375 
L 411.709063 0 
L 0 0 
z
" style="fill: #ffffff"/>
  </g>
  <g id="axes_1">
   <g id="patch_2">
    <path d="M 47.389063 288.430125 
L 404.509063 288.430125 
L 404.509063 22.318125 
L 47.389063 22.318125 
z
" style="fill: #ffffff"/>
   </g>
   <g id="PolyCollection_1">
    <path d="M 63.62179 232.396994 
L 63.62179 242.932411 
L 77.149063 246.592538 
L 90.676335 236.108151 
L 104.203608 237.214232 
L 117.730881 243.529378 
L 131.258153 239.81717 
L 144.785426 257.72161 
L 158.312699 263.758943 
L 171.839972 254.613608 
L 185.367244 241.943262 
L 198.894517 200.847926 
L 212.42179 135.727576 
L 225.949062 97.111184 
L 239.476335 90.905741 
L 253.003608 121.749801 
L 266.530881 177.496936 
L 280.058153 195.49994 
L 293.585426 200.451798 
L 307.112699 208.172117 
L 320.639972 220.711641 
L 334.167244 233.878429 
L 347.694517 238.089929 
L 361.22179 233.788473 
L 374.749063 236.028741 
L 388.276335 238.617765 
L 388.276335 231.994952 
L 388.276335 231.994952 
L 374.749063 225.843289 
L 361.22179 226.553437 
L 347.694517 206.38633 
L 334.167244 157.829439 
L 320.639972 119.185449 
L 307.112699 95.864513 
L 293.585426 73.498051 
L 280.058153 63.418039 
L 266.530881 51.387611 
L 253.003608 42.6218 
L 239.476335 39.614865 
L 225.949062 47.816085 
L 212.42179 67.784888 
L 198.894517 90.529876 
L 185.367244 117.940431 
L 171.839972 99.787194 
L 158.312699 74.394812 
L 144.785426 105.950306 
L 131.258153 178.646049 
L 117.730881 227.186366 
L 104.203608 232.662962 
L 90.676335 232.163839 
L 77.149063 233.622203 
L 63.62179 232.396994 
z
" clip-path="url(#p4ea4df98b1)" style="fill: #440154; fill-opacity: 0.2"/>
   </g>
   <g id="PolyCollection_2">
    <path d="M 63.62179 223.430322 
L 63.62179 233.385914 
L 77.149063 225.983927 
L 90.676335 221.583895 
L 104.203608 222.216648 
L 117.730881 220.351815 
L 131.258153 217.906839 
L 144.785426 221.317288 
L 158.312699 217.341709 
L 171.839972 206.786527 
L 185.367244 184.560878 
L 198.894517 156.904197 
L 212.42179 141.325134 
L 225.949062 150.999817 
L 239.476335 157.78668 
L 253.003608 150.896016 
L 266.530881 173.007054 
L 280.058153 201.630271 
L 293.585426 201.062869 
L 307.112699 204.788644 
L 320.639972 216.288344 
L 334.167244 236.618316 
L 347.694517 238.4328 
L 361.22179 230.037089 
L 374.749063 238.959291 
L 388.276335 246.273108 
L 388.276335 229.636464 
L 388.276335 229.636464 
L 374.749063 229.52848 
L 361.22179 228.488086 
L 347.694517 189.383049 
L 334.167244 133.007377 
L 320.639972 103.598386 
L 307.112699 89.766465 
L 293.585426 85.441989 
L 280.058153 90.658995 
L 266.530881 110.288244 
L 253.003608 117.702983 
L 239.476335 100.27538 
L 225.949062 111.63637 
L 212.42179 125.327214 
L 198.894517 121.0355 
L 185.367244 147.844035 
L 171.839972 161.805095 
L 158.312699 161.596855 
L 144.785426 159.207445 
L 131.258153 155.567212 
L 117.730881 202.67771 
L 104.203608 201.599959 
L 90.676335 209.041579 
L 77.149063 216.541883 
L 63.62179 223.430322 
z
" clip-path="url(#p4ea4df98b1)" style="fill: #3b528b; fill-opacity: 0.2"/>
   </g>
   <g id="PolyCollection_3">
    <path d="M 63.62179 198.933564 
L 63.62179 216.474561 
L 77.149063 214.89025 
L 90.676335 211.232747 
L 104.203608 208.460004 
L 117.730881 213.572736 
L 131.258153 222.495695 
L 144.785426 222.274105 
L 158.312699 229.061704 
L 171.839972 217.058121 
L 185.367244 179.763102 
L 198.894517 155.649301 
L 212.42179 160.049307 
L 225.949062 168.985846 
L 239.476335 171.688225 
L 253.003608 165.198399 
L 266.530881 172.578577 
L 280.058153 190.31812 
L 293.585426 189.351491 
L 307.112699 195.115805 
L 320.639972 199.195276 
L 334.167244 200.680404 
L 347.694517 204.264845 
L 361.22179 211.313981 
L 374.749063 212.772871 
L 388.276335 217.284484 
L 388.276335 202.626402 
L 388.276335 202.626402 
L 374.749063 206.312731 
L 361.22179 203.180827 
L 347.694517 186.74913 
L 334.167244 165.131111 
L 320.639972 163.508264 
L 307.112699 158.531132 
L 293.585426 152.049153 
L 280.058153 144.956642 
L 266.530881 161.453399 
L 253.003608 159.674812 
L 239.476335 146.876883 
L 225.949062 158.909449 
L 212.42179 113.398734 
L 198.894517 105.461481 
L 185.367244 163.393441 
L 171.839972 180.867783 
L 158.312699 186.983671 
L 144.785426 162.077838 
L 131.258153 135.479162 
L 117.730881 200.63967 
L 104.203608 202.498691 
L 90.676335 200.692001 
L 77.149063 201.953484 
L 63.62179 198.933564 
z
" clip-path="url(#p4ea4df98b1)" style="fill: #21918c; fill-opacity: 0.2"/>
   </g>
   <g id="PolyCollection_4">
    <path d="M 63.62179 181.415401 
L 63.62179 202.957745 
L 77.149063 198.520672 
L 90.676335 197.425129 
L 104.203608 195.127068 
L 117.730881 191.30502 
L 131.258153 191.481627 
L 144.785426 203.078801 
L 158.312699 204.884827 
L 171.839972 200.048356 
L 185.367244 196.813663 
L 198.894517 179.589536 
L 212.42179 185.534968 
L 225.949062 193.980572 
L 239.476335 187.233268 
L 253.003608 189.883721 
L 266.530881 201.312973 
L 280.058153 193.84276 
L 293.585426 187.498006 
L 307.112699 186.096267 
L 320.639972 188.696442 
L 334.167244 195.778401 
L 347.694517 202.209693 
L 361.22179 213.40509 
L 374.749063 204.751004 
L 388.276335 201.460768 
L 388.276335 188.977027 
L 388.276335 188.977027 
L 374.749063 189.946262 
L 361.22179 192.279195 
L 347.694517 185.818341 
L 334.167244 169.759891 
L 320.639972 178.143817 
L 307.112699 157.06258 
L 293.585426 155.897563 
L 280.058153 168.734429 
L 266.530881 163.246612 
L 253.003608 182.609589 
L 239.476335 175.941951 
L 225.949062 172.340275 
L 212.42179 169.136213 
L 198.894517 170.268061 
L 185.367244 186.648092 
L 171.839972 193.097407 
L 158.312699 195.711427 
L 144.785426 200.986269 
L 131.258153 182.832342 
L 117.730881 189.592524 
L 104.203608 184.229107 
L 90.676335 180.431811 
L 77.149063 180.292026 
L 63.62179 181.415401 
z
" clip-path="url(#p4ea4df98b1)" style="fill: #5ec962; fill-opacity: 0.2"/>
   </g>
   <g id="PolyCollection_5">
    <path d="M 63.62179 186.921452 
L 63.62179 200.137774 
L 77.149063 197.367845 
L 90.676335 194.759116 
L 104.203608 199.311579 
L 117.730881 193.176893 
L 131.258153 183.730833 
L 144.785426 201.389919 
L 158.312699 195.461831 
L 171.839972 209.026669 
L 185.367244 199.012666 
L 198.894517 191.483647 
L 212.42179 181.890624 
L 225.949062 194.851589 
L 239.476335 201.026618 
L 253.003608 198.331317 
L 266.530881 220.036232 
L 280.058153 223.149356 
L 293.585426 191.672227 
L 307.112699 184.897874 
L 320.639972 192.62598 
L 334.167244 194.835275 
L 347.694517 206.184195 
L 361.22179 203.151448 
L 374.749063 195.510479 
L 388.276335 204.319891 
L 388.276335 175.586257 
L 388.276335 175.586257 
L 374.749063 178.613062 
L 361.22179 194.326645 
L 347.694517 186.152554 
L 334.167244 170.914036 
L 320.639972 177.503969 
L 307.112699 161.950527 
L 293.585426 154.534334 
L 280.058153 152.374281 
L 266.530881 171.094088 
L 253.003608 184.844076 
L 239.476335 171.997839 
L 225.949062 172.545555 
L 212.42179 174.236918 
L 198.894517 178.535106 
L 185.367244 192.764354 
L 171.839972 179.52452 
L 158.312699 188.319728 
L 144.785426 194.402183 
L 131.258153 180.043389 
L 117.730881 183.315282 
L 104.203608 180.978017 
L 90.676335 183.807016 
L 77.149063 181.878968 
L 63.62179 186.921452 
z
" clip-path="url(#p4ea4df98b1)" style="fill: #fde725; fill-opacity: 0.2"/>
   </g>
   <g id="matplotlib.axis_1">
    <g id="xtick_1">
     <g id="line2d_1">
      <defs>
       <path id="mea3268cecb" d="M 0 0 
L 0 3.5 
" style="stroke: #000000; stroke-width: 0.8"/>
      </defs>
      <g>
       <use xlink:href="#mea3268cecb" x="63.62179" y="288.430125" style="stroke: #000000; stroke-width: 0.8"/>
      </g>
     </g>
     <g id="text_1">
      <!-- 0 -->
      <g transform="translate(60.44054 303.028562) scale(0.1 -0.1)">
       <defs>
        <path id="DejaVuSans-30" d="M 2034 4250 
Q 1547 4250 1301 3770 
Q 1056 3291 1056 2328 
Q 1056 1369 1301 889 
Q 1547 409 2034 409 
Q 2525 409 2770 889 
Q 3016 1369 3016 2328 
Q 3016 3291 2770 3770 
Q 2525 4250 2034 4250 
z
M 2034 4750 
Q 2819 4750 3233 4129 
Q 3647 3509 3647 2328 
Q 3647 1150 3233 529 
Q 2819 -91 2034 -91 
Q 1250 -91 836 529 
Q 422 1150 422 2328 
Q 422 3509 836 4129 
Q 1250 4750 2034 4750 
z
" transform="scale(0.015625)"/>
       </defs>
       <use xlink:href="#DejaVuSans-30"/>
      </g>
     </g>
    </g>
    <g id="xtick_2">
     <g id="line2d_2">
      <g>
       <use xlink:href="#mea3268cecb" x="128.552699" y="288.430125" style="stroke: #000000; stroke-width: 0.8"/>
      </g>
     </g>
     <g id="text_2">
      <!-- 20 -->
      <g transform="translate(122.190199 303.028562) scale(0.1 -0.1)">
       <defs>
        <path id="DejaVuSans-32" d="M 1228 531 
L 3431 531 
L 3431 0 
L 469 0 
L 469 531 
Q 828 903 1448 1529 
Q 2069 2156 2228 2338 
Q 2531 2678 2651 2914 
Q 2772 3150 2772 3378 
Q 2772 3750 2511 3984 
Q 2250 4219 1831 4219 
Q 1534 4219 1204 4116 
Q 875 4013 500 3803 
L 500 4441 
Q 881 4594 1212 4672 
Q 1544 4750 1819 4750 
Q 2544 4750 2975 4387 
Q 3406 4025 3406 3419 
Q 3406 3131 3298 2873 
Q 3191 2616 2906 2266 
Q 2828 2175 2409 1742 
Q 1991 1309 1228 531 
z
" transform="scale(0.015625)"/>
       </defs>
       <use xlink:href="#DejaVuSans-32"/>
       <use xlink:href="#DejaVuSans-30" x="63.623047"/>
      </g>
     </g>
    </g>
    <g id="xtick_3">
     <g id="line2d_3">
      <g>
       <use xlink:href="#mea3268cecb" x="193.483608" y="288.430125" style="stroke: #000000; stroke-width: 0.8"/>
      </g>
     </g>
     <g id="text_3">
      <!-- 40 -->
      <g transform="translate(187.121108 303.028562) scale(0.1 -0.1)">
       <defs>
        <path id="DejaVuSans-34" d="M 2419 4116 
L 825 1625 
L 2419 1625 
L 2419 4116 
z
M 2253 4666 
L 3047 4666 
L 3047 1625 
L 3713 1625 
L 3713 1100 
L 3047 1100 
L 3047 0 
L 2419 0 
L 2419 1100 
L 313 1100 
L 313 1709 
L 2253 4666 
z
" transform="scale(0.015625)"/>
       </defs>
       <use xlink:href="#DejaVuSans-34"/>
       <use xlink:href="#DejaVuSans-30" x="63.623047"/>
      </g>
     </g>
    </g>
    <g id="xtick_4">
     <g id="line2d_4">
      <g>
       <use xlink:href="#mea3268cecb" x="258.414517" y="288.430125" style="stroke: #000000; stroke-width: 0.8"/>
      </g>
     </g>
     <g id="text_4">
      <!-- 60 -->
      <g transform="translate(252.052017 303.028562) scale(0.1 -0.1)">
       <defs>
        <path id="DejaVuSans-36" d="M 2113 2584 
Q 1688 2584 1439 2293 
Q 1191 2003 1191 1497 
Q 1191 994 1439 701 
Q 1688 409 2113 409 
Q 2538 409 2786 701 
Q 3034 994 3034 1497 
Q 3034 2003 2786 2293 
Q 2538 2584 2113 2584 
z
M 3366 4563 
L 3366 3988 
Q 3128 4100 2886 4159 
Q 2644 4219 2406 4219 
Q 1781 4219 1451 3797 
Q 1122 3375 1075 2522 
Q 1259 2794 1537 2939 
Q 1816 3084 2150 3084 
Q 2853 3084 3261 2657 
Q 3669 2231 3669 1497 
Q 3669 778 3244 343 
Q 2819 -91 2113 -91 
Q 1303 -91 875 529 
Q 447 1150 447 2328 
Q 447 3434 972 4092 
Q 1497 4750 2381 4750 
Q 2619 4750 2861 4703 
Q 3103 4656 3366 4563 
z
" transform="scale(0.015625)"/>
       </defs>
       <use xlink:href="#DejaVuSans-36"/>
       <use xlink:href="#DejaVuSans-30" x="63.623047"/>
      </g>
     </g>
    </g>
    <g id="xtick_5">
     <g id="line2d_5">
      <g>
       <use xlink:href="#mea3268cecb" x="323.345426" y="288.430125" style="stroke: #000000; stroke-width: 0.8"/>
      </g>
     </g>
     <g id="text_5">
      <!-- 80 -->
      <g transform="translate(316.982926 303.028562) scale(0.1 -0.1)">
       <defs>
        <path id="DejaVuSans-38" d="M 2034 2216 
Q 1584 2216 1326 1975 
Q 1069 1734 1069 1313 
Q 1069 891 1326 650 
Q 1584 409 2034 409 
Q 2484 409 2743 651 
Q 3003 894 3003 1313 
Q 3003 1734 2745 1975 
Q 2488 2216 2034 2216 
z
M 1403 2484 
Q 997 2584 770 2862 
Q 544 3141 544 3541 
Q 544 4100 942 4425 
Q 1341 4750 2034 4750 
Q 2731 4750 3128 4425 
Q 3525 4100 3525 3541 
Q 3525 3141 3298 2862 
Q 3072 2584 2669 2484 
Q 3125 2378 3379 2068 
Q 3634 1759 3634 1313 
Q 3634 634 3220 271 
Q 2806 -91 2034 -91 
Q 1263 -91 848 271 
Q 434 634 434 1313 
Q 434 1759 690 2068 
Q 947 2378 1403 2484 
z
M 1172 3481 
Q 1172 3119 1398 2916 
Q 1625 2713 2034 2713 
Q 2441 2713 2670 2916 
Q 2900 3119 2900 3481 
Q 2900 3844 2670 4047 
Q 2441 4250 2034 4250 
Q 1625 4250 1398 4047 
Q 1172 3844 1172 3481 
z
" transform="scale(0.015625)"/>
       </defs>
       <use xlink:href="#DejaVuSans-38"/>
       <use xlink:href="#DejaVuSans-30" x="63.623047"/>
      </g>
     </g>
    </g>
    <g id="xtick_6">
     <g id="line2d_6">
      <g>
       <use xlink:href="#mea3268cecb" x="388.276335" y="288.430125" style="stroke: #000000; stroke-width: 0.8"/>
      </g>
     </g>
     <g id="text_6">
      <!-- 100 -->
      <g transform="translate(378.732585 303.028562) scale(0.1 -0.1)">
       <defs>
        <path id="DejaVuSans-31" d="M 794 531 
L 1825 531 
L 1825 4091 
L 703 3866 
L 703 4441 
L 1819 4666 
L 2450 4666 
L 2450 531 
L 3481 531 
L 3481 0 
L 794 0 
L 794 531 
z
" transform="scale(0.015625)"/>
       </defs>
       <use xlink:href="#DejaVuSans-31"/>
       <use xlink:href="#DejaVuSans-30" x="63.623047"/>
       <use xlink:href="#DejaVuSans-30" x="127.246094"/>
      </g>
     </g>
    </g>
    <g id="text_7">
     <!-- Percentage -->
     <g transform="translate(197.826406 316.706687) scale(0.1 -0.1)">
      <defs>
       <path id="DejaVuSans-50" d="M 1259 4147 
L 1259 2394 
L 2053 2394 
Q 2494 2394 2734 2622 
Q 2975 2850 2975 3272 
Q 2975 3691 2734 3919 
Q 2494 4147 2053 4147 
L 1259 4147 
z
M 628 4666 
L 2053 4666 
Q 2838 4666 3239 4311 
Q 3641 3956 3641 3272 
Q 3641 2581 3239 2228 
Q 2838 1875 2053 1875 
L 1259 1875 
L 1259 0 
L 628 0 
L 628 4666 
z
" transform="scale(0.015625)"/>
       <path id="DejaVuSans-65" d="M 3597 1894 
L 3597 1613 
L 953 1613 
Q 991 1019 1311 708 
Q 1631 397 2203 397 
Q 2534 397 2845 478 
Q 3156 559 3463 722 
L 3463 178 
Q 3153 47 2828 -22 
Q 2503 -91 2169 -91 
Q 1331 -91 842 396 
Q 353 884 353 1716 
Q 353 2575 817 3079 
Q 1281 3584 2069 3584 
Q 2775 3584 3186 3129 
Q 3597 2675 3597 1894 
z
M 3022 2063 
Q 3016 2534 2758 2815 
Q 2500 3097 2075 3097 
Q 1594 3097 1305 2825 
Q 1016 2553 972 2059 
L 3022 2063 
z
" transform="scale(0.015625)"/>
       <path id="DejaVuSans-72" d="M 2631 2963 
Q 2534 3019 2420 3045 
Q 2306 3072 2169 3072 
Q 1681 3072 1420 2755 
Q 1159 2438 1159 1844 
L 1159 0 
L 581 0 
L 581 3500 
L 1159 3500 
L 1159 2956 
Q 1341 3275 1631 3429 
Q 1922 3584 2338 3584 
Q 2397 3584 2469 3576 
Q 2541 3569 2628 3553 
L 2631 2963 
z
" transform="scale(0.015625)"/>
       <path id="DejaVuSans-63" d="M 3122 3366 
L 3122 2828 
Q 2878 2963 2633 3030 
Q 2388 3097 2138 3097 
Q 1578 3097 1268 2742 
Q 959 2388 959 1747 
Q 959 1106 1268 751 
Q 1578 397 2138 397 
Q 2388 397 2633 464 
Q 2878 531 3122 666 
L 3122 134 
Q 2881 22 2623 -34 
Q 2366 -91 2075 -91 
Q 1284 -91 818 406 
Q 353 903 353 1747 
Q 353 2603 823 3093 
Q 1294 3584 2113 3584 
Q 2378 3584 2631 3529 
Q 2884 3475 3122 3366 
z
" transform="scale(0.015625)"/>
       <path id="DejaVuSans-6e" d="M 3513 2113 
L 3513 0 
L 2938 0 
L 2938 2094 
Q 2938 2591 2744 2837 
Q 2550 3084 2163 3084 
Q 1697 3084 1428 2787 
Q 1159 2491 1159 1978 
L 1159 0 
L 581 0 
L 581 3500 
L 1159 3500 
L 1159 2956 
Q 1366 3272 1645 3428 
Q 1925 3584 2291 3584 
Q 2894 3584 3203 3211 
Q 3513 2838 3513 2113 
z
" transform="scale(0.015625)"/>
       <path id="DejaVuSans-74" d="M 1172 4494 
L 1172 3500 
L 2356 3500 
L 2356 3053 
L 1172 3053 
L 1172 1153 
Q 1172 725 1289 603 
Q 1406 481 1766 481 
L 2356 481 
L 2356 0 
L 1766 0 
Q 1100 0 847 248 
Q 594 497 594 1153 
L 594 3053 
L 172 3053 
L 172 3500 
L 594 3500 
L 594 4494 
L 1172 4494 
z
" transform="scale(0.015625)"/>
       <path id="DejaVuSans-61" d="M 2194 1759 
Q 1497 1759 1228 1600 
Q 959 1441 959 1056 
Q 959 750 1161 570 
Q 1363 391 1709 391 
Q 2188 391 2477 730 
Q 2766 1069 2766 1631 
L 2766 1759 
L 2194 1759 
z
M 3341 1997 
L 3341 0 
L 2766 0 
L 2766 531 
Q 2569 213 2275 61 
Q 1981 -91 1556 -91 
Q 1019 -91 701 211 
Q 384 513 384 1019 
Q 384 1609 779 1909 
Q 1175 2209 1959 2209 
L 2766 2209 
L 2766 2266 
Q 2766 2663 2505 2880 
Q 2244 3097 1772 3097 
Q 1472 3097 1187 3025 
Q 903 2953 641 2809 
L 641 3341 
Q 956 3463 1253 3523 
Q 1550 3584 1831 3584 
Q 2591 3584 2966 3190 
Q 3341 2797 3341 1997 
z
" transform="scale(0.015625)"/>
       <path id="DejaVuSans-67" d="M 2906 1791 
Q 2906 2416 2648 2759 
Q 2391 3103 1925 3103 
Q 1463 3103 1205 2759 
Q 947 2416 947 1791 
Q 947 1169 1205 825 
Q 1463 481 1925 481 
Q 2391 481 2648 825 
Q 2906 1169 2906 1791 
z
M 3481 434 
Q 3481 -459 3084 -895 
Q 2688 -1331 1869 -1331 
Q 1566 -1331 1297 -1286 
Q 1028 -1241 775 -1147 
L 775 -588 
Q 1028 -725 1275 -790 
Q 1522 -856 1778 -856 
Q 2344 -856 2625 -561 
Q 2906 -266 2906 331 
L 2906 616 
Q 2728 306 2450 153 
Q 2172 0 1784 0 
Q 1141 0 747 490 
Q 353 981 353 1791 
Q 353 2603 747 3093 
Q 1141 3584 1784 3584 
Q 2172 3584 2450 3431 
Q 2728 3278 2906 2969 
L 2906 3500 
L 3481 3500 
L 3481 434 
z
" transform="scale(0.015625)"/>
      </defs>
      <use xlink:href="#DejaVuSans-50"/>
      <use xlink:href="#DejaVuSans-65" x="56.677734"/>
      <use xlink:href="#DejaVuSans-72" x="118.201172"/>
      <use xlink:href="#DejaVuSans-63" x="157.064453"/>
      <use xlink:href="#DejaVuSans-65" x="212.044922"/>
      <use xlink:href="#DejaVuSans-6e" x="273.568359"/>
      <use xlink:href="#DejaVuSans-74" x="336.947266"/>
      <use xlink:href="#DejaVuSans-61" x="376.15625"/>
      <use xlink:href="#DejaVuSans-67" x="437.435547"/>
      <use xlink:href="#DejaVuSans-65" x="500.912109"/>
     </g>
    </g>
   </g>
   <g id="matplotlib.axis_2">
    <g id="ytick_1">
     <g id="line2d_7">
      <defs>
       <path id="m3f87e22718" d="M 0 0 
L -3.5 0 
" style="stroke: #000000; stroke-width: 0.8"/>
      </defs>
      <g>
       <use xlink:href="#m3f87e22718" x="47.389063" y="288.430125" style="stroke: #000000; stroke-width: 0.8"/>
      </g>
     </g>
     <g id="text_8">
      <!-- -0.2 -->
      <g transform="translate(20.878125 292.229344) scale(0.1 -0.1)">
       <defs>
        <path id="DejaVuSans-2d" d="M 313 2009 
L 1997 2009 
L 1997 1497 
L 313 1497 
L 313 2009 
z
" transform="scale(0.015625)"/>
        <path id="DejaVuSans-2e" d="M 684 794 
L 1344 794 
L 1344 0 
L 684 0 
L 684 794 
z
" transform="scale(0.015625)"/>
       </defs>
       <use xlink:href="#DejaVuSans-2d"/>
       <use xlink:href="#DejaVuSans-30" x="36.083984"/>
       <use xlink:href="#DejaVuSans-2e" x="99.707031"/>
       <use xlink:href="#DejaVuSans-32" x="131.494141"/>
      </g>
     </g>
    </g>
    <g id="ytick_2">
     <g id="line2d_8">
      <g>
       <use xlink:href="#m3f87e22718" x="47.389063" y="235.207725" style="stroke: #000000; stroke-width: 0.8"/>
      </g>
     </g>
     <g id="text_9">
      <!-- 0.0 -->
      <g transform="translate(24.485938 239.006944) scale(0.1 -0.1)">
       <use xlink:href="#DejaVuSans-30"/>
       <use xlink:href="#DejaVuSans-2e" x="63.623047"/>
       <use xlink:href="#DejaVuSans-30" x="95.410156"/>
      </g>
     </g>
    </g>
    <g id="ytick_3">
     <g id="line2d_9">
      <g>
       <use xlink:href="#m3f87e22718" x="47.389063" y="181.985325" style="stroke: #000000; stroke-width: 0.8"/>
      </g>
     </g>
     <g id="text_10">
      <!-- 0.2 -->
      <g transform="translate(24.485938 185.784544) scale(0.1 -0.1)">
       <use xlink:href="#DejaVuSans-30"/>
       <use xlink:href="#DejaVuSans-2e" x="63.623047"/>
       <use xlink:href="#DejaVuSans-32" x="95.410156"/>
      </g>
     </g>
    </g>
    <g id="ytick_4">
     <g id="line2d_10">
      <g>
       <use xlink:href="#m3f87e22718" x="47.389063" y="128.762925" style="stroke: #000000; stroke-width: 0.8"/>
      </g>
     </g>
     <g id="text_11">
      <!-- 0.4 -->
      <g transform="translate(24.485938 132.562144) scale(0.1 -0.1)">
       <use xlink:href="#DejaVuSans-30"/>
       <use xlink:href="#DejaVuSans-2e" x="63.623047"/>
       <use xlink:href="#DejaVuSans-34" x="95.410156"/>
      </g>
     </g>
    </g>
    <g id="ytick_5">
     <g id="line2d_11">
      <g>
       <use xlink:href="#m3f87e22718" x="47.389063" y="75.540525" style="stroke: #000000; stroke-width: 0.8"/>
      </g>
     </g>
     <g id="text_12">
      <!-- 0.6 -->
      <g transform="translate(24.485938 79.339744) scale(0.1 -0.1)">
       <use xlink:href="#DejaVuSans-30"/>
       <use xlink:href="#DejaVuSans-2e" x="63.623047"/>
       <use xlink:href="#DejaVuSans-36" x="95.410156"/>
      </g>
     </g>
    </g>
    <g id="ytick_6">
     <g id="line2d_12">
      <g>
       <use xlink:href="#m3f87e22718" x="47.389063" y="22.318125" style="stroke: #000000; stroke-width: 0.8"/>
      </g>
     </g>
     <g id="text_13">
      <!-- 0.8 -->
      <g transform="translate(24.485938 26.117344) scale(0.1 -0.1)">
       <use xlink:href="#DejaVuSans-30"/>
       <use xlink:href="#DejaVuSans-2e" x="63.623047"/>
       <use xlink:href="#DejaVuSans-38" x="95.410156"/>
      </g>
     </g>
    </g>
    <g id="text_14">
     <!-- Velocity (x in cm / 10ms) -->
     <g transform="translate(14.798438 217.495219) rotate(-90) scale(0.1 -0.1)">
      <defs>
       <path id="DejaVuSans-56" d="M 1831 0 
L 50 4666 
L 709 4666 
L 2188 738 
L 3669 4666 
L 4325 4666 
L 2547 0 
L 1831 0 
z
" transform="scale(0.015625)"/>
       <path id="DejaVuSans-6c" d="M 603 4863 
L 1178 4863 
L 1178 0 
L 603 0 
L 603 4863 
z
" transform="scale(0.015625)"/>
       <path id="DejaVuSans-6f" d="M 1959 3097 
Q 1497 3097 1228 2736 
Q 959 2375 959 1747 
Q 959 1119 1226 758 
Q 1494 397 1959 397 
Q 2419 397 2687 759 
Q 2956 1122 2956 1747 
Q 2956 2369 2687 2733 
Q 2419 3097 1959 3097 
z
M 1959 3584 
Q 2709 3584 3137 3096 
Q 3566 2609 3566 1747 
Q 3566 888 3137 398 
Q 2709 -91 1959 -91 
Q 1206 -91 779 398 
Q 353 888 353 1747 
Q 353 2609 779 3096 
Q 1206 3584 1959 3584 
z
" transform="scale(0.015625)"/>
       <path id="DejaVuSans-69" d="M 603 3500 
L 1178 3500 
L 1178 0 
L 603 0 
L 603 3500 
z
M 603 4863 
L 1178 4863 
L 1178 4134 
L 603 4134 
L 603 4863 
z
" transform="scale(0.015625)"/>
       <path id="DejaVuSans-79" d="M 2059 -325 
Q 1816 -950 1584 -1140 
Q 1353 -1331 966 -1331 
L 506 -1331 
L 506 -850 
L 844 -850 
Q 1081 -850 1212 -737 
Q 1344 -625 1503 -206 
L 1606 56 
L 191 3500 
L 800 3500 
L 1894 763 
L 2988 3500 
L 3597 3500 
L 2059 -325 
z
" transform="scale(0.015625)"/>
       <path id="DejaVuSans-20" transform="scale(0.015625)"/>
       <path id="DejaVuSans-28" d="M 1984 4856 
Q 1566 4138 1362 3434 
Q 1159 2731 1159 2009 
Q 1159 1288 1364 580 
Q 1569 -128 1984 -844 
L 1484 -844 
Q 1016 -109 783 600 
Q 550 1309 550 2009 
Q 550 2706 781 3412 
Q 1013 4119 1484 4856 
L 1984 4856 
z
" transform="scale(0.015625)"/>
       <path id="DejaVuSans-78" d="M 3513 3500 
L 2247 1797 
L 3578 0 
L 2900 0 
L 1881 1375 
L 863 0 
L 184 0 
L 1544 1831 
L 300 3500 
L 978 3500 
L 1906 2253 
L 2834 3500 
L 3513 3500 
z
" transform="scale(0.015625)"/>
       <path id="DejaVuSans-6d" d="M 3328 2828 
Q 3544 3216 3844 3400 
Q 4144 3584 4550 3584 
Q 5097 3584 5394 3201 
Q 5691 2819 5691 2113 
L 5691 0 
L 5113 0 
L 5113 2094 
Q 5113 2597 4934 2840 
Q 4756 3084 4391 3084 
Q 3944 3084 3684 2787 
Q 3425 2491 3425 1978 
L 3425 0 
L 2847 0 
L 2847 2094 
Q 2847 2600 2669 2842 
Q 2491 3084 2119 3084 
Q 1678 3084 1418 2786 
Q 1159 2488 1159 1978 
L 1159 0 
L 581 0 
L 581 3500 
L 1159 3500 
L 1159 2956 
Q 1356 3278 1631 3431 
Q 1906 3584 2284 3584 
Q 2666 3584 2933 3390 
Q 3200 3197 3328 2828 
z
" transform="scale(0.015625)"/>
       <path id="DejaVuSans-2f" d="M 1625 4666 
L 2156 4666 
L 531 -594 
L 0 -594 
L 1625 4666 
z
" transform="scale(0.015625)"/>
       <path id="DejaVuSans-73" d="M 2834 3397 
L 2834 2853 
Q 2591 2978 2328 3040 
Q 2066 3103 1784 3103 
Q 1356 3103 1142 2972 
Q 928 2841 928 2578 
Q 928 2378 1081 2264 
Q 1234 2150 1697 2047 
L 1894 2003 
Q 2506 1872 2764 1633 
Q 3022 1394 3022 966 
Q 3022 478 2636 193 
Q 2250 -91 1575 -91 
Q 1294 -91 989 -36 
Q 684 19 347 128 
L 347 722 
Q 666 556 975 473 
Q 1284 391 1588 391 
Q 1994 391 2212 530 
Q 2431 669 2431 922 
Q 2431 1156 2273 1281 
Q 2116 1406 1581 1522 
L 1381 1569 
Q 847 1681 609 1914 
Q 372 2147 372 2553 
Q 372 3047 722 3315 
Q 1072 3584 1716 3584 
Q 2034 3584 2315 3537 
Q 2597 3491 2834 3397 
z
" transform="scale(0.015625)"/>
       <path id="DejaVuSans-29" d="M 513 4856 
L 1013 4856 
Q 1481 4119 1714 3412 
Q 1947 2706 1947 2009 
Q 1947 1309 1714 600 
Q 1481 -109 1013 -844 
L 513 -844 
Q 928 -128 1133 580 
Q 1338 1288 1338 2009 
Q 1338 2731 1133 3434 
Q 928 4138 513 4856 
z
" transform="scale(0.015625)"/>
      </defs>
      <use xlink:href="#DejaVuSans-56"/>
      <use xlink:href="#DejaVuSans-65" x="60.658203"/>
      <use xlink:href="#DejaVuSans-6c" x="122.181641"/>
      <use xlink:href="#DejaVuSans-6f" x="149.964844"/>
      <use xlink:href="#DejaVuSans-63" x="211.146484"/>
      <use xlink:href="#DejaVuSans-69" x="266.126953"/>
      <use xlink:href="#DejaVuSans-74" x="293.910156"/>
      <use xlink:href="#DejaVuSans-79" x="333.119141"/>
      <use xlink:href="#DejaVuSans-20" x="392.298828"/>
      <use xlink:href="#DejaVuSans-28" x="424.085938"/>
      <use xlink:href="#DejaVuSans-78" x="463.099609"/>
      <use xlink:href="#DejaVuSans-20" x="522.279297"/>
      <use xlink:href="#DejaVuSans-69" x="554.066406"/>
      <use xlink:href="#DejaVuSans-6e" x="581.849609"/>
      <use xlink:href="#DejaVuSans-20" x="645.228516"/>
      <use xlink:href="#DejaVuSans-63" x="677.015625"/>
      <use xlink:href="#DejaVuSans-6d" x="731.996094"/>
      <use xlink:href="#DejaVuSans-20" x="829.408203"/>
      <use xlink:href="#DejaVuSans-2f" x="861.195312"/>
      <use xlink:href="#DejaVuSans-20" x="894.886719"/>
      <use xlink:href="#DejaVuSans-31" x="926.673828"/>
      <use xlink:href="#DejaVuSans-30" x="990.296875"/>
      <use xlink:href="#DejaVuSans-6d" x="1053.919922"/>
      <use xlink:href="#DejaVuSans-73" x="1151.332031"/>
      <use xlink:href="#DejaVuSans-29" x="1203.431641"/>
     </g>
    </g>
   </g>
   <g id="line2d_13">
    <path d="M 63.62179 237.664702 
L 77.149063 240.107371 
L 90.676335 234.135995 
L 104.203608 234.938597 
L 117.730881 235.357872 
L 131.258153 209.231609 
L 144.785426 181.835958 
L 158.312699 169.076877 
L 171.839972 177.200401 
L 185.367244 179.941846 
L 198.894517 145.688901 
L 212.42179 101.756232 
L 225.949062 72.463634 
L 239.476335 65.260303 
L 253.003608 82.1858 
L 266.530881 114.442273 
L 280.058153 129.458989 
L 293.585426 136.974925 
L 307.112699 152.018315 
L 320.639972 169.948545 
L 334.167244 195.853934 
L 347.694517 222.238129 
L 361.22179 230.170955 
L 374.749063 230.936015 
L 388.276335 235.306359 
" clip-path="url(#p4ea4df98b1)" style="fill: none; stroke: #440154; stroke-width: 1.5; stroke-linecap: square"/>
   </g>
   <g id="line2d_14">
    <path d="M 63.62179 228.408118 
L 77.149063 221.262905 
L 90.676335 215.312737 
L 104.203608 211.908303 
L 117.730881 211.514762 
L 131.258153 186.737026 
L 144.785426 190.262367 
L 158.312699 189.469282 
L 171.839972 184.295811 
L 185.367244 166.202457 
L 198.894517 138.969848 
L 212.42179 133.326174 
L 225.949062 131.318093 
L 239.476335 129.03103 
L 253.003608 134.299499 
L 266.530881 141.647649 
L 280.058153 146.144633 
L 293.585426 143.252429 
L 307.112699 147.277554 
L 320.639972 159.943365 
L 334.167244 184.812846 
L 347.694517 213.907925 
L 361.22179 229.262588 
L 374.749063 234.243885 
L 388.276335 237.954786 
" clip-path="url(#p4ea4df98b1)" style="fill: none; stroke: #3b528b; stroke-width: 1.5; stroke-linecap: square"/>
   </g>
   <g id="line2d_15">
    <path d="M 63.62179 207.704063 
L 77.149063 208.421867 
L 90.676335 205.962374 
L 104.203608 205.479347 
L 117.730881 207.106203 
L 131.258153 178.987429 
L 144.785426 192.175971 
L 158.312699 208.022688 
L 171.839972 198.962952 
L 185.367244 171.578272 
L 198.894517 130.555391 
L 212.42179 136.72402 
L 225.949062 163.947647 
L 239.476335 159.282554 
L 253.003608 162.436605 
L 266.530881 167.015988 
L 280.058153 167.637381 
L 293.585426 170.700322 
L 307.112699 176.823469 
L 320.639972 181.35177 
L 334.167244 182.905757 
L 347.694517 195.506988 
L 361.22179 207.247404 
L 374.749063 209.542801 
L 388.276335 209.955443 
" clip-path="url(#p4ea4df98b1)" style="fill: none; stroke: #21918c; stroke-width: 1.5; stroke-linecap: square"/>
   </g>
   <g id="line2d_16">
    <path d="M 63.62179 192.186573 
L 77.149063 189.406349 
L 90.676335 188.92847 
L 104.203608 189.678087 
L 117.730881 190.448772 
L 131.258153 187.156984 
L 144.785426 202.032535 
L 158.312699 200.298127 
L 171.839972 196.572881 
L 185.367244 191.730877 
L 198.894517 174.928799 
L 212.42179 177.335591 
L 225.949062 183.160424 
L 239.476335 181.58761 
L 253.003608 186.246655 
L 266.530881 182.279792 
L 280.058153 181.288594 
L 293.585426 171.697784 
L 307.112699 171.579423 
L 320.639972 183.420129 
L 334.167244 182.769146 
L 347.694517 194.014017 
L 361.22179 202.842143 
L 374.749063 197.348633 
L 388.276335 195.218898 
" clip-path="url(#p4ea4df98b1)" style="fill: none; stroke: #5ec962; stroke-width: 1.5; stroke-linecap: square"/>
   </g>
   <g id="line2d_17">
    <path d="M 63.62179 193.529613 
L 77.149063 189.623407 
L 90.676335 189.283066 
L 104.203608 190.144798 
L 117.730881 188.246087 
L 131.258153 181.887111 
L 144.785426 197.896051 
L 158.312699 191.890779 
L 171.839972 194.275595 
L 185.367244 195.88851 
L 198.894517 185.009376 
L 212.42179 178.063771 
L 225.949062 183.698572 
L 239.476335 186.512229 
L 253.003608 191.587696 
L 266.530881 195.56516 
L 280.058153 187.761819 
L 293.585426 173.10328 
L 307.112699 173.4242 
L 320.639972 185.064975 
L 334.167244 182.874655 
L 347.694517 196.168375 
L 361.22179 198.739046 
L 374.749063 187.06177 
L 388.276335 189.953074 
" clip-path="url(#p4ea4df98b1)" style="fill: none; stroke: #fde725; stroke-width: 1.5; stroke-linecap: square"/>
   </g>
   <g id="patch_3">
    <path d="M 47.389063 288.430125 
L 47.389063 22.318125 
" style="fill: none; stroke: #000000; stroke-width: 0.8; stroke-linejoin: miter; stroke-linecap: square"/>
   </g>
   <g id="patch_4">
    <path d="M 404.509063 288.430125 
L 404.509063 22.318125 
" style="fill: none; stroke: #000000; stroke-width: 0.8; stroke-linejoin: miter; stroke-linecap: square"/>
   </g>
   <g id="patch_5">
    <path d="M 47.389063 288.430125 
L 404.509063 288.430125 
" style="fill: none; stroke: #000000; stroke-width: 0.8; stroke-linejoin: miter; stroke-linecap: square"/>
   </g>
   <g id="patch_6">
    <path d="M 47.389063 22.318125 
L 404.509063 22.318125 
" style="fill: none; stroke: #000000; stroke-width: 0.8; stroke-linejoin: miter; stroke-linecap: square"/>
   </g>
   <g id="text_15">
    <!-- ID 18 - Run 2 - Joint velocities over average step cycle -->
    <g transform="translate(63.21875 16.318125) scale(0.12 -0.12)">
     <defs>
      <path id="DejaVuSans-49" d="M 628 4666 
L 1259 4666 
L 1259 0 
L 628 0 
L 628 4666 
z
" transform="scale(0.015625)"/>
      <path id="DejaVuSans-44" d="M 1259 4147 
L 1259 519 
L 2022 519 
Q 2988 519 3436 956 
Q 3884 1394 3884 2338 
Q 3884 3275 3436 3711 
Q 2988 4147 2022 4147 
L 1259 4147 
z
M 628 4666 
L 1925 4666 
Q 3281 4666 3915 4102 
Q 4550 3538 4550 2338 
Q 4550 1131 3912 565 
Q 3275 0 1925 0 
L 628 0 
L 628 4666 
z
" transform="scale(0.015625)"/>
      <path id="DejaVuSans-52" d="M 2841 2188 
Q 3044 2119 3236 1894 
Q 3428 1669 3622 1275 
L 4263 0 
L 3584 0 
L 2988 1197 
Q 2756 1666 2539 1819 
Q 2322 1972 1947 1972 
L 1259 1972 
L 1259 0 
L 628 0 
L 628 4666 
L 2053 4666 
Q 2853 4666 3247 4331 
Q 3641 3997 3641 3322 
Q 3641 2881 3436 2590 
Q 3231 2300 2841 2188 
z
M 1259 4147 
L 1259 2491 
L 2053 2491 
Q 2509 2491 2742 2702 
Q 2975 2913 2975 3322 
Q 2975 3731 2742 3939 
Q 2509 4147 2053 4147 
L 1259 4147 
z
" transform="scale(0.015625)"/>
      <path id="DejaVuSans-75" d="M 544 1381 
L 544 3500 
L 1119 3500 
L 1119 1403 
Q 1119 906 1312 657 
Q 1506 409 1894 409 
Q 2359 409 2629 706 
Q 2900 1003 2900 1516 
L 2900 3500 
L 3475 3500 
L 3475 0 
L 2900 0 
L 2900 538 
Q 2691 219 2414 64 
Q 2138 -91 1772 -91 
Q 1169 -91 856 284 
Q 544 659 544 1381 
z
M 1991 3584 
L 1991 3584 
z
" transform="scale(0.015625)"/>
      <path id="DejaVuSans-4a" d="M 628 4666 
L 1259 4666 
L 1259 325 
Q 1259 -519 939 -900 
Q 619 -1281 -91 -1281 
L -331 -1281 
L -331 -750 
L -134 -750 
Q 284 -750 456 -515 
Q 628 -281 628 325 
L 628 4666 
z
" transform="scale(0.015625)"/>
      <path id="DejaVuSans-76" d="M 191 3500 
L 800 3500 
L 1894 563 
L 2988 3500 
L 3597 3500 
L 2284 0 
L 1503 0 
L 191 3500 
z
" transform="scale(0.015625)"/>
      <path id="DejaVuSans-70" d="M 1159 525 
L 1159 -1331 
L 581 -1331 
L 581 3500 
L 1159 3500 
L 1159 2969 
Q 1341 3281 1617 3432 
Q 1894 3584 2278 3584 
Q 2916 3584 3314 3078 
Q 3713 2572 3713 1747 
Q 3713 922 3314 415 
Q 2916 -91 2278 -91 
Q 1894 -91 1617 61 
Q 1341 213 1159 525 
z
M 3116 1747 
Q 3116 2381 2855 2742 
Q 2594 3103 2138 3103 
Q 1681 3103 1420 2742 
Q 1159 2381 1159 1747 
Q 1159 1113 1420 752 
Q 1681 391 2138 391 
Q 2594 391 2855 752 
Q 3116 1113 3116 1747 
z
" transform="scale(0.015625)"/>
     </defs>
     <use xlink:href="#DejaVuSans-49"/>
     <use xlink:href="#DejaVuSans-44" x="29.492188"/>
     <use xlink:href="#DejaVuSans-20" x="106.494141"/>
     <use xlink:href="#DejaVuSans-31" x="138.28125"/>
     <use xlink:href="#DejaVuSans-38" x="201.904297"/>
     <use xlink:href="#DejaVuSans-20" x="265.527344"/>
     <use xlink:href="#DejaVuSans-2d" x="297.314453"/>
     <use xlink:href="#DejaVuSans-20" x="333.398438"/>
     <use xlink:href="#DejaVuSans-52" x="365.185547"/>
     <use xlink:href="#DejaVuSans-75" x="430.167969"/>
     <use xlink:href="#DejaVuSans-6e" x="493.546875"/>
     <use xlink:href="#DejaVuSans-20" x="556.925781"/>
     <use xlink:href="#DejaVuSans-32" x="588.712891"/>
     <use xlink:href="#DejaVuSans-20" x="652.335938"/>
     <use xlink:href="#DejaVuSans-2d" x="684.123047"/>
     <use xlink:href="#DejaVuSans-20" x="720.207031"/>
     <use xlink:href="#DejaVuSans-4a" x="751.994141"/>
     <use xlink:href="#DejaVuSans-6f" x="781.486328"/>
     <use xlink:href="#DejaVuSans-69" x="842.667969"/>
     <use xlink:href="#DejaVuSans-6e" x="870.451172"/>
     <use xlink:href="#DejaVuSans-74" x="933.830078"/>
     <use xlink:href="#DejaVuSans-20" x="973.039062"/>
     <use xlink:href="#DejaVuSans-76" x="1004.826172"/>
     <use xlink:href="#DejaVuSans-65" x="1064.005859"/>
     <use xlink:href="#DejaVuSans-6c" x="1125.529297"/>
     <use xlink:href="#DejaVuSans-6f" x="1153.3125"/>
     <use xlink:href="#DejaVuSans-63" x="1214.494141"/>
     <use xlink:href="#DejaVuSans-69" x="1269.474609"/>
     <use xlink:href="#DejaVuSans-74" x="1297.257812"/>
     <use xlink:href="#DejaVuSans-69" x="1336.466797"/>
     <use xlink:href="#DejaVuSans-65" x="1364.25"/>
     <use xlink:href="#DejaVuSans-73" x="1425.773438"/>
     <use xlink:href="#DejaVuSans-20" x="1477.873047"/>
     <use xlink:href="#DejaVuSans-6f" x="1509.660156"/>
     <use xlink:href="#DejaVuSans-76" x="1570.841797"/>
     <use xlink:href="#DejaVuSans-65" x="1630.021484"/>
     <use xlink:href="#DejaVuSans-72" x="1691.544922"/>
     <use xlink:href="#DejaVuSans-20" x="1732.658203"/>
     <use xlink:href="#DejaVuSans-61" x="1764.445312"/>
     <use xlink:href="#DejaVuSans-76" x="1825.724609"/>
     <use xlink:href="#DejaVuSans-65" x="1884.904297"/>
     <use xlink:href="#DejaVuSans-72" x="1946.427734"/>
     <use xlink:href="#DejaVuSans-61" x="1987.541016"/>
     <use xlink:href="#DejaVuSans-67" x="2048.820312"/>
     <use xlink:href="#DejaVuSans-65" x="2112.296875"/>
     <use xlink:href="#DejaVuSans-20" x="2173.820312"/>
     <use xlink:href="#DejaVuSans-73" x="2205.607422"/>
     <use xlink:href="#DejaVuSans-74" x="2257.707031"/>
     <use xlink:href="#DejaVuSans-65" x="2296.916016"/>
     <use xlink:href="#DejaVuSans-70" x="2358.439453"/>
     <use xlink:href="#DejaVuSans-20" x="2421.916016"/>
     <use xlink:href="#DejaVuSans-63" x="2453.703125"/>
     <use xlink:href="#DejaVuSans-79" x="2508.683594"/>
     <use xlink:href="#DejaVuSans-63" x="2567.863281"/>
     <use xlink:href="#DejaVuSans-6c" x="2622.84375"/>
     <use xlink:href="#DejaVuSans-65" x="2650.626953"/>
    </g>
   </g>
   <g id="legend_1">
    <g id="patch_7">
     <path d="M 296.168438 103.70875 
L 397.509063 103.70875 
Q 399.509063 103.70875 399.509063 101.70875 
L 399.509063 29.318125 
Q 399.509063 27.318125 397.509063 27.318125 
L 296.168438 27.318125 
Q 294.168438 27.318125 294.168438 29.318125 
L 294.168438 101.70875 
Q 294.168438 103.70875 296.168438 103.70875 
z
" style="fill: #ffffff; opacity: 0.8; stroke: #cccccc; stroke-linejoin: miter"/>
    </g>
    <g id="line2d_18">
     <path d="M 298.168438 35.416562 
L 308.168438 35.416562 
L 318.168438 35.416562 
" style="fill: none; stroke: #440154; stroke-width: 1.5; stroke-linecap: square"/>
    </g>
    <g id="text_16">
     <!-- Hind paw tao  -->
     <g transform="translate(326.168438 38.916562) scale(0.1 -0.1)">
      <defs>
       <path id="DejaVuSans-48" d="M 628 4666 
L 1259 4666 
L 1259 2753 
L 3553 2753 
L 3553 4666 
L 4184 4666 
L 4184 0 
L 3553 0 
L 3553 2222 
L 1259 2222 
L 1259 0 
L 628 0 
L 628 4666 
z
" transform="scale(0.015625)"/>
       <path id="DejaVuSans-64" d="M 2906 2969 
L 2906 4863 
L 3481 4863 
L 3481 0 
L 2906 0 
L 2906 525 
Q 2725 213 2448 61 
Q 2172 -91 1784 -91 
Q 1150 -91 751 415 
Q 353 922 353 1747 
Q 353 2572 751 3078 
Q 1150 3584 1784 3584 
Q 2172 3584 2448 3432 
Q 2725 3281 2906 2969 
z
M 947 1747 
Q 947 1113 1208 752 
Q 1469 391 1925 391 
Q 2381 391 2643 752 
Q 2906 1113 2906 1747 
Q 2906 2381 2643 2742 
Q 2381 3103 1925 3103 
Q 1469 3103 1208 2742 
Q 947 2381 947 1747 
z
" transform="scale(0.015625)"/>
       <path id="DejaVuSans-77" d="M 269 3500 
L 844 3500 
L 1563 769 
L 2278 3500 
L 2956 3500 
L 3675 769 
L 4391 3500 
L 4966 3500 
L 4050 0 
L 3372 0 
L 2619 2869 
L 1863 0 
L 1184 0 
L 269 3500 
z
" transform="scale(0.015625)"/>
      </defs>
      <use xlink:href="#DejaVuSans-48"/>
      <use xlink:href="#DejaVuSans-69" x="75.195312"/>
      <use xlink:href="#DejaVuSans-6e" x="102.978516"/>
      <use xlink:href="#DejaVuSans-64" x="166.357422"/>
      <use xlink:href="#DejaVuSans-20" x="229.833984"/>
      <use xlink:href="#DejaVuSans-70" x="261.621094"/>
      <use xlink:href="#DejaVuSans-61" x="325.097656"/>
      <use xlink:href="#DejaVuSans-77" x="386.376953"/>
      <use xlink:href="#DejaVuSans-20" x="468.164062"/>
      <use xlink:href="#DejaVuSans-74" x="499.951172"/>
      <use xlink:href="#DejaVuSans-61" x="539.160156"/>
      <use xlink:href="#DejaVuSans-6f" x="600.439453"/>
      <use xlink:href="#DejaVuSans-20" x="661.621094"/>
     </g>
    </g>
    <g id="line2d_19">
     <path d="M 298.168438 50.094688 
L 308.168438 50.094688 
L 318.168438 50.094688 
" style="fill: none; stroke: #3b528b; stroke-width: 1.5; stroke-linecap: square"/>
    </g>
    <g id="text_17">
     <!-- Ankle  -->
     <g transform="translate(326.168438 53.594688) scale(0.1 -0.1)">
      <defs>
       <path id="DejaVuSans-41" d="M 2188 4044 
L 1331 1722 
L 3047 1722 
L 2188 4044 
z
M 1831 4666 
L 2547 4666 
L 4325 0 
L 3669 0 
L 3244 1197 
L 1141 1197 
L 716 0 
L 50 0 
L 1831 4666 
z
" transform="scale(0.015625)"/>
       <path id="DejaVuSans-6b" d="M 581 4863 
L 1159 4863 
L 1159 1991 
L 2875 3500 
L 3609 3500 
L 1753 1863 
L 3688 0 
L 2938 0 
L 1159 1709 
L 1159 0 
L 581 0 
L 581 4863 
z
" transform="scale(0.015625)"/>
      </defs>
      <use xlink:href="#DejaVuSans-41"/>
      <use xlink:href="#DejaVuSans-6e" x="68.408203"/>
      <use xlink:href="#DejaVuSans-6b" x="131.787109"/>
      <use xlink:href="#DejaVuSans-6c" x="189.697266"/>
      <use xlink:href="#DejaVuSans-65" x="217.480469"/>
      <use xlink:href="#DejaVuSans-20" x="279.003906"/>
     </g>
    </g>
    <g id="line2d_20">
     <path d="M 298.168438 64.772812 
L 308.168438 64.772812 
L 318.168438 64.772812 
" style="fill: none; stroke: #21918c; stroke-width: 1.5; stroke-linecap: square"/>
    </g>
    <g id="text_18">
     <!-- Knee  -->
     <g transform="translate(326.168438 68.272812) scale(0.1 -0.1)">
      <defs>
       <path id="DejaVuSans-4b" d="M 628 4666 
L 1259 4666 
L 1259 2694 
L 3353 4666 
L 4166 4666 
L 1850 2491 
L 4331 0 
L 3500 0 
L 1259 2247 
L 1259 0 
L 628 0 
L 628 4666 
z
" transform="scale(0.015625)"/>
      </defs>
      <use xlink:href="#DejaVuSans-4b"/>
      <use xlink:href="#DejaVuSans-6e" x="65.576172"/>
      <use xlink:href="#DejaVuSans-65" x="128.955078"/>
      <use xlink:href="#DejaVuSans-65" x="190.478516"/>
      <use xlink:href="#DejaVuSans-20" x="252.001953"/>
     </g>
    </g>
    <g id="line2d_21">
     <path d="M 298.168438 79.450938 
L 308.168438 79.450938 
L 318.168438 79.450938 
" style="fill: none; stroke: #5ec962; stroke-width: 1.5; stroke-linecap: square"/>
    </g>
    <g id="text_19">
     <!-- Hip  -->
     <g transform="translate(326.168438 82.950938) scale(0.1 -0.1)">
      <use xlink:href="#DejaVuSans-48"/>
      <use xlink:href="#DejaVuSans-69" x="75.195312"/>
      <use xlink:href="#DejaVuSans-70" x="102.978516"/>
      <use xlink:href="#DejaVuSans-20" x="166.455078"/>
     </g>
    </g>
    <g id="line2d_22">
     <path d="M 298.168438 94.129063 
L 308.168438 94.129063 
L 318.168438 94.129063 
" style="fill: none; stroke: #fde725; stroke-width: 1.5; stroke-linecap: square"/>
    </g>
    <g id="text_20">
     <!-- Iliac Crest  -->
     <g transform="translate(326.168438 97.629063) scale(0.1 -0.1)">
      <defs>
       <path id="DejaVuSans-43" d="M 4122 4306 
L 4122 3641 
Q 3803 3938 3442 4084 
Q 3081 4231 2675 4231 
Q 1875 4231 1450 3742 
Q 1025 3253 1025 2328 
Q 1025 1406 1450 917 
Q 1875 428 2675 428 
Q 3081 428 3442 575 
Q 3803 722 4122 1019 
L 4122 359 
Q 3791 134 3420 21 
Q 3050 -91 2638 -91 
Q 1578 -91 968 557 
Q 359 1206 359 2328 
Q 359 3453 968 4101 
Q 1578 4750 2638 4750 
Q 3056 4750 3426 4639 
Q 3797 4528 4122 4306 
z
" transform="scale(0.015625)"/>
      </defs>
      <use xlink:href="#DejaVuSans-49"/>
      <use xlink:href="#DejaVuSans-6c" x="29.492188"/>
      <use xlink:href="#DejaVuSans-69" x="57.275391"/>
      <use xlink:href="#DejaVuSans-61" x="85.058594"/>
      <use xlink:href="#DejaVuSans-63" x="146.337891"/>
      <use xlink:href="#DejaVuSans-20" x="201.318359"/>
      <use xlink:href="#DejaVuSans-43" x="233.105469"/>
      <use xlink:href="#DejaVuSans-72" x="302.929688"/>
      <use xlink:href="#DejaVuSans-65" x="341.792969"/>
      <use xlink:href="#DejaVuSans-73" x="403.316406"/>
      <use xlink:href="#DejaVuSans-74" x="455.416016"/>
      <use xlink:href="#DejaVuSans-20" x="494.625"/>
     </g>
    </g>
   </g>
  </g>
 </g>
 <defs>
  <clipPath id="p4ea4df98b1">
   <rect x="47.389063" y="22.318125" width="357.12" height="266.112"/>
  </clipPath>
 </defs>
</svg>
