<?xml version="1.0" encoding="utf-8" standalone="no"?>
<!DOCTYPE svg PUBLIC "-//W3C//DTD SVG 1.1//EN"
  "http://www.w3.org/Graphics/SVG/1.1/DTD/svg11.dtd">
<svg xmlns:xlink="http://www.w3.org/1999/xlink" width="522.049688pt" height="325.986375pt" viewBox="0 0 522.049688 325.986375" xmlns="http://www.w3.org/2000/svg" version="1.1">
 <metadata>
  <rdf:RDF xmlns:dc="http://purl.org/dc/elements/1.1/" xmlns:cc="http://creativecommons.org/ns#" xmlns:rdf="http://www.w3.org/1999/02/22-rdf-syntax-ns#">
   <cc:Work>
    <dc:type rdf:resource="http://purl.org/dc/dcmitype/StillImage"/>
    <dc:date>2026-08-31T14:38:00.880460</dc:date>
    <dc:format>image/svg+xml</dc:format>
    <dc:creator>
     <cc:Agent>
      <dc:title>Matplotlib v3.10.1, https://matplotlib.org/</dc:title>
     </cc:Agent>
    </dc:creator>
   </cc:Work>
  </rdf:RDF>
 </metadata>
 <defs>
  <style type="text/css">*{stroke-linejoin: round; stroke-linecap: butt}</style>
 </defs>
 <g id="figure_1">
  <g id="patch_1">
   <path d="M 0 325.986375 
L 522.049688 325.986375 
L 522.049688 0 
L 0 0 
z
" style="fill: #ffffff"/>
  </g>
  <g id="axes_1">
   <g id="patch_2">
    <path d="M 47.389063 288.430125 
L 404.509063 288.430125 
L 404.509063 22.318125 
L 47.389063 22.318125 
z
" style="fill: #ffffff"/>
   </g>
   <g id="FillBetweenPolyCollection_1">
    <path d="M 63.62179 259.282936 
L 63.62179 259.282936 
L 77.149063 246.742164 
L 90.676335 248.974277 
L 104.203608 253.673658 
L 117.730881 255.759818 
L 131.258153 255.558411 
L 144.785426 255.107863 
L 158.312699 256.496278 
L 171.839972 259.406049 
L 185.367244 254.696786 
L 198.894517 253.766208 
L 212.42179 253.777494 
L 225.949062 255.039773 
L 239.476335 256.716044 
L 253.003608 257.122369 
L 266.530881 257.245913 
L 280.058153 256.460208 
L 293.585426 255.624772 
L 307.112699 252.719538 
L 320.639972 253.908219 
L 334.167244 250.467554 
L 347.694517 248.810181 
L 361.22179 249.088156 
L 374.749063 248.831456 
L 388.276335 250.836243 
L 388.276335 250.836243 
L 388.276335 250.836243 
L 374.749063 248.831456 
L 361.22179 249.088156 
L 347.694517 248.810181 
L 334.167244 250.467554 
L 320.639972 253.908219 
L 307.112699 252.719538 
L 293.585426 255.624772 
L 280.058153 256.460208 
L 266.530881 257.245913 
L 253.003608 257.122369 
L 239.476335 256.716044 
L 225.949062 255.039773 
L 212.42179 253.777494 
L 198.894517 253.766208 
L 185.367244 254.696786 
L 171.839972 259.406049 
L 158.312699 256.496278 
L 144.785426 255.107863 
L 131.258153 255.558411 
L 117.730881 255.759818 
L 104.203608 253.673658 
L 90.676335 248.974277 
L 77.149063 246.742164 
L 63.62179 259.282936 
z
" clip-path="url(#pdf707b00fe)" style="fill: #66c2a5; fill-opacity: 0.2"/>
   </g>
   <g id="FillBetweenPolyCollection_2">
    <path d="M 63.62179 190.763314 
L 63.62179 190.763314 
L 77.149063 215.317743 
L 90.676335 230.055476 
L 104.203608 230.21671 
L 117.730881 232.007779 
L 131.258153 234.448426 
L 144.785426 234.450154 
L 158.312699 233.421842 
L 171.839972 233.820338 
L 185.367244 227.741235 
L 198.894517 226.583007 
L 212.42179 223.536571 
L 225.949062 220.762224 
L 239.476335 222.392166 
L 253.003608 218.981307 
L 266.530881 211.852077 
L 280.058153 204.592554 
L 293.585426 204.565879 
L 307.112699 201.854168 
L 320.639972 199.54862 
L 334.167244 194.29464 
L 347.694517 190.33593 
L 361.22179 185.379039 
L 374.749063 181.812454 
L 388.276335 182.143129 
L 388.276335 182.143129 
L 388.276335 182.143129 
L 374.749063 181.812454 
L 361.22179 185.379039 
L 347.694517 190.33593 
L 334.167244 194.29464 
L 320.639972 199.54862 
L 307.112699 201.854168 
L 293.585426 204.565879 
L 280.058153 204.592554 
L 266.530881 211.852077 
L 253.003608 218.981307 
L 239.476335 222.392166 
L 225.949062 220.762224 
L 212.42179 223.536571 
L 198.894517 226.583007 
L 185.367244 227.741235 
L 171.839972 233.820338 
L 158.312699 233.421842 
L 144.785426 234.450154 
L 131.258153 234.448426 
L 117.730881 232.007779 
L 104.203608 230.21671 
L 90.676335 230.055476 
L 77.149063 215.317743 
L 63.62179 190.763314 
z
" clip-path="url(#pdf707b00fe)" style="fill: #fc8d62; fill-opacity: 0.2"/>
   </g>
   <g id="FillBetweenPolyCollection_3">
    <path d="M 63.62179 173.265273 
L 63.62179 173.265273 
L 77.149063 153.176419 
L 90.676335 145.748858 
L 104.203608 148.47774 
L 117.730881 149.052912 
L 131.258153 153.990418 
L 144.785426 153.565195 
L 158.312699 157.727255 
L 171.839972 164.090596 
L 185.367244 163.669207 
L 198.894517 167.432502 
L 212.42179 168.649046 
L 225.949062 174.58171 
L 239.476335 182.221208 
L 253.003608 184.30618 
L 266.530881 188.262082 
L 280.058153 193.914611 
L 293.585426 191.914684 
L 307.112699 190.611745 
L 320.639972 191.181842 
L 334.167244 190.232473 
L 347.694517 189.57069 
L 361.22179 189.98722 
L 374.749063 191.635953 
L 388.276335 193.508557 
L 388.276335 193.508557 
L 388.276335 193.508557 
L 374.749063 191.635953 
L 361.22179 189.98722 
L 347.694517 189.57069 
L 334.167244 190.232473 
L 320.639972 191.181842 
L 307.112699 190.611745 
L 293.585426 191.914684 
L 280.058153 193.914611 
L 266.530881 188.262082 
L 253.003608 184.30618 
L 239.476335 182.221208 
L 225.949062 174.58171 
L 212.42179 168.649046 
L 198.894517 167.432502 
L 185.367244 163.669207 
L 171.839972 164.090596 
L 158.312699 157.727255 
L 144.785426 153.565195 
L 131.258153 153.990418 
L 117.730881 149.052912 
L 104.203608 148.47774 
L 90.676335 145.748858 
L 77.149063 153.176419 
L 63.62179 173.265273 
z
" clip-path="url(#pdf707b00fe)" style="fill: #8da0cb; fill-opacity: 0.2"/>
   </g>
   <g id="FillBetweenPolyCollection_4">
    <path d="M 63.62179 127.320455 
L 63.62179 127.320455 
L 77.149063 127.128065 
L 90.676335 125.530952 
L 104.203608 137.879226 
L 117.730881 141.866662 
L 131.258153 140.895748 
L 144.785426 138.991017 
L 158.312699 135.09327 
L 171.839972 134.223222 
L 185.367244 126.161957 
L 198.894517 126.495224 
L 212.42179 127.950919 
L 225.949062 131.297901 
L 239.476335 135.128476 
L 253.003608 139.117855 
L 266.530881 140.566261 
L 280.058153 143.4067 
L 293.585426 139.588058 
L 307.112699 138.755106 
L 320.639972 142.820512 
L 334.167244 137.288233 
L 347.694517 135.60937 
L 361.22179 135.853543 
L 374.749063 135.679997 
L 388.276335 136.287892 
L 388.276335 136.287892 
L 388.276335 136.287892 
L 374.749063 135.679997 
L 361.22179 135.853543 
L 347.694517 135.60937 
L 334.167244 137.288233 
L 320.639972 142.820512 
L 307.112699 138.755106 
L 293.585426 139.588058 
L 280.058153 143.4067 
L 266.530881 140.566261 
L 253.003608 139.117855 
L 239.476335 135.128476 
L 225.949062 131.297901 
L 212.42179 127.950919 
L 198.894517 126.495224 
L 185.367244 126.161957 
L 171.839972 134.223222 
L 158.312699 135.09327 
L 144.785426 138.991017 
L 131.258153 140.895748 
L 117.730881 141.866662 
L 104.203608 137.879226 
L 90.676335 125.530952 
L 77.149063 127.128065 
L 63.62179 127.320455 
z
" clip-path="url(#pdf707b00fe)" style="fill: #e78ac3; fill-opacity: 0.2"/>
   </g>
   <g id="FillBetweenPolyCollection_5">
    <path d="M 63.62179 75.010864 
L 63.62179 75.010864 
L 77.149063 68.79299 
L 90.676335 65.108773 
L 104.203608 75.982237 
L 117.730881 80.326185 
L 131.258153 80.780459 
L 144.785426 77.816017 
L 158.312699 74.351188 
L 171.839972 73.886601 
L 185.367244 66.073423 
L 198.894517 66.914636 
L 212.42179 71.449246 
L 225.949062 75.218374 
L 239.476335 79.810679 
L 253.003608 83.018565 
L 266.530881 85.133019 
L 280.058153 87.783147 
L 293.585426 85.837109 
L 307.112699 84.642865 
L 320.639972 88.878415 
L 334.167244 86.241867 
L 347.694517 84.153764 
L 361.22179 85.700551 
L 374.749063 86.525134 
L 388.276335 87.636276 
L 388.276335 87.636276 
L 388.276335 87.636276 
L 374.749063 86.525134 
L 361.22179 85.700551 
L 347.694517 84.153764 
L 334.167244 86.241867 
L 320.639972 88.878415 
L 307.112699 84.642865 
L 293.585426 85.837109 
L 280.058153 87.783147 
L 266.530881 85.133019 
L 253.003608 83.018565 
L 239.476335 79.810679 
L 225.949062 75.218374 
L 212.42179 71.449246 
L 198.894517 66.914636 
L 185.367244 66.073423 
L 171.839972 73.886601 
L 158.312699 74.351188 
L 144.785426 77.816017 
L 131.258153 80.780459 
L 117.730881 80.326185 
L 104.203608 75.982237 
L 90.676335 65.108773 
L 77.149063 68.79299 
L 63.62179 75.010864 
z
" clip-path="url(#pdf707b00fe)" style="fill: #a6d854; fill-opacity: 0.2"/>
   </g>
   <g id="matplotlib.axis_1">
    <g id="xtick_1">
     <g id="line2d_1">
      <defs>
       <path id="m2b1b489f1c" d="M 0 0 
L 0 3.5 
" style="stroke: #000000; stroke-width: 0.8"/>
      </defs>
      <g>
       <use xlink:href="#m2b1b489f1c" x="63.62179" y="288.430125" style="stroke: #000000; stroke-width: 0.8"/>
      </g>
     </g>
     <g id="text_1">
      <!-- 0 -->
      <g transform="translate(60.44054 303.028562) scale(0.1 -0.1)">
       <defs>
        <path id="DejaVuSans-30" d="M 2034 4250 
Q 1547 4250 1301 3770 
Q 1056 3291 1056 2328 
Q 1056 1369 1301 889 
Q 1547 409 2034 409 
Q 2525 409 2770 889 
Q 3016 1369 3016 2328 
Q 3016 3291 2770 3770 
Q 2525 4250 2034 4250 
z
M 2034 4750 
Q 2819 4750 3233 4129 
Q 3647 3509 3647 2328 
Q 3647 1150 3233 529 
Q 2819 -91 2034 -91 
Q 1250 -91 836 529 
Q 422 1150 422 2328 
Q 422 3509 836 4129 
Q 1250 4750 2034 4750 
z
" transform="scale(0.015625)"/>
       </defs>
       <use xlink:href="#DejaVuSans-30"/>
      </g>
     </g>
    </g>
    <g id="xtick_2">
     <g id="line2d_2">
      <g>
       <use xlink:href="#m2b1b489f1c" x="128.552699" y="288.430125" style="stroke: #000000; stroke-width: 0.8"/>
      </g>
     </g>
     <g id="text_2">
      <!-- 20 -->
      <g transform="translate(122.190199 303.028562) scale(0.1 -0.1)">
       <defs>
        <path id="DejaVuSans-32" d="M 1228 531 
L 3431 531 
L 3431 0 
L 469 0 
L 469 531 
Q 828 903 1448 1529 
Q 2069 2156 2228 2338 
Q 2531 2678 2651 2914 
Q 2772 3150 2772 3378 
Q 2772 3750 2511 3984 
Q 2250 4219 1831 4219 
Q 1534 4219 1204 4116 
Q 875 4013 500 3803 
L 500 4441 
Q 881 4594 1212 4672 
Q 1544 4750 1819 4750 
Q 2544 4750 2975 4387 
Q 3406 4025 3406 3419 
Q 3406 3131 3298 2873 
Q 3191 2616 2906 2266 
Q 2828 2175 2409 1742 
Q 1991 1309 1228 531 
z
" transform="scale(0.015625)"/>
       </defs>
       <use xlink:href="#DejaVuSans-32"/>
       <use xlink:href="#DejaVuSans-30" transform="translate(63.623047 0)"/>
      </g>
     </g>
    </g>
    <g id="xtick_3">
     <g id="line2d_3">
      <g>
       <use xlink:href="#m2b1b489f1c" x="193.483608" y="288.430125" style="stroke: #000000; stroke-width: 0.8"/>
      </g>
     </g>
     <g id="text_3">
      <!-- 40 -->
      <g transform="translate(187.121108 303.028562) scale(0.1 -0.1)">
       <defs>
        <path id="DejaVuSans-34" d="M 2419 4116 
L 825 1625 
L 2419 1625 
L 2419 4116 
z
M 2253 4666 
L 3047 4666 
L 3047 1625 
L 3713 1625 
L 3713 1100 
L 3047 1100 
L 3047 0 
L 2419 0 
L 2419 1100 
L 313 1100 
L 313 1709 
L 2253 4666 
z
" transform="scale(0.015625)"/>
       </defs>
       <use xlink:href="#DejaVuSans-34"/>
       <use xlink:href="#DejaVuSans-30" transform="translate(63.623047 0)"/>
      </g>
     </g>
    </g>
    <g id="xtick_4">
     <g id="line2d_4">
      <g>
       <use xlink:href="#m2b1b489f1c" x="258.414517" y="288.430125" style="stroke: #000000; stroke-width: 0.8"/>
      </g>
     </g>
     <g id="text_4">
      <!-- 60 -->
      <g transform="translate(252.052017 303.028562) scale(0.1 -0.1)">
       <defs>
        <path id="DejaVuSans-36" d="M 2113 2584 
Q 1688 2584 1439 2293 
Q 1191 2003 1191 1497 
Q 1191 994 1439 701 
Q 1688 409 2113 409 
Q 2538 409 2786 701 
Q 3034 994 3034 1497 
Q 3034 2003 2786 2293 
Q 2538 2584 2113 2584 
z
M 3366 4563 
L 3366 3988 
Q 3128 4100 2886 4159 
Q 2644 4219 2406 4219 
Q 1781 4219 1451 3797 
Q 1122 3375 1075 2522 
Q 1259 2794 1537 2939 
Q 1816 3084 2150 3084 
Q 2853 3084 3261 2657 
Q 3669 2231 3669 1497 
Q 3669 778 3244 343 
Q 2819 -91 2113 -91 
Q 1303 -91 875 529 
Q 447 1150 447 2328 
Q 447 3434 972 4092 
Q 1497 4750 2381 4750 
Q 2619 4750 2861 4703 
Q 3103 4656 3366 4563 
z
" transform="scale(0.015625)"/>
       </defs>
       <use xlink:href="#DejaVuSans-36"/>
       <use xlink:href="#DejaVuSans-30" transform="translate(63.623047 0)"/>
      </g>
     </g>
    </g>
    <g id="xtick_5">
     <g id="line2d_5">
      <g>
       <use xlink:href="#m2b1b489f1c" x="323.345426" y="288.430125" style="stroke: #000000; stroke-width: 0.8"/>
      </g>
     </g>
     <g id="text_5">
      <!-- 80 -->
      <g transform="translate(316.982926 303.028562) scale(0.1 -0.1)">
       <defs>
        <path id="DejaVuSans-38" d="M 2034 2216 
Q 1584 2216 1326 1975 
Q 1069 1734 1069 1313 
Q 1069 891 1326 650 
Q 1584 409 2034 409 
Q 2484 409 2743 651 
Q 3003 894 3003 1313 
Q 3003 1734 2745 1975 
Q 2488 2216 2034 2216 
z
M 1403 2484 
Q 997 2584 770 2862 
Q 544 3141 544 3541 
Q 544 4100 942 4425 
Q 1341 4750 2034 4750 
Q 2731 4750 3128 4425 
Q 3525 4100 3525 3541 
Q 3525 3141 3298 2862 
Q 3072 2584 2669 2484 
Q 3125 2378 3379 2068 
Q 3634 1759 3634 1313 
Q 3634 634 3220 271 
Q 2806 -91 2034 -91 
Q 1263 -91 848 271 
Q 434 634 434 1313 
Q 434 1759 690 2068 
Q 947 2378 1403 2484 
z
M 1172 3481 
Q 1172 3119 1398 2916 
Q 1625 2713 2034 2713 
Q 2441 2713 2670 2916 
Q 2900 3119 2900 3481 
Q 2900 3844 2670 4047 
Q 2441 4250 2034 4250 
Q 1625 4250 1398 4047 
Q 1172 3844 1172 3481 
z
" transform="scale(0.015625)"/>
       </defs>
       <use xlink:href="#DejaVuSans-38"/>
       <use xlink:href="#DejaVuSans-30" transform="translate(63.623047 0)"/>
      </g>
     </g>
    </g>
    <g id="xtick_6">
     <g id="line2d_6">
      <g>
       <use xlink:href="#m2b1b489f1c" x="388.276335" y="288.430125" style="stroke: #000000; stroke-width: 0.8"/>
      </g>
     </g>
     <g id="text_6">
      <!-- 100 -->
      <g transform="translate(378.732585 303.028562) scale(0.1 -0.1)">
       <defs>
        <path id="DejaVuSans-31" d="M 794 531 
L 1825 531 
L 1825 4091 
L 703 3866 
L 703 4441 
L 1819 4666 
L 2450 4666 
L 2450 531 
L 3481 531 
L 3481 0 
L 794 0 
L 794 531 
z
" transform="scale(0.015625)"/>
       </defs>
       <use xlink:href="#DejaVuSans-31"/>
       <use xlink:href="#DejaVuSans-30" transform="translate(63.623047 0)"/>
       <use xlink:href="#DejaVuSans-30" transform="translate(127.246094 0)"/>
      </g>
     </g>
    </g>
    <g id="text_7">
     <!-- Percentage -->
     <g transform="translate(197.826406 316.706687) scale(0.1 -0.1)">
      <defs>
       <path id="DejaVuSans-50" d="M 1259 4147 
L 1259 2394 
L 2053 2394 
Q 2494 2394 2734 2622 
Q 2975 2850 2975 3272 
Q 2975 3691 2734 3919 
Q 2494 4147 2053 4147 
L 1259 4147 
z
M 628 4666 
L 2053 4666 
Q 2838 4666 3239 4311 
Q 3641 3956 3641 3272 
Q 3641 2581 3239 2228 
Q 2838 1875 2053 1875 
L 1259 1875 
L 1259 0 
L 628 0 
L 628 4666 
z
" transform="scale(0.015625)"/>
       <path id="DejaVuSans-65" d="M 3597 1894 
L 3597 1613 
L 953 1613 
Q 991 1019 1311 708 
Q 1631 397 2203 397 
Q 2534 397 2845 478 
Q 3156 559 3463 722 
L 3463 178 
Q 3153 47 2828 -22 
Q 2503 -91 2169 -91 
Q 1331 -91 842 396 
Q 353 884 353 1716 
Q 353 2575 817 3079 
Q 1281 3584 2069 3584 
Q 2775 3584 3186 3129 
Q 3597 2675 3597 1894 
z
M 3022 2063 
Q 3016 2534 2758 2815 
Q 2500 3097 2075 3097 
Q 1594 3097 1305 2825 
Q 1016 2553 972 2059 
L 3022 2063 
z
" transform="scale(0.015625)"/>
       <path id="DejaVuSans-72" d="M 2631 2963 
Q 2534 3019 2420 3045 
Q 2306 3072 2169 3072 
Q 1681 3072 1420 2755 
Q 1159 2438 1159 1844 
L 1159 0 
L 581 0 
L 581 3500 
L 1159 3500 
L 1159 2956 
Q 1341 3275 1631 3429 
Q 1922 3584 2338 3584 
Q 2397 3584 2469 3576 
Q 2541 3569 2628 3553 
L 2631 2963 
z
" transform="scale(0.015625)"/>
       <path id="DejaVuSans-63" d="M 3122 3366 
L 3122 2828 
Q 2878 2963 2633 3030 
Q 2388 3097 2138 3097 
Q 1578 3097 1268 2742 
Q 959 2388 959 1747 
Q 959 1106 1268 751 
Q 1578 397 2138 397 
Q 2388 397 2633 464 
Q 2878 531 3122 666 
L 3122 134 
Q 2881 22 2623 -34 
Q 2366 -91 2075 -91 
Q 1284 -91 818 406 
Q 353 903 353 1747 
Q 353 2603 823 3093 
Q 1294 3584 2113 3584 
Q 2378 3584 2631 3529 
Q 2884 3475 3122 3366 
z
" transform="scale(0.015625)"/>
       <path id="DejaVuSans-6e" d="M 3513 2113 
L 3513 0 
L 2938 0 
L 2938 2094 
Q 2938 2591 2744 2837 
Q 2550 3084 2163 3084 
Q 1697 3084 1428 2787 
Q 1159 2491 1159 1978 
L 1159 0 
L 581 0 
L 581 3500 
L 1159 3500 
L 1159 2956 
Q 1366 3272 1645 3428 
Q 1925 3584 2291 3584 
Q 2894 3584 3203 3211 
Q 3513 2838 3513 2113 
z
" transform="scale(0.015625)"/>
       <path id="DejaVuSans-74" d="M 1172 4494 
L 1172 3500 
L 2356 3500 
L 2356 3053 
L 1172 3053 
L 1172 1153 
Q 1172 725 1289 603 
Q 1406 481 1766 481 
L 2356 481 
L 2356 0 
L 1766 0 
Q 1100 0 847 248 
Q 594 497 594 1153 
L 594 3053 
L 172 3053 
L 172 3500 
L 594 3500 
L 594 4494 
L 1172 4494 
z
" transform="scale(0.015625)"/>
       <path id="DejaVuSans-61" d="M 2194 1759 
Q 1497 1759 1228 1600 
Q 959 1441 959 1056 
Q 959 750 1161 570 
Q 1363 391 1709 391 
Q 2188 391 2477 730 
Q 2766 1069 2766 1631 
L 2766 1759 
L 2194 1759 
z
M 3341 1997 
L 3341 0 
L 2766 0 
L 2766 531 
Q 2569 213 2275 61 
Q 1981 -91 1556 -91 
Q 1019 -91 701 211 
Q 384 513 384 1019 
Q 384 1609 779 1909 
Q 1175 2209 1959 2209 
L 2766 2209 
L 2766 2266 
Q 2766 2663 2505 2880 
Q 2244 3097 1772 3097 
Q 1472 3097 1187 3025 
Q 903 2953 641 2809 
L 641 3341 
Q 956 3463 1253 3523 
Q 1550 3584 1831 3584 
Q 2591 3584 2966 3190 
Q 3341 2797 3341 1997 
z
" transform="scale(0.015625)"/>
       <path id="DejaVuSans-67" d="M 2906 1791 
Q 2906 2416 2648 2759 
Q 2391 3103 1925 3103 
Q 1463 3103 1205 2759 
Q 947 2416 947 1791 
Q 947 1169 1205 825 
Q 1463 481 1925 481 
Q 2391 481 2648 825 
Q 2906 1169 2906 1791 
z
M 3481 434 
Q 3481 -459 3084 -895 
Q 2688 -1331 1869 -1331 
Q 1566 -1331 1297 -1286 
Q 1028 -1241 775 -1147 
L 775 -588 
Q 1028 -725 1275 -790 
Q 1522 -856 1778 -856 
Q 2344 -856 2625 -561 
Q 2906 -266 2906 331 
L 2906 616 
Q 2728 306 2450 153 
Q 2172 0 1784 0 
Q 1141 0 747 490 
Q 353 981 353 1791 
Q 353 2603 747 3093 
Q 1141 3584 1784 3584 
Q 2172 3584 2450 3431 
Q 2728 3278 2906 2969 
L 2906 3500 
L 3481 3500 
L 3481 434 
z
" transform="scale(0.015625)"/>
      </defs>
      <use xlink:href="#DejaVuSans-50"/>
      <use xlink:href="#DejaVuSans-65" transform="translate(56.677734 0)"/>
      <use xlink:href="#DejaVuSans-72" transform="translate(118.201172 0)"/>
      <use xlink:href="#DejaVuSans-63" transform="translate(157.064453 0)"/>
      <use xlink:href="#DejaVuSans-65" transform="translate(212.044922 0)"/>
      <use xlink:href="#DejaVuSans-6e" transform="translate(273.568359 0)"/>
      <use xlink:href="#DejaVuSans-74" transform="translate(336.947266 0)"/>
      <use xlink:href="#DejaVuSans-61" transform="translate(376.15625 0)"/>
      <use xlink:href="#DejaVuSans-67" transform="translate(437.435547 0)"/>
      <use xlink:href="#DejaVuSans-65" transform="translate(500.912109 0)"/>
     </g>
    </g>
   </g>
   <g id="matplotlib.axis_2">
    <g id="ytick_1">
     <g id="line2d_7">
      <defs>
       <path id="m544e2e428a" d="M 0 0 
L -3.5 0 
" style="stroke: #000000; stroke-width: 0.8"/>
      </defs>
      <g>
       <use xlink:href="#m544e2e428a" x="47.389063" y="288.430125" style="stroke: #000000; stroke-width: 0.8"/>
      </g>
     </g>
     <g id="text_8">
      <!-- -0.5 -->
      <g transform="translate(20.878125 292.229344) scale(0.1 -0.1)">
       <defs>
        <path id="DejaVuSans-2d" d="M 313 2009 
L 1997 2009 
L 1997 1497 
L 313 1497 
L 313 2009 
z
" transform="scale(0.015625)"/>
        <path id="DejaVuSans-2e" d="M 684 794 
L 1344 794 
L 1344 0 
L 684 0 
L 684 794 
z
" transform="scale(0.015625)"/>
        <path id="DejaVuSans-35" d="M 691 4666 
L 3169 4666 
L 3169 4134 
L 1269 4134 
L 1269 2991 
Q 1406 3038 1543 3061 
Q 1681 3084 1819 3084 
Q 2600 3084 3056 2656 
Q 3513 2228 3513 1497 
Q 3513 744 3044 326 
Q 2575 -91 1722 -91 
Q 1428 -91 1123 -41 
Q 819 9 494 109 
L 494 744 
Q 775 591 1075 516 
Q 1375 441 1709 441 
Q 2250 441 2565 725 
Q 2881 1009 2881 1497 
Q 2881 1984 2565 2268 
Q 2250 2553 1709 2553 
Q 1456 2553 1204 2497 
Q 953 2441 691 2322 
L 691 4666 
z
" transform="scale(0.015625)"/>
       </defs>
       <use xlink:href="#DejaVuSans-2d"/>
       <use xlink:href="#DejaVuSans-30" transform="translate(36.083984 0)"/>
       <use xlink:href="#DejaVuSans-2e" transform="translate(99.707031 0)"/>
       <use xlink:href="#DejaVuSans-35" transform="translate(131.494141 0)"/>
      </g>
     </g>
    </g>
    <g id="ytick_2">
     <g id="line2d_8">
      <g>
       <use xlink:href="#m544e2e428a" x="47.389063" y="255.166125" style="stroke: #000000; stroke-width: 0.8"/>
      </g>
     </g>
     <g id="text_9">
      <!-- 0.0 -->
      <g transform="translate(24.485938 258.965344) scale(0.1 -0.1)">
       <use xlink:href="#DejaVuSans-30"/>
       <use xlink:href="#DejaVuSans-2e" transform="translate(63.623047 0)"/>
       <use xlink:href="#DejaVuSans-30" transform="translate(95.410156 0)"/>
      </g>
     </g>
    </g>
    <g id="ytick_3">
     <g id="line2d_9">
      <g>
       <use xlink:href="#m544e2e428a" x="47.389063" y="221.902125" style="stroke: #000000; stroke-width: 0.8"/>
      </g>
     </g>
     <g id="text_10">
      <!-- 0.5 -->
      <g transform="translate(24.485938 225.701344) scale(0.1 -0.1)">
       <use xlink:href="#DejaVuSans-30"/>
       <use xlink:href="#DejaVuSans-2e" transform="translate(63.623047 0)"/>
       <use xlink:href="#DejaVuSans-35" transform="translate(95.410156 0)"/>
      </g>
     </g>
    </g>
    <g id="ytick_4">
     <g id="line2d_10">
      <g>
       <use xlink:href="#m544e2e428a" x="47.389063" y="188.638125" style="stroke: #000000; stroke-width: 0.8"/>
      </g>
     </g>
     <g id="text_11">
      <!-- 1.0 -->
      <g transform="translate(24.485938 192.437344) scale(0.1 -0.1)">
       <use xlink:href="#DejaVuSans-31"/>
       <use xlink:href="#DejaVuSans-2e" transform="translate(63.623047 0)"/>
       <use xlink:href="#DejaVuSans-30" transform="translate(95.410156 0)"/>
      </g>
     </g>
    </g>
    <g id="ytick_5">
     <g id="line2d_11">
      <g>
       <use xlink:href="#m544e2e428a" x="47.389063" y="155.374125" style="stroke: #000000; stroke-width: 0.8"/>
      </g>
     </g>
     <g id="text_12">
      <!-- 1.5 -->
      <g transform="translate(24.485938 159.173344) scale(0.1 -0.1)">
       <use xlink:href="#DejaVuSans-31"/>
       <use xlink:href="#DejaVuSans-2e" transform="translate(63.623047 0)"/>
       <use xlink:href="#DejaVuSans-35" transform="translate(95.410156 0)"/>
      </g>
     </g>
    </g>
    <g id="ytick_6">
     <g id="line2d_12">
      <g>
       <use xlink:href="#m544e2e428a" x="47.389063" y="122.110125" style="stroke: #000000; stroke-width: 0.8"/>
      </g>
     </g>
     <g id="text_13">
      <!-- 2.0 -->
      <g transform="translate(24.485938 125.909344) scale(0.1 -0.1)">
       <use xlink:href="#DejaVuSans-32"/>
       <use xlink:href="#DejaVuSans-2e" transform="translate(63.623047 0)"/>
       <use xlink:href="#DejaVuSans-30" transform="translate(95.410156 0)"/>
      </g>
     </g>
    </g>
    <g id="ytick_7">
     <g id="line2d_13">
      <g>
       <use xlink:href="#m544e2e428a" x="47.389063" y="88.846125" style="stroke: #000000; stroke-width: 0.8"/>
      </g>
     </g>
     <g id="text_14">
      <!-- 2.5 -->
      <g transform="translate(24.485938 92.645344) scale(0.1 -0.1)">
       <use xlink:href="#DejaVuSans-32"/>
       <use xlink:href="#DejaVuSans-2e" transform="translate(63.623047 0)"/>
       <use xlink:href="#DejaVuSans-35" transform="translate(95.410156 0)"/>
      </g>
     </g>
    </g>
    <g id="ytick_8">
     <g id="line2d_14">
      <g>
       <use xlink:href="#m544e2e428a" x="47.389063" y="55.582125" style="stroke: #000000; stroke-width: 0.8"/>
      </g>
     </g>
     <g id="text_15">
      <!-- 3.0 -->
      <g transform="translate(24.485938 59.381344) scale(0.1 -0.1)">
       <defs>
        <path id="DejaVuSans-33" d="M 2597 2516 
Q 3050 2419 3304 2112 
Q 3559 1806 3559 1356 
Q 3559 666 3084 287 
Q 2609 -91 1734 -91 
Q 1441 -91 1130 -33 
Q 819 25 488 141 
L 488 750 
Q 750 597 1062 519 
Q 1375 441 1716 441 
Q 2309 441 2620 675 
Q 2931 909 2931 1356 
Q 2931 1769 2642 2001 
Q 2353 2234 1838 2234 
L 1294 2234 
L 1294 2753 
L 1863 2753 
Q 2328 2753 2575 2939 
Q 2822 3125 2822 3475 
Q 2822 3834 2567 4026 
Q 2313 4219 1838 4219 
Q 1578 4219 1281 4162 
Q 984 4106 628 3988 
L 628 4550 
Q 988 4650 1302 4700 
Q 1616 4750 1894 4750 
Q 2613 4750 3031 4423 
Q 3450 4097 3450 3541 
Q 3450 3153 3228 2886 
Q 3006 2619 2597 2516 
z
" transform="scale(0.015625)"/>
       </defs>
       <use xlink:href="#DejaVuSans-33"/>
       <use xlink:href="#DejaVuSans-2e" transform="translate(63.623047 0)"/>
       <use xlink:href="#DejaVuSans-30" transform="translate(95.410156 0)"/>
      </g>
     </g>
    </g>
    <g id="ytick_9">
     <g id="line2d_15">
      <g>
       <use xlink:href="#m544e2e428a" x="47.389063" y="22.318125" style="stroke: #000000; stroke-width: 0.8"/>
      </g>
     </g>
     <g id="text_16">
      <!-- 3.5 -->
      <g transform="translate(24.485938 26.117344) scale(0.1 -0.1)">
       <use xlink:href="#DejaVuSans-33"/>
       <use xlink:href="#DejaVuSans-2e" transform="translate(63.623047 0)"/>
       <use xlink:href="#DejaVuSans-35" transform="translate(95.410156 0)"/>
      </g>
     </g>
    </g>
    <g id="text_17">
     <!-- y (cm) -->
     <g transform="translate(14.798438 171.443656) rotate(-90) scale(0.1 -0.1)">
      <defs>
       <path id="DejaVuSans-79" d="M 2059 -325 
Q 1816 -950 1584 -1140 
Q 1353 -1331 966 -1331 
L 506 -1331 
L 506 -850 
L 844 -850 
Q 1081 -850 1212 -737 
Q 1344 -625 1503 -206 
L 1606 56 
L 191 3500 
L 800 3500 
L 1894 763 
L 2988 3500 
L 3597 3500 
L 2059 -325 
z
" transform="scale(0.015625)"/>
       <path id="DejaVuSans-20" transform="scale(0.015625)"/>
       <path id="DejaVuSans-28" d="M 1984 4856 
Q 1566 4138 1362 3434 
Q 1159 2731 1159 2009 
Q 1159 1288 1364 580 
Q 1569 -128 1984 -844 
L 1484 -844 
Q 1016 -109 783 600 
Q 550 1309 550 2009 
Q 550 2706 781 3412 
Q 1013 4119 1484 4856 
L 1984 4856 
z
" transform="scale(0.015625)"/>
       <path id="DejaVuSans-6d" d="M 3328 2828 
Q 3544 3216 3844 3400 
Q 4144 3584 4550 3584 
Q 5097 3584 5394 3201 
Q 5691 2819 5691 2113 
L 5691 0 
L 5113 0 
L 5113 2094 
Q 5113 2597 4934 2840 
Q 4756 3084 4391 3084 
Q 3944 3084 3684 2787 
Q 3425 2491 3425 1978 
L 3425 0 
L 2847 0 
L 2847 2094 
Q 2847 2600 2669 2842 
Q 2491 3084 2119 3084 
Q 1678 3084 1418 2786 
Q 1159 2488 1159 1978 
L 1159 0 
L 581 0 
L 581 3500 
L 1159 3500 
L 1159 2956 
Q 1356 3278 1631 3431 
Q 1906 3584 2284 3584 
Q 2666 3584 2933 3390 
Q 3200 3197 3328 2828 
z
" transform="scale(0.015625)"/>
       <path id="DejaVuSans-29" d="M 513 4856 
L 1013 4856 
Q 1481 4119 1714 3412 
Q 1947 2706 1947 2009 
Q 1947 1309 1714 600 
Q 1481 -109 1013 -844 
L 513 -844 
Q 928 -128 1133 580 
Q 1338 1288 1338 2009 
Q 1338 2731 1133 3434 
Q 928 4138 513 4856 
z
" transform="scale(0.015625)"/>
      </defs>
      <use xlink:href="#DejaVuSans-79"/>
      <use xlink:href="#DejaVuSans-20" transform="translate(59.179688 0)"/>
      <use xlink:href="#DejaVuSans-28" transform="translate(90.966797 0)"/>
      <use xlink:href="#DejaVuSans-63" transform="translate(129.980469 0)"/>
      <use xlink:href="#DejaVuSans-6d" transform="translate(184.960938 0)"/>
      <use xlink:href="#DejaVuSans-29" transform="translate(282.373047 0)"/>
     </g>
    </g>
   </g>
   <g id="line2d_16">
    <path d="M 63.62179 259.282936 
L 77.149063 246.742164 
L 90.676335 248.974277 
L 104.203608 253.673658 
L 117.730881 255.759818 
L 131.258153 255.558411 
L 144.785426 255.107863 
L 158.312699 256.496278 
L 171.839972 259.406049 
L 185.367244 254.696786 
L 198.894517 253.766208 
L 212.42179 253.777494 
L 225.949062 255.039773 
L 239.476335 256.716044 
L 253.003608 257.122369 
L 266.530881 257.245913 
L 280.058153 256.460208 
L 293.585426 255.624772 
L 307.112699 252.719538 
L 320.639972 253.908219 
L 334.167244 250.467554 
L 347.694517 248.810181 
L 361.22179 249.088156 
L 374.749063 248.831456 
L 388.276335 250.836243 
" clip-path="url(#pdf707b00fe)" style="fill: none; stroke: #66c2a5; stroke-width: 1.5; stroke-linecap: square"/>
   </g>
   <g id="line2d_17">
    <path d="M 63.62179 190.763314 
L 77.149063 215.317743 
L 90.676335 230.055476 
L 104.203608 230.21671 
L 117.730881 232.007779 
L 131.258153 234.448426 
L 144.785426 234.450154 
L 158.312699 233.421842 
L 171.839972 233.820338 
L 185.367244 227.741235 
L 198.894517 226.583007 
L 212.42179 223.536571 
L 225.949062 220.762224 
L 239.476335 222.392166 
L 253.003608 218.981307 
L 266.530881 211.852077 
L 280.058153 204.592554 
L 293.585426 204.565879 
L 307.112699 201.854168 
L 320.639972 199.54862 
L 334.167244 194.29464 
L 347.694517 190.33593 
L 361.22179 185.379039 
L 374.749063 181.812454 
L 388.276335 182.143129 
" clip-path="url(#pdf707b00fe)" style="fill: none; stroke: #fc8d62; stroke-width: 1.5; stroke-linecap: square"/>
   </g>
   <g id="line2d_18">
    <path d="M 63.62179 173.265273 
L 77.149063 153.176419 
L 90.676335 145.748858 
L 104.203608 148.47774 
L 117.730881 149.052912 
L 131.258153 153.990418 
L 144.785426 153.565195 
L 158.312699 157.727255 
L 171.839972 164.090596 
L 185.367244 163.669207 
L 198.894517 167.432502 
L 212.42179 168.649046 
L 225.949062 174.58171 
L 239.476335 182.221208 
L 253.003608 184.30618 
L 266.530881 188.262082 
L 280.058153 193.914611 
L 293.585426 191.914684 
L 307.112699 190.611745 
L 320.639972 191.181842 
L 334.167244 190.232473 
L 347.694517 189.57069 
L 361.22179 189.98722 
L 374.749063 191.635953 
L 388.276335 193.508557 
" clip-path="url(#pdf707b00fe)" style="fill: none; stroke: #8da0cb; stroke-width: 1.5; stroke-linecap: square"/>
   </g>
   <g id="line2d_19">
    <path d="M 63.62179 127.320455 
L 77.149063 127.128065 
L 90.676335 125.530952 
L 104.203608 137.879226 
L 117.730881 141.866662 
L 131.258153 140.895748 
L 144.785426 138.991017 
L 158.312699 135.09327 
L 171.839972 134.223222 
L 185.367244 126.161957 
L 198.894517 126.495224 
L 212.42179 127.950919 
L 225.949062 131.297901 
L 239.476335 135.128476 
L 253.003608 139.117855 
L 266.530881 140.566261 
L 280.058153 143.4067 
L 293.585426 139.588058 
L 307.112699 138.755106 
L 320.639972 142.820512 
L 334.167244 137.288233 
L 347.694517 135.60937 
L 361.22179 135.853543 
L 374.749063 135.679997 
L 388.276335 136.287892 
" clip-path="url(#pdf707b00fe)" style="fill: none; stroke: #e78ac3; stroke-width: 1.5; stroke-linecap: square"/>
   </g>
   <g id="line2d_20">
    <path d="M 63.62179 75.010864 
L 77.149063 68.79299 
L 90.676335 65.108773 
L 104.203608 75.982237 
L 117.730881 80.326185 
L 131.258153 80.780459 
L 144.785426 77.816017 
L 158.312699 74.351188 
L 171.839972 73.886601 
L 185.367244 66.073423 
L 198.894517 66.914636 
L 212.42179 71.449246 
L 225.949062 75.218374 
L 239.476335 79.810679 
L 253.003608 83.018565 
L 266.530881 85.133019 
L 280.058153 87.783147 
L 293.585426 85.837109 
L 307.112699 84.642865 
L 320.639972 88.878415 
L 334.167244 86.241867 
L 347.694517 84.153764 
L 361.22179 85.700551 
L 374.749063 86.525134 
L 388.276335 87.636276 
" clip-path="url(#pdf707b00fe)" style="fill: none; stroke: #a6d854; stroke-width: 1.5; stroke-linecap: square"/>
   </g>
   <g id="patch_3">
    <path d="M 47.389063 288.430125 
L 47.389063 22.318125 
" style="fill: none; stroke: #000000; stroke-width: 0.8; stroke-linejoin: miter; stroke-linecap: square"/>
   </g>
   <g id="patch_4">
    <path d="M 404.509063 288.430125 
L 404.509063 22.318125 
" style="fill: none; stroke: #000000; stroke-width: 0.8; stroke-linejoin: miter; stroke-linecap: square"/>
   </g>
   <g id="patch_5">
    <path d="M 47.389063 288.430125 
L 404.509063 288.430125 
" style="fill: none; stroke: #000000; stroke-width: 0.8; stroke-linejoin: miter; stroke-linecap: square"/>
   </g>
   <g id="patch_6">
    <path d="M 47.389063 22.318125 
L 404.509063 22.318125 
" style="fill: none; stroke: #000000; stroke-width: 0.8; stroke-linejoin: miter; stroke-linecap: square"/>
   </g>
   <g id="text_18">
    <!-- ID 15 - Run 3 - Joint Y over average step cycle -->
    <g transform="translate(87.937813 16.318125) scale(0.12 -0.12)">
     <defs>
      <path id="DejaVuSans-49" d="M 628 4666 
L 1259 4666 
L 1259 0 
L 628 0 
L 628 4666 
z
" transform="scale(0.015625)"/>
      <path id="DejaVuSans-44" d="M 1259 4147 
L 1259 519 
L 2022 519 
Q 2988 519 3436 956 
Q 3884 1394 3884 2338 
Q 3884 3275 3436 3711 
Q 2988 4147 2022 4147 
L 1259 4147 
z
M 628 4666 
L 1925 4666 
Q 3281 4666 3915 4102 
Q 4550 3538 4550 2338 
Q 4550 1131 3912 565 
Q 3275 0 1925 0 
L 628 0 
L 628 4666 
z
" transform="scale(0.015625)"/>
      <path id="DejaVuSans-52" d="M 2841 2188 
Q 3044 2119 3236 1894 
Q 3428 1669 3622 1275 
L 4263 0 
L 3584 0 
L 2988 1197 
Q 2756 1666 2539 1819 
Q 2322 1972 1947 1972 
L 1259 1972 
L 1259 0 
L 628 0 
L 628 4666 
L 2053 4666 
Q 2853 4666 3247 4331 
Q 3641 3997 3641 3322 
Q 3641 2881 3436 2590 
Q 3231 2300 2841 2188 
z
M 1259 4147 
L 1259 2491 
L 2053 2491 
Q 2509 2491 2742 2702 
Q 2975 2913 2975 3322 
Q 2975 3731 2742 3939 
Q 2509 4147 2053 4147 
L 1259 4147 
z
" transform="scale(0.015625)"/>
      <path id="DejaVuSans-75" d="M 544 1381 
L 544 3500 
L 1119 3500 
L 1119 1403 
Q 1119 906 1312 657 
Q 1506 409 1894 409 
Q 2359 409 2629 706 
Q 2900 1003 2900 1516 
L 2900 3500 
L 3475 3500 
L 3475 0 
L 2900 0 
L 2900 538 
Q 2691 219 2414 64 
Q 2138 -91 1772 -91 
Q 1169 -91 856 284 
Q 544 659 544 1381 
z
M 1991 3584 
L 1991 3584 
z
" transform="scale(0.015625)"/>
      <path id="DejaVuSans-4a" d="M 628 4666 
L 1259 4666 
L 1259 325 
Q 1259 -519 939 -900 
Q 619 -1281 -91 -1281 
L -331 -1281 
L -331 -750 
L -134 -750 
Q 284 -750 456 -515 
Q 628 -281 628 325 
L 628 4666 
z
" transform="scale(0.015625)"/>
      <path id="DejaVuSans-6f" d="M 1959 3097 
Q 1497 3097 1228 2736 
Q 959 2375 959 1747 
Q 959 1119 1226 758 
Q 1494 397 1959 397 
Q 2419 397 2687 759 
Q 2956 1122 2956 1747 
Q 2956 2369 2687 2733 
Q 2419 3097 1959 3097 
z
M 1959 3584 
Q 2709 3584 3137 3096 
Q 3566 2609 3566 1747 
Q 3566 888 3137 398 
Q 2709 -91 1959 -91 
Q 1206 -91 779 398 
Q 353 888 353 1747 
Q 353 2609 779 3096 
Q 1206 3584 1959 3584 
z
" transform="scale(0.015625)"/>
      <path id="DejaVuSans-69" d="M 603 3500 
L 1178 3500 
L 1178 0 
L 603 0 
L 603 3500 
z
M 603 4863 
L 1178 4863 
L 1178 4134 
L 603 4134 
L 603 4863 
z
" transform="scale(0.015625)"/>
      <path id="DejaVuSans-59" d="M -13 4666 
L 666 4666 
L 1959 2747 
L 3244 4666 
L 3922 4666 
L 2272 2222 
L 2272 0 
L 1638 0 
L 1638 2222 
L -13 4666 
z
" transform="scale(0.015625)"/>
      <path id="DejaVuSans-76" d="M 191 3500 
L 800 3500 
L 1894 563 
L 2988 3500 
L 3597 3500 
L 2284 0 
L 1503 0 
L 191 3500 
z
" transform="scale(0.015625)"/>
      <path id="DejaVuSans-73" d="M 2834 3397 
L 2834 2853 
Q 2591 2978 2328 3040 
Q 2066 3103 1784 3103 
Q 1356 3103 1142 2972 
Q 928 2841 928 2578 
Q 928 2378 1081 2264 
Q 1234 2150 1697 2047 
L 1894 2003 
Q 2506 1872 2764 1633 
Q 3022 1394 3022 966 
Q 3022 478 2636 193 
Q 2250 -91 1575 -91 
Q 1294 -91 989 -36 
Q 684 19 347 128 
L 347 722 
Q 666 556 975 473 
Q 1284 391 1588 391 
Q 1994 391 2212 530 
Q 2431 669 2431 922 
Q 2431 1156 2273 1281 
Q 2116 1406 1581 1522 
L 1381 1569 
Q 847 1681 609 1914 
Q 372 2147 372 2553 
Q 372 3047 722 3315 
Q 1072 3584 1716 3584 
Q 2034 3584 2315 3537 
Q 2597 3491 2834 3397 
z
" transform="scale(0.015625)"/>
      <path id="DejaVuSans-70" d="M 1159 525 
L 1159 -1331 
L 581 -1331 
L 581 3500 
L 1159 3500 
L 1159 2969 
Q 1341 3281 1617 3432 
Q 1894 3584 2278 3584 
Q 2916 3584 3314 3078 
Q 3713 2572 3713 1747 
Q 3713 922 3314 415 
Q 2916 -91 2278 -91 
Q 1894 -91 1617 61 
Q 1341 213 1159 525 
z
M 3116 1747 
Q 3116 2381 2855 2742 
Q 2594 3103 2138 3103 
Q 1681 3103 1420 2742 
Q 1159 2381 1159 1747 
Q 1159 1113 1420 752 
Q 1681 391 2138 391 
Q 2594 391 2855 752 
Q 3116 1113 3116 1747 
z
" transform="scale(0.015625)"/>
      <path id="DejaVuSans-6c" d="M 603 4863 
L 1178 4863 
L 1178 0 
L 603 0 
L 603 4863 
z
" transform="scale(0.015625)"/>
     </defs>
     <use xlink:href="#DejaVuSans-49"/>
     <use xlink:href="#DejaVuSans-44" transform="translate(29.492188 0)"/>
     <use xlink:href="#DejaVuSans-20" transform="translate(106.494141 0)"/>
     <use xlink:href="#DejaVuSans-31" transform="translate(138.28125 0)"/>
     <use xlink:href="#DejaVuSans-35" transform="translate(201.904297 0)"/>
     <use xlink:href="#DejaVuSans-20" transform="translate(265.527344 0)"/>
     <use xlink:href="#DejaVuSans-2d" transform="translate(297.314453 0)"/>
     <use xlink:href="#DejaVuSans-20" transform="translate(333.398438 0)"/>
     <use xlink:href="#DejaVuSans-52" transform="translate(365.185547 0)"/>
     <use xlink:href="#DejaVuSans-75" transform="translate(430.167969 0)"/>
     <use xlink:href="#DejaVuSans-6e" transform="translate(493.546875 0)"/>
     <use xlink:href="#DejaVuSans-20" transform="translate(556.925781 0)"/>
     <use xlink:href="#DejaVuSans-33" transform="translate(588.712891 0)"/>
     <use xlink:href="#DejaVuSans-20" transform="translate(652.335938 0)"/>
     <use xlink:href="#DejaVuSans-2d" transform="translate(684.123047 0)"/>
     <use xlink:href="#DejaVuSans-20" transform="translate(720.207031 0)"/>
     <use xlink:href="#DejaVuSans-4a" transform="translate(751.994141 0)"/>
     <use xlink:href="#DejaVuSans-6f" transform="translate(781.486328 0)"/>
     <use xlink:href="#DejaVuSans-69" transform="translate(842.667969 0)"/>
     <use xlink:href="#DejaVuSans-6e" transform="translate(870.451172 0)"/>
     <use xlink:href="#DejaVuSans-74" transform="translate(933.830078 0)"/>
     <use xlink:href="#DejaVuSans-20" transform="translate(973.039062 0)"/>
     <use xlink:href="#DejaVuSans-59" transform="translate(1004.826172 0)"/>
     <use xlink:href="#DejaVuSans-20" transform="translate(1065.910156 0)"/>
     <use xlink:href="#DejaVuSans-6f" transform="translate(1097.697266 0)"/>
     <use xlink:href="#DejaVuSans-76" transform="translate(1158.878906 0)"/>
     <use xlink:href="#DejaVuSans-65" transform="translate(1218.058594 0)"/>
     <use xlink:href="#DejaVuSans-72" transform="translate(1279.582031 0)"/>
     <use xlink:href="#DejaVuSans-20" transform="translate(1320.695312 0)"/>
     <use xlink:href="#DejaVuSans-61" transform="translate(1352.482422 0)"/>
     <use xlink:href="#DejaVuSans-76" transform="translate(1413.761719 0)"/>
     <use xlink:href="#DejaVuSans-65" transform="translate(1472.941406 0)"/>
     <use xlink:href="#DejaVuSans-72" transform="translate(1534.464844 0)"/>
     <use xlink:href="#DejaVuSans-61" transform="translate(1575.578125 0)"/>
     <use xlink:href="#DejaVuSans-67" transform="translate(1636.857422 0)"/>
     <use xlink:href="#DejaVuSans-65" transform="translate(1700.333984 0)"/>
     <use xlink:href="#DejaVuSans-20" transform="translate(1761.857422 0)"/>
     <use xlink:href="#DejaVuSans-73" transform="translate(1793.644531 0)"/>
     <use xlink:href="#DejaVuSans-74" transform="translate(1845.744141 0)"/>
     <use xlink:href="#DejaVuSans-65" transform="translate(1884.953125 0)"/>
     <use xlink:href="#DejaVuSans-70" transform="translate(1946.476562 0)"/>
     <use xlink:href="#DejaVuSans-20" transform="translate(2009.953125 0)"/>
     <use xlink:href="#DejaVuSans-63" transform="translate(2041.740234 0)"/>
     <use xlink:href="#DejaVuSans-79" transform="translate(2096.720703 0)"/>
     <use xlink:href="#DejaVuSans-63" transform="translate(2155.900391 0)"/>
     <use xlink:href="#DejaVuSans-6c" transform="translate(2210.880859 0)"/>
     <use xlink:href="#DejaVuSans-65" transform="translate(2238.664062 0)"/>
    </g>
   </g>
   <g id="legend_1">
    <g id="patch_7">
     <path d="M 411.509063 193.569437 
L 512.849688 193.569437 
Q 514.849688 193.569437 514.849688 191.569437 
L 514.849688 119.178812 
Q 514.849688 117.178812 512.849688 117.178812 
L 411.509063 117.178812 
Q 409.509063 117.178812 409.509063 119.178812 
L 409.509063 191.569437 
Q 409.509063 193.569437 411.509063 193.569437 
z
" style="fill: #ffffff; opacity: 0.8; stroke: #cccccc; stroke-linejoin: miter"/>
    </g>
    <g id="line2d_21">
     <path d="M 413.509063 125.27725 
L 423.509063 125.27725 
L 433.509063 125.27725 
" style="fill: none; stroke: #66c2a5; stroke-width: 1.5; stroke-linecap: square"/>
    </g>
    <g id="text_19">
     <!-- Hind paw tao  -->
     <g transform="translate(441.509063 128.77725) scale(0.1 -0.1)">
      <defs>
       <path id="DejaVuSans-48" d="M 628 4666 
L 1259 4666 
L 1259 2753 
L 3553 2753 
L 3553 4666 
L 4184 4666 
L 4184 0 
L 3553 0 
L 3553 2222 
L 1259 2222 
L 1259 0 
L 628 0 
L 628 4666 
z
" transform="scale(0.015625)"/>
       <path id="DejaVuSans-64" d="M 2906 2969 
L 2906 4863 
L 3481 4863 
L 3481 0 
L 2906 0 
L 2906 525 
Q 2725 213 2448 61 
Q 2172 -91 1784 -91 
Q 1150 -91 751 415 
Q 353 922 353 1747 
Q 353 2572 751 3078 
Q 1150 3584 1784 3584 
Q 2172 3584 2448 3432 
Q 2725 3281 2906 2969 
z
M 947 1747 
Q 947 1113 1208 752 
Q 1469 391 1925 391 
Q 2381 391 2643 752 
Q 2906 1113 2906 1747 
Q 2906 2381 2643 2742 
Q 2381 3103 1925 3103 
Q 1469 3103 1208 2742 
Q 947 2381 947 1747 
z
" transform="scale(0.015625)"/>
       <path id="DejaVuSans-77" d="M 269 3500 
L 844 3500 
L 1563 769 
L 2278 3500 
L 2956 3500 
L 3675 769 
L 4391 3500 
L 4966 3500 
L 4050 0 
L 3372 0 
L 2619 2869 
L 1863 0 
L 1184 0 
L 269 3500 
z
" transform="scale(0.015625)"/>
      </defs>
      <use xlink:href="#DejaVuSans-48"/>
      <use xlink:href="#DejaVuSans-69" transform="translate(75.195312 0)"/>
      <use xlink:href="#DejaVuSans-6e" transform="translate(102.978516 0)"/>
      <use xlink:href="#DejaVuSans-64" transform="translate(166.357422 0)"/>
      <use xlink:href="#DejaVuSans-20" transform="translate(229.833984 0)"/>
      <use xlink:href="#DejaVuSans-70" transform="translate(261.621094 0)"/>
      <use xlink:href="#DejaVuSans-61" transform="translate(325.097656 0)"/>
      <use xlink:href="#DejaVuSans-77" transform="translate(386.376953 0)"/>
      <use xlink:href="#DejaVuSans-20" transform="translate(468.164062 0)"/>
      <use xlink:href="#DejaVuSans-74" transform="translate(499.951172 0)"/>
      <use xlink:href="#DejaVuSans-61" transform="translate(539.160156 0)"/>
      <use xlink:href="#DejaVuSans-6f" transform="translate(600.439453 0)"/>
      <use xlink:href="#DejaVuSans-20" transform="translate(661.621094 0)"/>
     </g>
    </g>
    <g id="line2d_22">
     <path d="M 413.509063 139.955375 
L 423.509063 139.955375 
L 433.509063 139.955375 
" style="fill: none; stroke: #fc8d62; stroke-width: 1.5; stroke-linecap: square"/>
    </g>
    <g id="text_20">
     <!-- Ankle  -->
     <g transform="translate(441.509063 143.455375) scale(0.1 -0.1)">
      <defs>
       <path id="DejaVuSans-41" d="M 2188 4044 
L 1331 1722 
L 3047 1722 
L 2188 4044 
z
M 1831 4666 
L 2547 4666 
L 4325 0 
L 3669 0 
L 3244 1197 
L 1141 1197 
L 716 0 
L 50 0 
L 1831 4666 
z
" transform="scale(0.015625)"/>
       <path id="DejaVuSans-6b" d="M 581 4863 
L 1159 4863 
L 1159 1991 
L 2875 3500 
L 3609 3500 
L 1753 1863 
L 3688 0 
L 2938 0 
L 1159 1709 
L 1159 0 
L 581 0 
L 581 4863 
z
" transform="scale(0.015625)"/>
      </defs>
      <use xlink:href="#DejaVuSans-41"/>
      <use xlink:href="#DejaVuSans-6e" transform="translate(68.408203 0)"/>
      <use xlink:href="#DejaVuSans-6b" transform="translate(131.787109 0)"/>
      <use xlink:href="#DejaVuSans-6c" transform="translate(189.697266 0)"/>
      <use xlink:href="#DejaVuSans-65" transform="translate(217.480469 0)"/>
      <use xlink:href="#DejaVuSans-20" transform="translate(279.003906 0)"/>
     </g>
    </g>
    <g id="line2d_23">
     <path d="M 413.509063 154.6335 
L 423.509063 154.6335 
L 433.509063 154.6335 
" style="fill: none; stroke: #8da0cb; stroke-width: 1.5; stroke-linecap: square"/>
    </g>
    <g id="text_21">
     <!-- Knee  -->
     <g transform="translate(441.509063 158.1335) scale(0.1 -0.1)">
      <defs>
       <path id="DejaVuSans-4b" d="M 628 4666 
L 1259 4666 
L 1259 2694 
L 3353 4666 
L 4166 4666 
L 1850 2491 
L 4331 0 
L 3500 0 
L 1259 2247 
L 1259 0 
L 628 0 
L 628 4666 
z
" transform="scale(0.015625)"/>
      </defs>
      <use xlink:href="#DejaVuSans-4b"/>
      <use xlink:href="#DejaVuSans-6e" transform="translate(65.576172 0)"/>
      <use xlink:href="#DejaVuSans-65" transform="translate(128.955078 0)"/>
      <use xlink:href="#DejaVuSans-65" transform="translate(190.478516 0)"/>
      <use xlink:href="#DejaVuSans-20" transform="translate(252.001953 0)"/>
     </g>
    </g>
    <g id="line2d_24">
     <path d="M 413.509063 169.311625 
L 423.509063 169.311625 
L 433.509063 169.311625 
" style="fill: none; stroke: #e78ac3; stroke-width: 1.5; stroke-linecap: square"/>
    </g>
    <g id="text_22">
     <!-- Hip  -->
     <g transform="translate(441.509063 172.811625) scale(0.1 -0.1)">
      <use xlink:href="#DejaVuSans-48"/>
      <use xlink:href="#DejaVuSans-69" transform="translate(75.195312 0)"/>
      <use xlink:href="#DejaVuSans-70" transform="translate(102.978516 0)"/>
      <use xlink:href="#DejaVuSans-20" transform="translate(166.455078 0)"/>
     </g>
    </g>
    <g id="line2d_25">
     <path d="M 413.509063 183.98975 
L 423.509063 183.98975 
L 433.509063 183.98975 
" style="fill: none; stroke: #a6d854; stroke-width: 1.5; stroke-linecap: square"/>
    </g>
    <g id="text_23">
     <!-- Iliac Crest  -->
     <g transform="translate(441.509063 187.48975) scale(0.1 -0.1)">
      <defs>
       <path id="DejaVuSans-43" d="M 4122 4306 
L 4122 3641 
Q 3803 3938 3442 4084 
Q 3081 4231 2675 4231 
Q 1875 4231 1450 3742 
Q 1025 3253 1025 2328 
Q 1025 1406 1450 917 
Q 1875 428 2675 428 
Q 3081 428 3442 575 
Q 3803 722 4122 1019 
L 4122 359 
Q 3791 134 3420 21 
Q 3050 -91 2638 -91 
Q 1578 -91 968 557 
Q 359 1206 359 2328 
Q 359 3453 968 4101 
Q 1578 4750 2638 4750 
Q 3056 4750 3426 4639 
Q 3797 4528 4122 4306 
z
" transform="scale(0.015625)"/>
      </defs>
      <use xlink:href="#DejaVuSans-49"/>
      <use xlink:href="#DejaVuSans-6c" transform="translate(29.492188 0)"/>
      <use xlink:href="#DejaVuSans-69" transform="translate(57.275391 0)"/>
      <use xlink:href="#DejaVuSans-61" transform="translate(85.058594 0)"/>
      <use xlink:href="#DejaVuSans-63" transform="translate(146.337891 0)"/>
      <use xlink:href="#DejaVuSans-20" transform="translate(201.318359 0)"/>
      <use xlink:href="#DejaVuSans-43" transform="translate(233.105469 0)"/>
      <use xlink:href="#DejaVuSans-72" transform="translate(302.929688 0)"/>
      <use xlink:href="#DejaVuSans-65" transform="translate(341.792969 0)"/>
      <use xlink:href="#DejaVuSans-73" transform="translate(403.316406 0)"/>
      <use xlink:href="#DejaVuSans-74" transform="translate(455.416016 0)"/>
      <use xlink:href="#DejaVuSans-20" transform="translate(494.625 0)"/>
     </g>
    </g>
   </g>
  </g>
 </g>
 <defs>
  <clipPath id="pdf707b00fe">
   <rect x="47.389063" y="22.318125" width="357.12" height="266.112"/>
  </clipPath>
 </defs>
</svg>
