<?xml version="1.0" encoding="utf-8" standalone="no"?>
<!DOCTYPE svg PUBLIC "-//W3C//DTD SVG 1.1//EN"
  "http://www.w3.org/Graphics/SVG/1.1/DTD/svg11.dtd">
<svg xmlns:xlink="http://www.w3.org/1999/xlink" width="411.709063pt" height="325.986375pt" viewBox="0 0 411.709063 325.986375" xmlns="http://www.w3.org/2000/svg" version="1.1">
 <metadata>
  <rdf:RDF xmlns:dc="http://purl.org/dc/elements/1.1/" xmlns:cc="http://creativecommons.org/ns#" xmlns:rdf="http://www.w3.org/1999/02/22-rdf-syntax-ns#">
   <cc:Work>
    <dc:type rdf:resource="http://purl.org/dc/dcmitype/StillImage"/>
    <dc:date>2024-04-08T15:22:16.719805</dc:date>
    <dc:format>image/svg+xml</dc:format>
    <dc:creator>
     <cc:Agent>
      <dc:title>Matplotlib v3.7.1, https://matplotlib.org/</dc:title>
     </cc:Agent>
    </dc:creator>
   </cc:Work>
  </rdf:RDF>
 </metadata>
 <defs>
  <style type="text/css">*{stroke-linejoin: round; stroke-linecap: butt}</style>
 </defs>
 <g id="figure_1">
  <g id="patch_1">
   <path d="M 0 325.986375 
L 411.709063 325.986375 
L 411.709063 0 
L 0 0 
z
" style="fill: #ffffff"/>
  </g>
  <g id="axes_1">
   <g id="patch_2">
    <path d="M 47.389063 288.430125 
L 404.509063 288.430125 
L 404.509063 22.318125 
L 47.389063 22.318125 
z
" style="fill: #ffffff"/>
   </g>
   <g id="PolyCollection_1">
    <path d="M 63.62179 211.611819 
L 63.62179 237.638093 
L 77.149063 234.442594 
L 90.676335 235.00236 
L 104.203608 233.517409 
L 117.730881 233.320415 
L 131.258153 237.527013 
L 144.785426 244.435412 
L 158.312699 247.231239 
L 171.839972 249.174603 
L 185.367244 252.765292 
L 198.894517 252.6404 
L 212.42179 253.658735 
L 225.949062 252.310503 
L 239.476335 255.671096 
L 253.003608 259.317973 
L 266.530881 259.207833 
L 280.058153 260.707123 
L 293.585426 262.640894 
L 307.112699 262.484302 
L 320.639972 260.971168 
L 334.167244 259.813609 
L 347.694517 261.764236 
L 361.22179 261.932504 
L 374.749063 261.438509 
L 388.276335 256.439653 
L 388.276335 224.106654 
L 388.276335 224.106654 
L 374.749063 232.868319 
L 361.22179 235.80352 
L 347.694517 237.665648 
L 334.167244 239.161951 
L 320.639972 239.936951 
L 307.112699 239.643592 
L 293.585426 238.346802 
L 280.058153 239.597939 
L 266.530881 240.665354 
L 253.003608 241.855364 
L 239.476335 241.071664 
L 225.949062 239.491141 
L 212.42179 234.67421 
L 198.894517 231.345137 
L 185.367244 228.401423 
L 171.839972 228.775765 
L 158.312699 232.46153 
L 144.785426 231.254345 
L 131.258153 230.948758 
L 117.730881 226.596042 
L 104.203608 219.071354 
L 90.676335 218.991425 
L 77.149063 212.672532 
L 63.62179 211.611819 
z
" clip-path="url(#p43a6ae824e)" style="fill: #440154; fill-opacity: 0.2"/>
   </g>
   <g id="PolyCollection_2">
    <path d="M 63.62179 140.244084 
L 63.62179 158.278679 
L 77.149063 168.694827 
L 90.676335 195.782287 
L 104.203608 222.927092 
L 117.730881 233.955146 
L 131.258153 235.605359 
L 144.785426 235.464133 
L 158.312699 232.122485 
L 171.839972 232.626766 
L 185.367244 234.489288 
L 198.894517 234.898457 
L 212.42179 235.385661 
L 225.949062 234.373083 
L 239.476335 234.999671 
L 253.003608 236.594191 
L 266.530881 235.046888 
L 280.058153 233.945481 
L 293.585426 229.562887 
L 307.112699 220.391604 
L 320.639972 213.267442 
L 334.167244 208.798 
L 347.694517 205.471551 
L 361.22179 203.912015 
L 374.749063 197.030916 
L 388.276335 185.883626 
L 388.276335 149.837954 
L 388.276335 149.837954 
L 374.749063 156.23408 
L 361.22179 160.736363 
L 347.694517 166.106655 
L 334.167244 171.447166 
L 320.639972 176.061645 
L 307.112699 181.357177 
L 293.585426 185.750744 
L 280.058153 192.490484 
L 266.530881 198.483056 
L 253.003608 204.094757 
L 239.476335 208.383376 
L 225.949062 210.845612 
L 212.42179 211.968965 
L 198.894517 216.275332 
L 185.367244 217.006301 
L 171.839972 211.552136 
L 158.312699 201.45018 
L 144.785426 193.854913 
L 131.258153 178.412494 
L 117.730881 173.321947 
L 104.203608 160.825065 
L 90.676335 151.87009 
L 77.149063 138.870669 
L 63.62179 140.244084 
z
" clip-path="url(#p43a6ae824e)" style="fill: #3b528b; fill-opacity: 0.2"/>
   </g>
   <g id="PolyCollection_3">
    <path d="M 63.62179 172.097723 
L 63.62179 183.258914 
L 77.149063 175.782338 
L 90.676335 166.443653 
L 104.203608 165.103067 
L 117.730881 162.838415 
L 131.258153 162.125153 
L 144.785426 161.888376 
L 158.312699 161.973134 
L 171.839972 162.631219 
L 185.367244 164.282118 
L 198.894517 164.320576 
L 212.42179 169.255948 
L 225.949062 172.323025 
L 239.476335 175.506568 
L 253.003608 180.457218 
L 266.530881 183.018124 
L 280.058153 188.147638 
L 293.585426 195.875768 
L 307.112699 201.203754 
L 320.639972 205.067026 
L 334.167244 207.563422 
L 347.694517 213.652463 
L 361.22179 215.237647 
L 374.749063 213.643386 
L 388.276335 203.622556 
L 388.276335 173.979565 
L 388.276335 173.979565 
L 374.749063 180.878306 
L 361.22179 183.51397 
L 347.694517 184.411497 
L 334.167244 184.657643 
L 320.639972 182.630022 
L 307.112699 178.768576 
L 293.585426 175.892664 
L 280.058153 172.404469 
L 266.530881 167.999707 
L 253.003608 163.52267 
L 239.476335 155.861749 
L 225.949062 150.275119 
L 212.42179 148.629734 
L 198.894517 148.994164 
L 185.367244 148.098362 
L 171.839972 146.928022 
L 158.312699 144.007239 
L 144.785426 142.477394 
L 131.258153 144.364998 
L 117.730881 151.214523 
L 104.203608 154.402199 
L 90.676335 153.956868 
L 77.149063 160.200372 
L 63.62179 172.097723 
z
" clip-path="url(#p43a6ae824e)" style="fill: #21918c; fill-opacity: 0.2"/>
   </g>
   <g id="PolyCollection_4">
    <path d="M 63.62179 118.676854 
L 63.62179 134.526102 
L 77.149063 135.305961 
L 90.676335 135.650315 
L 104.203608 139.944909 
L 117.730881 140.578844 
L 131.258153 138.524563 
L 144.785426 138.147929 
L 158.312699 138.700546 
L 171.839972 142.763909 
L 185.367244 147.456397 
L 198.894517 146.46637 
L 212.42179 146.615071 
L 225.949062 146.642216 
L 239.476335 148.179426 
L 253.003608 153.49334 
L 266.530881 153.15988 
L 280.058153 156.402471 
L 293.585426 159.012045 
L 307.112699 158.904508 
L 320.639972 156.110846 
L 334.167244 153.085859 
L 347.694517 155.54906 
L 361.22179 154.415547 
L 374.749063 150.413858 
L 388.276335 142.053131 
L 388.276335 118.68655 
L 388.276335 118.68655 
L 374.749063 120.865889 
L 361.22179 121.592366 
L 347.694517 123.079683 
L 334.167244 124.516372 
L 320.639972 122.637905 
L 307.112699 122.229477 
L 293.585426 121.36388 
L 280.058153 122.538939 
L 266.530881 121.58673 
L 253.003608 120.455591 
L 239.476335 119.408805 
L 225.949062 118.02702 
L 212.42179 117.457178 
L 198.894517 118.71897 
L 185.367244 119.106053 
L 171.839972 120.452203 
L 158.312699 122.064285 
L 144.785426 124.710645 
L 131.258153 125.876796 
L 117.730881 126.410238 
L 104.203608 124.226296 
L 90.676335 122.469174 
L 77.149063 119.752052 
L 63.62179 118.676854 
z
" clip-path="url(#p43a6ae824e)" style="fill: #5ec962; fill-opacity: 0.2"/>
   </g>
   <g id="PolyCollection_5">
    <path d="M 63.62179 70.997149 
L 63.62179 94.797776 
L 77.149063 92.73674 
L 90.676335 91.118363 
L 104.203608 88.157736 
L 117.730881 87.79968 
L 131.258153 85.833597 
L 144.785426 85.092637 
L 158.312699 87.191925 
L 171.839972 89.693099 
L 185.367244 93.062623 
L 198.894517 91.517677 
L 212.42179 92.464857 
L 225.949062 92.662451 
L 239.476335 93.404445 
L 253.003608 97.93987 
L 266.530881 98.867932 
L 280.058153 101.733218 
L 293.585426 103.768483 
L 307.112699 104.872081 
L 320.639972 103.757356 
L 334.167244 101.622937 
L 347.694517 104.535359 
L 361.22179 104.584708 
L 374.749063 100.36299 
L 388.276335 92.773045 
L 388.276335 66.260068 
L 388.276335 66.260068 
L 374.749063 65.740973 
L 361.22179 66.425661 
L 347.694517 67.597539 
L 334.167244 68.911269 
L 320.639972 67.652638 
L 307.112699 68.022951 
L 293.585426 66.694491 
L 280.058153 67.319785 
L 266.530881 66.111647 
L 253.003608 64.849543 
L 239.476335 62.97056 
L 225.949062 60.077628 
L 212.42179 59.80389 
L 198.894517 60.661627 
L 185.367244 60.935573 
L 171.839972 61.258607 
L 158.312699 62.380978 
L 144.785426 64.234396 
L 131.258153 69.237391 
L 117.730881 73.149695 
L 104.203608 76.335865 
L 90.676335 76.124313 
L 77.149063 73.907219 
L 63.62179 70.997149 
z
" clip-path="url(#p43a6ae824e)" style="fill: #fde725; fill-opacity: 0.2"/>
   </g>
   <g id="matplotlib.axis_1">
    <g id="xtick_1">
     <g id="line2d_1">
      <defs>
       <path id="mbe92ba75e4" d="M 0 0 
L 0 3.5 
" style="stroke: #000000; stroke-width: 0.8"/>
      </defs>
      <g>
       <use xlink:href="#mbe92ba75e4" x="63.62179" y="288.430125" style="stroke: #000000; stroke-width: 0.8"/>
      </g>
     </g>
     <g id="text_1">
      <!-- 0 -->
      <g transform="translate(60.44054 303.028562) scale(0.1 -0.1)">
       <defs>
        <path id="DejaVuSans-30" d="M 2034 4250 
Q 1547 4250 1301 3770 
Q 1056 3291 1056 2328 
Q 1056 1369 1301 889 
Q 1547 409 2034 409 
Q 2525 409 2770 889 
Q 3016 1369 3016 2328 
Q 3016 3291 2770 3770 
Q 2525 4250 2034 4250 
z
M 2034 4750 
Q 2819 4750 3233 4129 
Q 3647 3509 3647 2328 
Q 3647 1150 3233 529 
Q 2819 -91 2034 -91 
Q 1250 -91 836 529 
Q 422 1150 422 2328 
Q 422 3509 836 4129 
Q 1250 4750 2034 4750 
z
" transform="scale(0.015625)"/>
       </defs>
       <use xlink:href="#DejaVuSans-30"/>
      </g>
     </g>
    </g>
    <g id="xtick_2">
     <g id="line2d_2">
      <g>
       <use xlink:href="#mbe92ba75e4" x="128.552699" y="288.430125" style="stroke: #000000; stroke-width: 0.8"/>
      </g>
     </g>
     <g id="text_2">
      <!-- 20 -->
      <g transform="translate(122.190199 303.028562) scale(0.1 -0.1)">
       <defs>
        <path id="DejaVuSans-32" d="M 1228 531 
L 3431 531 
L 3431 0 
L 469 0 
L 469 531 
Q 828 903 1448 1529 
Q 2069 2156 2228 2338 
Q 2531 2678 2651 2914 
Q 2772 3150 2772 3378 
Q 2772 3750 2511 3984 
Q 2250 4219 1831 4219 
Q 1534 4219 1204 4116 
Q 875 4013 500 3803 
L 500 4441 
Q 881 4594 1212 4672 
Q 1544 4750 1819 4750 
Q 2544 4750 2975 4387 
Q 3406 4025 3406 3419 
Q 3406 3131 3298 2873 
Q 3191 2616 2906 2266 
Q 2828 2175 2409 1742 
Q 1991 1309 1228 531 
z
" transform="scale(0.015625)"/>
       </defs>
       <use xlink:href="#DejaVuSans-32"/>
       <use xlink:href="#DejaVuSans-30" x="63.623047"/>
      </g>
     </g>
    </g>
    <g id="xtick_3">
     <g id="line2d_3">
      <g>
       <use xlink:href="#mbe92ba75e4" x="193.483608" y="288.430125" style="stroke: #000000; stroke-width: 0.8"/>
      </g>
     </g>
     <g id="text_3">
      <!-- 40 -->
      <g transform="translate(187.121108 303.028562) scale(0.1 -0.1)">
       <defs>
        <path id="DejaVuSans-34" d="M 2419 4116 
L 825 1625 
L 2419 1625 
L 2419 4116 
z
M 2253 4666 
L 3047 4666 
L 3047 1625 
L 3713 1625 
L 3713 1100 
L 3047 1100 
L 3047 0 
L 2419 0 
L 2419 1100 
L 313 1100 
L 313 1709 
L 2253 4666 
z
" transform="scale(0.015625)"/>
       </defs>
       <use xlink:href="#DejaVuSans-34"/>
       <use xlink:href="#DejaVuSans-30" x="63.623047"/>
      </g>
     </g>
    </g>
    <g id="xtick_4">
     <g id="line2d_4">
      <g>
       <use xlink:href="#mbe92ba75e4" x="258.414517" y="288.430125" style="stroke: #000000; stroke-width: 0.8"/>
      </g>
     </g>
     <g id="text_4">
      <!-- 60 -->
      <g transform="translate(252.052017 303.028562) scale(0.1 -0.1)">
       <defs>
        <path id="DejaVuSans-36" d="M 2113 2584 
Q 1688 2584 1439 2293 
Q 1191 2003 1191 1497 
Q 1191 994 1439 701 
Q 1688 409 2113 409 
Q 2538 409 2786 701 
Q 3034 994 3034 1497 
Q 3034 2003 2786 2293 
Q 2538 2584 2113 2584 
z
M 3366 4563 
L 3366 3988 
Q 3128 4100 2886 4159 
Q 2644 4219 2406 4219 
Q 1781 4219 1451 3797 
Q 1122 3375 1075 2522 
Q 1259 2794 1537 2939 
Q 1816 3084 2150 3084 
Q 2853 3084 3261 2657 
Q 3669 2231 3669 1497 
Q 3669 778 3244 343 
Q 2819 -91 2113 -91 
Q 1303 -91 875 529 
Q 447 1150 447 2328 
Q 447 3434 972 4092 
Q 1497 4750 2381 4750 
Q 2619 4750 2861 4703 
Q 3103 4656 3366 4563 
z
" transform="scale(0.015625)"/>
       </defs>
       <use xlink:href="#DejaVuSans-36"/>
       <use xlink:href="#DejaVuSans-30" x="63.623047"/>
      </g>
     </g>
    </g>
    <g id="xtick_5">
     <g id="line2d_5">
      <g>
       <use xlink:href="#mbe92ba75e4" x="323.345426" y="288.430125" style="stroke: #000000; stroke-width: 0.8"/>
      </g>
     </g>
     <g id="text_5">
      <!-- 80 -->
      <g transform="translate(316.982926 303.028562) scale(0.1 -0.1)">
       <defs>
        <path id="DejaVuSans-38" d="M 2034 2216 
Q 1584 2216 1326 1975 
Q 1069 1734 1069 1313 
Q 1069 891 1326 650 
Q 1584 409 2034 409 
Q 2484 409 2743 651 
Q 3003 894 3003 1313 
Q 3003 1734 2745 1975 
Q 2488 2216 2034 2216 
z
M 1403 2484 
Q 997 2584 770 2862 
Q 544 3141 544 3541 
Q 544 4100 942 4425 
Q 1341 4750 2034 4750 
Q 2731 4750 3128 4425 
Q 3525 4100 3525 3541 
Q 3525 3141 3298 2862 
Q 3072 2584 2669 2484 
Q 3125 2378 3379 2068 
Q 3634 1759 3634 1313 
Q 3634 634 3220 271 
Q 2806 -91 2034 -91 
Q 1263 -91 848 271 
Q 434 634 434 1313 
Q 434 1759 690 2068 
Q 947 2378 1403 2484 
z
M 1172 3481 
Q 1172 3119 1398 2916 
Q 1625 2713 2034 2713 
Q 2441 2713 2670 2916 
Q 2900 3119 2900 3481 
Q 2900 3844 2670 4047 
Q 2441 4250 2034 4250 
Q 1625 4250 1398 4047 
Q 1172 3844 1172 3481 
z
" transform="scale(0.015625)"/>
       </defs>
       <use xlink:href="#DejaVuSans-38"/>
       <use xlink:href="#DejaVuSans-30" x="63.623047"/>
      </g>
     </g>
    </g>
    <g id="xtick_6">
     <g id="line2d_6">
      <g>
       <use xlink:href="#mbe92ba75e4" x="388.276335" y="288.430125" style="stroke: #000000; stroke-width: 0.8"/>
      </g>
     </g>
     <g id="text_6">
      <!-- 100 -->
      <g transform="translate(378.732585 303.028562) scale(0.1 -0.1)">
       <defs>
        <path id="DejaVuSans-31" d="M 794 531 
L 1825 531 
L 1825 4091 
L 703 3866 
L 703 4441 
L 1819 4666 
L 2450 4666 
L 2450 531 
L 3481 531 
L 3481 0 
L 794 0 
L 794 531 
z
" transform="scale(0.015625)"/>
       </defs>
       <use xlink:href="#DejaVuSans-31"/>
       <use xlink:href="#DejaVuSans-30" x="63.623047"/>
       <use xlink:href="#DejaVuSans-30" x="127.246094"/>
      </g>
     </g>
    </g>
    <g id="text_7">
     <!-- Percentage -->
     <g transform="translate(197.826406 316.706687) scale(0.1 -0.1)">
      <defs>
       <path id="DejaVuSans-50" d="M 1259 4147 
L 1259 2394 
L 2053 2394 
Q 2494 2394 2734 2622 
Q 2975 2850 2975 3272 
Q 2975 3691 2734 3919 
Q 2494 4147 2053 4147 
L 1259 4147 
z
M 628 4666 
L 2053 4666 
Q 2838 4666 3239 4311 
Q 3641 3956 3641 3272 
Q 3641 2581 3239 2228 
Q 2838 1875 2053 1875 
L 1259 1875 
L 1259 0 
L 628 0 
L 628 4666 
z
" transform="scale(0.015625)"/>
       <path id="DejaVuSans-65" d="M 3597 1894 
L 3597 1613 
L 953 1613 
Q 991 1019 1311 708 
Q 1631 397 2203 397 
Q 2534 397 2845 478 
Q 3156 559 3463 722 
L 3463 178 
Q 3153 47 2828 -22 
Q 2503 -91 2169 -91 
Q 1331 -91 842 396 
Q 353 884 353 1716 
Q 353 2575 817 3079 
Q 1281 3584 2069 3584 
Q 2775 3584 3186 3129 
Q 3597 2675 3597 1894 
z
M 3022 2063 
Q 3016 2534 2758 2815 
Q 2500 3097 2075 3097 
Q 1594 3097 1305 2825 
Q 1016 2553 972 2059 
L 3022 2063 
z
" transform="scale(0.015625)"/>
       <path id="DejaVuSans-72" d="M 2631 2963 
Q 2534 3019 2420 3045 
Q 2306 3072 2169 3072 
Q 1681 3072 1420 2755 
Q 1159 2438 1159 1844 
L 1159 0 
L 581 0 
L 581 3500 
L 1159 3500 
L 1159 2956 
Q 1341 3275 1631 3429 
Q 1922 3584 2338 3584 
Q 2397 3584 2469 3576 
Q 2541 3569 2628 3553 
L 2631 2963 
z
" transform="scale(0.015625)"/>
       <path id="DejaVuSans-63" d="M 3122 3366 
L 3122 2828 
Q 2878 2963 2633 3030 
Q 2388 3097 2138 3097 
Q 1578 3097 1268 2742 
Q 959 2388 959 1747 
Q 959 1106 1268 751 
Q 1578 397 2138 397 
Q 2388 397 2633 464 
Q 2878 531 3122 666 
L 3122 134 
Q 2881 22 2623 -34 
Q 2366 -91 2075 -91 
Q 1284 -91 818 406 
Q 353 903 353 1747 
Q 353 2603 823 3093 
Q 1294 3584 2113 3584 
Q 2378 3584 2631 3529 
Q 2884 3475 3122 3366 
z
" transform="scale(0.015625)"/>
       <path id="DejaVuSans-6e" d="M 3513 2113 
L 3513 0 
L 2938 0 
L 2938 2094 
Q 2938 2591 2744 2837 
Q 2550 3084 2163 3084 
Q 1697 3084 1428 2787 
Q 1159 2491 1159 1978 
L 1159 0 
L 581 0 
L 581 3500 
L 1159 3500 
L 1159 2956 
Q 1366 3272 1645 3428 
Q 1925 3584 2291 3584 
Q 2894 3584 3203 3211 
Q 3513 2838 3513 2113 
z
" transform="scale(0.015625)"/>
       <path id="DejaVuSans-74" d="M 1172 4494 
L 1172 3500 
L 2356 3500 
L 2356 3053 
L 1172 3053 
L 1172 1153 
Q 1172 725 1289 603 
Q 1406 481 1766 481 
L 2356 481 
L 2356 0 
L 1766 0 
Q 1100 0 847 248 
Q 594 497 594 1153 
L 594 3053 
L 172 3053 
L 172 3500 
L 594 3500 
L 594 4494 
L 1172 4494 
z
" transform="scale(0.015625)"/>
       <path id="DejaVuSans-61" d="M 2194 1759 
Q 1497 1759 1228 1600 
Q 959 1441 959 1056 
Q 959 750 1161 570 
Q 1363 391 1709 391 
Q 2188 391 2477 730 
Q 2766 1069 2766 1631 
L 2766 1759 
L 2194 1759 
z
M 3341 1997 
L 3341 0 
L 2766 0 
L 2766 531 
Q 2569 213 2275 61 
Q 1981 -91 1556 -91 
Q 1019 -91 701 211 
Q 384 513 384 1019 
Q 384 1609 779 1909 
Q 1175 2209 1959 2209 
L 2766 2209 
L 2766 2266 
Q 2766 2663 2505 2880 
Q 2244 3097 1772 3097 
Q 1472 3097 1187 3025 
Q 903 2953 641 2809 
L 641 3341 
Q 956 3463 1253 3523 
Q 1550 3584 1831 3584 
Q 2591 3584 2966 3190 
Q 3341 2797 3341 1997 
z
" transform="scale(0.015625)"/>
       <path id="DejaVuSans-67" d="M 2906 1791 
Q 2906 2416 2648 2759 
Q 2391 3103 1925 3103 
Q 1463 3103 1205 2759 
Q 947 2416 947 1791 
Q 947 1169 1205 825 
Q 1463 481 1925 481 
Q 2391 481 2648 825 
Q 2906 1169 2906 1791 
z
M 3481 434 
Q 3481 -459 3084 -895 
Q 2688 -1331 1869 -1331 
Q 1566 -1331 1297 -1286 
Q 1028 -1241 775 -1147 
L 775 -588 
Q 1028 -725 1275 -790 
Q 1522 -856 1778 -856 
Q 2344 -856 2625 -561 
Q 2906 -266 2906 331 
L 2906 616 
Q 2728 306 2450 153 
Q 2172 0 1784 0 
Q 1141 0 747 490 
Q 353 981 353 1791 
Q 353 2603 747 3093 
Q 1141 3584 1784 3584 
Q 2172 3584 2450 3431 
Q 2728 3278 2906 2969 
L 2906 3500 
L 3481 3500 
L 3481 434 
z
" transform="scale(0.015625)"/>
      </defs>
      <use xlink:href="#DejaVuSans-50"/>
      <use xlink:href="#DejaVuSans-65" x="56.677734"/>
      <use xlink:href="#DejaVuSans-72" x="118.201172"/>
      <use xlink:href="#DejaVuSans-63" x="157.064453"/>
      <use xlink:href="#DejaVuSans-65" x="212.044922"/>
      <use xlink:href="#DejaVuSans-6e" x="273.568359"/>
      <use xlink:href="#DejaVuSans-74" x="336.947266"/>
      <use xlink:href="#DejaVuSans-61" x="376.15625"/>
      <use xlink:href="#DejaVuSans-67" x="437.435547"/>
      <use xlink:href="#DejaVuSans-65" x="500.912109"/>
     </g>
    </g>
   </g>
   <g id="matplotlib.axis_2">
    <g id="ytick_1">
     <g id="line2d_7">
      <defs>
       <path id="mcc1514bde6" d="M 0 0 
L -3.5 0 
" style="stroke: #000000; stroke-width: 0.8"/>
      </defs>
      <g>
       <use xlink:href="#mcc1514bde6" x="47.389063" y="288.430125" style="stroke: #000000; stroke-width: 0.8"/>
      </g>
     </g>
     <g id="text_8">
      <!-- -0.5 -->
      <g transform="translate(20.878125 292.229344) scale(0.1 -0.1)">
       <defs>
        <path id="DejaVuSans-2d" d="M 313 2009 
L 1997 2009 
L 1997 1497 
L 313 1497 
L 313 2009 
z
" transform="scale(0.015625)"/>
        <path id="DejaVuSans-2e" d="M 684 794 
L 1344 794 
L 1344 0 
L 684 0 
L 684 794 
z
" transform="scale(0.015625)"/>
        <path id="DejaVuSans-35" d="M 691 4666 
L 3169 4666 
L 3169 4134 
L 1269 4134 
L 1269 2991 
Q 1406 3038 1543 3061 
Q 1681 3084 1819 3084 
Q 2600 3084 3056 2656 
Q 3513 2228 3513 1497 
Q 3513 744 3044 326 
Q 2575 -91 1722 -91 
Q 1428 -91 1123 -41 
Q 819 9 494 109 
L 494 744 
Q 775 591 1075 516 
Q 1375 441 1709 441 
Q 2250 441 2565 725 
Q 2881 1009 2881 1497 
Q 2881 1984 2565 2268 
Q 2250 2553 1709 2553 
Q 1456 2553 1204 2497 
Q 953 2441 691 2322 
L 691 4666 
z
" transform="scale(0.015625)"/>
       </defs>
       <use xlink:href="#DejaVuSans-2d"/>
       <use xlink:href="#DejaVuSans-30" x="36.083984"/>
       <use xlink:href="#DejaVuSans-2e" x="99.707031"/>
       <use xlink:href="#DejaVuSans-35" x="131.494141"/>
      </g>
     </g>
    </g>
    <g id="ytick_2">
     <g id="line2d_8">
      <g>
       <use xlink:href="#mcc1514bde6" x="47.389063" y="255.166125" style="stroke: #000000; stroke-width: 0.8"/>
      </g>
     </g>
     <g id="text_9">
      <!-- 0.0 -->
      <g transform="translate(24.485938 258.965344) scale(0.1 -0.1)">
       <use xlink:href="#DejaVuSans-30"/>
       <use xlink:href="#DejaVuSans-2e" x="63.623047"/>
       <use xlink:href="#DejaVuSans-30" x="95.410156"/>
      </g>
     </g>
    </g>
    <g id="ytick_3">
     <g id="line2d_9">
      <g>
       <use xlink:href="#mcc1514bde6" x="47.389063" y="221.902125" style="stroke: #000000; stroke-width: 0.8"/>
      </g>
     </g>
     <g id="text_10">
      <!-- 0.5 -->
      <g transform="translate(24.485938 225.701344) scale(0.1 -0.1)">
       <use xlink:href="#DejaVuSans-30"/>
       <use xlink:href="#DejaVuSans-2e" x="63.623047"/>
       <use xlink:href="#DejaVuSans-35" x="95.410156"/>
      </g>
     </g>
    </g>
    <g id="ytick_4">
     <g id="line2d_10">
      <g>
       <use xlink:href="#mcc1514bde6" x="47.389063" y="188.638125" style="stroke: #000000; stroke-width: 0.8"/>
      </g>
     </g>
     <g id="text_11">
      <!-- 1.0 -->
      <g transform="translate(24.485938 192.437344) scale(0.1 -0.1)">
       <use xlink:href="#DejaVuSans-31"/>
       <use xlink:href="#DejaVuSans-2e" x="63.623047"/>
       <use xlink:href="#DejaVuSans-30" x="95.410156"/>
      </g>
     </g>
    </g>
    <g id="ytick_5">
     <g id="line2d_11">
      <g>
       <use xlink:href="#mcc1514bde6" x="47.389063" y="155.374125" style="stroke: #000000; stroke-width: 0.8"/>
      </g>
     </g>
     <g id="text_12">
      <!-- 1.5 -->
      <g transform="translate(24.485938 159.173344) scale(0.1 -0.1)">
       <use xlink:href="#DejaVuSans-31"/>
       <use xlink:href="#DejaVuSans-2e" x="63.623047"/>
       <use xlink:href="#DejaVuSans-35" x="95.410156"/>
      </g>
     </g>
    </g>
    <g id="ytick_6">
     <g id="line2d_12">
      <g>
       <use xlink:href="#mcc1514bde6" x="47.389063" y="122.110125" style="stroke: #000000; stroke-width: 0.8"/>
      </g>
     </g>
     <g id="text_13">
      <!-- 2.0 -->
      <g transform="translate(24.485938 125.909344) scale(0.1 -0.1)">
       <use xlink:href="#DejaVuSans-32"/>
       <use xlink:href="#DejaVuSans-2e" x="63.623047"/>
       <use xlink:href="#DejaVuSans-30" x="95.410156"/>
      </g>
     </g>
    </g>
    <g id="ytick_7">
     <g id="line2d_13">
      <g>
       <use xlink:href="#mcc1514bde6" x="47.389063" y="88.846125" style="stroke: #000000; stroke-width: 0.8"/>
      </g>
     </g>
     <g id="text_14">
      <!-- 2.5 -->
      <g transform="translate(24.485938 92.645344) scale(0.1 -0.1)">
       <use xlink:href="#DejaVuSans-32"/>
       <use xlink:href="#DejaVuSans-2e" x="63.623047"/>
       <use xlink:href="#DejaVuSans-35" x="95.410156"/>
      </g>
     </g>
    </g>
    <g id="ytick_8">
     <g id="line2d_14">
      <g>
       <use xlink:href="#mcc1514bde6" x="47.389063" y="55.582125" style="stroke: #000000; stroke-width: 0.8"/>
      </g>
     </g>
     <g id="text_15">
      <!-- 3.0 -->
      <g transform="translate(24.485938 59.381344) scale(0.1 -0.1)">
       <defs>
        <path id="DejaVuSans-33" d="M 2597 2516 
Q 3050 2419 3304 2112 
Q 3559 1806 3559 1356 
Q 3559 666 3084 287 
Q 2609 -91 1734 -91 
Q 1441 -91 1130 -33 
Q 819 25 488 141 
L 488 750 
Q 750 597 1062 519 
Q 1375 441 1716 441 
Q 2309 441 2620 675 
Q 2931 909 2931 1356 
Q 2931 1769 2642 2001 
Q 2353 2234 1838 2234 
L 1294 2234 
L 1294 2753 
L 1863 2753 
Q 2328 2753 2575 2939 
Q 2822 3125 2822 3475 
Q 2822 3834 2567 4026 
Q 2313 4219 1838 4219 
Q 1578 4219 1281 4162 
Q 984 4106 628 3988 
L 628 4550 
Q 988 4650 1302 4700 
Q 1616 4750 1894 4750 
Q 2613 4750 3031 4423 
Q 3450 4097 3450 3541 
Q 3450 3153 3228 2886 
Q 3006 2619 2597 2516 
z
" transform="scale(0.015625)"/>
       </defs>
       <use xlink:href="#DejaVuSans-33"/>
       <use xlink:href="#DejaVuSans-2e" x="63.623047"/>
       <use xlink:href="#DejaVuSans-30" x="95.410156"/>
      </g>
     </g>
    </g>
    <g id="ytick_9">
     <g id="line2d_15">
      <g>
       <use xlink:href="#mcc1514bde6" x="47.389063" y="22.318125" style="stroke: #000000; stroke-width: 0.8"/>
      </g>
     </g>
     <g id="text_16">
      <!-- 3.5 -->
      <g transform="translate(24.485938 26.117344) scale(0.1 -0.1)">
       <use xlink:href="#DejaVuSans-33"/>
       <use xlink:href="#DejaVuSans-2e" x="63.623047"/>
       <use xlink:href="#DejaVuSans-35" x="95.410156"/>
      </g>
     </g>
    </g>
    <g id="text_17">
     <!-- y (cm) -->
     <g transform="translate(14.798438 171.443656) rotate(-90) scale(0.1 -0.1)">
      <defs>
       <path id="DejaVuSans-79" d="M 2059 -325 
Q 1816 -950 1584 -1140 
Q 1353 -1331 966 -1331 
L 506 -1331 
L 506 -850 
L 844 -850 
Q 1081 -850 1212 -737 
Q 1344 -625 1503 -206 
L 1606 56 
L 191 3500 
L 800 3500 
L 1894 763 
L 2988 3500 
L 3597 3500 
L 2059 -325 
z
" transform="scale(0.015625)"/>
       <path id="DejaVuSans-20" transform="scale(0.015625)"/>
       <path id="DejaVuSans-28" d="M 1984 4856 
Q 1566 4138 1362 3434 
Q 1159 2731 1159 2009 
Q 1159 1288 1364 580 
Q 1569 -128 1984 -844 
L 1484 -844 
Q 1016 -109 783 600 
Q 550 1309 550 2009 
Q 550 2706 781 3412 
Q 1013 4119 1484 4856 
L 1984 4856 
z
" transform="scale(0.015625)"/>
       <path id="DejaVuSans-6d" d="M 3328 2828 
Q 3544 3216 3844 3400 
Q 4144 3584 4550 3584 
Q 5097 3584 5394 3201 
Q 5691 2819 5691 2113 
L 5691 0 
L 5113 0 
L 5113 2094 
Q 5113 2597 4934 2840 
Q 4756 3084 4391 3084 
Q 3944 3084 3684 2787 
Q 3425 2491 3425 1978 
L 3425 0 
L 2847 0 
L 2847 2094 
Q 2847 2600 2669 2842 
Q 2491 3084 2119 3084 
Q 1678 3084 1418 2786 
Q 1159 2488 1159 1978 
L 1159 0 
L 581 0 
L 581 3500 
L 1159 3500 
L 1159 2956 
Q 1356 3278 1631 3431 
Q 1906 3584 2284 3584 
Q 2666 3584 2933 3390 
Q 3200 3197 3328 2828 
z
" transform="scale(0.015625)"/>
       <path id="DejaVuSans-29" d="M 513 4856 
L 1013 4856 
Q 1481 4119 1714 3412 
Q 1947 2706 1947 2009 
Q 1947 1309 1714 600 
Q 1481 -109 1013 -844 
L 513 -844 
Q 928 -128 1133 580 
Q 1338 1288 1338 2009 
Q 1338 2731 1133 3434 
Q 928 4138 513 4856 
z
" transform="scale(0.015625)"/>
      </defs>
      <use xlink:href="#DejaVuSans-79"/>
      <use xlink:href="#DejaVuSans-20" x="59.179688"/>
      <use xlink:href="#DejaVuSans-28" x="90.966797"/>
      <use xlink:href="#DejaVuSans-63" x="129.980469"/>
      <use xlink:href="#DejaVuSans-6d" x="184.960938"/>
      <use xlink:href="#DejaVuSans-29" x="282.373047"/>
     </g>
    </g>
   </g>
   <g id="line2d_16">
    <path d="M 63.62179 224.624956 
L 77.149063 223.557563 
L 90.676335 226.996892 
L 104.203608 226.294381 
L 117.730881 229.958228 
L 131.258153 234.237886 
L 144.785426 237.844879 
L 158.312699 239.846384 
L 171.839972 238.975184 
L 185.367244 240.583358 
L 198.894517 241.992769 
L 212.42179 244.166473 
L 225.949062 245.900822 
L 239.476335 248.37138 
L 253.003608 250.586668 
L 266.530881 249.936594 
L 280.058153 250.152531 
L 293.585426 250.493848 
L 307.112699 251.063947 
L 320.639972 250.454059 
L 334.167244 249.48778 
L 347.694517 249.714942 
L 361.22179 248.868012 
L 374.749063 247.153414 
L 388.276335 240.273154 
" clip-path="url(#p43a6ae824e)" style="fill: none; stroke: #440154; stroke-width: 1.5; stroke-linecap: square"/>
   </g>
   <g id="line2d_17">
    <path d="M 63.62179 149.261382 
L 77.149063 153.782748 
L 90.676335 173.826188 
L 104.203608 191.876079 
L 117.730881 203.638547 
L 131.258153 207.008927 
L 144.785426 214.659523 
L 158.312699 216.786332 
L 171.839972 222.089451 
L 185.367244 225.747795 
L 198.894517 225.586895 
L 212.42179 223.677313 
L 225.949062 222.609347 
L 239.476335 221.691524 
L 253.003608 220.344474 
L 266.530881 216.764972 
L 280.058153 213.217983 
L 293.585426 207.656815 
L 307.112699 200.87439 
L 320.639972 194.664544 
L 334.167244 190.122583 
L 347.694517 185.789103 
L 361.22179 182.324189 
L 374.749063 176.632498 
L 388.276335 167.86079 
" clip-path="url(#p43a6ae824e)" style="fill: none; stroke: #3b528b; stroke-width: 1.5; stroke-linecap: square"/>
   </g>
   <g id="line2d_18">
    <path d="M 63.62179 177.678318 
L 77.149063 167.991355 
L 90.676335 160.20026 
L 104.203608 159.752633 
L 117.730881 157.026469 
L 131.258153 153.245076 
L 144.785426 152.182885 
L 158.312699 152.990187 
L 171.839972 154.77962 
L 185.367244 156.19024 
L 198.894517 156.65737 
L 212.42179 158.942841 
L 225.949062 161.299072 
L 239.476335 165.684159 
L 253.003608 171.989944 
L 266.530881 175.508916 
L 280.058153 180.276054 
L 293.585426 185.884216 
L 307.112699 189.986165 
L 320.639972 193.848524 
L 334.167244 196.110533 
L 347.694517 199.03198 
L 361.22179 199.375808 
L 374.749063 197.260846 
L 388.276335 188.80106 
" clip-path="url(#p43a6ae824e)" style="fill: none; stroke: #21918c; stroke-width: 1.5; stroke-linecap: square"/>
   </g>
   <g id="line2d_19">
    <path d="M 63.62179 126.601478 
L 77.149063 127.529006 
L 90.676335 129.059745 
L 104.203608 132.085602 
L 117.730881 133.494541 
L 131.258153 132.200679 
L 144.785426 131.429287 
L 158.312699 130.382416 
L 171.839972 131.608056 
L 185.367244 133.281225 
L 198.894517 132.59267 
L 212.42179 132.036125 
L 225.949062 132.334618 
L 239.476335 133.794116 
L 253.003608 136.974466 
L 266.530881 137.373305 
L 280.058153 139.470705 
L 293.585426 140.187963 
L 307.112699 140.566992 
L 320.639972 139.374375 
L 334.167244 138.801115 
L 347.694517 139.314371 
L 361.22179 138.003956 
L 374.749063 135.639873 
L 388.276335 130.36984 
" clip-path="url(#p43a6ae824e)" style="fill: none; stroke: #5ec962; stroke-width: 1.5; stroke-linecap: square"/>
   </g>
   <g id="line2d_20">
    <path d="M 63.62179 82.897463 
L 77.149063 83.321979 
L 90.676335 83.621338 
L 104.203608 82.2468 
L 117.730881 80.474688 
L 131.258153 77.535494 
L 144.785426 74.663516 
L 158.312699 74.786452 
L 171.839972 75.475853 
L 185.367244 76.999098 
L 198.894517 76.089652 
L 212.42179 76.134374 
L 225.949062 76.37004 
L 239.476335 78.187502 
L 253.003608 81.394707 
L 266.530881 82.48979 
L 280.058153 84.526501 
L 293.585426 85.231487 
L 307.112699 86.447516 
L 320.639972 85.704997 
L 334.167244 85.267103 
L 347.694517 86.066449 
L 361.22179 85.505185 
L 374.749063 83.051981 
L 388.276335 79.516556 
" clip-path="url(#p43a6ae824e)" style="fill: none; stroke: #fde725; stroke-width: 1.5; stroke-linecap: square"/>
   </g>
   <g id="patch_3">
    <path d="M 47.389063 288.430125 
L 47.389063 22.318125 
" style="fill: none; stroke: #000000; stroke-width: 0.8; stroke-linejoin: miter; stroke-linecap: square"/>
   </g>
   <g id="patch_4">
    <path d="M 404.509063 288.430125 
L 404.509063 22.318125 
" style="fill: none; stroke: #000000; stroke-width: 0.8; stroke-linejoin: miter; stroke-linecap: square"/>
   </g>
   <g id="patch_5">
    <path d="M 47.389063 288.430125 
L 404.509063 288.430125 
" style="fill: none; stroke: #000000; stroke-width: 0.8; stroke-linejoin: miter; stroke-linecap: square"/>
   </g>
   <g id="patch_6">
    <path d="M 47.389063 22.318125 
L 404.509063 22.318125 
" style="fill: none; stroke: #000000; stroke-width: 0.8; stroke-linejoin: miter; stroke-linecap: square"/>
   </g>
   <g id="text_18">
    <!-- 12 mm - Joint Y over average step cycle -->
    <g transform="translate(105.845938 16.318125) scale(0.12 -0.12)">
     <defs>
      <path id="DejaVuSans-4a" d="M 628 4666 
L 1259 4666 
L 1259 325 
Q 1259 -519 939 -900 
Q 619 -1281 -91 -1281 
L -331 -1281 
L -331 -750 
L -134 -750 
Q 284 -750 456 -515 
Q 628 -281 628 325 
L 628 4666 
z
" transform="scale(0.015625)"/>
      <path id="DejaVuSans-6f" d="M 1959 3097 
Q 1497 3097 1228 2736 
Q 959 2375 959 1747 
Q 959 1119 1226 758 
Q 1494 397 1959 397 
Q 2419 397 2687 759 
Q 2956 1122 2956 1747 
Q 2956 2369 2687 2733 
Q 2419 3097 1959 3097 
z
M 1959 3584 
Q 2709 3584 3137 3096 
Q 3566 2609 3566 1747 
Q 3566 888 3137 398 
Q 2709 -91 1959 -91 
Q 1206 -91 779 398 
Q 353 888 353 1747 
Q 353 2609 779 3096 
Q 1206 3584 1959 3584 
z
" transform="scale(0.015625)"/>
      <path id="DejaVuSans-69" d="M 603 3500 
L 1178 3500 
L 1178 0 
L 603 0 
L 603 3500 
z
M 603 4863 
L 1178 4863 
L 1178 4134 
L 603 4134 
L 603 4863 
z
" transform="scale(0.015625)"/>
      <path id="DejaVuSans-59" d="M -13 4666 
L 666 4666 
L 1959 2747 
L 3244 4666 
L 3922 4666 
L 2272 2222 
L 2272 0 
L 1638 0 
L 1638 2222 
L -13 4666 
z
" transform="scale(0.015625)"/>
      <path id="DejaVuSans-76" d="M 191 3500 
L 800 3500 
L 1894 563 
L 2988 3500 
L 3597 3500 
L 2284 0 
L 1503 0 
L 191 3500 
z
" transform="scale(0.015625)"/>
      <path id="DejaVuSans-73" d="M 2834 3397 
L 2834 2853 
Q 2591 2978 2328 3040 
Q 2066 3103 1784 3103 
Q 1356 3103 1142 2972 
Q 928 2841 928 2578 
Q 928 2378 1081 2264 
Q 1234 2150 1697 2047 
L 1894 2003 
Q 2506 1872 2764 1633 
Q 3022 1394 3022 966 
Q 3022 478 2636 193 
Q 2250 -91 1575 -91 
Q 1294 -91 989 -36 
Q 684 19 347 128 
L 347 722 
Q 666 556 975 473 
Q 1284 391 1588 391 
Q 1994 391 2212 530 
Q 2431 669 2431 922 
Q 2431 1156 2273 1281 
Q 2116 1406 1581 1522 
L 1381 1569 
Q 847 1681 609 1914 
Q 372 2147 372 2553 
Q 372 3047 722 3315 
Q 1072 3584 1716 3584 
Q 2034 3584 2315 3537 
Q 2597 3491 2834 3397 
z
" transform="scale(0.015625)"/>
      <path id="DejaVuSans-70" d="M 1159 525 
L 1159 -1331 
L 581 -1331 
L 581 3500 
L 1159 3500 
L 1159 2969 
Q 1341 3281 1617 3432 
Q 1894 3584 2278 3584 
Q 2916 3584 3314 3078 
Q 3713 2572 3713 1747 
Q 3713 922 3314 415 
Q 2916 -91 2278 -91 
Q 1894 -91 1617 61 
Q 1341 213 1159 525 
z
M 3116 1747 
Q 3116 2381 2855 2742 
Q 2594 3103 2138 3103 
Q 1681 3103 1420 2742 
Q 1159 2381 1159 1747 
Q 1159 1113 1420 752 
Q 1681 391 2138 391 
Q 2594 391 2855 752 
Q 3116 1113 3116 1747 
z
" transform="scale(0.015625)"/>
      <path id="DejaVuSans-6c" d="M 603 4863 
L 1178 4863 
L 1178 0 
L 603 0 
L 603 4863 
z
" transform="scale(0.015625)"/>
     </defs>
     <use xlink:href="#DejaVuSans-31"/>
     <use xlink:href="#DejaVuSans-32" x="63.623047"/>
     <use xlink:href="#DejaVuSans-20" x="127.246094"/>
     <use xlink:href="#DejaVuSans-6d" x="159.033203"/>
     <use xlink:href="#DejaVuSans-6d" x="256.445312"/>
     <use xlink:href="#DejaVuSans-20" x="353.857422"/>
     <use xlink:href="#DejaVuSans-2d" x="385.644531"/>
     <use xlink:href="#DejaVuSans-20" x="421.728516"/>
     <use xlink:href="#DejaVuSans-4a" x="453.515625"/>
     <use xlink:href="#DejaVuSans-6f" x="483.007812"/>
     <use xlink:href="#DejaVuSans-69" x="544.189453"/>
     <use xlink:href="#DejaVuSans-6e" x="571.972656"/>
     <use xlink:href="#DejaVuSans-74" x="635.351562"/>
     <use xlink:href="#DejaVuSans-20" x="674.560547"/>
     <use xlink:href="#DejaVuSans-59" x="706.347656"/>
     <use xlink:href="#DejaVuSans-20" x="767.431641"/>
     <use xlink:href="#DejaVuSans-6f" x="799.21875"/>
     <use xlink:href="#DejaVuSans-76" x="860.400391"/>
     <use xlink:href="#DejaVuSans-65" x="919.580078"/>
     <use xlink:href="#DejaVuSans-72" x="981.103516"/>
     <use xlink:href="#DejaVuSans-20" x="1022.216797"/>
     <use xlink:href="#DejaVuSans-61" x="1054.003906"/>
     <use xlink:href="#DejaVuSans-76" x="1115.283203"/>
     <use xlink:href="#DejaVuSans-65" x="1174.462891"/>
     <use xlink:href="#DejaVuSans-72" x="1235.986328"/>
     <use xlink:href="#DejaVuSans-61" x="1277.099609"/>
     <use xlink:href="#DejaVuSans-67" x="1338.378906"/>
     <use xlink:href="#DejaVuSans-65" x="1401.855469"/>
     <use xlink:href="#DejaVuSans-20" x="1463.378906"/>
     <use xlink:href="#DejaVuSans-73" x="1495.166016"/>
     <use xlink:href="#DejaVuSans-74" x="1547.265625"/>
     <use xlink:href="#DejaVuSans-65" x="1586.474609"/>
     <use xlink:href="#DejaVuSans-70" x="1647.998047"/>
     <use xlink:href="#DejaVuSans-20" x="1711.474609"/>
     <use xlink:href="#DejaVuSans-63" x="1743.261719"/>
     <use xlink:href="#DejaVuSans-79" x="1798.242188"/>
     <use xlink:href="#DejaVuSans-63" x="1857.421875"/>
     <use xlink:href="#DejaVuSans-6c" x="1912.402344"/>
     <use xlink:href="#DejaVuSans-65" x="1940.185547"/>
    </g>
   </g>
   <g id="legend_1">
    <g id="patch_7">
     <path d="M 296.168438 103.70875 
L 397.509063 103.70875 
Q 399.509063 103.70875 399.509063 101.70875 
L 399.509063 29.318125 
Q 399.509063 27.318125 397.509063 27.318125 
L 296.168438 27.318125 
Q 294.168438 27.318125 294.168438 29.318125 
L 294.168438 101.70875 
Q 294.168438 103.70875 296.168438 103.70875 
z
" style="fill: #ffffff; opacity: 0.8; stroke: #cccccc; stroke-linejoin: miter"/>
    </g>
    <g id="line2d_21">
     <path d="M 298.168438 35.416562 
L 308.168438 35.416562 
L 318.168438 35.416562 
" style="fill: none; stroke: #440154; stroke-width: 1.5; stroke-linecap: square"/>
    </g>
    <g id="text_19">
     <!-- Hind paw tao  -->
     <g transform="translate(326.168438 38.916562) scale(0.1 -0.1)">
      <defs>
       <path id="DejaVuSans-48" d="M 628 4666 
L 1259 4666 
L 1259 2753 
L 3553 2753 
L 3553 4666 
L 4184 4666 
L 4184 0 
L 3553 0 
L 3553 2222 
L 1259 2222 
L 1259 0 
L 628 0 
L 628 4666 
z
" transform="scale(0.015625)"/>
       <path id="DejaVuSans-64" d="M 2906 2969 
L 2906 4863 
L 3481 4863 
L 3481 0 
L 2906 0 
L 2906 525 
Q 2725 213 2448 61 
Q 2172 -91 1784 -91 
Q 1150 -91 751 415 
Q 353 922 353 1747 
Q 353 2572 751 3078 
Q 1150 3584 1784 3584 
Q 2172 3584 2448 3432 
Q 2725 3281 2906 2969 
z
M 947 1747 
Q 947 1113 1208 752 
Q 1469 391 1925 391 
Q 2381 391 2643 752 
Q 2906 1113 2906 1747 
Q 2906 2381 2643 2742 
Q 2381 3103 1925 3103 
Q 1469 3103 1208 2742 
Q 947 2381 947 1747 
z
" transform="scale(0.015625)"/>
       <path id="DejaVuSans-77" d="M 269 3500 
L 844 3500 
L 1563 769 
L 2278 3500 
L 2956 3500 
L 3675 769 
L 4391 3500 
L 4966 3500 
L 4050 0 
L 3372 0 
L 2619 2869 
L 1863 0 
L 1184 0 
L 269 3500 
z
" transform="scale(0.015625)"/>
      </defs>
      <use xlink:href="#DejaVuSans-48"/>
      <use xlink:href="#DejaVuSans-69" x="75.195312"/>
      <use xlink:href="#DejaVuSans-6e" x="102.978516"/>
      <use xlink:href="#DejaVuSans-64" x="166.357422"/>
      <use xlink:href="#DejaVuSans-20" x="229.833984"/>
      <use xlink:href="#DejaVuSans-70" x="261.621094"/>
      <use xlink:href="#DejaVuSans-61" x="325.097656"/>
      <use xlink:href="#DejaVuSans-77" x="386.376953"/>
      <use xlink:href="#DejaVuSans-20" x="468.164062"/>
      <use xlink:href="#DejaVuSans-74" x="499.951172"/>
      <use xlink:href="#DejaVuSans-61" x="539.160156"/>
      <use xlink:href="#DejaVuSans-6f" x="600.439453"/>
      <use xlink:href="#DejaVuSans-20" x="661.621094"/>
     </g>
    </g>
    <g id="line2d_22">
     <path d="M 298.168438 50.094688 
L 308.168438 50.094688 
L 318.168438 50.094688 
" style="fill: none; stroke: #3b528b; stroke-width: 1.5; stroke-linecap: square"/>
    </g>
    <g id="text_20">
     <!-- Ankle  -->
     <g transform="translate(326.168438 53.594688) scale(0.1 -0.1)">
      <defs>
       <path id="DejaVuSans-41" d="M 2188 4044 
L 1331 1722 
L 3047 1722 
L 2188 4044 
z
M 1831 4666 
L 2547 4666 
L 4325 0 
L 3669 0 
L 3244 1197 
L 1141 1197 
L 716 0 
L 50 0 
L 1831 4666 
z
" transform="scale(0.015625)"/>
       <path id="DejaVuSans-6b" d="M 581 4863 
L 1159 4863 
L 1159 1991 
L 2875 3500 
L 3609 3500 
L 1753 1863 
L 3688 0 
L 2938 0 
L 1159 1709 
L 1159 0 
L 581 0 
L 581 4863 
z
" transform="scale(0.015625)"/>
      </defs>
      <use xlink:href="#DejaVuSans-41"/>
      <use xlink:href="#DejaVuSans-6e" x="68.408203"/>
      <use xlink:href="#DejaVuSans-6b" x="131.787109"/>
      <use xlink:href="#DejaVuSans-6c" x="189.697266"/>
      <use xlink:href="#DejaVuSans-65" x="217.480469"/>
      <use xlink:href="#DejaVuSans-20" x="279.003906"/>
     </g>
    </g>
    <g id="line2d_23">
     <path d="M 298.168438 64.772812 
L 308.168438 64.772812 
L 318.168438 64.772812 
" style="fill: none; stroke: #21918c; stroke-width: 1.5; stroke-linecap: square"/>
    </g>
    <g id="text_21">
     <!-- Knee  -->
     <g transform="translate(326.168438 68.272812) scale(0.1 -0.1)">
      <defs>
       <path id="DejaVuSans-4b" d="M 628 4666 
L 1259 4666 
L 1259 2694 
L 3353 4666 
L 4166 4666 
L 1850 2491 
L 4331 0 
L 3500 0 
L 1259 2247 
L 1259 0 
L 628 0 
L 628 4666 
z
" transform="scale(0.015625)"/>
      </defs>
      <use xlink:href="#DejaVuSans-4b"/>
      <use xlink:href="#DejaVuSans-6e" x="65.576172"/>
      <use xlink:href="#DejaVuSans-65" x="128.955078"/>
      <use xlink:href="#DejaVuSans-65" x="190.478516"/>
      <use xlink:href="#DejaVuSans-20" x="252.001953"/>
     </g>
    </g>
    <g id="line2d_24">
     <path d="M 298.168438 79.450938 
L 308.168438 79.450938 
L 318.168438 79.450938 
" style="fill: none; stroke: #5ec962; stroke-width: 1.5; stroke-linecap: square"/>
    </g>
    <g id="text_22">
     <!-- Hip  -->
     <g transform="translate(326.168438 82.950938) scale(0.1 -0.1)">
      <use xlink:href="#DejaVuSans-48"/>
      <use xlink:href="#DejaVuSans-69" x="75.195312"/>
      <use xlink:href="#DejaVuSans-70" x="102.978516"/>
      <use xlink:href="#DejaVuSans-20" x="166.455078"/>
     </g>
    </g>
    <g id="line2d_25">
     <path d="M 298.168438 94.129063 
L 308.168438 94.129063 
L 318.168438 94.129063 
" style="fill: none; stroke: #fde725; stroke-width: 1.5; stroke-linecap: square"/>
    </g>
    <g id="text_23">
     <!-- Iliac Crest  -->
     <g transform="translate(326.168438 97.629063) scale(0.1 -0.1)">
      <defs>
       <path id="DejaVuSans-49" d="M 628 4666 
L 1259 4666 
L 1259 0 
L 628 0 
L 628 4666 
z
" transform="scale(0.015625)"/>
       <path id="DejaVuSans-43" d="M 4122 4306 
L 4122 3641 
Q 3803 3938 3442 4084 
Q 3081 4231 2675 4231 
Q 1875 4231 1450 3742 
Q 1025 3253 1025 2328 
Q 1025 1406 1450 917 
Q 1875 428 2675 428 
Q 3081 428 3442 575 
Q 3803 722 4122 1019 
L 4122 359 
Q 3791 134 3420 21 
Q 3050 -91 2638 -91 
Q 1578 -91 968 557 
Q 359 1206 359 2328 
Q 359 3453 968 4101 
Q 1578 4750 2638 4750 
Q 3056 4750 3426 4639 
Q 3797 4528 4122 4306 
z
" transform="scale(0.015625)"/>
      </defs>
      <use xlink:href="#DejaVuSans-49"/>
      <use xlink:href="#DejaVuSans-6c" x="29.492188"/>
      <use xlink:href="#DejaVuSans-69" x="57.275391"/>
      <use xlink:href="#DejaVuSans-61" x="85.058594"/>
      <use xlink:href="#DejaVuSans-63" x="146.337891"/>
      <use xlink:href="#DejaVuSans-20" x="201.318359"/>
      <use xlink:href="#DejaVuSans-43" x="233.105469"/>
      <use xlink:href="#DejaVuSans-72" x="302.929688"/>
      <use xlink:href="#DejaVuSans-65" x="341.792969"/>
      <use xlink:href="#DejaVuSans-73" x="403.316406"/>
      <use xlink:href="#DejaVuSans-74" x="455.416016"/>
      <use xlink:href="#DejaVuSans-20" x="494.625"/>
     </g>
    </g>
   </g>
  </g>
 </g>
 <defs>
  <clipPath id="p43a6ae824e">
   <rect x="47.389063" y="22.318125" width="357.12" height="266.112"/>
  </clipPath>
 </defs>
</svg>
