<?xml version="1.0" encoding="utf-8" standalone="no"?>
<!DOCTYPE svg PUBLIC "-//W3C//DTD SVG 1.1//EN"
  "http://www.w3.org/Graphics/SVG/1.1/DTD/svg11.dtd">
<svg xmlns:xlink="http://www.w3.org/1999/xlink" width="518.441875pt" height="325.986375pt" viewBox="0 0 518.441875 325.986375" xmlns="http://www.w3.org/2000/svg" version="1.1">
 <metadata>
  <rdf:RDF xmlns:dc="http://purl.org/dc/elements/1.1/" xmlns:cc="http://creativecommons.org/ns#" xmlns:rdf="http://www.w3.org/1999/02/22-rdf-syntax-ns#">
   <cc:Work>
    <dc:type rdf:resource="http://purl.org/dc/dcmitype/StillImage"/>
    <dc:date>2026-08-31T15:14:40.116500</dc:date>
    <dc:format>image/svg+xml</dc:format>
    <dc:creator>
     <cc:Agent>
      <dc:title>Matplotlib v3.10.1, https://matplotlib.org/</dc:title>
     </cc:Agent>
    </dc:creator>
   </cc:Work>
  </rdf:RDF>
 </metadata>
 <defs>
  <style type="text/css">*{stroke-linejoin: round; stroke-linecap: butt}</style>
 </defs>
 <g id="figure_1">
  <g id="patch_1">
   <path d="M 0 325.986375 
L 518.441875 325.986375 
L 518.441875 0 
L 0 0 
z
" style="fill: #ffffff"/>
  </g>
  <g id="axes_1">
   <g id="patch_2">
    <path d="M 43.78125 288.430125 
L 400.90125 288.430125 
L 400.90125 22.318125 
L 43.78125 22.318125 
z
" style="fill: #ffffff"/>
   </g>
   <g id="FillBetweenPolyCollection_1">
    <path d="M 60.013977 242.662907 
L 60.013977 255.684406 
L 73.54125 253.137103 
L 87.068523 250.901191 
L 100.595795 251.272763 
L 114.123068 259.189685 
L 127.650341 264.164171 
L 141.177614 266.158153 
L 154.704886 265.718524 
L 168.232159 270.752455 
L 181.759432 274.070803 
L 195.286705 273.965812 
L 208.813977 273.467134 
L 222.34125 272.778932 
L 235.868523 273.912755 
L 249.395795 271.860586 
L 262.923068 273.51178 
L 276.450341 275.889556 
L 289.977614 273.961659 
L 303.504886 273.238643 
L 317.032159 273.454104 
L 330.559432 273.459916 
L 344.086705 272.441355 
L 357.613977 272.899322 
L 371.14125 270.276818 
L 384.668523 267.821262 
L 384.668523 256.368722 
L 384.668523 256.368722 
L 371.14125 259.687422 
L 357.613977 264.271578 
L 344.086705 265.981168 
L 330.559432 267.342898 
L 317.032159 266.692501 
L 303.504886 265.040945 
L 289.977614 265.182917 
L 276.450341 265.649015 
L 262.923068 264.020873 
L 249.395795 261.169905 
L 235.868523 258.279872 
L 222.34125 256.355647 
L 208.813977 261.597043 
L 195.286705 264.669486 
L 181.759432 265.49347 
L 168.232159 265.154271 
L 154.704886 260.402941 
L 141.177614 258.279623 
L 127.650341 260.267119 
L 114.123068 254.335669 
L 100.595795 240.34409 
L 87.068523 237.475668 
L 73.54125 236.670057 
L 60.013977 242.662907 
z
" clip-path="url(#pe383bb14fe)" style="fill: #66c2a5; fill-opacity: 0.2"/>
   </g>
   <g id="FillBetweenPolyCollection_2">
    <path d="M 60.013977 148.332794 
L 60.013977 176.630442 
L 73.54125 174.835066 
L 87.068523 193.558024 
L 100.595795 218.058032 
L 114.123068 235.023758 
L 127.650341 239.641386 
L 141.177614 242.84126 
L 154.704886 242.857271 
L 168.232159 244.353684 
L 181.759432 244.11535 
L 195.286705 240.864788 
L 208.813977 237.689328 
L 222.34125 231.090128 
L 235.868523 227.325907 
L 249.395795 221.013668 
L 262.923068 212.127109 
L 276.450341 210.808657 
L 289.977614 209.674662 
L 303.504886 208.270633 
L 317.032159 204.852933 
L 330.559432 203.381041 
L 344.086705 200.664631 
L 357.613977 199.593695 
L 371.14125 195.721271 
L 384.668523 191.201435 
L 384.668523 162.54722 
L 384.668523 162.54722 
L 371.14125 169.818352 
L 357.613977 175.292362 
L 344.086705 179.378704 
L 330.559432 182.870443 
L 317.032159 186.331708 
L 303.504886 192.854264 
L 289.977614 198.117855 
L 276.450341 204.502491 
L 262.923068 204.123456 
L 249.395795 205.10092 
L 235.868523 202.840022 
L 222.34125 203.346368 
L 208.813977 210.078469 
L 195.286705 214.276017 
L 181.759432 215.222479 
L 168.232159 212.701834 
L 154.704886 210.154053 
L 141.177614 212.256371 
L 127.650341 214.288719 
L 114.123068 215.284293 
L 100.595795 206.305733 
L 87.068523 188.693371 
L 73.54125 151.802596 
L 60.013977 148.332794 
z
" clip-path="url(#pe383bb14fe)" style="fill: #fc8d62; fill-opacity: 0.2"/>
   </g>
   <g id="FillBetweenPolyCollection_3">
    <path d="M 60.013977 161.714507 
L 60.013977 176.968796 
L 73.54125 168.161916 
L 87.068523 160.118876 
L 100.595795 159.826286 
L 114.123068 162.720718 
L 127.650341 163.53269 
L 141.177614 166.080921 
L 154.704886 167.406417 
L 168.232159 171.368082 
L 181.759432 173.068309 
L 195.286705 174.833404 
L 208.813977 177.615964 
L 222.34125 179.233565 
L 235.868523 183.45657 
L 249.395795 184.802087 
L 262.923068 189.288497 
L 276.450341 195.75111 
L 289.977614 196.433745 
L 303.504886 196.988659 
L 317.032159 199.227519 
L 330.559432 199.247362 
L 344.086705 199.669201 
L 357.613977 196.691159 
L 371.14125 191.816585 
L 384.668523 187.289634 
L 384.668523 170.455669 
L 384.668523 170.455669 
L 371.14125 173.277497 
L 357.613977 174.153363 
L 344.086705 174.077388 
L 330.559432 172.307884 
L 317.032159 172.476216 
L 303.504886 171.830883 
L 289.977614 171.570458 
L 276.450341 170.727435 
L 262.923068 166.637062 
L 249.395795 165.170753 
L 235.868523 166.582175 
L 222.34125 163.997849 
L 208.813977 164.549133 
L 195.286705 164.155304 
L 181.759432 162.048562 
L 168.232159 157.450195 
L 154.704886 151.189478 
L 141.177614 149.271034 
L 127.650341 142.537767 
L 114.123068 142.666996 
L 100.595795 140.246201 
L 87.068523 140.305942 
L 73.54125 147.626127 
L 60.013977 161.714507 
z
" clip-path="url(#pe383bb14fe)" style="fill: #8da0cb; fill-opacity: 0.2"/>
   </g>
   <g id="FillBetweenPolyCollection_4">
    <path d="M 60.013977 107.466238 
L 60.013977 129.825265 
L 73.54125 125.9451 
L 87.068523 129.506836 
L 100.595795 135.91636 
L 114.123068 137.369983 
L 127.650341 137.834886 
L 141.177614 139.647151 
L 154.704886 140.251994 
L 168.232159 141.794058 
L 181.759432 144.369638 
L 195.286705 144.062909 
L 208.813977 144.59588 
L 222.34125 143.672984 
L 235.868523 141.855777 
L 249.395795 140.560215 
L 262.923068 139.996783 
L 276.450341 142.603184 
L 289.977614 142.640613 
L 303.504886 142.999422 
L 317.032159 141.696792 
L 330.559432 143.131623 
L 344.086705 142.040597 
L 357.613977 141.812248 
L 371.14125 137.142857 
L 384.668523 135.235361 
L 384.668523 110.637489 
L 384.668523 110.637489 
L 371.14125 112.505821 
L 357.613977 115.800463 
L 344.086705 114.132972 
L 330.559432 115.581238 
L 317.032159 116.347701 
L 303.504886 117.978105 
L 289.977614 118.669908 
L 276.450341 119.661219 
L 262.923068 116.833442 
L 249.395795 116.133992 
L 235.868523 117.557437 
L 222.34125 117.624347 
L 208.813977 119.212539 
L 195.286705 119.925711 
L 181.759432 119.841884 
L 168.232159 117.057579 
L 154.704886 114.399093 
L 141.177614 115.207863 
L 127.650341 112.596124 
L 114.123068 113.523318 
L 100.595795 112.84482 
L 87.068523 107.677043 
L 73.54125 102.487269 
L 60.013977 107.466238 
z
" clip-path="url(#pe383bb14fe)" style="fill: #e78ac3; fill-opacity: 0.2"/>
   </g>
   <g id="FillBetweenPolyCollection_5">
    <path d="M 60.013977 44.207578 
L 60.013977 72.608595 
L 73.54125 69.719919 
L 87.068523 67.564942 
L 100.595795 66.894893 
L 114.123068 63.869515 
L 127.650341 62.766065 
L 141.177614 65.511984 
L 154.704886 67.616784 
L 168.232159 69.169764 
L 181.759432 71.604949 
L 195.286705 72.568616 
L 208.813977 73.204069 
L 222.34125 74.074691 
L 235.868523 73.781296 
L 249.395795 71.582811 
L 262.923068 70.763279 
L 276.450341 74.079327 
L 289.977614 73.922985 
L 303.504886 75.119901 
L 317.032159 75.549523 
L 330.559432 76.107933 
L 344.086705 77.107271 
L 357.613977 75.827784 
L 371.14125 74.1429 
L 384.668523 74.99584 
L 384.668523 43.581015 
L 384.668523 43.581015 
L 371.14125 43.317948 
L 357.613977 44.444392 
L 344.086705 42.995529 
L 330.559432 42.830398 
L 317.032159 44.347547 
L 303.504886 45.444582 
L 289.977614 46.068592 
L 276.450341 47.410448 
L 262.923068 45.047341 
L 249.395795 45.153047 
L 235.868523 47.802601 
L 222.34125 46.787775 
L 208.813977 46.863131 
L 195.286705 47.613641 
L 181.759432 46.919037 
L 168.232159 43.868664 
L 154.704886 40.942654 
L 141.177614 40.338171 
L 127.650341 36.072153 
L 114.123068 38.350133 
L 100.595795 40.378561 
L 87.068523 41.827023 
L 73.54125 42.245687 
L 60.013977 44.207578 
z
" clip-path="url(#pe383bb14fe)" style="fill: #a6d854; fill-opacity: 0.2"/>
   </g>
   <g id="matplotlib.axis_1">
    <g id="xtick_1">
     <g id="line2d_1">
      <defs>
       <path id="m9ae49afff8" d="M 0 0 
L 0 3.5 
" style="stroke: #000000; stroke-width: 0.8"/>
      </defs>
      <g>
       <use xlink:href="#m9ae49afff8" x="60.013977" y="288.430125" style="stroke: #000000; stroke-width: 0.8"/>
      </g>
     </g>
     <g id="text_1">
      <!-- 0 -->
      <g transform="translate(56.832727 303.028562) scale(0.1 -0.1)">
       <defs>
        <path id="DejaVuSans-30" d="M 2034 4250 
Q 1547 4250 1301 3770 
Q 1056 3291 1056 2328 
Q 1056 1369 1301 889 
Q 1547 409 2034 409 
Q 2525 409 2770 889 
Q 3016 1369 3016 2328 
Q 3016 3291 2770 3770 
Q 2525 4250 2034 4250 
z
M 2034 4750 
Q 2819 4750 3233 4129 
Q 3647 3509 3647 2328 
Q 3647 1150 3233 529 
Q 2819 -91 2034 -91 
Q 1250 -91 836 529 
Q 422 1150 422 2328 
Q 422 3509 836 4129 
Q 1250 4750 2034 4750 
z
" transform="scale(0.015625)"/>
       </defs>
       <use xlink:href="#DejaVuSans-30"/>
      </g>
     </g>
    </g>
    <g id="xtick_2">
     <g id="line2d_2">
      <g>
       <use xlink:href="#m9ae49afff8" x="124.944886" y="288.430125" style="stroke: #000000; stroke-width: 0.8"/>
      </g>
     </g>
     <g id="text_2">
      <!-- 20 -->
      <g transform="translate(118.582386 303.028562) scale(0.1 -0.1)">
       <defs>
        <path id="DejaVuSans-32" d="M 1228 531 
L 3431 531 
L 3431 0 
L 469 0 
L 469 531 
Q 828 903 1448 1529 
Q 2069 2156 2228 2338 
Q 2531 2678 2651 2914 
Q 2772 3150 2772 3378 
Q 2772 3750 2511 3984 
Q 2250 4219 1831 4219 
Q 1534 4219 1204 4116 
Q 875 4013 500 3803 
L 500 4441 
Q 881 4594 1212 4672 
Q 1544 4750 1819 4750 
Q 2544 4750 2975 4387 
Q 3406 4025 3406 3419 
Q 3406 3131 3298 2873 
Q 3191 2616 2906 2266 
Q 2828 2175 2409 1742 
Q 1991 1309 1228 531 
z
" transform="scale(0.015625)"/>
       </defs>
       <use xlink:href="#DejaVuSans-32"/>
       <use xlink:href="#DejaVuSans-30" transform="translate(63.623047 0)"/>
      </g>
     </g>
    </g>
    <g id="xtick_3">
     <g id="line2d_3">
      <g>
       <use xlink:href="#m9ae49afff8" x="189.875795" y="288.430125" style="stroke: #000000; stroke-width: 0.8"/>
      </g>
     </g>
     <g id="text_3">
      <!-- 40 -->
      <g transform="translate(183.513295 303.028562) scale(0.1 -0.1)">
       <defs>
        <path id="DejaVuSans-34" d="M 2419 4116 
L 825 1625 
L 2419 1625 
L 2419 4116 
z
M 2253 4666 
L 3047 4666 
L 3047 1625 
L 3713 1625 
L 3713 1100 
L 3047 1100 
L 3047 0 
L 2419 0 
L 2419 1100 
L 313 1100 
L 313 1709 
L 2253 4666 
z
" transform="scale(0.015625)"/>
       </defs>
       <use xlink:href="#DejaVuSans-34"/>
       <use xlink:href="#DejaVuSans-30" transform="translate(63.623047 0)"/>
      </g>
     </g>
    </g>
    <g id="xtick_4">
     <g id="line2d_4">
      <g>
       <use xlink:href="#m9ae49afff8" x="254.806705" y="288.430125" style="stroke: #000000; stroke-width: 0.8"/>
      </g>
     </g>
     <g id="text_4">
      <!-- 60 -->
      <g transform="translate(248.444205 303.028562) scale(0.1 -0.1)">
       <defs>
        <path id="DejaVuSans-36" d="M 2113 2584 
Q 1688 2584 1439 2293 
Q 1191 2003 1191 1497 
Q 1191 994 1439 701 
Q 1688 409 2113 409 
Q 2538 409 2786 701 
Q 3034 994 3034 1497 
Q 3034 2003 2786 2293 
Q 2538 2584 2113 2584 
z
M 3366 4563 
L 3366 3988 
Q 3128 4100 2886 4159 
Q 2644 4219 2406 4219 
Q 1781 4219 1451 3797 
Q 1122 3375 1075 2522 
Q 1259 2794 1537 2939 
Q 1816 3084 2150 3084 
Q 2853 3084 3261 2657 
Q 3669 2231 3669 1497 
Q 3669 778 3244 343 
Q 2819 -91 2113 -91 
Q 1303 -91 875 529 
Q 447 1150 447 2328 
Q 447 3434 972 4092 
Q 1497 4750 2381 4750 
Q 2619 4750 2861 4703 
Q 3103 4656 3366 4563 
z
" transform="scale(0.015625)"/>
       </defs>
       <use xlink:href="#DejaVuSans-36"/>
       <use xlink:href="#DejaVuSans-30" transform="translate(63.623047 0)"/>
      </g>
     </g>
    </g>
    <g id="xtick_5">
     <g id="line2d_5">
      <g>
       <use xlink:href="#m9ae49afff8" x="319.737614" y="288.430125" style="stroke: #000000; stroke-width: 0.8"/>
      </g>
     </g>
     <g id="text_5">
      <!-- 80 -->
      <g transform="translate(313.375114 303.028562) scale(0.1 -0.1)">
       <defs>
        <path id="DejaVuSans-38" d="M 2034 2216 
Q 1584 2216 1326 1975 
Q 1069 1734 1069 1313 
Q 1069 891 1326 650 
Q 1584 409 2034 409 
Q 2484 409 2743 651 
Q 3003 894 3003 1313 
Q 3003 1734 2745 1975 
Q 2488 2216 2034 2216 
z
M 1403 2484 
Q 997 2584 770 2862 
Q 544 3141 544 3541 
Q 544 4100 942 4425 
Q 1341 4750 2034 4750 
Q 2731 4750 3128 4425 
Q 3525 4100 3525 3541 
Q 3525 3141 3298 2862 
Q 3072 2584 2669 2484 
Q 3125 2378 3379 2068 
Q 3634 1759 3634 1313 
Q 3634 634 3220 271 
Q 2806 -91 2034 -91 
Q 1263 -91 848 271 
Q 434 634 434 1313 
Q 434 1759 690 2068 
Q 947 2378 1403 2484 
z
M 1172 3481 
Q 1172 3119 1398 2916 
Q 1625 2713 2034 2713 
Q 2441 2713 2670 2916 
Q 2900 3119 2900 3481 
Q 2900 3844 2670 4047 
Q 2441 4250 2034 4250 
Q 1625 4250 1398 4047 
Q 1172 3844 1172 3481 
z
" transform="scale(0.015625)"/>
       </defs>
       <use xlink:href="#DejaVuSans-38"/>
       <use xlink:href="#DejaVuSans-30" transform="translate(63.623047 0)"/>
      </g>
     </g>
    </g>
    <g id="xtick_6">
     <g id="line2d_6">
      <g>
       <use xlink:href="#m9ae49afff8" x="384.668523" y="288.430125" style="stroke: #000000; stroke-width: 0.8"/>
      </g>
     </g>
     <g id="text_6">
      <!-- 100 -->
      <g transform="translate(375.124773 303.028562) scale(0.1 -0.1)">
       <defs>
        <path id="DejaVuSans-31" d="M 794 531 
L 1825 531 
L 1825 4091 
L 703 3866 
L 703 4441 
L 1819 4666 
L 2450 4666 
L 2450 531 
L 3481 531 
L 3481 0 
L 794 0 
L 794 531 
z
" transform="scale(0.015625)"/>
       </defs>
       <use xlink:href="#DejaVuSans-31"/>
       <use xlink:href="#DejaVuSans-30" transform="translate(63.623047 0)"/>
       <use xlink:href="#DejaVuSans-30" transform="translate(127.246094 0)"/>
      </g>
     </g>
    </g>
    <g id="text_7">
     <!-- Percentage -->
     <g transform="translate(194.218594 316.706687) scale(0.1 -0.1)">
      <defs>
       <path id="DejaVuSans-50" d="M 1259 4147 
L 1259 2394 
L 2053 2394 
Q 2494 2394 2734 2622 
Q 2975 2850 2975 3272 
Q 2975 3691 2734 3919 
Q 2494 4147 2053 4147 
L 1259 4147 
z
M 628 4666 
L 2053 4666 
Q 2838 4666 3239 4311 
Q 3641 3956 3641 3272 
Q 3641 2581 3239 2228 
Q 2838 1875 2053 1875 
L 1259 1875 
L 1259 0 
L 628 0 
L 628 4666 
z
" transform="scale(0.015625)"/>
       <path id="DejaVuSans-65" d="M 3597 1894 
L 3597 1613 
L 953 1613 
Q 991 1019 1311 708 
Q 1631 397 2203 397 
Q 2534 397 2845 478 
Q 3156 559 3463 722 
L 3463 178 
Q 3153 47 2828 -22 
Q 2503 -91 2169 -91 
Q 1331 -91 842 396 
Q 353 884 353 1716 
Q 353 2575 817 3079 
Q 1281 3584 2069 3584 
Q 2775 3584 3186 3129 
Q 3597 2675 3597 1894 
z
M 3022 2063 
Q 3016 2534 2758 2815 
Q 2500 3097 2075 3097 
Q 1594 3097 1305 2825 
Q 1016 2553 972 2059 
L 3022 2063 
z
" transform="scale(0.015625)"/>
       <path id="DejaVuSans-72" d="M 2631 2963 
Q 2534 3019 2420 3045 
Q 2306 3072 2169 3072 
Q 1681 3072 1420 2755 
Q 1159 2438 1159 1844 
L 1159 0 
L 581 0 
L 581 3500 
L 1159 3500 
L 1159 2956 
Q 1341 3275 1631 3429 
Q 1922 3584 2338 3584 
Q 2397 3584 2469 3576 
Q 2541 3569 2628 3553 
L 2631 2963 
z
" transform="scale(0.015625)"/>
       <path id="DejaVuSans-63" d="M 3122 3366 
L 3122 2828 
Q 2878 2963 2633 3030 
Q 2388 3097 2138 3097 
Q 1578 3097 1268 2742 
Q 959 2388 959 1747 
Q 959 1106 1268 751 
Q 1578 397 2138 397 
Q 2388 397 2633 464 
Q 2878 531 3122 666 
L 3122 134 
Q 2881 22 2623 -34 
Q 2366 -91 2075 -91 
Q 1284 -91 818 406 
Q 353 903 353 1747 
Q 353 2603 823 3093 
Q 1294 3584 2113 3584 
Q 2378 3584 2631 3529 
Q 2884 3475 3122 3366 
z
" transform="scale(0.015625)"/>
       <path id="DejaVuSans-6e" d="M 3513 2113 
L 3513 0 
L 2938 0 
L 2938 2094 
Q 2938 2591 2744 2837 
Q 2550 3084 2163 3084 
Q 1697 3084 1428 2787 
Q 1159 2491 1159 1978 
L 1159 0 
L 581 0 
L 581 3500 
L 1159 3500 
L 1159 2956 
Q 1366 3272 1645 3428 
Q 1925 3584 2291 3584 
Q 2894 3584 3203 3211 
Q 3513 2838 3513 2113 
z
" transform="scale(0.015625)"/>
       <path id="DejaVuSans-74" d="M 1172 4494 
L 1172 3500 
L 2356 3500 
L 2356 3053 
L 1172 3053 
L 1172 1153 
Q 1172 725 1289 603 
Q 1406 481 1766 481 
L 2356 481 
L 2356 0 
L 1766 0 
Q 1100 0 847 248 
Q 594 497 594 1153 
L 594 3053 
L 172 3053 
L 172 3500 
L 594 3500 
L 594 4494 
L 1172 4494 
z
" transform="scale(0.015625)"/>
       <path id="DejaVuSans-61" d="M 2194 1759 
Q 1497 1759 1228 1600 
Q 959 1441 959 1056 
Q 959 750 1161 570 
Q 1363 391 1709 391 
Q 2188 391 2477 730 
Q 2766 1069 2766 1631 
L 2766 1759 
L 2194 1759 
z
M 3341 1997 
L 3341 0 
L 2766 0 
L 2766 531 
Q 2569 213 2275 61 
Q 1981 -91 1556 -91 
Q 1019 -91 701 211 
Q 384 513 384 1019 
Q 384 1609 779 1909 
Q 1175 2209 1959 2209 
L 2766 2209 
L 2766 2266 
Q 2766 2663 2505 2880 
Q 2244 3097 1772 3097 
Q 1472 3097 1187 3025 
Q 903 2953 641 2809 
L 641 3341 
Q 956 3463 1253 3523 
Q 1550 3584 1831 3584 
Q 2591 3584 2966 3190 
Q 3341 2797 3341 1997 
z
" transform="scale(0.015625)"/>
       <path id="DejaVuSans-67" d="M 2906 1791 
Q 2906 2416 2648 2759 
Q 2391 3103 1925 3103 
Q 1463 3103 1205 2759 
Q 947 2416 947 1791 
Q 947 1169 1205 825 
Q 1463 481 1925 481 
Q 2391 481 2648 825 
Q 2906 1169 2906 1791 
z
M 3481 434 
Q 3481 -459 3084 -895 
Q 2688 -1331 1869 -1331 
Q 1566 -1331 1297 -1286 
Q 1028 -1241 775 -1147 
L 775 -588 
Q 1028 -725 1275 -790 
Q 1522 -856 1778 -856 
Q 2344 -856 2625 -561 
Q 2906 -266 2906 331 
L 2906 616 
Q 2728 306 2450 153 
Q 2172 0 1784 0 
Q 1141 0 747 490 
Q 353 981 353 1791 
Q 353 2603 747 3093 
Q 1141 3584 1784 3584 
Q 2172 3584 2450 3431 
Q 2728 3278 2906 2969 
L 2906 3500 
L 3481 3500 
L 3481 434 
z
" transform="scale(0.015625)"/>
      </defs>
      <use xlink:href="#DejaVuSans-50"/>
      <use xlink:href="#DejaVuSans-65" transform="translate(56.677734 0)"/>
      <use xlink:href="#DejaVuSans-72" transform="translate(118.201172 0)"/>
      <use xlink:href="#DejaVuSans-63" transform="translate(157.064453 0)"/>
      <use xlink:href="#DejaVuSans-65" transform="translate(212.044922 0)"/>
      <use xlink:href="#DejaVuSans-6e" transform="translate(273.568359 0)"/>
      <use xlink:href="#DejaVuSans-74" transform="translate(336.947266 0)"/>
      <use xlink:href="#DejaVuSans-61" transform="translate(376.15625 0)"/>
      <use xlink:href="#DejaVuSans-67" transform="translate(437.435547 0)"/>
      <use xlink:href="#DejaVuSans-65" transform="translate(500.912109 0)"/>
     </g>
    </g>
   </g>
   <g id="matplotlib.axis_2">
    <g id="ytick_1">
     <g id="line2d_7">
      <defs>
       <path id="m1c3128f69a" d="M 0 0 
L -3.5 0 
" style="stroke: #000000; stroke-width: 0.8"/>
      </defs>
      <g>
       <use xlink:href="#m1c3128f69a" x="43.78125" y="288.430125" style="stroke: #000000; stroke-width: 0.8"/>
      </g>
     </g>
     <g id="text_8">
      <!-- 0.0 -->
      <g transform="translate(20.878125 292.229344) scale(0.1 -0.1)">
       <defs>
        <path id="DejaVuSans-2e" d="M 684 794 
L 1344 794 
L 1344 0 
L 684 0 
L 684 794 
z
" transform="scale(0.015625)"/>
       </defs>
       <use xlink:href="#DejaVuSans-30"/>
       <use xlink:href="#DejaVuSans-2e" transform="translate(63.623047 0)"/>
       <use xlink:href="#DejaVuSans-30" transform="translate(95.410156 0)"/>
      </g>
     </g>
    </g>
    <g id="ytick_2">
     <g id="line2d_8">
      <g>
       <use xlink:href="#m1c3128f69a" x="43.78125" y="244.078125" style="stroke: #000000; stroke-width: 0.8"/>
      </g>
     </g>
     <g id="text_9">
      <!-- 0.5 -->
      <g transform="translate(20.878125 247.877344) scale(0.1 -0.1)">
       <defs>
        <path id="DejaVuSans-35" d="M 691 4666 
L 3169 4666 
L 3169 4134 
L 1269 4134 
L 1269 2991 
Q 1406 3038 1543 3061 
Q 1681 3084 1819 3084 
Q 2600 3084 3056 2656 
Q 3513 2228 3513 1497 
Q 3513 744 3044 326 
Q 2575 -91 1722 -91 
Q 1428 -91 1123 -41 
Q 819 9 494 109 
L 494 744 
Q 775 591 1075 516 
Q 1375 441 1709 441 
Q 2250 441 2565 725 
Q 2881 1009 2881 1497 
Q 2881 1984 2565 2268 
Q 2250 2553 1709 2553 
Q 1456 2553 1204 2497 
Q 953 2441 691 2322 
L 691 4666 
z
" transform="scale(0.015625)"/>
       </defs>
       <use xlink:href="#DejaVuSans-30"/>
       <use xlink:href="#DejaVuSans-2e" transform="translate(63.623047 0)"/>
       <use xlink:href="#DejaVuSans-35" transform="translate(95.410156 0)"/>
      </g>
     </g>
    </g>
    <g id="ytick_3">
     <g id="line2d_9">
      <g>
       <use xlink:href="#m1c3128f69a" x="43.78125" y="199.726125" style="stroke: #000000; stroke-width: 0.8"/>
      </g>
     </g>
     <g id="text_10">
      <!-- 1.0 -->
      <g transform="translate(20.878125 203.525344) scale(0.1 -0.1)">
       <use xlink:href="#DejaVuSans-31"/>
       <use xlink:href="#DejaVuSans-2e" transform="translate(63.623047 0)"/>
       <use xlink:href="#DejaVuSans-30" transform="translate(95.410156 0)"/>
      </g>
     </g>
    </g>
    <g id="ytick_4">
     <g id="line2d_10">
      <g>
       <use xlink:href="#m1c3128f69a" x="43.78125" y="155.374125" style="stroke: #000000; stroke-width: 0.8"/>
      </g>
     </g>
     <g id="text_11">
      <!-- 1.5 -->
      <g transform="translate(20.878125 159.173344) scale(0.1 -0.1)">
       <use xlink:href="#DejaVuSans-31"/>
       <use xlink:href="#DejaVuSans-2e" transform="translate(63.623047 0)"/>
       <use xlink:href="#DejaVuSans-35" transform="translate(95.410156 0)"/>
      </g>
     </g>
    </g>
    <g id="ytick_5">
     <g id="line2d_11">
      <g>
       <use xlink:href="#m1c3128f69a" x="43.78125" y="111.022125" style="stroke: #000000; stroke-width: 0.8"/>
      </g>
     </g>
     <g id="text_12">
      <!-- 2.0 -->
      <g transform="translate(20.878125 114.821344) scale(0.1 -0.1)">
       <use xlink:href="#DejaVuSans-32"/>
       <use xlink:href="#DejaVuSans-2e" transform="translate(63.623047 0)"/>
       <use xlink:href="#DejaVuSans-30" transform="translate(95.410156 0)"/>
      </g>
     </g>
    </g>
    <g id="ytick_6">
     <g id="line2d_12">
      <g>
       <use xlink:href="#m1c3128f69a" x="43.78125" y="66.670125" style="stroke: #000000; stroke-width: 0.8"/>
      </g>
     </g>
     <g id="text_13">
      <!-- 2.5 -->
      <g transform="translate(20.878125 70.469344) scale(0.1 -0.1)">
       <use xlink:href="#DejaVuSans-32"/>
       <use xlink:href="#DejaVuSans-2e" transform="translate(63.623047 0)"/>
       <use xlink:href="#DejaVuSans-35" transform="translate(95.410156 0)"/>
      </g>
     </g>
    </g>
    <g id="ytick_7">
     <g id="line2d_13">
      <g>
       <use xlink:href="#m1c3128f69a" x="43.78125" y="22.318125" style="stroke: #000000; stroke-width: 0.8"/>
      </g>
     </g>
     <g id="text_14">
      <!-- 3.0 -->
      <g transform="translate(20.878125 26.117344) scale(0.1 -0.1)">
       <defs>
        <path id="DejaVuSans-33" d="M 2597 2516 
Q 3050 2419 3304 2112 
Q 3559 1806 3559 1356 
Q 3559 666 3084 287 
Q 2609 -91 1734 -91 
Q 1441 -91 1130 -33 
Q 819 25 488 141 
L 488 750 
Q 750 597 1062 519 
Q 1375 441 1716 441 
Q 2309 441 2620 675 
Q 2931 909 2931 1356 
Q 2931 1769 2642 2001 
Q 2353 2234 1838 2234 
L 1294 2234 
L 1294 2753 
L 1863 2753 
Q 2328 2753 2575 2939 
Q 2822 3125 2822 3475 
Q 2822 3834 2567 4026 
Q 2313 4219 1838 4219 
Q 1578 4219 1281 4162 
Q 984 4106 628 3988 
L 628 4550 
Q 988 4650 1302 4700 
Q 1616 4750 1894 4750 
Q 2613 4750 3031 4423 
Q 3450 4097 3450 3541 
Q 3450 3153 3228 2886 
Q 3006 2619 2597 2516 
z
" transform="scale(0.015625)"/>
       </defs>
       <use xlink:href="#DejaVuSans-33"/>
       <use xlink:href="#DejaVuSans-2e" transform="translate(63.623047 0)"/>
       <use xlink:href="#DejaVuSans-30" transform="translate(95.410156 0)"/>
      </g>
     </g>
    </g>
    <g id="text_15">
     <!-- y (cm) -->
     <g transform="translate(14.798438 171.443656) rotate(-90) scale(0.1 -0.1)">
      <defs>
       <path id="DejaVuSans-79" d="M 2059 -325 
Q 1816 -950 1584 -1140 
Q 1353 -1331 966 -1331 
L 506 -1331 
L 506 -850 
L 844 -850 
Q 1081 -850 1212 -737 
Q 1344 -625 1503 -206 
L 1606 56 
L 191 3500 
L 800 3500 
L 1894 763 
L 2988 3500 
L 3597 3500 
L 2059 -325 
z
" transform="scale(0.015625)"/>
       <path id="DejaVuSans-20" transform="scale(0.015625)"/>
       <path id="DejaVuSans-28" d="M 1984 4856 
Q 1566 4138 1362 3434 
Q 1159 2731 1159 2009 
Q 1159 1288 1364 580 
Q 1569 -128 1984 -844 
L 1484 -844 
Q 1016 -109 783 600 
Q 550 1309 550 2009 
Q 550 2706 781 3412 
Q 1013 4119 1484 4856 
L 1984 4856 
z
" transform="scale(0.015625)"/>
       <path id="DejaVuSans-6d" d="M 3328 2828 
Q 3544 3216 3844 3400 
Q 4144 3584 4550 3584 
Q 5097 3584 5394 3201 
Q 5691 2819 5691 2113 
L 5691 0 
L 5113 0 
L 5113 2094 
Q 5113 2597 4934 2840 
Q 4756 3084 4391 3084 
Q 3944 3084 3684 2787 
Q 3425 2491 3425 1978 
L 3425 0 
L 2847 0 
L 2847 2094 
Q 2847 2600 2669 2842 
Q 2491 3084 2119 3084 
Q 1678 3084 1418 2786 
Q 1159 2488 1159 1978 
L 1159 0 
L 581 0 
L 581 3500 
L 1159 3500 
L 1159 2956 
Q 1356 3278 1631 3431 
Q 1906 3584 2284 3584 
Q 2666 3584 2933 3390 
Q 3200 3197 3328 2828 
z
" transform="scale(0.015625)"/>
       <path id="DejaVuSans-29" d="M 513 4856 
L 1013 4856 
Q 1481 4119 1714 3412 
Q 1947 2706 1947 2009 
Q 1947 1309 1714 600 
Q 1481 -109 1013 -844 
L 513 -844 
Q 928 -128 1133 580 
Q 1338 1288 1338 2009 
Q 1338 2731 1133 3434 
Q 928 4138 513 4856 
z
" transform="scale(0.015625)"/>
      </defs>
      <use xlink:href="#DejaVuSans-79"/>
      <use xlink:href="#DejaVuSans-20" transform="translate(59.179688 0)"/>
      <use xlink:href="#DejaVuSans-28" transform="translate(90.966797 0)"/>
      <use xlink:href="#DejaVuSans-63" transform="translate(129.980469 0)"/>
      <use xlink:href="#DejaVuSans-6d" transform="translate(184.960938 0)"/>
      <use xlink:href="#DejaVuSans-29" transform="translate(282.373047 0)"/>
     </g>
    </g>
   </g>
   <g id="line2d_14">
    <path d="M 60.013977 249.173657 
L 73.54125 244.90358 
L 87.068523 244.188429 
L 100.595795 245.808427 
L 114.123068 256.762677 
L 127.650341 262.215645 
L 141.177614 262.218888 
L 154.704886 263.060733 
L 168.232159 267.953363 
L 181.759432 269.782137 
L 195.286705 269.317649 
L 208.813977 267.532089 
L 222.34125 264.567289 
L 235.868523 266.096313 
L 249.395795 266.515246 
L 262.923068 268.766327 
L 276.450341 270.769285 
L 289.977614 269.572288 
L 303.504886 269.139794 
L 317.032159 270.073302 
L 330.559432 270.401407 
L 344.086705 269.211261 
L 357.613977 268.58545 
L 371.14125 264.98212 
L 384.668523 262.094992 
" clip-path="url(#pe383bb14fe)" style="fill: none; stroke: #66c2a5; stroke-width: 1.5; stroke-linecap: square"/>
   </g>
   <g id="line2d_15">
    <path d="M 60.013977 162.481618 
L 73.54125 163.318831 
L 87.068523 191.125697 
L 100.595795 212.181883 
L 114.123068 225.154025 
L 127.650341 226.965052 
L 141.177614 227.548816 
L 154.704886 226.505662 
L 168.232159 228.527759 
L 181.759432 229.668914 
L 195.286705 227.570402 
L 208.813977 223.883899 
L 222.34125 217.218248 
L 235.868523 215.082964 
L 249.395795 213.057294 
L 262.923068 208.125282 
L 276.450341 207.655574 
L 289.977614 203.896259 
L 303.504886 200.562449 
L 317.032159 195.59232 
L 330.559432 193.125742 
L 344.086705 190.021668 
L 357.613977 187.443028 
L 371.14125 182.769812 
L 384.668523 176.874327 
" clip-path="url(#pe383bb14fe)" style="fill: none; stroke: #fc8d62; stroke-width: 1.5; stroke-linecap: square"/>
   </g>
   <g id="line2d_16">
    <path d="M 60.013977 169.341651 
L 73.54125 157.894022 
L 87.068523 150.212409 
L 100.595795 150.036243 
L 114.123068 152.693857 
L 127.650341 153.035228 
L 141.177614 157.675978 
L 154.704886 159.297948 
L 168.232159 164.409138 
L 181.759432 167.558435 
L 195.286705 169.494354 
L 208.813977 171.082549 
L 222.34125 171.615707 
L 235.868523 175.019372 
L 249.395795 174.98642 
L 262.923068 177.962779 
L 276.450341 183.239273 
L 289.977614 184.002101 
L 303.504886 184.409771 
L 317.032159 185.851867 
L 330.559432 185.777623 
L 344.086705 186.873294 
L 357.613977 185.422261 
L 371.14125 182.547041 
L 384.668523 178.872651 
" clip-path="url(#pe383bb14fe)" style="fill: none; stroke: #8da0cb; stroke-width: 1.5; stroke-linecap: square"/>
   </g>
   <g id="line2d_17">
    <path d="M 60.013977 118.645751 
L 73.54125 114.216184 
L 87.068523 118.59194 
L 100.595795 124.38059 
L 114.123068 125.44665 
L 127.650341 125.215505 
L 141.177614 127.427507 
L 154.704886 127.325543 
L 168.232159 129.425818 
L 181.759432 132.105761 
L 195.286705 131.99431 
L 208.813977 131.90421 
L 222.34125 130.648666 
L 235.868523 129.706607 
L 249.395795 128.347103 
L 262.923068 128.415113 
L 276.450341 131.132202 
L 289.977614 130.65526 
L 303.504886 130.488763 
L 317.032159 129.022246 
L 330.559432 129.35643 
L 344.086705 128.086784 
L 357.613977 128.806356 
L 371.14125 124.824339 
L 384.668523 122.936425 
" clip-path="url(#pe383bb14fe)" style="fill: none; stroke: #e78ac3; stroke-width: 1.5; stroke-linecap: square"/>
   </g>
   <g id="line2d_18">
    <path d="M 60.013977 58.408087 
L 73.54125 55.982803 
L 87.068523 54.695983 
L 100.595795 53.636727 
L 114.123068 51.109824 
L 127.650341 49.419109 
L 141.177614 52.925078 
L 154.704886 54.279719 
L 168.232159 56.519214 
L 181.759432 59.261993 
L 195.286705 60.091128 
L 208.813977 60.0336 
L 222.34125 60.431233 
L 235.868523 60.791948 
L 249.395795 58.367929 
L 262.923068 57.90531 
L 276.450341 60.744887 
L 289.977614 59.995788 
L 303.504886 60.282242 
L 317.032159 59.948535 
L 330.559432 59.469165 
L 344.086705 60.0514 
L 357.613977 60.136088 
L 371.14125 58.730424 
L 384.668523 59.288428 
" clip-path="url(#pe383bb14fe)" style="fill: none; stroke: #a6d854; stroke-width: 1.5; stroke-linecap: square"/>
   </g>
   <g id="patch_3">
    <path d="M 43.78125 288.430125 
L 43.78125 22.318125 
" style="fill: none; stroke: #000000; stroke-width: 0.8; stroke-linejoin: miter; stroke-linecap: square"/>
   </g>
   <g id="patch_4">
    <path d="M 400.90125 288.430125 
L 400.90125 22.318125 
" style="fill: none; stroke: #000000; stroke-width: 0.8; stroke-linejoin: miter; stroke-linecap: square"/>
   </g>
   <g id="patch_5">
    <path d="M 43.78125 288.430125 
L 400.90125 288.430125 
" style="fill: none; stroke: #000000; stroke-width: 0.8; stroke-linejoin: miter; stroke-linecap: square"/>
   </g>
   <g id="patch_6">
    <path d="M 43.78125 22.318125 
L 400.90125 22.318125 
" style="fill: none; stroke: #000000; stroke-width: 0.8; stroke-linejoin: miter; stroke-linecap: square"/>
   </g>
   <g id="text_16">
    <!-- 25mm - Joint Y over average step cycle -->
    <g transform="translate(104.145 16.318125) scale(0.12 -0.12)">
     <defs>
      <path id="DejaVuSans-2d" d="M 313 2009 
L 1997 2009 
L 1997 1497 
L 313 1497 
L 313 2009 
z
" transform="scale(0.015625)"/>
      <path id="DejaVuSans-4a" d="M 628 4666 
L 1259 4666 
L 1259 325 
Q 1259 -519 939 -900 
Q 619 -1281 -91 -1281 
L -331 -1281 
L -331 -750 
L -134 -750 
Q 284 -750 456 -515 
Q 628 -281 628 325 
L 628 4666 
z
" transform="scale(0.015625)"/>
      <path id="DejaVuSans-6f" d="M 1959 3097 
Q 1497 3097 1228 2736 
Q 959 2375 959 1747 
Q 959 1119 1226 758 
Q 1494 397 1959 397 
Q 2419 397 2687 759 
Q 2956 1122 2956 1747 
Q 2956 2369 2687 2733 
Q 2419 3097 1959 3097 
z
M 1959 3584 
Q 2709 3584 3137 3096 
Q 3566 2609 3566 1747 
Q 3566 888 3137 398 
Q 2709 -91 1959 -91 
Q 1206 -91 779 398 
Q 353 888 353 1747 
Q 353 2609 779 3096 
Q 1206 3584 1959 3584 
z
" transform="scale(0.015625)"/>
      <path id="DejaVuSans-69" d="M 603 3500 
L 1178 3500 
L 1178 0 
L 603 0 
L 603 3500 
z
M 603 4863 
L 1178 4863 
L 1178 4134 
L 603 4134 
L 603 4863 
z
" transform="scale(0.015625)"/>
      <path id="DejaVuSans-59" d="M -13 4666 
L 666 4666 
L 1959 2747 
L 3244 4666 
L 3922 4666 
L 2272 2222 
L 2272 0 
L 1638 0 
L 1638 2222 
L -13 4666 
z
" transform="scale(0.015625)"/>
      <path id="DejaVuSans-76" d="M 191 3500 
L 800 3500 
L 1894 563 
L 2988 3500 
L 3597 3500 
L 2284 0 
L 1503 0 
L 191 3500 
z
" transform="scale(0.015625)"/>
      <path id="DejaVuSans-73" d="M 2834 3397 
L 2834 2853 
Q 2591 2978 2328 3040 
Q 2066 3103 1784 3103 
Q 1356 3103 1142 2972 
Q 928 2841 928 2578 
Q 928 2378 1081 2264 
Q 1234 2150 1697 2047 
L 1894 2003 
Q 2506 1872 2764 1633 
Q 3022 1394 3022 966 
Q 3022 478 2636 193 
Q 2250 -91 1575 -91 
Q 1294 -91 989 -36 
Q 684 19 347 128 
L 347 722 
Q 666 556 975 473 
Q 1284 391 1588 391 
Q 1994 391 2212 530 
Q 2431 669 2431 922 
Q 2431 1156 2273 1281 
Q 2116 1406 1581 1522 
L 1381 1569 
Q 847 1681 609 1914 
Q 372 2147 372 2553 
Q 372 3047 722 3315 
Q 1072 3584 1716 3584 
Q 2034 3584 2315 3537 
Q 2597 3491 2834 3397 
z
" transform="scale(0.015625)"/>
      <path id="DejaVuSans-70" d="M 1159 525 
L 1159 -1331 
L 581 -1331 
L 581 3500 
L 1159 3500 
L 1159 2969 
Q 1341 3281 1617 3432 
Q 1894 3584 2278 3584 
Q 2916 3584 3314 3078 
Q 3713 2572 3713 1747 
Q 3713 922 3314 415 
Q 2916 -91 2278 -91 
Q 1894 -91 1617 61 
Q 1341 213 1159 525 
z
M 3116 1747 
Q 3116 2381 2855 2742 
Q 2594 3103 2138 3103 
Q 1681 3103 1420 2742 
Q 1159 2381 1159 1747 
Q 1159 1113 1420 752 
Q 1681 391 2138 391 
Q 2594 391 2855 752 
Q 3116 1113 3116 1747 
z
" transform="scale(0.015625)"/>
      <path id="DejaVuSans-6c" d="M 603 4863 
L 1178 4863 
L 1178 0 
L 603 0 
L 603 4863 
z
" transform="scale(0.015625)"/>
     </defs>
     <use xlink:href="#DejaVuSans-32"/>
     <use xlink:href="#DejaVuSans-35" transform="translate(63.623047 0)"/>
     <use xlink:href="#DejaVuSans-6d" transform="translate(127.246094 0)"/>
     <use xlink:href="#DejaVuSans-6d" transform="translate(224.658203 0)"/>
     <use xlink:href="#DejaVuSans-20" transform="translate(322.070312 0)"/>
     <use xlink:href="#DejaVuSans-2d" transform="translate(353.857422 0)"/>
     <use xlink:href="#DejaVuSans-20" transform="translate(389.941406 0)"/>
     <use xlink:href="#DejaVuSans-4a" transform="translate(421.728516 0)"/>
     <use xlink:href="#DejaVuSans-6f" transform="translate(451.220703 0)"/>
     <use xlink:href="#DejaVuSans-69" transform="translate(512.402344 0)"/>
     <use xlink:href="#DejaVuSans-6e" transform="translate(540.185547 0)"/>
     <use xlink:href="#DejaVuSans-74" transform="translate(603.564453 0)"/>
     <use xlink:href="#DejaVuSans-20" transform="translate(642.773438 0)"/>
     <use xlink:href="#DejaVuSans-59" transform="translate(674.560547 0)"/>
     <use xlink:href="#DejaVuSans-20" transform="translate(735.644531 0)"/>
     <use xlink:href="#DejaVuSans-6f" transform="translate(767.431641 0)"/>
     <use xlink:href="#DejaVuSans-76" transform="translate(828.613281 0)"/>
     <use xlink:href="#DejaVuSans-65" transform="translate(887.792969 0)"/>
     <use xlink:href="#DejaVuSans-72" transform="translate(949.316406 0)"/>
     <use xlink:href="#DejaVuSans-20" transform="translate(990.429688 0)"/>
     <use xlink:href="#DejaVuSans-61" transform="translate(1022.216797 0)"/>
     <use xlink:href="#DejaVuSans-76" transform="translate(1083.496094 0)"/>
     <use xlink:href="#DejaVuSans-65" transform="translate(1142.675781 0)"/>
     <use xlink:href="#DejaVuSans-72" transform="translate(1204.199219 0)"/>
     <use xlink:href="#DejaVuSans-61" transform="translate(1245.3125 0)"/>
     <use xlink:href="#DejaVuSans-67" transform="translate(1306.591797 0)"/>
     <use xlink:href="#DejaVuSans-65" transform="translate(1370.068359 0)"/>
     <use xlink:href="#DejaVuSans-20" transform="translate(1431.591797 0)"/>
     <use xlink:href="#DejaVuSans-73" transform="translate(1463.378906 0)"/>
     <use xlink:href="#DejaVuSans-74" transform="translate(1515.478516 0)"/>
     <use xlink:href="#DejaVuSans-65" transform="translate(1554.6875 0)"/>
     <use xlink:href="#DejaVuSans-70" transform="translate(1616.210938 0)"/>
     <use xlink:href="#DejaVuSans-20" transform="translate(1679.6875 0)"/>
     <use xlink:href="#DejaVuSans-63" transform="translate(1711.474609 0)"/>
     <use xlink:href="#DejaVuSans-79" transform="translate(1766.455078 0)"/>
     <use xlink:href="#DejaVuSans-63" transform="translate(1825.634766 0)"/>
     <use xlink:href="#DejaVuSans-6c" transform="translate(1880.615234 0)"/>
     <use xlink:href="#DejaVuSans-65" transform="translate(1908.398438 0)"/>
    </g>
   </g>
   <g id="legend_1">
    <g id="patch_7">
     <path d="M 407.90125 193.569437 
L 509.241875 193.569437 
Q 511.241875 193.569437 511.241875 191.569437 
L 511.241875 119.178812 
Q 511.241875 117.178812 509.241875 117.178812 
L 407.90125 117.178812 
Q 405.90125 117.178812 405.90125 119.178812 
L 405.90125 191.569437 
Q 405.90125 193.569437 407.90125 193.569437 
z
" style="fill: #ffffff; opacity: 0.8; stroke: #cccccc; stroke-linejoin: miter"/>
    </g>
    <g id="line2d_19">
     <path d="M 409.90125 125.27725 
L 419.90125 125.27725 
L 429.90125 125.27725 
" style="fill: none; stroke: #66c2a5; stroke-width: 1.5; stroke-linecap: square"/>
    </g>
    <g id="text_17">
     <!-- Hind paw tao  -->
     <g transform="translate(437.90125 128.77725) scale(0.1 -0.1)">
      <defs>
       <path id="DejaVuSans-48" d="M 628 4666 
L 1259 4666 
L 1259 2753 
L 3553 2753 
L 3553 4666 
L 4184 4666 
L 4184 0 
L 3553 0 
L 3553 2222 
L 1259 2222 
L 1259 0 
L 628 0 
L 628 4666 
z
" transform="scale(0.015625)"/>
       <path id="DejaVuSans-64" d="M 2906 2969 
L 2906 4863 
L 3481 4863 
L 3481 0 
L 2906 0 
L 2906 525 
Q 2725 213 2448 61 
Q 2172 -91 1784 -91 
Q 1150 -91 751 415 
Q 353 922 353 1747 
Q 353 2572 751 3078 
Q 1150 3584 1784 3584 
Q 2172 3584 2448 3432 
Q 2725 3281 2906 2969 
z
M 947 1747 
Q 947 1113 1208 752 
Q 1469 391 1925 391 
Q 2381 391 2643 752 
Q 2906 1113 2906 1747 
Q 2906 2381 2643 2742 
Q 2381 3103 1925 3103 
Q 1469 3103 1208 2742 
Q 947 2381 947 1747 
z
" transform="scale(0.015625)"/>
       <path id="DejaVuSans-77" d="M 269 3500 
L 844 3500 
L 1563 769 
L 2278 3500 
L 2956 3500 
L 3675 769 
L 4391 3500 
L 4966 3500 
L 4050 0 
L 3372 0 
L 2619 2869 
L 1863 0 
L 1184 0 
L 269 3500 
z
" transform="scale(0.015625)"/>
      </defs>
      <use xlink:href="#DejaVuSans-48"/>
      <use xlink:href="#DejaVuSans-69" transform="translate(75.195312 0)"/>
      <use xlink:href="#DejaVuSans-6e" transform="translate(102.978516 0)"/>
      <use xlink:href="#DejaVuSans-64" transform="translate(166.357422 0)"/>
      <use xlink:href="#DejaVuSans-20" transform="translate(229.833984 0)"/>
      <use xlink:href="#DejaVuSans-70" transform="translate(261.621094 0)"/>
      <use xlink:href="#DejaVuSans-61" transform="translate(325.097656 0)"/>
      <use xlink:href="#DejaVuSans-77" transform="translate(386.376953 0)"/>
      <use xlink:href="#DejaVuSans-20" transform="translate(468.164062 0)"/>
      <use xlink:href="#DejaVuSans-74" transform="translate(499.951172 0)"/>
      <use xlink:href="#DejaVuSans-61" transform="translate(539.160156 0)"/>
      <use xlink:href="#DejaVuSans-6f" transform="translate(600.439453 0)"/>
      <use xlink:href="#DejaVuSans-20" transform="translate(661.621094 0)"/>
     </g>
    </g>
    <g id="line2d_20">
     <path d="M 409.90125 139.955375 
L 419.90125 139.955375 
L 429.90125 139.955375 
" style="fill: none; stroke: #fc8d62; stroke-width: 1.5; stroke-linecap: square"/>
    </g>
    <g id="text_18">
     <!-- Ankle  -->
     <g transform="translate(437.90125 143.455375) scale(0.1 -0.1)">
      <defs>
       <path id="DejaVuSans-41" d="M 2188 4044 
L 1331 1722 
L 3047 1722 
L 2188 4044 
z
M 1831 4666 
L 2547 4666 
L 4325 0 
L 3669 0 
L 3244 1197 
L 1141 1197 
L 716 0 
L 50 0 
L 1831 4666 
z
" transform="scale(0.015625)"/>
       <path id="DejaVuSans-6b" d="M 581 4863 
L 1159 4863 
L 1159 1991 
L 2875 3500 
L 3609 3500 
L 1753 1863 
L 3688 0 
L 2938 0 
L 1159 1709 
L 1159 0 
L 581 0 
L 581 4863 
z
" transform="scale(0.015625)"/>
      </defs>
      <use xlink:href="#DejaVuSans-41"/>
      <use xlink:href="#DejaVuSans-6e" transform="translate(68.408203 0)"/>
      <use xlink:href="#DejaVuSans-6b" transform="translate(131.787109 0)"/>
      <use xlink:href="#DejaVuSans-6c" transform="translate(189.697266 0)"/>
      <use xlink:href="#DejaVuSans-65" transform="translate(217.480469 0)"/>
      <use xlink:href="#DejaVuSans-20" transform="translate(279.003906 0)"/>
     </g>
    </g>
    <g id="line2d_21">
     <path d="M 409.90125 154.6335 
L 419.90125 154.6335 
L 429.90125 154.6335 
" style="fill: none; stroke: #8da0cb; stroke-width: 1.5; stroke-linecap: square"/>
    </g>
    <g id="text_19">
     <!-- Knee  -->
     <g transform="translate(437.90125 158.1335) scale(0.1 -0.1)">
      <defs>
       <path id="DejaVuSans-4b" d="M 628 4666 
L 1259 4666 
L 1259 2694 
L 3353 4666 
L 4166 4666 
L 1850 2491 
L 4331 0 
L 3500 0 
L 1259 2247 
L 1259 0 
L 628 0 
L 628 4666 
z
" transform="scale(0.015625)"/>
      </defs>
      <use xlink:href="#DejaVuSans-4b"/>
      <use xlink:href="#DejaVuSans-6e" transform="translate(65.576172 0)"/>
      <use xlink:href="#DejaVuSans-65" transform="translate(128.955078 0)"/>
      <use xlink:href="#DejaVuSans-65" transform="translate(190.478516 0)"/>
      <use xlink:href="#DejaVuSans-20" transform="translate(252.001953 0)"/>
     </g>
    </g>
    <g id="line2d_22">
     <path d="M 409.90125 169.311625 
L 419.90125 169.311625 
L 429.90125 169.311625 
" style="fill: none; stroke: #e78ac3; stroke-width: 1.5; stroke-linecap: square"/>
    </g>
    <g id="text_20">
     <!-- Hip  -->
     <g transform="translate(437.90125 172.811625) scale(0.1 -0.1)">
      <use xlink:href="#DejaVuSans-48"/>
      <use xlink:href="#DejaVuSans-69" transform="translate(75.195312 0)"/>
      <use xlink:href="#DejaVuSans-70" transform="translate(102.978516 0)"/>
      <use xlink:href="#DejaVuSans-20" transform="translate(166.455078 0)"/>
     </g>
    </g>
    <g id="line2d_23">
     <path d="M 409.90125 183.98975 
L 419.90125 183.98975 
L 429.90125 183.98975 
" style="fill: none; stroke: #a6d854; stroke-width: 1.5; stroke-linecap: square"/>
    </g>
    <g id="text_21">
     <!-- Iliac Crest  -->
     <g transform="translate(437.90125 187.48975) scale(0.1 -0.1)">
      <defs>
       <path id="DejaVuSans-49" d="M 628 4666 
L 1259 4666 
L 1259 0 
L 628 0 
L 628 4666 
z
" transform="scale(0.015625)"/>
       <path id="DejaVuSans-43" d="M 4122 4306 
L 4122 3641 
Q 3803 3938 3442 4084 
Q 3081 4231 2675 4231 
Q 1875 4231 1450 3742 
Q 1025 3253 1025 2328 
Q 1025 1406 1450 917 
Q 1875 428 2675 428 
Q 3081 428 3442 575 
Q 3803 722 4122 1019 
L 4122 359 
Q 3791 134 3420 21 
Q 3050 -91 2638 -91 
Q 1578 -91 968 557 
Q 359 1206 359 2328 
Q 359 3453 968 4101 
Q 1578 4750 2638 4750 
Q 3056 4750 3426 4639 
Q 3797 4528 4122 4306 
z
" transform="scale(0.015625)"/>
      </defs>
      <use xlink:href="#DejaVuSans-49"/>
      <use xlink:href="#DejaVuSans-6c" transform="translate(29.492188 0)"/>
      <use xlink:href="#DejaVuSans-69" transform="translate(57.275391 0)"/>
      <use xlink:href="#DejaVuSans-61" transform="translate(85.058594 0)"/>
      <use xlink:href="#DejaVuSans-63" transform="translate(146.337891 0)"/>
      <use xlink:href="#DejaVuSans-20" transform="translate(201.318359 0)"/>
      <use xlink:href="#DejaVuSans-43" transform="translate(233.105469 0)"/>
      <use xlink:href="#DejaVuSans-72" transform="translate(302.929688 0)"/>
      <use xlink:href="#DejaVuSans-65" transform="translate(341.792969 0)"/>
      <use xlink:href="#DejaVuSans-73" transform="translate(403.316406 0)"/>
      <use xlink:href="#DejaVuSans-74" transform="translate(455.416016 0)"/>
      <use xlink:href="#DejaVuSans-20" transform="translate(494.625 0)"/>
     </g>
    </g>
   </g>
  </g>
 </g>
 <defs>
  <clipPath id="pe383bb14fe">
   <rect x="43.78125" y="22.318125" width="357.12" height="266.112"/>
  </clipPath>
 </defs>
</svg>
