<?xml version="1.0" encoding="utf-8" standalone="no"?>
<!DOCTYPE svg PUBLIC "-//W3C//DTD SVG 1.1//EN"
  "http://www.w3.org/Graphics/SVG/1.1/DTD/svg11.dtd">
<svg xmlns:xlink="http://www.w3.org/1999/xlink" width="411.709063pt" height="325.986375pt" viewBox="0 0 411.709063 325.986375" xmlns="http://www.w3.org/2000/svg" version="1.1">
 <metadata>
  <rdf:RDF xmlns:dc="http://purl.org/dc/elements/1.1/" xmlns:cc="http://creativecommons.org/ns#" xmlns:rdf="http://www.w3.org/1999/02/22-rdf-syntax-ns#">
   <cc:Work>
    <dc:type rdf:resource="http://purl.org/dc/dcmitype/StillImage"/>
    <dc:date>2024-04-08T15:22:20.413298</dc:date>
    <dc:format>image/svg+xml</dc:format>
    <dc:creator>
     <cc:Agent>
      <dc:title>Matplotlib v3.7.1, https://matplotlib.org/</dc:title>
     </cc:Agent>
    </dc:creator>
   </cc:Work>
  </rdf:RDF>
 </metadata>
 <defs>
  <style type="text/css">*{stroke-linejoin: round; stroke-linecap: butt}</style>
 </defs>
 <g id="figure_1">
  <g id="patch_1">
   <path d="M 0 325.986375 
L 411.709063 325.986375 
L 411.709063 0 
L 0 0 
z
" style="fill: #ffffff"/>
  </g>
  <g id="axes_1">
   <g id="patch_2">
    <path d="M 47.389063 288.430125 
L 404.509063 288.430125 
L 404.509063 22.318125 
L 47.389063 22.318125 
z
" style="fill: #ffffff"/>
   </g>
   <g id="PolyCollection_1">
    <path d="M 63.62179 61.53609 
L 63.62179 109.997307 
L 77.149063 163.074807 
L 90.676335 222.360512 
L 104.203608 249.294622 
L 117.730881 250.976191 
L 131.258153 250.874719 
L 144.785426 250.304294 
L 158.312699 248.98218 
L 171.839972 250.092238 
L 185.367244 251.843603 
L 198.894517 253.542893 
L 212.42179 250.821202 
L 225.949062 250.559609 
L 239.476335 254.021638 
L 253.003608 251.41517 
L 266.530881 252.44744 
L 280.058153 254.185651 
L 293.585426 255.112815 
L 307.112699 256.100946 
L 320.639972 255.932319 
L 334.167244 253.75138 
L 347.694517 251.009134 
L 361.22179 251.682679 
L 374.749063 250.320346 
L 388.276335 252.464428 
L 388.276335 228.288587 
L 388.276335 228.288587 
L 374.749063 246.848803 
L 361.22179 248.185839 
L 347.694517 249.700289 
L 334.167244 250.693506 
L 320.639972 251.502053 
L 307.112699 251.10449 
L 293.585426 250.619684 
L 280.058153 251.791106 
L 266.530881 250.617239 
L 253.003608 248.798743 
L 239.476335 248.276762 
L 225.949062 248.117598 
L 212.42179 248.794466 
L 198.894517 247.887879 
L 185.367244 249.142308 
L 171.839972 246.959327 
L 158.312699 246.372349 
L 144.785426 245.222949 
L 131.258153 245.097744 
L 117.730881 236.965568 
L 104.203608 208.227513 
L 90.676335 148.864731 
L 77.149063 44.510427 
L 63.62179 61.53609 
z
" clip-path="url(#p34597e2c8c)" style="fill: #440154; fill-opacity: 0.2"/>
   </g>
   <g id="PolyCollection_2">
    <path d="M 63.62179 139.622189 
L 63.62179 163.952796 
L 77.149063 175.99825 
L 90.676335 218.144227 
L 104.203608 243.552792 
L 117.730881 249.932378 
L 131.258153 249.397382 
L 144.785426 250.72098 
L 158.312699 251.304207 
L 171.839972 253.990403 
L 185.367244 256.298098 
L 198.894517 251.935858 
L 212.42179 250.089878 
L 225.949062 249.583152 
L 239.476335 251.618329 
L 253.003608 247.762776 
L 266.530881 251.253833 
L 280.058153 247.743996 
L 293.585426 245.336925 
L 307.112699 246.895604 
L 320.639972 246.089544 
L 334.167244 241.437129 
L 347.694517 240.104286 
L 361.22179 238.914782 
L 374.749063 236.035424 
L 388.276335 236.334783 
L 388.276335 207.953862 
L 388.276335 207.953862 
L 374.749063 217.408022 
L 361.22179 224.957342 
L 347.694517 233.47734 
L 334.167244 237.539474 
L 320.639972 238.021541 
L 307.112699 239.846419 
L 293.585426 239.92774 
L 280.058153 241.407207 
L 266.530881 238.39396 
L 253.003608 238.686291 
L 239.476335 242.564 
L 225.949062 243.061175 
L 212.42179 246.774579 
L 198.894517 245.830622 
L 185.367244 246.81081 
L 171.839972 244.902875 
L 158.312699 248.208388 
L 144.785426 245.052735 
L 131.258153 243.241549 
L 117.730881 232.444384 
L 104.203608 200.094859 
L 90.676335 153.287073 
L 77.149063 108.82053 
L 63.62179 139.622189 
z
" clip-path="url(#p34597e2c8c)" style="fill: #3b528b; fill-opacity: 0.2"/>
   </g>
   <g id="PolyCollection_3">
    <path d="M 63.62179 152.810443 
L 63.62179 179.004219 
L 77.149063 212.587537 
L 90.676335 230.436139 
L 104.203608 240.731066 
L 117.730881 239.346474 
L 131.258153 241.044899 
L 144.785426 241.034011 
L 158.312699 241.35248 
L 171.839972 244.153394 
L 185.367244 245.879281 
L 198.894517 244.332937 
L 212.42179 242.977784 
L 225.949062 243.92899 
L 239.476335 245.589674 
L 253.003608 242.375522 
L 266.530881 246.410291 
L 280.058153 246.346793 
L 293.585426 247.62398 
L 307.112699 241.917798 
L 320.639972 244.196067 
L 334.167244 247.740665 
L 347.694517 243.6273 
L 361.22179 241.46699 
L 374.749063 237.038688 
L 388.276335 230.983093 
L 388.276335 181.550116 
L 388.276335 181.550116 
L 374.749063 221.348753 
L 361.22179 229.440303 
L 347.694517 230.576859 
L 334.167244 233.795311 
L 320.639972 236.096034 
L 307.112699 239.129822 
L 293.585426 236.503632 
L 280.058153 235.463963 
L 266.530881 234.826896 
L 253.003608 231.815639 
L 239.476335 229.801051 
L 225.949062 232.986131 
L 212.42179 236.97027 
L 198.894517 236.581866 
L 185.367244 233.674495 
L 171.839972 233.882192 
L 158.312699 232.608864 
L 144.785426 233.882934 
L 131.258153 230.684756 
L 117.730881 226.057688 
L 104.203608 212.101286 
L 90.676335 196.15364 
L 77.149063 157.62104 
L 63.62179 152.810443 
z
" clip-path="url(#p34597e2c8c)" style="fill: #21918c; fill-opacity: 0.2"/>
   </g>
   <g id="PolyCollection_4">
    <path d="M 63.62179 201.605186 
L 63.62179 216.018189 
L 77.149063 226.130496 
L 90.676335 236.138677 
L 104.203608 240.314366 
L 117.730881 237.247097 
L 131.258153 237.522549 
L 144.785426 234.933213 
L 158.312699 233.391454 
L 171.839972 234.144973 
L 185.367244 235.221317 
L 198.894517 237.464572 
L 212.42179 235.383488 
L 225.949062 238.155806 
L 239.476335 238.448932 
L 253.003608 235.020615 
L 266.530881 237.314164 
L 280.058153 238.853184 
L 293.585426 240.430198 
L 307.112699 239.344853 
L 320.639972 242.959624 
L 334.167244 238.740457 
L 347.694517 239.485762 
L 361.22179 239.788162 
L 374.749063 228.98544 
L 388.276335 228.033514 
L 388.276335 215.372348 
L 388.276335 215.372348 
L 374.749063 223.908952 
L 361.22179 225.714685 
L 347.694517 223.885206 
L 334.167244 227.438375 
L 320.639972 230.164819 
L 307.112699 225.488165 
L 293.585426 225.670748 
L 280.058153 224.862119 
L 266.530881 221.779567 
L 253.003608 220.050608 
L 239.476335 221.515629 
L 225.949062 221.678524 
L 212.42179 222.972675 
L 198.894517 228.154948 
L 185.367244 227.103858 
L 171.839972 228.803716 
L 158.312699 225.620596 
L 144.785426 228.092378 
L 131.258153 230.101828 
L 117.730881 226.934078 
L 104.203608 217.251515 
L 90.676335 209.469796 
L 77.149063 195.118057 
L 63.62179 201.605186 
z
" clip-path="url(#p34597e2c8c)" style="fill: #5ec962; fill-opacity: 0.2"/>
   </g>
   <g id="PolyCollection_5">
    <path d="M 63.62179 197.845237 
L 63.62179 226.71598 
L 77.149063 229.640803 
L 90.676335 237.217806 
L 104.203608 245.41072 
L 117.730881 236.208273 
L 131.258153 233.796549 
L 144.785426 228.878939 
L 158.312699 229.640583 
L 171.839972 234.149693 
L 185.367244 234.442051 
L 198.894517 235.278859 
L 212.42179 234.152752 
L 225.949062 235.641333 
L 239.476335 238.728399 
L 253.003608 238.629765 
L 266.530881 237.236103 
L 280.058153 237.658233 
L 293.585426 237.435879 
L 307.112699 240.044636 
L 320.639972 243.631057 
L 334.167244 237.806065 
L 347.694517 238.076766 
L 361.22179 239.835456 
L 374.749063 229.378198 
L 388.276335 232.945846 
L 388.276335 219.307765 
L 388.276335 219.307765 
L 374.749063 225.456966 
L 361.22179 186.989388 
L 347.694517 184.38065 
L 334.167244 224.755403 
L 320.639972 225.227314 
L 307.112699 222.465288 
L 293.585426 224.477932 
L 280.058153 224.225268 
L 266.530881 218.90608 
L 253.003608 219.327544 
L 239.476335 223.209749 
L 225.949062 224.642596 
L 212.42179 219.617531 
L 198.894517 222.328216 
L 185.367244 222.779151 
L 171.839972 226.795454 
L 158.312699 225.636224 
L 144.785426 222.372991 
L 131.258153 229.092783 
L 117.730881 229.871438 
L 104.203608 222.474968 
L 90.676335 214.671739 
L 77.149063 203.257799 
L 63.62179 197.845237 
z
" clip-path="url(#p34597e2c8c)" style="fill: #fde725; fill-opacity: 0.2"/>
   </g>
   <g id="matplotlib.axis_1">
    <g id="xtick_1">
     <g id="line2d_1">
      <defs>
       <path id="m154470065b" d="M 0 0 
L 0 3.5 
" style="stroke: #000000; stroke-width: 0.8"/>
      </defs>
      <g>
       <use xlink:href="#m154470065b" x="63.62179" y="288.430125" style="stroke: #000000; stroke-width: 0.8"/>
      </g>
     </g>
     <g id="text_1">
      <!-- 0 -->
      <g transform="translate(60.44054 303.028562) scale(0.1 -0.1)">
       <defs>
        <path id="DejaVuSans-30" d="M 2034 4250 
Q 1547 4250 1301 3770 
Q 1056 3291 1056 2328 
Q 1056 1369 1301 889 
Q 1547 409 2034 409 
Q 2525 409 2770 889 
Q 3016 1369 3016 2328 
Q 3016 3291 2770 3770 
Q 2525 4250 2034 4250 
z
M 2034 4750 
Q 2819 4750 3233 4129 
Q 3647 3509 3647 2328 
Q 3647 1150 3233 529 
Q 2819 -91 2034 -91 
Q 1250 -91 836 529 
Q 422 1150 422 2328 
Q 422 3509 836 4129 
Q 1250 4750 2034 4750 
z
" transform="scale(0.015625)"/>
       </defs>
       <use xlink:href="#DejaVuSans-30"/>
      </g>
     </g>
    </g>
    <g id="xtick_2">
     <g id="line2d_2">
      <g>
       <use xlink:href="#m154470065b" x="128.552699" y="288.430125" style="stroke: #000000; stroke-width: 0.8"/>
      </g>
     </g>
     <g id="text_2">
      <!-- 20 -->
      <g transform="translate(122.190199 303.028562) scale(0.1 -0.1)">
       <defs>
        <path id="DejaVuSans-32" d="M 1228 531 
L 3431 531 
L 3431 0 
L 469 0 
L 469 531 
Q 828 903 1448 1529 
Q 2069 2156 2228 2338 
Q 2531 2678 2651 2914 
Q 2772 3150 2772 3378 
Q 2772 3750 2511 3984 
Q 2250 4219 1831 4219 
Q 1534 4219 1204 4116 
Q 875 4013 500 3803 
L 500 4441 
Q 881 4594 1212 4672 
Q 1544 4750 1819 4750 
Q 2544 4750 2975 4387 
Q 3406 4025 3406 3419 
Q 3406 3131 3298 2873 
Q 3191 2616 2906 2266 
Q 2828 2175 2409 1742 
Q 1991 1309 1228 531 
z
" transform="scale(0.015625)"/>
       </defs>
       <use xlink:href="#DejaVuSans-32"/>
       <use xlink:href="#DejaVuSans-30" x="63.623047"/>
      </g>
     </g>
    </g>
    <g id="xtick_3">
     <g id="line2d_3">
      <g>
       <use xlink:href="#m154470065b" x="193.483608" y="288.430125" style="stroke: #000000; stroke-width: 0.8"/>
      </g>
     </g>
     <g id="text_3">
      <!-- 40 -->
      <g transform="translate(187.121108 303.028562) scale(0.1 -0.1)">
       <defs>
        <path id="DejaVuSans-34" d="M 2419 4116 
L 825 1625 
L 2419 1625 
L 2419 4116 
z
M 2253 4666 
L 3047 4666 
L 3047 1625 
L 3713 1625 
L 3713 1100 
L 3047 1100 
L 3047 0 
L 2419 0 
L 2419 1100 
L 313 1100 
L 313 1709 
L 2253 4666 
z
" transform="scale(0.015625)"/>
       </defs>
       <use xlink:href="#DejaVuSans-34"/>
       <use xlink:href="#DejaVuSans-30" x="63.623047"/>
      </g>
     </g>
    </g>
    <g id="xtick_4">
     <g id="line2d_4">
      <g>
       <use xlink:href="#m154470065b" x="258.414517" y="288.430125" style="stroke: #000000; stroke-width: 0.8"/>
      </g>
     </g>
     <g id="text_4">
      <!-- 60 -->
      <g transform="translate(252.052017 303.028562) scale(0.1 -0.1)">
       <defs>
        <path id="DejaVuSans-36" d="M 2113 2584 
Q 1688 2584 1439 2293 
Q 1191 2003 1191 1497 
Q 1191 994 1439 701 
Q 1688 409 2113 409 
Q 2538 409 2786 701 
Q 3034 994 3034 1497 
Q 3034 2003 2786 2293 
Q 2538 2584 2113 2584 
z
M 3366 4563 
L 3366 3988 
Q 3128 4100 2886 4159 
Q 2644 4219 2406 4219 
Q 1781 4219 1451 3797 
Q 1122 3375 1075 2522 
Q 1259 2794 1537 2939 
Q 1816 3084 2150 3084 
Q 2853 3084 3261 2657 
Q 3669 2231 3669 1497 
Q 3669 778 3244 343 
Q 2819 -91 2113 -91 
Q 1303 -91 875 529 
Q 447 1150 447 2328 
Q 447 3434 972 4092 
Q 1497 4750 2381 4750 
Q 2619 4750 2861 4703 
Q 3103 4656 3366 4563 
z
" transform="scale(0.015625)"/>
       </defs>
       <use xlink:href="#DejaVuSans-36"/>
       <use xlink:href="#DejaVuSans-30" x="63.623047"/>
      </g>
     </g>
    </g>
    <g id="xtick_5">
     <g id="line2d_5">
      <g>
       <use xlink:href="#m154470065b" x="323.345426" y="288.430125" style="stroke: #000000; stroke-width: 0.8"/>
      </g>
     </g>
     <g id="text_5">
      <!-- 80 -->
      <g transform="translate(316.982926 303.028562) scale(0.1 -0.1)">
       <defs>
        <path id="DejaVuSans-38" d="M 2034 2216 
Q 1584 2216 1326 1975 
Q 1069 1734 1069 1313 
Q 1069 891 1326 650 
Q 1584 409 2034 409 
Q 2484 409 2743 651 
Q 3003 894 3003 1313 
Q 3003 1734 2745 1975 
Q 2488 2216 2034 2216 
z
M 1403 2484 
Q 997 2584 770 2862 
Q 544 3141 544 3541 
Q 544 4100 942 4425 
Q 1341 4750 2034 4750 
Q 2731 4750 3128 4425 
Q 3525 4100 3525 3541 
Q 3525 3141 3298 2862 
Q 3072 2584 2669 2484 
Q 3125 2378 3379 2068 
Q 3634 1759 3634 1313 
Q 3634 634 3220 271 
Q 2806 -91 2034 -91 
Q 1263 -91 848 271 
Q 434 634 434 1313 
Q 434 1759 690 2068 
Q 947 2378 1403 2484 
z
M 1172 3481 
Q 1172 3119 1398 2916 
Q 1625 2713 2034 2713 
Q 2441 2713 2670 2916 
Q 2900 3119 2900 3481 
Q 2900 3844 2670 4047 
Q 2441 4250 2034 4250 
Q 1625 4250 1398 4047 
Q 1172 3844 1172 3481 
z
" transform="scale(0.015625)"/>
       </defs>
       <use xlink:href="#DejaVuSans-38"/>
       <use xlink:href="#DejaVuSans-30" x="63.623047"/>
      </g>
     </g>
    </g>
    <g id="xtick_6">
     <g id="line2d_6">
      <g>
       <use xlink:href="#m154470065b" x="388.276335" y="288.430125" style="stroke: #000000; stroke-width: 0.8"/>
      </g>
     </g>
     <g id="text_6">
      <!-- 100 -->
      <g transform="translate(378.732585 303.028562) scale(0.1 -0.1)">
       <defs>
        <path id="DejaVuSans-31" d="M 794 531 
L 1825 531 
L 1825 4091 
L 703 3866 
L 703 4441 
L 1819 4666 
L 2450 4666 
L 2450 531 
L 3481 531 
L 3481 0 
L 794 0 
L 794 531 
z
" transform="scale(0.015625)"/>
       </defs>
       <use xlink:href="#DejaVuSans-31"/>
       <use xlink:href="#DejaVuSans-30" x="63.623047"/>
       <use xlink:href="#DejaVuSans-30" x="127.246094"/>
      </g>
     </g>
    </g>
    <g id="text_7">
     <!-- Percentage -->
     <g transform="translate(197.826406 316.706687) scale(0.1 -0.1)">
      <defs>
       <path id="DejaVuSans-50" d="M 1259 4147 
L 1259 2394 
L 2053 2394 
Q 2494 2394 2734 2622 
Q 2975 2850 2975 3272 
Q 2975 3691 2734 3919 
Q 2494 4147 2053 4147 
L 1259 4147 
z
M 628 4666 
L 2053 4666 
Q 2838 4666 3239 4311 
Q 3641 3956 3641 3272 
Q 3641 2581 3239 2228 
Q 2838 1875 2053 1875 
L 1259 1875 
L 1259 0 
L 628 0 
L 628 4666 
z
" transform="scale(0.015625)"/>
       <path id="DejaVuSans-65" d="M 3597 1894 
L 3597 1613 
L 953 1613 
Q 991 1019 1311 708 
Q 1631 397 2203 397 
Q 2534 397 2845 478 
Q 3156 559 3463 722 
L 3463 178 
Q 3153 47 2828 -22 
Q 2503 -91 2169 -91 
Q 1331 -91 842 396 
Q 353 884 353 1716 
Q 353 2575 817 3079 
Q 1281 3584 2069 3584 
Q 2775 3584 3186 3129 
Q 3597 2675 3597 1894 
z
M 3022 2063 
Q 3016 2534 2758 2815 
Q 2500 3097 2075 3097 
Q 1594 3097 1305 2825 
Q 1016 2553 972 2059 
L 3022 2063 
z
" transform="scale(0.015625)"/>
       <path id="DejaVuSans-72" d="M 2631 2963 
Q 2534 3019 2420 3045 
Q 2306 3072 2169 3072 
Q 1681 3072 1420 2755 
Q 1159 2438 1159 1844 
L 1159 0 
L 581 0 
L 581 3500 
L 1159 3500 
L 1159 2956 
Q 1341 3275 1631 3429 
Q 1922 3584 2338 3584 
Q 2397 3584 2469 3576 
Q 2541 3569 2628 3553 
L 2631 2963 
z
" transform="scale(0.015625)"/>
       <path id="DejaVuSans-63" d="M 3122 3366 
L 3122 2828 
Q 2878 2963 2633 3030 
Q 2388 3097 2138 3097 
Q 1578 3097 1268 2742 
Q 959 2388 959 1747 
Q 959 1106 1268 751 
Q 1578 397 2138 397 
Q 2388 397 2633 464 
Q 2878 531 3122 666 
L 3122 134 
Q 2881 22 2623 -34 
Q 2366 -91 2075 -91 
Q 1284 -91 818 406 
Q 353 903 353 1747 
Q 353 2603 823 3093 
Q 1294 3584 2113 3584 
Q 2378 3584 2631 3529 
Q 2884 3475 3122 3366 
z
" transform="scale(0.015625)"/>
       <path id="DejaVuSans-6e" d="M 3513 2113 
L 3513 0 
L 2938 0 
L 2938 2094 
Q 2938 2591 2744 2837 
Q 2550 3084 2163 3084 
Q 1697 3084 1428 2787 
Q 1159 2491 1159 1978 
L 1159 0 
L 581 0 
L 581 3500 
L 1159 3500 
L 1159 2956 
Q 1366 3272 1645 3428 
Q 1925 3584 2291 3584 
Q 2894 3584 3203 3211 
Q 3513 2838 3513 2113 
z
" transform="scale(0.015625)"/>
       <path id="DejaVuSans-74" d="M 1172 4494 
L 1172 3500 
L 2356 3500 
L 2356 3053 
L 1172 3053 
L 1172 1153 
Q 1172 725 1289 603 
Q 1406 481 1766 481 
L 2356 481 
L 2356 0 
L 1766 0 
Q 1100 0 847 248 
Q 594 497 594 1153 
L 594 3053 
L 172 3053 
L 172 3500 
L 594 3500 
L 594 4494 
L 1172 4494 
z
" transform="scale(0.015625)"/>
       <path id="DejaVuSans-61" d="M 2194 1759 
Q 1497 1759 1228 1600 
Q 959 1441 959 1056 
Q 959 750 1161 570 
Q 1363 391 1709 391 
Q 2188 391 2477 730 
Q 2766 1069 2766 1631 
L 2766 1759 
L 2194 1759 
z
M 3341 1997 
L 3341 0 
L 2766 0 
L 2766 531 
Q 2569 213 2275 61 
Q 1981 -91 1556 -91 
Q 1019 -91 701 211 
Q 384 513 384 1019 
Q 384 1609 779 1909 
Q 1175 2209 1959 2209 
L 2766 2209 
L 2766 2266 
Q 2766 2663 2505 2880 
Q 2244 3097 1772 3097 
Q 1472 3097 1187 3025 
Q 903 2953 641 2809 
L 641 3341 
Q 956 3463 1253 3523 
Q 1550 3584 1831 3584 
Q 2591 3584 2966 3190 
Q 3341 2797 3341 1997 
z
" transform="scale(0.015625)"/>
       <path id="DejaVuSans-67" d="M 2906 1791 
Q 2906 2416 2648 2759 
Q 2391 3103 1925 3103 
Q 1463 3103 1205 2759 
Q 947 2416 947 1791 
Q 947 1169 1205 825 
Q 1463 481 1925 481 
Q 2391 481 2648 825 
Q 2906 1169 2906 1791 
z
M 3481 434 
Q 3481 -459 3084 -895 
Q 2688 -1331 1869 -1331 
Q 1566 -1331 1297 -1286 
Q 1028 -1241 775 -1147 
L 775 -588 
Q 1028 -725 1275 -790 
Q 1522 -856 1778 -856 
Q 2344 -856 2625 -561 
Q 2906 -266 2906 331 
L 2906 616 
Q 2728 306 2450 153 
Q 2172 0 1784 0 
Q 1141 0 747 490 
Q 353 981 353 1791 
Q 353 2603 747 3093 
Q 1141 3584 1784 3584 
Q 2172 3584 2450 3431 
Q 2728 3278 2906 2969 
L 2906 3500 
L 3481 3500 
L 3481 434 
z
" transform="scale(0.015625)"/>
      </defs>
      <use xlink:href="#DejaVuSans-50"/>
      <use xlink:href="#DejaVuSans-65" x="56.677734"/>
      <use xlink:href="#DejaVuSans-72" x="118.201172"/>
      <use xlink:href="#DejaVuSans-63" x="157.064453"/>
      <use xlink:href="#DejaVuSans-65" x="212.044922"/>
      <use xlink:href="#DejaVuSans-6e" x="273.568359"/>
      <use xlink:href="#DejaVuSans-74" x="336.947266"/>
      <use xlink:href="#DejaVuSans-61" x="376.15625"/>
      <use xlink:href="#DejaVuSans-67" x="437.435547"/>
      <use xlink:href="#DejaVuSans-65" x="500.912109"/>
     </g>
    </g>
   </g>
   <g id="matplotlib.axis_2">
    <g id="ytick_1">
     <g id="line2d_7">
      <defs>
       <path id="mb365307b7b" d="M 0 0 
L -3.5 0 
" style="stroke: #000000; stroke-width: 0.8"/>
      </defs>
      <g>
       <use xlink:href="#mb365307b7b" x="47.389063" y="288.430125" style="stroke: #000000; stroke-width: 0.8"/>
      </g>
     </g>
     <g id="text_8">
      <!-- -0.2 -->
      <g transform="translate(20.878125 292.229344) scale(0.1 -0.1)">
       <defs>
        <path id="DejaVuSans-2d" d="M 313 2009 
L 1997 2009 
L 1997 1497 
L 313 1497 
L 313 2009 
z
" transform="scale(0.015625)"/>
        <path id="DejaVuSans-2e" d="M 684 794 
L 1344 794 
L 1344 0 
L 684 0 
L 684 794 
z
" transform="scale(0.015625)"/>
       </defs>
       <use xlink:href="#DejaVuSans-2d"/>
       <use xlink:href="#DejaVuSans-30" x="36.083984"/>
       <use xlink:href="#DejaVuSans-2e" x="99.707031"/>
       <use xlink:href="#DejaVuSans-32" x="131.494141"/>
      </g>
     </g>
    </g>
    <g id="ytick_2">
     <g id="line2d_8">
      <g>
       <use xlink:href="#mb365307b7b" x="47.389063" y="250.414125" style="stroke: #000000; stroke-width: 0.8"/>
      </g>
     </g>
     <g id="text_9">
      <!-- 0.0 -->
      <g transform="translate(24.485938 254.213344) scale(0.1 -0.1)">
       <use xlink:href="#DejaVuSans-30"/>
       <use xlink:href="#DejaVuSans-2e" x="63.623047"/>
       <use xlink:href="#DejaVuSans-30" x="95.410156"/>
      </g>
     </g>
    </g>
    <g id="ytick_3">
     <g id="line2d_9">
      <g>
       <use xlink:href="#mb365307b7b" x="47.389063" y="212.398125" style="stroke: #000000; stroke-width: 0.8"/>
      </g>
     </g>
     <g id="text_10">
      <!-- 0.2 -->
      <g transform="translate(24.485938 216.197344) scale(0.1 -0.1)">
       <use xlink:href="#DejaVuSans-30"/>
       <use xlink:href="#DejaVuSans-2e" x="63.623047"/>
       <use xlink:href="#DejaVuSans-32" x="95.410156"/>
      </g>
     </g>
    </g>
    <g id="ytick_4">
     <g id="line2d_10">
      <g>
       <use xlink:href="#mb365307b7b" x="47.389063" y="174.382125" style="stroke: #000000; stroke-width: 0.8"/>
      </g>
     </g>
     <g id="text_11">
      <!-- 0.4 -->
      <g transform="translate(24.485938 178.181344) scale(0.1 -0.1)">
       <use xlink:href="#DejaVuSans-30"/>
       <use xlink:href="#DejaVuSans-2e" x="63.623047"/>
       <use xlink:href="#DejaVuSans-34" x="95.410156"/>
      </g>
     </g>
    </g>
    <g id="ytick_5">
     <g id="line2d_11">
      <g>
       <use xlink:href="#mb365307b7b" x="47.389063" y="136.366125" style="stroke: #000000; stroke-width: 0.8"/>
      </g>
     </g>
     <g id="text_12">
      <!-- 0.6 -->
      <g transform="translate(24.485938 140.165344) scale(0.1 -0.1)">
       <use xlink:href="#DejaVuSans-30"/>
       <use xlink:href="#DejaVuSans-2e" x="63.623047"/>
       <use xlink:href="#DejaVuSans-36" x="95.410156"/>
      </g>
     </g>
    </g>
    <g id="ytick_6">
     <g id="line2d_12">
      <g>
       <use xlink:href="#mb365307b7b" x="47.389063" y="98.350125" style="stroke: #000000; stroke-width: 0.8"/>
      </g>
     </g>
     <g id="text_13">
      <!-- 0.8 -->
      <g transform="translate(24.485938 102.149344) scale(0.1 -0.1)">
       <use xlink:href="#DejaVuSans-30"/>
       <use xlink:href="#DejaVuSans-2e" x="63.623047"/>
       <use xlink:href="#DejaVuSans-38" x="95.410156"/>
      </g>
     </g>
    </g>
    <g id="ytick_7">
     <g id="line2d_13">
      <g>
       <use xlink:href="#mb365307b7b" x="47.389063" y="60.334125" style="stroke: #000000; stroke-width: 0.8"/>
      </g>
     </g>
     <g id="text_14">
      <!-- 1.0 -->
      <g transform="translate(24.485938 64.133344) scale(0.1 -0.1)">
       <use xlink:href="#DejaVuSans-31"/>
       <use xlink:href="#DejaVuSans-2e" x="63.623047"/>
       <use xlink:href="#DejaVuSans-30" x="95.410156"/>
      </g>
     </g>
    </g>
    <g id="ytick_8">
     <g id="line2d_14">
      <g>
       <use xlink:href="#mb365307b7b" x="47.389063" y="22.318125" style="stroke: #000000; stroke-width: 0.8"/>
      </g>
     </g>
     <g id="text_15">
      <!-- 1.2 -->
      <g transform="translate(24.485938 26.117344) scale(0.1 -0.1)">
       <use xlink:href="#DejaVuSans-31"/>
       <use xlink:href="#DejaVuSans-2e" x="63.623047"/>
       <use xlink:href="#DejaVuSans-32" x="95.410156"/>
      </g>
     </g>
    </g>
    <g id="text_16">
     <!-- Velocity (x in cm / 10ms) -->
     <g transform="translate(14.798438 217.495219) rotate(-90) scale(0.1 -0.1)">
      <defs>
       <path id="DejaVuSans-56" d="M 1831 0 
L 50 4666 
L 709 4666 
L 2188 738 
L 3669 4666 
L 4325 4666 
L 2547 0 
L 1831 0 
z
" transform="scale(0.015625)"/>
       <path id="DejaVuSans-6c" d="M 603 4863 
L 1178 4863 
L 1178 0 
L 603 0 
L 603 4863 
z
" transform="scale(0.015625)"/>
       <path id="DejaVuSans-6f" d="M 1959 3097 
Q 1497 3097 1228 2736 
Q 959 2375 959 1747 
Q 959 1119 1226 758 
Q 1494 397 1959 397 
Q 2419 397 2687 759 
Q 2956 1122 2956 1747 
Q 2956 2369 2687 2733 
Q 2419 3097 1959 3097 
z
M 1959 3584 
Q 2709 3584 3137 3096 
Q 3566 2609 3566 1747 
Q 3566 888 3137 398 
Q 2709 -91 1959 -91 
Q 1206 -91 779 398 
Q 353 888 353 1747 
Q 353 2609 779 3096 
Q 1206 3584 1959 3584 
z
" transform="scale(0.015625)"/>
       <path id="DejaVuSans-69" d="M 603 3500 
L 1178 3500 
L 1178 0 
L 603 0 
L 603 3500 
z
M 603 4863 
L 1178 4863 
L 1178 4134 
L 603 4134 
L 603 4863 
z
" transform="scale(0.015625)"/>
       <path id="DejaVuSans-79" d="M 2059 -325 
Q 1816 -950 1584 -1140 
Q 1353 -1331 966 -1331 
L 506 -1331 
L 506 -850 
L 844 -850 
Q 1081 -850 1212 -737 
Q 1344 -625 1503 -206 
L 1606 56 
L 191 3500 
L 800 3500 
L 1894 763 
L 2988 3500 
L 3597 3500 
L 2059 -325 
z
" transform="scale(0.015625)"/>
       <path id="DejaVuSans-20" transform="scale(0.015625)"/>
       <path id="DejaVuSans-28" d="M 1984 4856 
Q 1566 4138 1362 3434 
Q 1159 2731 1159 2009 
Q 1159 1288 1364 580 
Q 1569 -128 1984 -844 
L 1484 -844 
Q 1016 -109 783 600 
Q 550 1309 550 2009 
Q 550 2706 781 3412 
Q 1013 4119 1484 4856 
L 1984 4856 
z
" transform="scale(0.015625)"/>
       <path id="DejaVuSans-78" d="M 3513 3500 
L 2247 1797 
L 3578 0 
L 2900 0 
L 1881 1375 
L 863 0 
L 184 0 
L 1544 1831 
L 300 3500 
L 978 3500 
L 1906 2253 
L 2834 3500 
L 3513 3500 
z
" transform="scale(0.015625)"/>
       <path id="DejaVuSans-6d" d="M 3328 2828 
Q 3544 3216 3844 3400 
Q 4144 3584 4550 3584 
Q 5097 3584 5394 3201 
Q 5691 2819 5691 2113 
L 5691 0 
L 5113 0 
L 5113 2094 
Q 5113 2597 4934 2840 
Q 4756 3084 4391 3084 
Q 3944 3084 3684 2787 
Q 3425 2491 3425 1978 
L 3425 0 
L 2847 0 
L 2847 2094 
Q 2847 2600 2669 2842 
Q 2491 3084 2119 3084 
Q 1678 3084 1418 2786 
Q 1159 2488 1159 1978 
L 1159 0 
L 581 0 
L 581 3500 
L 1159 3500 
L 1159 2956 
Q 1356 3278 1631 3431 
Q 1906 3584 2284 3584 
Q 2666 3584 2933 3390 
Q 3200 3197 3328 2828 
z
" transform="scale(0.015625)"/>
       <path id="DejaVuSans-2f" d="M 1625 4666 
L 2156 4666 
L 531 -594 
L 0 -594 
L 1625 4666 
z
" transform="scale(0.015625)"/>
       <path id="DejaVuSans-73" d="M 2834 3397 
L 2834 2853 
Q 2591 2978 2328 3040 
Q 2066 3103 1784 3103 
Q 1356 3103 1142 2972 
Q 928 2841 928 2578 
Q 928 2378 1081 2264 
Q 1234 2150 1697 2047 
L 1894 2003 
Q 2506 1872 2764 1633 
Q 3022 1394 3022 966 
Q 3022 478 2636 193 
Q 2250 -91 1575 -91 
Q 1294 -91 989 -36 
Q 684 19 347 128 
L 347 722 
Q 666 556 975 473 
Q 1284 391 1588 391 
Q 1994 391 2212 530 
Q 2431 669 2431 922 
Q 2431 1156 2273 1281 
Q 2116 1406 1581 1522 
L 1381 1569 
Q 847 1681 609 1914 
Q 372 2147 372 2553 
Q 372 3047 722 3315 
Q 1072 3584 1716 3584 
Q 2034 3584 2315 3537 
Q 2597 3491 2834 3397 
z
" transform="scale(0.015625)"/>
       <path id="DejaVuSans-29" d="M 513 4856 
L 1013 4856 
Q 1481 4119 1714 3412 
Q 1947 2706 1947 2009 
Q 1947 1309 1714 600 
Q 1481 -109 1013 -844 
L 513 -844 
Q 928 -128 1133 580 
Q 1338 1288 1338 2009 
Q 1338 2731 1133 3434 
Q 928 4138 513 4856 
z
" transform="scale(0.015625)"/>
      </defs>
      <use xlink:href="#DejaVuSans-56"/>
      <use xlink:href="#DejaVuSans-65" x="60.658203"/>
      <use xlink:href="#DejaVuSans-6c" x="122.181641"/>
      <use xlink:href="#DejaVuSans-6f" x="149.964844"/>
      <use xlink:href="#DejaVuSans-63" x="211.146484"/>
      <use xlink:href="#DejaVuSans-69" x="266.126953"/>
      <use xlink:href="#DejaVuSans-74" x="293.910156"/>
      <use xlink:href="#DejaVuSans-79" x="333.119141"/>
      <use xlink:href="#DejaVuSans-20" x="392.298828"/>
      <use xlink:href="#DejaVuSans-28" x="424.085938"/>
      <use xlink:href="#DejaVuSans-78" x="463.099609"/>
      <use xlink:href="#DejaVuSans-20" x="522.279297"/>
      <use xlink:href="#DejaVuSans-69" x="554.066406"/>
      <use xlink:href="#DejaVuSans-6e" x="581.849609"/>
      <use xlink:href="#DejaVuSans-20" x="645.228516"/>
      <use xlink:href="#DejaVuSans-63" x="677.015625"/>
      <use xlink:href="#DejaVuSans-6d" x="731.996094"/>
      <use xlink:href="#DejaVuSans-20" x="829.408203"/>
      <use xlink:href="#DejaVuSans-2f" x="861.195312"/>
      <use xlink:href="#DejaVuSans-20" x="894.886719"/>
      <use xlink:href="#DejaVuSans-31" x="926.673828"/>
      <use xlink:href="#DejaVuSans-30" x="990.296875"/>
      <use xlink:href="#DejaVuSans-6d" x="1053.919922"/>
      <use xlink:href="#DejaVuSans-73" x="1151.332031"/>
      <use xlink:href="#DejaVuSans-29" x="1203.431641"/>
     </g>
    </g>
   </g>
   <g id="line2d_15">
    <path d="M 63.62179 85.766698 
L 77.149063 103.792617 
L 90.676335 185.612622 
L 104.203608 228.761067 
L 117.730881 243.970879 
L 131.258153 247.986231 
L 144.785426 247.763621 
L 158.312699 247.677265 
L 171.839972 248.525782 
L 185.367244 250.492955 
L 198.894517 250.715386 
L 212.42179 249.807834 
L 225.949062 249.338604 
L 239.476335 251.1492 
L 253.003608 250.106956 
L 266.530881 251.53234 
L 280.058153 252.988378 
L 293.585426 252.86625 
L 307.112699 253.602718 
L 320.639972 253.717186 
L 334.167244 252.222443 
L 347.694517 250.354712 
L 361.22179 249.934259 
L 374.749063 248.584574 
L 388.276335 240.376508 
" clip-path="url(#p34597e2c8c)" style="fill: none; stroke: #440154; stroke-width: 1.5; stroke-linecap: square"/>
   </g>
   <g id="line2d_16">
    <path d="M 63.62179 151.787492 
L 77.149063 142.40939 
L 90.676335 185.71565 
L 104.203608 221.823826 
L 117.730881 241.188381 
L 131.258153 246.319465 
L 144.785426 247.886858 
L 158.312699 249.756297 
L 171.839972 249.446639 
L 185.367244 251.554454 
L 198.894517 248.88324 
L 212.42179 248.432228 
L 225.949062 246.322164 
L 239.476335 247.091165 
L 253.003608 243.224533 
L 266.530881 244.823897 
L 280.058153 244.575602 
L 293.585426 242.632333 
L 307.112699 243.371011 
L 320.639972 242.055542 
L 334.167244 239.488301 
L 347.694517 236.790813 
L 361.22179 231.936062 
L 374.749063 226.721723 
L 388.276335 222.144322 
" clip-path="url(#p34597e2c8c)" style="fill: none; stroke: #3b528b; stroke-width: 1.5; stroke-linecap: square"/>
   </g>
   <g id="line2d_17">
    <path d="M 63.62179 165.907331 
L 77.149063 185.104288 
L 90.676335 213.294889 
L 104.203608 226.416176 
L 117.730881 232.702081 
L 131.258153 235.864828 
L 144.785426 237.458472 
L 158.312699 236.980672 
L 171.839972 239.017793 
L 185.367244 239.776888 
L 198.894517 240.457401 
L 212.42179 239.974027 
L 225.949062 238.45756 
L 239.476335 237.695363 
L 253.003608 237.09558 
L 266.530881 240.618593 
L 280.058153 240.905378 
L 293.585426 242.063806 
L 307.112699 240.52381 
L 320.639972 240.14605 
L 334.167244 240.767988 
L 347.694517 237.102079 
L 361.22179 235.453646 
L 374.749063 229.19372 
L 388.276335 206.266605 
" clip-path="url(#p34597e2c8c)" style="fill: none; stroke: #21918c; stroke-width: 1.5; stroke-linecap: square"/>
   </g>
   <g id="line2d_18">
    <path d="M 63.62179 208.811687 
L 77.149063 210.624276 
L 90.676335 222.804237 
L 104.203608 228.782941 
L 117.730881 232.090587 
L 131.258153 233.812189 
L 144.785426 231.512795 
L 158.312699 229.506025 
L 171.839972 231.474344 
L 185.367244 231.162588 
L 198.894517 232.80976 
L 212.42179 229.178081 
L 225.949062 229.917165 
L 239.476335 229.982281 
L 253.003608 227.535611 
L 266.530881 229.546865 
L 280.058153 231.857651 
L 293.585426 233.050473 
L 307.112699 232.416509 
L 320.639972 236.562221 
L 334.167244 233.089416 
L 347.694517 231.685484 
L 361.22179 232.751423 
L 374.749063 226.447196 
L 388.276335 221.702931 
" clip-path="url(#p34597e2c8c)" style="fill: none; stroke: #5ec962; stroke-width: 1.5; stroke-linecap: square"/>
   </g>
   <g id="line2d_19">
    <path d="M 63.62179 212.280608 
L 77.149063 216.449301 
L 90.676335 225.944773 
L 104.203608 233.942844 
L 117.730881 233.039855 
L 131.258153 231.444666 
L 144.785426 225.625965 
L 158.312699 227.638403 
L 171.839972 230.472573 
L 185.367244 228.610601 
L 198.894517 228.803538 
L 212.42179 226.885142 
L 225.949062 230.141965 
L 239.476335 230.969074 
L 253.003608 228.978655 
L 266.530881 228.071092 
L 280.058153 230.94175 
L 293.585426 230.956906 
L 307.112699 231.254962 
L 320.639972 234.429186 
L 334.167244 231.280734 
L 347.694517 211.228708 
L 361.22179 213.412422 
L 374.749063 227.417582 
L 388.276335 226.126805 
" clip-path="url(#p34597e2c8c)" style="fill: none; stroke: #fde725; stroke-width: 1.5; stroke-linecap: square"/>
   </g>
   <g id="patch_3">
    <path d="M 47.389063 288.430125 
L 47.389063 22.318125 
" style="fill: none; stroke: #000000; stroke-width: 0.8; stroke-linejoin: miter; stroke-linecap: square"/>
   </g>
   <g id="patch_4">
    <path d="M 404.509063 288.430125 
L 404.509063 22.318125 
" style="fill: none; stroke: #000000; stroke-width: 0.8; stroke-linejoin: miter; stroke-linecap: square"/>
   </g>
   <g id="patch_5">
    <path d="M 47.389063 288.430125 
L 404.509063 288.430125 
" style="fill: none; stroke: #000000; stroke-width: 0.8; stroke-linejoin: miter; stroke-linecap: square"/>
   </g>
   <g id="patch_6">
    <path d="M 47.389063 22.318125 
L 404.509063 22.318125 
" style="fill: none; stroke: #000000; stroke-width: 0.8; stroke-linejoin: miter; stroke-linecap: square"/>
   </g>
   <g id="text_17">
    <!-- 5 mm - Joint velocities over average step cycle -->
    <g transform="translate(84.944375 16.318125) scale(0.12 -0.12)">
     <defs>
      <path id="DejaVuSans-35" d="M 691 4666 
L 3169 4666 
L 3169 4134 
L 1269 4134 
L 1269 2991 
Q 1406 3038 1543 3061 
Q 1681 3084 1819 3084 
Q 2600 3084 3056 2656 
Q 3513 2228 3513 1497 
Q 3513 744 3044 326 
Q 2575 -91 1722 -91 
Q 1428 -91 1123 -41 
Q 819 9 494 109 
L 494 744 
Q 775 591 1075 516 
Q 1375 441 1709 441 
Q 2250 441 2565 725 
Q 2881 1009 2881 1497 
Q 2881 1984 2565 2268 
Q 2250 2553 1709 2553 
Q 1456 2553 1204 2497 
Q 953 2441 691 2322 
L 691 4666 
z
" transform="scale(0.015625)"/>
      <path id="DejaVuSans-4a" d="M 628 4666 
L 1259 4666 
L 1259 325 
Q 1259 -519 939 -900 
Q 619 -1281 -91 -1281 
L -331 -1281 
L -331 -750 
L -134 -750 
Q 284 -750 456 -515 
Q 628 -281 628 325 
L 628 4666 
z
" transform="scale(0.015625)"/>
      <path id="DejaVuSans-76" d="M 191 3500 
L 800 3500 
L 1894 563 
L 2988 3500 
L 3597 3500 
L 2284 0 
L 1503 0 
L 191 3500 
z
" transform="scale(0.015625)"/>
      <path id="DejaVuSans-70" d="M 1159 525 
L 1159 -1331 
L 581 -1331 
L 581 3500 
L 1159 3500 
L 1159 2969 
Q 1341 3281 1617 3432 
Q 1894 3584 2278 3584 
Q 2916 3584 3314 3078 
Q 3713 2572 3713 1747 
Q 3713 922 3314 415 
Q 2916 -91 2278 -91 
Q 1894 -91 1617 61 
Q 1341 213 1159 525 
z
M 3116 1747 
Q 3116 2381 2855 2742 
Q 2594 3103 2138 3103 
Q 1681 3103 1420 2742 
Q 1159 2381 1159 1747 
Q 1159 1113 1420 752 
Q 1681 391 2138 391 
Q 2594 391 2855 752 
Q 3116 1113 3116 1747 
z
" transform="scale(0.015625)"/>
     </defs>
     <use xlink:href="#DejaVuSans-35"/>
     <use xlink:href="#DejaVuSans-20" x="63.623047"/>
     <use xlink:href="#DejaVuSans-6d" x="95.410156"/>
     <use xlink:href="#DejaVuSans-6d" x="192.822266"/>
     <use xlink:href="#DejaVuSans-20" x="290.234375"/>
     <use xlink:href="#DejaVuSans-2d" x="322.021484"/>
     <use xlink:href="#DejaVuSans-20" x="358.105469"/>
     <use xlink:href="#DejaVuSans-4a" x="389.892578"/>
     <use xlink:href="#DejaVuSans-6f" x="419.384766"/>
     <use xlink:href="#DejaVuSans-69" x="480.566406"/>
     <use xlink:href="#DejaVuSans-6e" x="508.349609"/>
     <use xlink:href="#DejaVuSans-74" x="571.728516"/>
     <use xlink:href="#DejaVuSans-20" x="610.9375"/>
     <use xlink:href="#DejaVuSans-76" x="642.724609"/>
     <use xlink:href="#DejaVuSans-65" x="701.904297"/>
     <use xlink:href="#DejaVuSans-6c" x="763.427734"/>
     <use xlink:href="#DejaVuSans-6f" x="791.210938"/>
     <use xlink:href="#DejaVuSans-63" x="852.392578"/>
     <use xlink:href="#DejaVuSans-69" x="907.373047"/>
     <use xlink:href="#DejaVuSans-74" x="935.15625"/>
     <use xlink:href="#DejaVuSans-69" x="974.365234"/>
     <use xlink:href="#DejaVuSans-65" x="1002.148438"/>
     <use xlink:href="#DejaVuSans-73" x="1063.671875"/>
     <use xlink:href="#DejaVuSans-20" x="1115.771484"/>
     <use xlink:href="#DejaVuSans-6f" x="1147.558594"/>
     <use xlink:href="#DejaVuSans-76" x="1208.740234"/>
     <use xlink:href="#DejaVuSans-65" x="1267.919922"/>
     <use xlink:href="#DejaVuSans-72" x="1329.443359"/>
     <use xlink:href="#DejaVuSans-20" x="1370.556641"/>
     <use xlink:href="#DejaVuSans-61" x="1402.34375"/>
     <use xlink:href="#DejaVuSans-76" x="1463.623047"/>
     <use xlink:href="#DejaVuSans-65" x="1522.802734"/>
     <use xlink:href="#DejaVuSans-72" x="1584.326172"/>
     <use xlink:href="#DejaVuSans-61" x="1625.439453"/>
     <use xlink:href="#DejaVuSans-67" x="1686.71875"/>
     <use xlink:href="#DejaVuSans-65" x="1750.195312"/>
     <use xlink:href="#DejaVuSans-20" x="1811.71875"/>
     <use xlink:href="#DejaVuSans-73" x="1843.505859"/>
     <use xlink:href="#DejaVuSans-74" x="1895.605469"/>
     <use xlink:href="#DejaVuSans-65" x="1934.814453"/>
     <use xlink:href="#DejaVuSans-70" x="1996.337891"/>
     <use xlink:href="#DejaVuSans-20" x="2059.814453"/>
     <use xlink:href="#DejaVuSans-63" x="2091.601562"/>
     <use xlink:href="#DejaVuSans-79" x="2146.582031"/>
     <use xlink:href="#DejaVuSans-63" x="2205.761719"/>
     <use xlink:href="#DejaVuSans-6c" x="2260.742188"/>
     <use xlink:href="#DejaVuSans-65" x="2288.525391"/>
    </g>
   </g>
   <g id="legend_1">
    <g id="patch_7">
     <path d="M 296.168438 103.70875 
L 397.509063 103.70875 
Q 399.509063 103.70875 399.509063 101.70875 
L 399.509063 29.318125 
Q 399.509063 27.318125 397.509063 27.318125 
L 296.168438 27.318125 
Q 294.168438 27.318125 294.168438 29.318125 
L 294.168438 101.70875 
Q 294.168438 103.70875 296.168438 103.70875 
z
" style="fill: #ffffff; opacity: 0.8; stroke: #cccccc; stroke-linejoin: miter"/>
    </g>
    <g id="line2d_20">
     <path d="M 298.168438 35.416562 
L 308.168438 35.416562 
L 318.168438 35.416562 
" style="fill: none; stroke: #440154; stroke-width: 1.5; stroke-linecap: square"/>
    </g>
    <g id="text_18">
     <!-- Hind paw tao  -->
     <g transform="translate(326.168438 38.916562) scale(0.1 -0.1)">
      <defs>
       <path id="DejaVuSans-48" d="M 628 4666 
L 1259 4666 
L 1259 2753 
L 3553 2753 
L 3553 4666 
L 4184 4666 
L 4184 0 
L 3553 0 
L 3553 2222 
L 1259 2222 
L 1259 0 
L 628 0 
L 628 4666 
z
" transform="scale(0.015625)"/>
       <path id="DejaVuSans-64" d="M 2906 2969 
L 2906 4863 
L 3481 4863 
L 3481 0 
L 2906 0 
L 2906 525 
Q 2725 213 2448 61 
Q 2172 -91 1784 -91 
Q 1150 -91 751 415 
Q 353 922 353 1747 
Q 353 2572 751 3078 
Q 1150 3584 1784 3584 
Q 2172 3584 2448 3432 
Q 2725 3281 2906 2969 
z
M 947 1747 
Q 947 1113 1208 752 
Q 1469 391 1925 391 
Q 2381 391 2643 752 
Q 2906 1113 2906 1747 
Q 2906 2381 2643 2742 
Q 2381 3103 1925 3103 
Q 1469 3103 1208 2742 
Q 947 2381 947 1747 
z
" transform="scale(0.015625)"/>
       <path id="DejaVuSans-77" d="M 269 3500 
L 844 3500 
L 1563 769 
L 2278 3500 
L 2956 3500 
L 3675 769 
L 4391 3500 
L 4966 3500 
L 4050 0 
L 3372 0 
L 2619 2869 
L 1863 0 
L 1184 0 
L 269 3500 
z
" transform="scale(0.015625)"/>
      </defs>
      <use xlink:href="#DejaVuSans-48"/>
      <use xlink:href="#DejaVuSans-69" x="75.195312"/>
      <use xlink:href="#DejaVuSans-6e" x="102.978516"/>
      <use xlink:href="#DejaVuSans-64" x="166.357422"/>
      <use xlink:href="#DejaVuSans-20" x="229.833984"/>
      <use xlink:href="#DejaVuSans-70" x="261.621094"/>
      <use xlink:href="#DejaVuSans-61" x="325.097656"/>
      <use xlink:href="#DejaVuSans-77" x="386.376953"/>
      <use xlink:href="#DejaVuSans-20" x="468.164062"/>
      <use xlink:href="#DejaVuSans-74" x="499.951172"/>
      <use xlink:href="#DejaVuSans-61" x="539.160156"/>
      <use xlink:href="#DejaVuSans-6f" x="600.439453"/>
      <use xlink:href="#DejaVuSans-20" x="661.621094"/>
     </g>
    </g>
    <g id="line2d_21">
     <path d="M 298.168438 50.094688 
L 308.168438 50.094688 
L 318.168438 50.094688 
" style="fill: none; stroke: #3b528b; stroke-width: 1.5; stroke-linecap: square"/>
    </g>
    <g id="text_19">
     <!-- Ankle  -->
     <g transform="translate(326.168438 53.594688) scale(0.1 -0.1)">
      <defs>
       <path id="DejaVuSans-41" d="M 2188 4044 
L 1331 1722 
L 3047 1722 
L 2188 4044 
z
M 1831 4666 
L 2547 4666 
L 4325 0 
L 3669 0 
L 3244 1197 
L 1141 1197 
L 716 0 
L 50 0 
L 1831 4666 
z
" transform="scale(0.015625)"/>
       <path id="DejaVuSans-6b" d="M 581 4863 
L 1159 4863 
L 1159 1991 
L 2875 3500 
L 3609 3500 
L 1753 1863 
L 3688 0 
L 2938 0 
L 1159 1709 
L 1159 0 
L 581 0 
L 581 4863 
z
" transform="scale(0.015625)"/>
      </defs>
      <use xlink:href="#DejaVuSans-41"/>
      <use xlink:href="#DejaVuSans-6e" x="68.408203"/>
      <use xlink:href="#DejaVuSans-6b" x="131.787109"/>
      <use xlink:href="#DejaVuSans-6c" x="189.697266"/>
      <use xlink:href="#DejaVuSans-65" x="217.480469"/>
      <use xlink:href="#DejaVuSans-20" x="279.003906"/>
     </g>
    </g>
    <g id="line2d_22">
     <path d="M 298.168438 64.772812 
L 308.168438 64.772812 
L 318.168438 64.772812 
" style="fill: none; stroke: #21918c; stroke-width: 1.5; stroke-linecap: square"/>
    </g>
    <g id="text_20">
     <!-- Knee  -->
     <g transform="translate(326.168438 68.272812) scale(0.1 -0.1)">
      <defs>
       <path id="DejaVuSans-4b" d="M 628 4666 
L 1259 4666 
L 1259 2694 
L 3353 4666 
L 4166 4666 
L 1850 2491 
L 4331 0 
L 3500 0 
L 1259 2247 
L 1259 0 
L 628 0 
L 628 4666 
z
" transform="scale(0.015625)"/>
      </defs>
      <use xlink:href="#DejaVuSans-4b"/>
      <use xlink:href="#DejaVuSans-6e" x="65.576172"/>
      <use xlink:href="#DejaVuSans-65" x="128.955078"/>
      <use xlink:href="#DejaVuSans-65" x="190.478516"/>
      <use xlink:href="#DejaVuSans-20" x="252.001953"/>
     </g>
    </g>
    <g id="line2d_23">
     <path d="M 298.168438 79.450938 
L 308.168438 79.450938 
L 318.168438 79.450938 
" style="fill: none; stroke: #5ec962; stroke-width: 1.5; stroke-linecap: square"/>
    </g>
    <g id="text_21">
     <!-- Hip  -->
     <g transform="translate(326.168438 82.950938) scale(0.1 -0.1)">
      <use xlink:href="#DejaVuSans-48"/>
      <use xlink:href="#DejaVuSans-69" x="75.195312"/>
      <use xlink:href="#DejaVuSans-70" x="102.978516"/>
      <use xlink:href="#DejaVuSans-20" x="166.455078"/>
     </g>
    </g>
    <g id="line2d_24">
     <path d="M 298.168438 94.129063 
L 308.168438 94.129063 
L 318.168438 94.129063 
" style="fill: none; stroke: #fde725; stroke-width: 1.5; stroke-linecap: square"/>
    </g>
    <g id="text_22">
     <!-- Iliac Crest  -->
     <g transform="translate(326.168438 97.629063) scale(0.1 -0.1)">
      <defs>
       <path id="DejaVuSans-49" d="M 628 4666 
L 1259 4666 
L 1259 0 
L 628 0 
L 628 4666 
z
" transform="scale(0.015625)"/>
       <path id="DejaVuSans-43" d="M 4122 4306 
L 4122 3641 
Q 3803 3938 3442 4084 
Q 3081 4231 2675 4231 
Q 1875 4231 1450 3742 
Q 1025 3253 1025 2328 
Q 1025 1406 1450 917 
Q 1875 428 2675 428 
Q 3081 428 3442 575 
Q 3803 722 4122 1019 
L 4122 359 
Q 3791 134 3420 21 
Q 3050 -91 2638 -91 
Q 1578 -91 968 557 
Q 359 1206 359 2328 
Q 359 3453 968 4101 
Q 1578 4750 2638 4750 
Q 3056 4750 3426 4639 
Q 3797 4528 4122 4306 
z
" transform="scale(0.015625)"/>
      </defs>
      <use xlink:href="#DejaVuSans-49"/>
      <use xlink:href="#DejaVuSans-6c" x="29.492188"/>
      <use xlink:href="#DejaVuSans-69" x="57.275391"/>
      <use xlink:href="#DejaVuSans-61" x="85.058594"/>
      <use xlink:href="#DejaVuSans-63" x="146.337891"/>
      <use xlink:href="#DejaVuSans-20" x="201.318359"/>
      <use xlink:href="#DejaVuSans-43" x="233.105469"/>
      <use xlink:href="#DejaVuSans-72" x="302.929688"/>
      <use xlink:href="#DejaVuSans-65" x="341.792969"/>
      <use xlink:href="#DejaVuSans-73" x="403.316406"/>
      <use xlink:href="#DejaVuSans-74" x="455.416016"/>
      <use xlink:href="#DejaVuSans-20" x="494.625"/>
     </g>
    </g>
   </g>
  </g>
 </g>
 <defs>
  <clipPath id="p34597e2c8c">
   <rect x="47.389063" y="22.318125" width="357.12" height="266.112"/>
  </clipPath>
 </defs>
</svg>
